<svg xmlns="http://www.w3.org/2000/svg" xmlns:xlink="http://www.w3.org/1999/xlink" preserveAspectRatio="xMidYMid meet" width="80" height="80" viewBox="0 0 80 80" style="width:100%;height:100%"><defs><animateMotion repeatCount="indefinite" dur="4.0333333s" begin="0s" xlink:href="#_R_G_L_0_G" fill="freeze" keyTimes="0;0.2479339;0.4958678;0.7438017;0.9917355;1" path="M26.25 38.61 C26.25,38.61 49.51,38.61 49.51,38.61 C49.51,38.61 26.25,38.61 26.25,38.61 C26.25,38.61 49.51,38.61 49.51,38.61 C49.51,38.61 26.25,38.61 26.25,38.61 C26.25,38.61 26.25,38.61 26.25,38.61 " keyPoints="0;0.25;0.5;0.75;1;1" keySplines="0.333 0 0.667 1;0.333 0 0.667 1;0.333 0 0.667 1;0.333 0 0.667 1;0 0 0 0" calcMode="spline"/><animateTransform repeatCount="indefinite" dur="4.0333333s" begin="0s" xlink:href="#_R_G_L_0_G" fill="freeze" attributeName="transform" from="8" to="368" type="rotate" additive="sum" keyTimes="0;0.9917355;1" values="8;368;368" keySplines="0.167 0.167 0.833 0.833;0 0 0 0" calcMode="spline"/><animateTransform repeatCount="indefinite" dur="4.0333333s" begin="0s" xlink:href="#_R_G_L_0_G" fill="freeze" attributeName="transform" from="-9.583 -8.56" to="-9.583 -8.56" type="translate" additive="sum" keyTimes="0;1" values="-9.583 -8.56;-9.583 -8.56" keySplines="0 0 1 1" calcMode="spline"/><animate attributeType="XML" attributeName="opacity" dur="4s" from="0" to="1" xlink:href="#time_group"/></defs><g id="_R_G"><g id="_R_G_L_0_G"><path id="_R_G_L_0_G_D_0_P_0" fill="#ffffff" fill-opacity="1" fill-rule="nonzero" d=" M10.89 7.55 C8.54,6.54 6.45,4.94 4.86,2.94 C4.34,2.28 3.7,1.5 2.87,1.59 C2.23,1.66 1.75,2.27 1.63,2.91 C1.5,3.54 1.65,4.19 1.81,4.82 C2.35,6.9 3.02,8.97 4.15,10.8 C5.29,12.62 6.92,14.2 8.95,14.92 C10.87,15.62 15.46,15.56 16.38,13.23 C17.67,9.97 12.95,8.44 10.89,7.55z "/><path id="_R_G_L_0_G_D_1_P_0" stroke="#343434" stroke-linecap="round" stroke-linejoin="round" fill="none" stroke-width="0.6" stroke-opacity="1" d=" M10.89 7.55 C8.54,6.54 6.45,4.94 4.86,2.94 C4.34,2.28 3.7,1.5 2.87,1.59 C2.23,1.66 1.75,2.27 1.63,2.91 C1.5,3.54 1.65,4.19 1.81,4.82 C2.35,6.9 3.02,8.97 4.15,10.8 C5.29,12.62 6.92,14.2 8.95,14.92 C10.87,15.62 15.46,15.56 16.38,13.23 C17.67,9.97 12.95,8.44 10.89,7.55z "/></g></g><g id="time_group"/></svg>