<svg xmlns="http://www.w3.org/2000/svg" xmlns:xlink="http://www.w3.org/1999/xlink" preserveAspectRatio="xMidYMid meet" width="64" height="64" viewBox="0 0 64 64" style="width:100%;height:100%"><defs><animateMotion repeatCount="indefinite" dur="4s" begin="0s" xlink:href="#_R_G_L_0_G" fill="freeze" keyTimes="0;0.25;0.5;0.75;1" path="M19.25 31.11 C19.25,31.11 42.51,31.11 42.51,31.11 C42.51,31.11 19.25,31.11 19.25,31.11 C19.25,31.11 42.51,31.11 42.51,31.11 C42.51,31.11 19.25,31.11 19.25,31.11 " keyPoints="0;0.25;0.5;0.75;1" keySplines="0.333 0 0.667 1;0.333 0 0.667 1;0.333 0 0.667 1;0.333 0 0.667 1" calcMode="spline"/><animateTransform repeatCount="indefinite" dur="4s" begin="0s" xlink:href="#_R_G_L_0_G" fill="freeze" attributeName="transform" from="8" to="368" type="rotate" additive="sum" keyTimes="0;1" values="8;368" keySplines="0.167 0.167 0.833 0.833" calcMode="spline"/><animateTransform repeatCount="indefinite" dur="4s" begin="0s" xlink:href="#_R_G_L_0_G" fill="freeze" attributeName="transform" from="-7.455 -11.263" to="-7.455 -11.263" type="translate" additive="sum" keyTimes="0;1" values="-7.455 -11.263;-7.455 -11.263" keySplines="0 0 1 1" calcMode="spline"/><animate attributeType="XML" attributeName="opacity" dur="4s" from="0" to="1" xlink:href="#time_group"/></defs><g id="_R_G"><g id="_R_G_L_0_G"><path id="_R_G_L_0_G_D_0_P_0" fill="#ffffff" fill-opacity="1" fill-rule="nonzero" d=" M2.74 10.51 C2.22,12.63 2.88,14.91 2.37,17.03 C2.08,18.22 1.5,19.66 2.37,20.51 C2.87,20.99 3.68,21.03 4.32,20.77 C4.96,20.51 5.48,20.01 5.96,19.51 C7.7,17.67 9.23,15.63 10.5,13.45 C11.56,11.63 13.41,8.98 12.58,6.79 C10.56,1.5 3.56,7.18 2.74,10.51z "/><path id="_R_G_L_0_G_D_1_P_0" stroke="#343434" stroke-linecap="round" stroke-linejoin="round" fill="none" stroke-width="0.6" stroke-opacity="1" d=" M2.74 10.51 C2.22,12.63 2.88,14.91 2.37,17.03 C2.08,18.22 1.5,19.66 2.37,20.51 C2.87,20.99 3.68,21.03 4.32,20.77 C4.96,20.51 5.48,20.01 5.96,19.51 C7.7,17.67 9.23,15.63 10.5,13.45 C11.56,11.63 13.41,8.98 12.58,6.79 C10.56,1.5 3.56,7.18 2.74,10.51z "/></g></g><g id="time_group"/></svg>