<svg xmlns="http://www.w3.org/2000/svg" xmlns:xlink="http://www.w3.org/1999/xlink" preserveAspectRatio="xMidYMid meet" width="80" height="80" viewBox="0 0 80 80" style="width:100%;height:100%"><defs><animateMotion repeatCount="indefinite" dur="5s" begin="0s" xlink:href="#_R_G_L_0_G" fill="freeze" keyTimes="0;0.2466667;0.5;0.76;0.9933333;1" path="M28 38.11 C28,38.11 53.76,38.11 53.76,38.11 C53.76,38.11 28,38.11 28,38.11 C28,38.11 53.76,38.11 53.76,38.11 C53.76,38.11 28,38.11 28,38.11 C28,38.11 28,38.11 28,38.11 " keyPoints="0;0.25;0.5;0.75;1;1" keySplines="0.333 0 0.667 1;0.333 0 0.667 1;0.333 0 0.667 1;0.333 0 0.667 1;0 0 0 0" calcMode="spline"/><animateTransform repeatCount="indefinite" dur="5s" begin="0s" xlink:href="#_R_G_L_0_G" fill="freeze" attributeName="transform" from="8" to="368" type="rotate" additive="sum" keyTimes="0;0.9933333;1" values="8;368;368" keySplines="0.167 0.167 0.833 0.833;0 0 0 0" calcMode="spline"/><animateTransform repeatCount="indefinite" dur="5s" begin="0s" xlink:href="#_R_G_L_0_G" fill="freeze" attributeName="transform" from="-24.182 -18.364" to="-24.182 -18.364" type="translate" additive="sum" keyTimes="0;1" values="-24.182 -18.364;-24.182 -18.364" keySplines="0 0 1 1" calcMode="spline"/><animate attributeType="XML" attributeName="opacity" dur="5s" from="0" to="1" xlink:href="#time_group"/></defs><g id="_R_G"><g id="_R_G_L_0_G"><path id="_R_G_L_0_G_D_0_P_0" fill="#ffffff" fill-opacity="1" fill-rule="nonzero" d=" M19.65 7.1 C17.66,4.56 14.92,2.46 11.74,1.89 C9.53,1.5 7.23,1.87 5.14,2.69 C3.91,3.17 2.65,3.9 2.17,5.12 C1.5,6.82 2.6,8.72 3.94,9.96 C8.3,13.99 14.99,14.22 20.05,17.35 C20.83,17.83 21.58,18.39 22.45,18.65 C23.33,18.9 24.39,18.78 24.98,18.08 C26,16.86 23.76,14.34 23.22,13.19 C22.22,11.06 21.11,8.96 19.65,7.1z "/><path id="_R_G_L_0_G_D_1_P_0" stroke="#343434" stroke-linecap="round" stroke-linejoin="round" fill="none" stroke-width="0.6" stroke-opacity="1" d=" M19.65 7.1 C17.66,4.56 14.92,2.46 11.74,1.89 C9.53,1.5 7.23,1.87 5.14,2.69 C3.91,3.17 2.65,3.9 2.17,5.12 C1.5,6.82 2.6,8.72 3.94,9.96 C8.3,13.99 14.99,14.22 20.05,17.35 C20.83,17.83 21.58,18.39 22.45,18.65 C23.33,18.9 24.39,18.78 24.98,18.08 C26,16.86 23.76,14.34 23.22,13.19 C22.22,11.06 21.11,8.96 19.65,7.1z "/></g></g><g id="time_group"/></svg>