<svg xmlns="http://www.w3.org/2000/svg" xmlns:xlink="http://www.w3.org/1999/xlink" preserveAspectRatio="xMidYMid meet" width="1512" height="281" viewBox="0 0 1512 281" style="width:100%;height:100%"><defs><animateTransform repeatCount="indefinite" dur="2.9666667s" begin="0s" xlink:href="#_R_G_L_0_G" fill="freeze" attributeName="transform" from="-3" to="-3" type="rotate" additive="sum" keyTimes="0;0.494382;1" values="-3;2;-3" keySplines="0.512 0 0.667 1;0.373 0 0.474 1" calcMode="spline"/><animateTransform repeatCount="indefinite" dur="2.9666667s" begin="0s" xlink:href="#_R_G_L_0_G" fill="freeze" attributeName="transform" from="-11.545 -80.671" to="-11.545 -80.671" type="translate" additive="sum" keyTimes="0;1" values="-11.545 -80.671;-11.545 -80.671" keySplines="0 0 1 1" calcMode="spline"/><animate attributeType="XML" attributeName="opacity" dur="3s" from="0" to="1" xlink:href="#time_group"/></defs><g id="_R_G"><g id="_R_G_L_2_G" transform=" translate(1368.601, 46.934) translate(-24.471, -25.646)"><path id="_R_G_L_2_G_D_0_P_0" fill="#ffffff" fill-opacity="1" fill-rule="nonzero" d=" M19.43 49.79 C19.43,49.79 16.43,49.74 16.43,49.74 C16.77,30.04 5.97,17.39 5.86,17.26 C5.86,17.26 8.12,15.29 8.12,15.29 C8.6,15.84 19.79,28.89 19.43,49.79z "/><path id="_R_G_L_2_G_D_1_P_0" stroke="#343434" stroke-linecap="round" stroke-linejoin="round" fill="none" stroke-width="0.6" stroke-opacity="1" d=" M19.43 49.79 C19.43,49.79 16.43,49.74 16.43,49.74 C16.77,30.04 5.97,17.39 5.86,17.26 C5.86,17.26 8.12,15.29 8.12,15.29 C8.6,15.84 19.79,28.89 19.43,49.79z "/><path id="_R_G_L_2_G_D_2_P_0" fill="#ffffff" fill-opacity="1" fill-rule="nonzero" d=" M9.26 13.19 C9.83,14.12 10.14,15.27 9.86,16.32 C9.61,17.25 8.96,18 8.32,18.71 C7.94,19.14 7.53,19.59 6.98,19.77 C6.41,19.96 5.78,19.82 5.22,19.6 C3.77,19.02 2.54,17.86 2.02,16.39 C1.5,14.92 1.76,13.17 2.78,12 C3.7,10.95 5.04,10.59 6.38,10.77 C7.69,10.94 8.59,12.1 9.26,13.19z "/><path id="_R_G_L_2_G_D_3_P_0" stroke="#343434" stroke-linecap="round" stroke-linejoin="round" fill="none" stroke-width="0.6" stroke-opacity="1" d=" M9.26 13.19 C9.83,14.12 10.14,15.27 9.86,16.32 C9.61,17.25 8.96,18 8.32,18.71 C7.94,19.14 7.53,19.59 6.98,19.77 C6.41,19.96 5.78,19.82 5.22,19.6 C3.77,19.02 2.54,17.86 2.02,16.39 C1.5,14.92 1.76,13.17 2.78,12 C3.7,10.95 5.04,10.59 6.38,10.77 C7.69,10.94 8.59,12.1 9.26,13.19z "/><path id="_R_G_L_2_G_D_4_P_0" fill="#ffffff" fill-opacity="1" fill-rule="nonzero" d=" M36.85 37.76 C36.85,37.76 33.85,37.86 33.85,37.86 C33.56,28.53 35.23,18.67 38.84,8.57 C38.84,8.57 41.66,9.58 41.66,9.58 C38.19,19.33 36.57,28.81 36.85,37.76z "/><path id="_R_G_L_2_G_D_5_P_0" stroke="#343434" stroke-linecap="round" stroke-linejoin="round" fill="none" stroke-width="0.6" stroke-opacity="1" d=" M36.85 37.76 C36.85,37.76 33.85,37.86 33.85,37.86 C33.56,28.53 35.23,18.67 38.84,8.57 C38.84,8.57 41.66,9.58 41.66,9.58 C38.19,19.33 36.57,28.81 36.85,37.76z "/><path id="_R_G_L_2_G_D_6_P_0" fill="#ffffff" fill-opacity="1" fill-rule="nonzero" d=" M34.95 16.86 C35.12,17.85 35.44,18.82 36.11,19.68 C36.3,19.92 36.52,20.15 36.88,20.3 C37.24,20.45 37.76,20.48 38.21,20.33 C38.65,20.17 38.91,19.87 39.12,19.59 C39.81,18.7 40.49,17.81 41.18,16.91 C44.22,12.98 47.32,8.87 47.42,4.85 C47.44,4.03 47.32,3.19 46.6,2.58 C45.75,1.86 43.7,1.5 42.39,2.38 C40.98,3.33 39.86,4.57 38.91,5.66 C36.9,7.96 35.59,10.42 35.07,12.84 C34.77,14.2 34.73,15.55 34.95,16.86z "/><path id="_R_G_L_2_G_D_7_P_0" stroke="#343434" stroke-linecap="round" stroke-linejoin="round" fill="none" stroke-width="0.6" stroke-opacity="1" d=" M34.95 16.86 C35.12,17.85 35.44,18.82 36.11,19.68 C36.3,19.92 36.52,20.15 36.88,20.3 C37.24,20.45 37.76,20.48 38.21,20.33 C38.65,20.17 38.91,19.87 39.12,19.59 C39.81,18.7 40.49,17.81 41.18,16.91 C44.22,12.98 47.32,8.87 47.42,4.85 C47.44,4.03 47.32,3.19 46.6,2.58 C45.75,1.86 43.7,1.5 42.39,2.38 C40.98,3.33 39.86,4.57 38.91,5.66 C36.9,7.96 35.59,10.42 35.07,12.84 C34.77,14.2 34.73,15.55 34.95,16.86z "/><path id="_R_G_L_2_G_D_8_P_0" fill="#ffffff" fill-opacity="1" fill-rule="nonzero" d=" M27.83 29.07 C23.6,25.06 19.49,20.38 18.62,14.63 C18.4,13.15 18.49,11.43 19.63,10.44 C20.93,9.31 22.96,9.68 24.48,10.48 C27.53,12.11 29.61,15.09 31.1,18.19 C32.58,21.29 33.6,24.61 35.18,27.67 C35.59,28.47 36.04,29.25 36.28,30.12 C36.76,31.85 35.68,34.46 33.47,33.87 C32.55,33.62 31.69,32.56 31.01,31.96 C29.93,31.01 28.87,30.05 27.83,29.07z "/><path id="_R_G_L_2_G_D_9_P_0" stroke="#343434" stroke-linecap="round" stroke-linejoin="round" fill="none" stroke-width="0.6" stroke-opacity="1" d=" M27.83 29.07 C23.6,25.06 19.49,20.38 18.62,14.63 C18.4,13.15 18.49,11.43 19.63,10.44 C20.93,9.31 22.96,9.68 24.48,10.48 C27.53,12.11 29.61,15.09 31.1,18.19 C32.58,21.29 33.6,24.61 35.18,27.67 C35.59,28.47 36.04,29.25 36.28,30.12 C36.76,31.85 35.68,34.46 33.47,33.87 C32.55,33.62 31.69,32.56 31.01,31.96 C29.93,31.01 28.87,30.05 27.83,29.07z "/></g><g id="_R_G_L_1_G" transform=" translate(1263.87, 66.784) translate(-20.107, -49.097)"><path id="_R_G_L_1_G_D_0_P_0" fill="#ffffff" fill-opacity="1" fill-rule="nonzero" d=" M36.06 84.16 C26.79,66.65 25.25,50.55 25.19,49.88 C25.19,49.88 28.18,49.6 28.18,49.6 C28.2,49.77 29.74,65.81 38.71,82.76 C38.71,82.76 36.06,84.16 36.06,84.16z "/><path id="_R_G_L_1_G_D_1_P_0" stroke="#343434" stroke-linecap="round" stroke-linejoin="round" fill="none" stroke-width="0.6" stroke-opacity="1" d=" M36.06 84.16 C26.79,66.65 25.25,50.55 25.19,49.88 C25.19,49.88 28.18,49.6 28.18,49.6 C28.2,49.77 29.74,65.81 38.71,82.76 C38.71,82.76 36.06,84.16 36.06,84.16z "/><path id="_R_G_L_1_G_D_2_P_0" fill="#ffffff" fill-opacity="1" fill-rule="nonzero" d=" M23.89 51.01 C24.63,51.69 25.48,52.26 26.53,52.53 C26.82,52.61 27.14,52.66 27.52,52.56 C27.89,52.45 28.33,52.16 28.59,51.76 C28.84,51.37 28.86,50.97 28.86,50.62 C28.85,49.49 28.85,48.37 28.85,47.24 C28.85,42.27 28.8,37.13 26.41,33.88 C25.93,33.22 25.32,32.63 24.37,32.59 C23.26,32.53 21.42,33.51 20.92,35 C20.39,36.61 20.26,38.29 20.17,39.73 C19.99,42.78 20.45,45.52 21.52,47.76 C22.12,49.02 22.91,50.11 23.89,51.01z "/><path id="_R_G_L_1_G_D_3_P_0" stroke="#343434" stroke-linecap="round" stroke-linejoin="round" fill="none" stroke-width="0.6" stroke-opacity="1" d=" M23.89 51.01 C24.63,51.69 25.48,52.26 26.53,52.53 C26.82,52.61 27.14,52.66 27.52,52.56 C27.89,52.45 28.33,52.16 28.59,51.76 C28.84,51.37 28.86,50.97 28.86,50.62 C28.85,49.49 28.85,48.37 28.85,47.24 C28.85,42.27 28.8,37.13 26.41,33.88 C25.93,33.22 25.32,32.63 24.37,32.59 C23.26,32.53 21.42,33.51 20.92,35 C20.39,36.61 20.26,38.29 20.17,39.73 C19.99,42.78 20.45,45.52 21.52,47.76 C22.12,49.02 22.91,50.11 23.89,51.01z "/><path id="_R_G_L_1_G_D_4_P_0" fill="#ffffff" fill-opacity="1" fill-rule="nonzero" d=" M19.14 96.69 C8.6,78.91 9.74,42.54 9.8,41 C9.8,41 13.8,41.14 13.8,41.14 C13.78,41.51 12.64,77.88 22.58,94.65 C22.58,94.65 19.14,96.69 19.14,96.69z "/><path id="_R_G_L_1_G_D_5_P_0" stroke="#343434" stroke-linecap="round" stroke-linejoin="round" fill="none" stroke-width="0.6" stroke-opacity="1" d=" M19.14 96.69 C8.6,78.91 9.74,42.54 9.8,41 C9.8,41 13.8,41.14 13.8,41.14 C13.78,41.51 12.64,77.88 22.58,94.65 C22.58,94.65 19.14,96.69 19.14,96.69z "/><path id="_R_G_L_1_G_D_6_P_0" fill="#ffffff" fill-opacity="1" fill-rule="nonzero" d=" M14.26 13.02 C15.56,17.15 16.87,21.42 16.7,25.68 C16.52,29.99 14.83,33.9 14.35,38.15 C14.14,40.04 14.16,42.03 13.55,43.77 C13.31,44.46 12.95,45.12 12.39,45.49 C11.83,45.85 11.04,45.84 10.52,45.31 C10.03,44.8 9.91,43.99 9.81,43.26 C9.14,38.74 7.5,34.43 5.9,30.16 C4.29,25.89 2.69,21.55 2.1,17.03 C1.5,12.51 2.02,7.71 4.35,4.29 C5.11,3.17 6.08,2.2 7.28,1.79 C8.13,1.5 9.09,1.53 9.95,1.94 C11.11,2.48 11.23,3.32 11.63,4.6 C12.51,7.41 13.38,10.21 14.26,13.02z "/><path id="_R_G_L_1_G_D_7_P_0" stroke="#343434" stroke-linecap="round" stroke-linejoin="round" fill="none" stroke-width="0.6" stroke-opacity="1" d=" M14.26 13.02 C15.56,17.15 16.87,21.42 16.7,25.68 C16.52,29.99 14.83,33.9 14.35,38.15 C14.14,40.04 14.16,42.03 13.55,43.77 C13.31,44.46 12.95,45.12 12.39,45.49 C11.83,45.85 11.04,45.84 10.52,45.31 C10.03,44.8 9.91,43.99 9.81,43.26 C9.14,38.74 7.5,34.43 5.9,30.16 C4.29,25.89 2.69,21.55 2.1,17.03 C1.5,12.51 2.02,7.71 4.35,4.29 C5.11,3.17 6.08,2.2 7.28,1.79 C8.13,1.5 9.09,1.53 9.95,1.94 C11.11,2.48 11.23,3.32 11.63,4.6 C12.51,7.41 13.38,10.21 14.26,13.02z "/></g><g id="_R_G_L_0_G" transform=" translate(1281.245, 95.171)"><path id="_R_G_L_0_G_D_0_P_0" fill="#ffffff" fill-opacity="1" fill-rule="nonzero" d=" M4.88 85.86 C17.29,57.03 10.07,33.67 10,33.43 C10,33.43 13.8,32.21 13.8,32.21 C14.13,33.21 21.59,57.16 8.55,87.45 C8.55,87.45 4.88,85.86 4.88,85.86z "/><path id="_R_G_L_0_G_D_1_P_0" stroke="#343434" stroke-linecap="round" stroke-linejoin="round" fill="none" stroke-width="0.6" stroke-opacity="1" d=" M4.88 85.86 C17.29,57.03 10.07,33.67 10,33.43 C10,33.43 13.8,32.21 13.8,32.21 C14.13,33.21 21.59,57.16 8.55,87.45 C8.55,87.45 4.88,85.86 4.88,85.86z "/><path id="_R_G_L_0_G_D_2_P_0" fill="#ffffff" fill-opacity="1" fill-rule="nonzero" d=" M6.48 29.05 C3.73,21.87 1.5,13.94 3.71,6.57 C4.28,4.67 5.35,2.66 7.26,2.12 C9.44,1.5 11.64,3.1 12.98,4.92 C15.68,8.59 16.46,13.34 16.48,17.89 C16.49,22.44 15.82,26.99 15.97,31.54 C16.01,32.73 16.1,33.93 15.9,35.1 C15.49,37.44 12.73,39.96 10.45,37.99 C9.51,37.17 9.08,35.41 8.61,34.31 C7.87,32.57 7.16,30.82 6.48,29.05z "/><path id="_R_G_L_0_G_D_3_P_0" stroke="#343434" stroke-linecap="round" stroke-linejoin="round" fill="none" stroke-width="0.6" stroke-opacity="1" d=" M6.48 29.05 C3.73,21.87 1.5,13.94 3.71,6.57 C4.28,4.67 5.35,2.66 7.26,2.12 C9.44,1.5 11.64,3.1 12.98,4.92 C15.68,8.59 16.46,13.34 16.48,17.89 C16.49,22.44 15.82,26.99 15.97,31.54 C16.01,32.73 16.1,33.93 15.9,35.1 C15.49,37.44 12.73,39.96 10.45,37.99 C9.51,37.17 9.08,35.41 8.61,34.31 C7.87,32.57 7.16,30.82 6.48,29.05z "/></g></g><g id="time_group"/></svg>