<svg xmlns="http://www.w3.org/2000/svg" xmlns:xlink="http://www.w3.org/1999/xlink" preserveAspectRatio="xMidYMid meet" width="1512" height="431" viewBox="0 0 1512 431" style="width:100%;height:100%"><defs><animateTransform repeatCount="indefinite" dur="2.9666667s" begin="0s" xlink:href="#_R_G_L_7_G" fill="freeze" attributeName="transform" from="-4" to="-4" type="rotate" additive="sum" keyTimes="0;0.5393258;1" values="-4;0;-4" keySplines="0.512 0 0.667 1;0.373 0 0.474 1" calcMode="spline"/><animateTransform repeatCount="indefinite" dur="2.9666667s" begin="0s" xlink:href="#_R_G_L_7_G" fill="freeze" attributeName="transform" from="-12.96 -133.551" to="-12.96 -133.551" type="translate" additive="sum" keyTimes="0;1" values="-12.96 -133.551;-12.96 -133.551" keySplines="0 0 1 1" calcMode="spline"/><animateTransform repeatCount="indefinite" dur="2.9666667s" begin="0s" xlink:href="#_R_G_L_6_G" fill="freeze" attributeName="transform" from="-5" to="-5" type="rotate" additive="sum" keyTimes="0;0.5168539;1" values="-5;0;-5" keySplines="0.512 0 0.667 1;0.373 0 0.474 1" calcMode="spline"/><animateTransform repeatCount="indefinite" dur="2.9666667s" begin="0s" xlink:href="#_R_G_L_6_G" fill="freeze" attributeName="transform" from="-34.865 -91.242" to="-34.865 -91.242" type="translate" additive="sum" keyTimes="0;1" values="-34.865 -91.242;-34.865 -91.242" keySplines="0 0 1 1" calcMode="spline"/><animateTransform repeatCount="indefinite" dur="2.9666667s" begin="0s" xlink:href="#_R_G_L_4_G" fill="freeze" attributeName="transform" from="-4" to="-4" type="rotate" additive="sum" keyTimes="0;0.4157303;1" values="-4;0;-4" keySplines="0.512 0 0.667 1;0.373 0 0.474 1" calcMode="spline"/><animateTransform repeatCount="indefinite" dur="2.9666667s" begin="0s" xlink:href="#_R_G_L_4_G" fill="freeze" attributeName="transform" from="-9.637 -87.761" to="-9.637 -87.761" type="translate" additive="sum" keyTimes="0;1" values="-9.637 -87.761;-9.637 -87.761" keySplines="0 0 1 1" calcMode="spline"/><animateTransform repeatCount="indefinite" dur="2.9666667s" begin="0s" xlink:href="#_R_G_L_3_G" fill="freeze" attributeName="transform" from="-6" to="-6" type="rotate" additive="sum" keyTimes="0;0.494382;1" values="-6;-1;-6" keySplines="0.512 0 0.667 1;0.373 0 0.474 1" calcMode="spline"/><animateTransform repeatCount="indefinite" dur="2.9666667s" begin="0s" xlink:href="#_R_G_L_3_G" fill="freeze" attributeName="transform" from="-52.918 -215.149" to="-52.918 -215.149" type="translate" additive="sum" keyTimes="0;1" values="-52.918 -215.149;-52.918 -215.149" keySplines="0 0 1 1" calcMode="spline"/><animateTransform repeatCount="indefinite" dur="2.9666667s" begin="0s" xlink:href="#_R_G_L_1_G" fill="freeze" attributeName="transform" from="-2" to="-2" type="rotate" additive="sum" keyTimes="0;0.6067416;1" values="-2;3;-2" keySplines="0.512 0 0.667 1;0.373 0 0.474 1" calcMode="spline"/><animateTransform repeatCount="indefinite" dur="2.9666667s" begin="0s" xlink:href="#_R_G_L_1_G" fill="freeze" attributeName="transform" from="-44.266 -67.728" to="-44.266 -67.728" type="translate" additive="sum" keyTimes="0;1" values="-44.266 -67.728;-44.266 -67.728" keySplines="0 0 1 1" calcMode="spline"/><animateTransform repeatCount="indefinite" dur="2.9666667s" begin="0s" xlink:href="#_R_G_L_0_G" fill="freeze" attributeName="transform" from="-4" to="-4" type="rotate" additive="sum" keyTimes="0;0.494382;1" values="-4;0;-4" keySplines="0.512 0 0.667 1;0.373 0 0.474 1" calcMode="spline"/><animateTransform repeatCount="indefinite" dur="2.9666667s" begin="0s" xlink:href="#_R_G_L_0_G" fill="freeze" attributeName="transform" from="-13.686 -83.65" to="-13.686 -83.65" type="translate" additive="sum" keyTimes="0;1" values="-13.686 -83.65;-13.686 -83.65" keySplines="0 0 1 1" calcMode="spline"/><animate attributeType="XML" attributeName="opacity" dur="3s" from="0" to="1" xlink:href="#time_group"/></defs><g id="_R_G"><g id="_R_G_L_8_G" transform=" translate(78.198, 154.518) translate(-25.332, -65.466)"><path id="_R_G_L_8_G_D_0_P_0" fill="#ffffff" fill-opacity="1" fill-rule="nonzero" d=" M39.47 54.95 C39.47,54.95 35.99,52.97 35.99,52.97 C35.57,53.71 29.07,65.29 25.24,78.05 C22.77,60.05 21.97,45.72 21.96,45.45 C21.96,45.45 15.97,45.77 15.97,45.77 C16.08,47.88 18.85,97.79 30.76,129.43 C30.76,129.43 36.37,127.32 36.37,127.32 C32.12,116.02 29.05,102.05 26.87,88.87 C29.03,73.53 39.34,55.17 39.47,54.95z "/><path id="_R_G_L_8_G_D_1_P_0" stroke="#343434" stroke-linecap="round" stroke-linejoin="round" fill="none" stroke-width="0.6" stroke-opacity="1" d=" M39.47 54.95 C39.47,54.95 35.99,52.97 35.99,52.97 C35.57,53.71 29.07,65.29 25.24,78.05 C22.77,60.05 21.97,45.72 21.96,45.45 C21.96,45.45 15.97,45.77 15.97,45.77 C16.08,47.88 18.85,97.79 30.76,129.43 C30.76,129.43 36.37,127.32 36.37,127.32 C32.12,116.02 29.05,102.05 26.87,88.87 C29.03,73.53 39.34,55.17 39.47,54.95z "/><path id="_R_G_L_8_G_D_2_P_0" fill="#ffffff" fill-opacity="1" fill-rule="nonzero" d=" M15.78 54.49 C14.4,52.84 13.67,50.76 12.97,48.73 C12.97,48.73 5.9,28.37 5.9,28.37 C3.7,22.06 1.5,15.17 3.67,8.85 C4.4,6.74 5.65,4.74 7.52,3.54 C10.68,1.5 15.06,2.17 18.06,4.43 C21.07,6.68 22.85,10.23 23.87,13.85 C25.57,19.93 25.33,26.36 25.08,32.66 C24.84,39 24.59,45.33 24.34,51.66 C24.25,53.94 25.22,57.69 22.25,57.71 C19.84,57.72 17.29,56.31 15.78,54.49z "/><path id="_R_G_L_8_G_D_3_P_0" stroke="#343434" stroke-linecap="round" stroke-linejoin="round" fill="none" stroke-width="0.6" stroke-opacity="1" d=" M15.78 54.49 C14.4,52.84 13.67,50.76 12.97,48.73 C12.97,48.73 5.9,28.37 5.9,28.37 C3.7,22.06 1.5,15.17 3.67,8.85 C4.4,6.74 5.65,4.74 7.52,3.54 C10.68,1.5 15.06,2.17 18.06,4.43 C21.07,6.68 22.85,10.23 23.87,13.85 C25.57,19.93 25.33,26.36 25.08,32.66 C24.84,39 24.59,45.33 24.34,51.66 C24.25,53.94 25.22,57.69 22.25,57.71 C19.84,57.72 17.29,56.31 15.78,54.49z "/><path id="_R_G_L_8_G_D_4_P_0" fill="#ffffff" fill-opacity="1" fill-rule="nonzero" d=" M34.91 50.91 C36.08,45.2 37.89,39.24 42.32,35.47 C43.46,34.5 44.97,33.66 46.41,34.11 C48.06,34.62 48.82,36.54 48.93,38.25 C49.16,41.7 47.73,45.04 45.88,47.94 C44.03,50.85 41.74,53.45 39.98,56.41 C39.52,57.18 39.09,57.98 38.48,58.64 C37.26,59.96 34.47,60.42 33.81,58.23 C33.54,57.32 33.98,56.02 34.13,55.13 C34.37,53.72 34.63,52.31 34.91,50.91z "/><path id="_R_G_L_8_G_D_5_P_0" stroke="#343434" stroke-linecap="round" stroke-linejoin="round" fill="none" stroke-width="0.6" stroke-opacity="1" d=" M34.91 50.91 C36.08,45.2 37.89,39.24 42.32,35.47 C43.46,34.5 44.97,33.66 46.41,34.11 C48.06,34.62 48.82,36.54 48.93,38.25 C49.16,41.7 47.73,45.04 45.88,47.94 C44.03,50.85 41.74,53.45 39.98,56.41 C39.52,57.18 39.09,57.98 38.48,58.64 C37.26,59.96 34.47,60.42 33.81,58.23 C33.54,57.32 33.98,56.02 34.13,55.13 C34.37,53.72 34.63,52.31 34.91,50.91z "/></g><g id="_R_G_L_7_G" transform=" translate(527.478, 181.058)"><path id="_R_G_L_7_G_D_0_P_0" fill="#ffffff" fill-opacity="1" fill-rule="nonzero" d=" M5.81 145.49 C5.81,145.49 1.5,141.31 1.5,141.31 C31.72,110.18 47.06,85.14 54.6,69.61 C62.76,52.82 63.8,43.26 63.81,43.16 C63.81,43.16 69.78,43.74 69.78,43.74 C69.63,45.36 65.32,84.19 5.81,145.49z "/><path id="_R_G_L_7_G_D_1_P_0" stroke="#343434" stroke-linecap="round" stroke-linejoin="round" fill="none" stroke-width="0.6" stroke-opacity="1" d=" M5.81 145.49 C5.81,145.49 1.5,141.31 1.5,141.31 C31.72,110.18 47.06,85.14 54.6,69.61 C62.76,52.82 63.8,43.26 63.81,43.16 C63.81,43.16 69.78,43.74 69.78,43.74 C69.63,45.36 65.32,84.19 5.81,145.49z "/><path id="_R_G_L_7_G_D_2_P_0" fill="#ffffff" fill-opacity="1" fill-rule="nonzero" d=" M64.23 35.92 C65.1,27.64 66.1,18.99 70.72,12.08 C72.85,8.89 75.66,6.23 78.44,3.6 C79.51,2.58 80.77,1.5 82.23,1.62 C84.25,1.78 85.35,4.06 85.73,6.06 C86.95,12.43 85.12,19.03 82.33,24.89 C79.55,30.75 75.82,36.12 72.89,41.91 C72.09,43.5 71.33,45.16 70.09,46.45 C69.2,47.38 67.96,48.17 66.64,48.29 C64.84,48.46 64.65,47.53 64.28,45.92 C63.52,42.64 63.88,39.22 64.23,35.92z "/><path id="_R_G_L_7_G_D_3_P_0" stroke="#343434" stroke-linecap="round" stroke-linejoin="round" fill="none" stroke-width="0.6" stroke-opacity="1" d=" M64.23 35.92 C65.1,27.64 66.1,18.99 70.72,12.08 C72.85,8.89 75.66,6.23 78.44,3.6 C79.51,2.58 80.77,1.5 82.23,1.62 C84.25,1.78 85.35,4.06 85.73,6.06 C86.95,12.43 85.12,19.03 82.33,24.89 C79.55,30.75 75.82,36.12 72.89,41.91 C72.09,43.5 71.33,45.16 70.09,46.45 C69.2,47.38 67.96,48.17 66.64,48.29 C64.84,48.46 64.65,47.53 64.28,45.92 C63.52,42.64 63.88,39.22 64.23,35.92z "/></g><g id="_R_G_L_6_G" transform=" translate(572.606, 196.218)"><path id="_R_G_L_6_G_D_0_P_0" fill="#ffffff" fill-opacity="1" fill-rule="nonzero" d=" M34.53 103.65 C34.53,103.65 28.85,101.71 28.85,101.71 C37.1,77.48 23.44,46.42 23.3,46.11 C23.3,46.11 28.78,43.66 28.78,43.66 C29.39,45.02 43.55,77.16 34.53,103.65z "/><path id="_R_G_L_6_G_D_1_P_0" stroke="#343434" stroke-linecap="round" stroke-linejoin="round" fill="none" stroke-width="0.6" stroke-opacity="1" d=" M34.53 103.65 C34.53,103.65 28.85,101.71 28.85,101.71 C37.1,77.48 23.44,46.42 23.3,46.11 C23.3,46.11 28.78,43.66 28.78,43.66 C29.39,45.02 43.55,77.16 34.53,103.65z "/><path id="_R_G_L_6_G_D_2_P_0" fill="#ffffff" fill-opacity="1" fill-rule="nonzero" d=" M19.15 11.96 C22.29,16.02 25.52,20.22 26.82,25.18 C28.14,30.2 27.37,35.55 28.28,40.65 C28.68,42.93 29.42,45.18 29.26,47.48 C29.2,48.4 28.98,49.35 28.39,50.05 C27.8,50.76 26.77,51.16 25.92,50.81 C25.1,50.48 24.67,49.62 24.26,48.84 C21.79,44.02 18.13,39.93 14.54,35.88 C10.94,31.83 7.32,27.7 4.94,22.84 C2.55,17.98 1.5,12.22 3.27,7.1 C3.85,5.43 4.75,3.82 6.14,2.74 C7.12,1.97 8.37,1.5 9.63,1.52 C11.31,1.55 11.76,2.45 12.74,3.7 C14.87,6.45 17.01,9.21 19.15,11.96z "/><path id="_R_G_L_6_G_D_3_P_0" stroke="#343434" stroke-linecap="round" stroke-linejoin="round" fill="none" stroke-width="0.6" stroke-opacity="1" d=" M19.15 11.96 C22.29,16.02 25.52,20.22 26.82,25.18 C28.14,30.2 27.37,35.55 28.28,40.65 C28.68,42.93 29.42,45.18 29.26,47.48 C29.2,48.4 28.98,49.35 28.39,50.05 C27.8,50.76 26.77,51.16 25.92,50.81 C25.1,50.48 24.67,49.62 24.26,48.84 C21.79,44.02 18.13,39.93 14.54,35.88 C10.94,31.83 7.32,27.7 4.94,22.84 C2.55,17.98 1.5,12.22 3.27,7.1 C3.85,5.43 4.75,3.82 6.14,2.74 C7.12,1.97 8.37,1.5 9.63,1.52 C11.31,1.55 11.76,2.45 12.74,3.7 C14.87,6.45 17.01,9.21 19.15,11.96z "/></g><g id="_R_G_L_5_G" transform=" translate(673.064, 161.212) translate(-115.115, -53.691)"><path id="_R_G_L_5_G_D_0_P_0" fill="#ffffff" fill-opacity="1" fill-rule="nonzero" d=" M63.97 13.02 C65.27,17.15 66.58,21.42 66.41,25.68 C66.23,29.99 64.54,33.9 64.06,38.15 C63.85,40.04 63.87,42.03 63.26,43.77 C63.02,44.46 62.66,45.12 62.1,45.49 C61.54,45.85 60.75,45.84 60.23,45.31 C59.74,44.8 59.63,43.99 59.52,43.26 C58.85,38.74 57.21,34.43 55.61,30.16 C54,25.89 52.4,21.55 51.8,17.03 C51.21,12.51 51.73,7.71 54.06,4.29 C54.82,3.17 55.79,2.2 56.99,1.79 C57.84,1.5 58.8,1.53 59.66,1.94 C60.82,2.48 60.93,3.32 61.34,4.6 C62.22,7.41 63.09,10.21 63.97,13.02z "/><path id="_R_G_L_5_G_D_1_P_0" stroke="#343434" stroke-linecap="round" stroke-linejoin="round" fill="none" stroke-width="0.6" stroke-opacity="1" d=" M63.97 13.02 C65.27,17.15 66.58,21.42 66.41,25.68 C66.23,29.99 64.54,33.9 64.06,38.15 C63.85,40.04 63.87,42.03 63.26,43.77 C63.02,44.46 62.66,45.12 62.1,45.49 C61.54,45.85 60.75,45.84 60.23,45.31 C59.74,44.8 59.63,43.99 59.52,43.26 C58.85,38.74 57.21,34.43 55.61,30.16 C54,25.89 52.4,21.55 51.8,17.03 C51.21,12.51 51.73,7.71 54.06,4.29 C54.82,3.17 55.79,2.2 56.99,1.79 C57.84,1.5 58.8,1.53 59.66,1.94 C60.82,2.48 60.93,3.32 61.34,4.6 C62.22,7.41 63.09,10.21 63.97,13.02z "/><path id="_R_G_L_5_G_D_2_P_0" fill="#ffffff" fill-opacity="1" fill-rule="nonzero" d=" M61.69 93.33 C58.11,72.73 67.16,58.11 67.54,57.5 C67.54,57.5 70.08,59.1 70.08,59.1 C69.99,59.24 61.27,73.4 64.65,92.82 C64.65,92.82 61.69,93.33 61.69,93.33z "/><path id="_R_G_L_5_G_D_3_P_0" stroke="#343434" stroke-linecap="round" stroke-linejoin="round" fill="none" stroke-width="0.6" stroke-opacity="1" d=" M61.69 93.33 C58.11,72.73 67.16,58.11 67.54,57.5 C67.54,57.5 70.08,59.1 70.08,59.1 C69.99,59.24 61.27,73.4 64.65,92.82 C64.65,92.82 61.69,93.33 61.69,93.33z "/><path id="_R_G_L_5_G_D_4_P_0" fill="#ffffff" fill-opacity="1" fill-rule="nonzero" d=" M66.87 56.21 C66.94,57.21 67.16,58.21 67.74,59.13 C67.9,59.38 68.1,59.64 68.44,59.82 C68.78,60 69.3,60.09 69.76,59.98 C70.22,59.87 70.5,59.59 70.74,59.34 C71.52,58.52 72.29,57.7 73.06,56.89 C76.48,53.27 79.98,49.51 80.49,45.51 C80.59,44.7 80.55,43.85 79.9,43.17 C79.13,42.37 77.12,41.81 75.73,42.55 C74.23,43.35 72.99,44.47 71.93,45.46 C69.7,47.55 68.15,49.86 67.39,52.22 C66.96,53.54 66.78,54.88 66.87,56.21z "/><path id="_R_G_L_5_G_D_5_P_0" stroke="#343434" stroke-linecap="round" stroke-linejoin="round" fill="none" stroke-width="0.6" stroke-opacity="1" d=" M66.87 56.21 C66.94,57.21 67.16,58.21 67.74,59.13 C67.9,59.38 68.1,59.64 68.44,59.82 C68.78,60 69.3,60.09 69.76,59.98 C70.22,59.87 70.5,59.59 70.74,59.34 C71.52,58.52 72.29,57.7 73.06,56.89 C76.48,53.27 79.98,49.51 80.49,45.51 C80.59,44.7 80.55,43.85 79.9,43.17 C79.13,42.37 77.12,41.81 75.73,42.55 C74.23,43.35 72.99,44.47 71.93,45.46 C69.7,47.55 68.15,49.86 67.39,52.22 C66.96,53.54 66.78,54.88 66.87,56.21z "/><path id="_R_G_L_5_G_D_6_P_0" fill="#ffffff" fill-opacity="1" fill-rule="nonzero" d=" M209.83 100.61 C206.25,80 215.3,65.38 215.69,64.77 C215.69,64.77 218.22,66.37 218.22,66.37 C218.13,66.51 209.41,80.67 212.79,100.09 C212.79,100.09 209.83,100.61 209.83,100.61z "/><path id="_R_G_L_5_G_D_7_P_0" stroke="#343434" stroke-linecap="round" stroke-linejoin="round" fill="none" stroke-width="0.6" stroke-opacity="1" d=" M209.83 100.61 C206.25,80 215.3,65.38 215.69,64.77 C215.69,64.77 218.22,66.37 218.22,66.37 C218.13,66.51 209.41,80.67 212.79,100.09 C212.79,100.09 209.83,100.61 209.83,100.61z "/><path id="_R_G_L_5_G_D_8_P_0" fill="#ffffff" fill-opacity="1" fill-rule="nonzero" d=" M215.01 63.48 C215.08,64.48 215.3,65.48 215.88,66.4 C216.04,66.65 216.23,66.91 216.58,67.09 C216.92,67.27 217.44,67.36 217.9,67.25 C218.36,67.14 218.64,66.86 218.88,66.61 C219.65,65.79 220.43,64.97 221.2,64.16 C224.62,60.55 228.12,56.78 228.63,52.78 C228.73,51.97 228.69,51.12 228.03,50.44 C227.27,49.64 225.26,49.08 223.87,49.82 C222.37,50.62 221.13,51.74 220.07,52.74 C217.84,54.82 216.29,57.13 215.53,59.49 C215.1,60.81 214.92,62.15 215.01,63.48z "/><path id="_R_G_L_5_G_D_9_P_0" stroke="#343434" stroke-linecap="round" stroke-linejoin="round" fill="none" stroke-width="0.6" stroke-opacity="1" d=" M215.01 63.48 C215.08,64.48 215.3,65.48 215.88,66.4 C216.04,66.65 216.23,66.91 216.58,67.09 C216.92,67.27 217.44,67.36 217.9,67.25 C218.36,67.14 218.64,66.86 218.88,66.61 C219.65,65.79 220.43,64.97 221.2,64.16 C224.62,60.55 228.12,56.78 228.63,52.78 C228.73,51.97 228.69,51.12 228.03,50.44 C227.27,49.64 225.26,49.08 223.87,49.82 C222.37,50.62 221.13,51.74 220.07,52.74 C217.84,54.82 216.29,57.13 215.53,59.49 C215.1,60.81 214.92,62.15 215.01,63.48z "/><path id="_R_G_L_5_G_D_10_P_0" fill="#ffffff" fill-opacity="1" fill-rule="nonzero" d=" M87.13 101.66 C87.13,101.66 90.13,101.75 90.13,101.75 C90.42,92.42 88.74,82.57 85.14,72.47 C85.14,72.47 82.31,73.47 82.31,73.47 C85.79,83.22 87.41,92.7 87.13,101.66z "/><path id="_R_G_L_5_G_D_11_P_0" stroke="#343434" stroke-linecap="round" stroke-linejoin="round" fill="none" stroke-width="0.6" stroke-opacity="1" d=" M87.13 101.66 C87.13,101.66 90.13,101.75 90.13,101.75 C90.42,92.42 88.74,82.57 85.14,72.47 C85.14,72.47 82.31,73.47 82.31,73.47 C85.79,83.22 87.41,92.7 87.13,101.66z "/><path id="_R_G_L_5_G_D_12_P_0" fill="#ffffff" fill-opacity="1" fill-rule="nonzero" d=" M89.02 80.75 C88.85,81.74 88.53,82.71 87.87,83.57 C87.68,83.81 87.46,84.05 87.1,84.19 C86.74,84.34 86.21,84.38 85.77,84.22 C85.32,84.06 85.07,83.76 84.86,83.48 C84.17,82.59 83.48,81.7 82.8,80.81 C79.76,76.87 76.65,72.77 76.55,68.74 C76.53,67.93 76.66,67.09 77.38,66.47 C78.22,65.75 80.28,65.39 81.59,66.27 C82.99,67.22 84.12,68.46 85.07,69.56 C87.08,71.86 88.39,74.31 88.91,76.73 C89.21,78.09 89.25,79.45 89.02,80.75z "/><path id="_R_G_L_5_G_D_13_P_0" stroke="#343434" stroke-linecap="round" stroke-linejoin="round" fill="none" stroke-width="0.6" stroke-opacity="1" d=" M89.02 80.75 C88.85,81.74 88.53,82.71 87.87,83.57 C87.68,83.81 87.46,84.05 87.1,84.19 C86.74,84.34 86.21,84.38 85.77,84.22 C85.32,84.06 85.07,83.76 84.86,83.48 C84.17,82.59 83.48,81.7 82.8,80.81 C79.76,76.87 76.65,72.77 76.55,68.74 C76.53,67.93 76.66,67.09 77.38,66.47 C78.22,65.75 80.28,65.39 81.59,66.27 C82.99,67.22 84.12,68.46 85.07,69.56 C87.08,71.86 88.39,74.31 88.91,76.73 C89.21,78.09 89.25,79.45 89.02,80.75z "/><path id="_R_G_L_5_G_D_14_P_0" fill="#ffffff" fill-opacity="1" fill-rule="nonzero" d=" M96.14 92.96 C100.37,88.96 104.48,84.28 105.35,78.53 C105.58,77.04 105.49,75.32 104.35,74.33 C103.05,73.2 101.01,73.57 99.5,74.38 C96.45,76 94.37,78.98 92.88,82.08 C91.39,85.19 90.38,88.5 88.8,91.56 C88.39,92.36 87.93,93.15 87.69,94.01 C87.22,95.74 88.3,98.36 90.51,97.76 C91.43,97.51 92.29,96.45 92.97,95.85 C94.05,94.91 95.1,93.94 96.14,92.96z "/><path id="_R_G_L_5_G_D_15_P_0" stroke="#343434" stroke-linecap="round" stroke-linejoin="round" fill="none" stroke-width="0.6" stroke-opacity="1" d=" M96.14 92.96 C100.37,88.96 104.48,84.28 105.35,78.53 C105.58,77.04 105.49,75.32 104.35,74.33 C103.05,73.2 101.01,73.57 99.5,74.38 C96.45,76 94.37,78.98 92.88,82.08 C91.39,85.19 90.38,88.5 88.8,91.56 C88.39,92.36 87.93,93.15 87.69,94.01 C87.22,95.74 88.3,98.36 90.51,97.76 C91.43,97.51 92.29,96.45 92.97,95.85 C94.05,94.91 95.1,93.94 96.14,92.96z "/><path id="_R_G_L_5_G_D_16_P_0" fill="#ffffff" fill-opacity="1" fill-rule="nonzero" d=" M97.52 93.49 C97.43,85.79 98.08,77.58 102.71,71.43 C103.9,69.85 105.61,68.34 107.58,68.49 C109.84,68.67 111.35,70.93 111.98,73.1 C113.24,77.48 112.33,82.2 110.76,86.48 C109.2,90.76 107,94.79 105.56,99.11 C105.18,100.24 104.85,101.39 104.26,102.42 C103.06,104.48 99.61,105.88 98.15,103.25 C97.54,102.15 97.75,100.36 97.7,99.16 C97.6,97.27 97.54,95.38 97.52,93.49z "/><path id="_R_G_L_5_G_D_17_P_0" stroke="#343434" stroke-linecap="round" stroke-linejoin="round" fill="none" stroke-width="0.6" stroke-opacity="1" d=" M97.52 93.49 C97.43,85.79 98.08,77.58 102.71,71.43 C103.9,69.85 105.61,68.34 107.58,68.49 C109.84,68.67 111.35,70.93 111.98,73.1 C113.24,77.48 112.33,82.2 110.76,86.48 C109.2,90.76 107,94.79 105.56,99.11 C105.18,100.24 104.85,101.39 104.26,102.42 C103.06,104.48 99.61,105.88 98.15,103.25 C97.54,102.15 97.75,100.36 97.7,99.16 C97.6,97.27 97.54,95.38 97.52,93.49z "/><path id="_R_G_L_5_G_D_18_P_0" fill="#ffffff" fill-opacity="1" fill-rule="nonzero" d=" M147.88 102.51 C147.88,102.51 144.88,102.6 144.88,102.6 C144.59,93.27 146.26,83.42 149.86,73.32 C149.86,73.32 152.69,74.33 152.69,74.33 C149.22,84.07 147.59,93.55 147.88,102.51z "/><path id="_R_G_L_5_G_D_19_P_0" stroke="#343434" stroke-linecap="round" stroke-linejoin="round" fill="none" stroke-width="0.6" stroke-opacity="1" d=" M147.88 102.51 C147.88,102.51 144.88,102.6 144.88,102.6 C144.59,93.27 146.26,83.42 149.86,73.32 C149.86,73.32 152.69,74.33 152.69,74.33 C149.22,84.07 147.59,93.55 147.88,102.51z "/><path id="_R_G_L_5_G_D_20_P_0" fill="#ffffff" fill-opacity="1" fill-rule="nonzero" d=" M145.98 81.6 C146.15,82.59 146.47,83.57 147.14,84.42 C147.32,84.66 147.55,84.9 147.91,85.04 C148.27,85.19 148.79,85.23 149.24,85.07 C149.68,84.91 149.94,84.61 150.15,84.33 C150.84,83.44 151.52,82.55 152.21,81.66 C155.25,77.72 158.35,73.62 158.45,69.59 C158.47,68.78 158.35,67.94 157.63,67.32 C156.78,66.6 154.73,66.24 153.42,67.12 C152.01,68.07 150.89,69.31 149.93,70.41 C147.93,72.71 146.62,75.16 146.09,77.58 C145.8,78.94 145.76,80.3 145.98,81.6z "/><path id="_R_G_L_5_G_D_21_P_0" stroke="#343434" stroke-linecap="round" stroke-linejoin="round" fill="none" stroke-width="0.6" stroke-opacity="1" d=" M145.98 81.6 C146.15,82.59 146.47,83.57 147.14,84.42 C147.32,84.66 147.55,84.9 147.91,85.04 C148.27,85.19 148.79,85.23 149.24,85.07 C149.68,84.91 149.94,84.61 150.15,84.33 C150.84,83.44 151.52,82.55 152.21,81.66 C155.25,77.72 158.35,73.62 158.45,69.59 C158.47,68.78 158.35,67.94 157.63,67.32 C156.78,66.6 154.73,66.24 153.42,67.12 C152.01,68.07 150.89,69.31 149.93,70.41 C147.93,72.71 146.62,75.16 146.09,77.58 C145.8,78.94 145.76,80.3 145.98,81.6z "/><path id="_R_G_L_5_G_D_22_P_0" fill="#ffffff" fill-opacity="1" fill-rule="nonzero" d=" M138.86 93.81 C134.63,89.81 130.52,85.13 129.65,79.38 C129.43,77.89 129.52,76.17 130.66,75.18 C131.96,74.05 133.99,74.42 135.51,75.23 C138.56,76.85 140.64,79.83 142.13,82.93 C143.61,86.04 144.63,89.35 146.21,92.41 C146.62,93.21 147.07,94 147.31,94.86 C147.79,96.59 146.71,99.21 144.5,98.61 C143.58,98.36 142.72,97.3 142.04,96.7 C140.96,95.76 139.9,94.79 138.86,93.81z "/><path id="_R_G_L_5_G_D_23_P_0" stroke="#343434" stroke-linecap="round" stroke-linejoin="round" fill="none" stroke-width="0.6" stroke-opacity="1" d=" M138.86 93.81 C134.63,89.81 130.52,85.13 129.65,79.38 C129.43,77.89 129.52,76.17 130.66,75.18 C131.96,74.05 133.99,74.42 135.51,75.23 C138.56,76.85 140.64,79.83 142.13,82.93 C143.61,86.04 144.63,89.35 146.21,92.41 C146.62,93.21 147.07,94 147.31,94.86 C147.79,96.59 146.71,99.21 144.5,98.61 C143.58,98.36 142.72,97.3 142.04,96.7 C140.96,95.76 139.9,94.79 138.86,93.81z "/><path id="_R_G_L_5_G_D_24_P_0" fill="#ffffff" fill-opacity="1" fill-rule="nonzero" d=" M68.85 96.69 C58.31,78.91 59.45,42.54 59.51,41 C59.51,41 63.51,41.14 63.51,41.14 C63.49,41.51 62.35,77.88 72.29,94.65 C72.29,94.65 68.85,96.69 68.85,96.69z "/><path id="_R_G_L_5_G_D_25_P_0" stroke="#343434" stroke-linecap="round" stroke-linejoin="round" fill="none" stroke-width="0.6" stroke-opacity="1" d=" M68.85 96.69 C58.31,78.91 59.45,42.54 59.51,41 C59.51,41 63.51,41.14 63.51,41.14 C63.49,41.51 62.35,77.88 72.29,94.65 C72.29,94.65 68.85,96.69 68.85,96.69z "/><path id="_R_G_L_5_G_D_26_P_0" fill="#ffffff" fill-opacity="1" fill-rule="nonzero" d=" M14.3 88.47 C14.3,88.47 11.53,85.59 11.53,85.59 C22.44,75.08 27.53,42.29 27.58,41.96 C27.58,41.96 31.54,42.57 31.54,42.57 C31.33,43.97 26.19,77.02 14.3,88.47z "/><path id="_R_G_L_5_G_D_27_P_0" stroke="#343434" stroke-linecap="round" stroke-linejoin="round" fill="none" stroke-width="0.6" stroke-opacity="1" d=" M14.3 88.47 C14.3,88.47 11.53,85.59 11.53,85.59 C22.44,75.08 27.53,42.29 27.58,41.96 C27.58,41.96 31.54,42.57 31.54,42.57 C31.33,43.97 26.19,77.02 14.3,88.47z "/><path id="_R_G_L_5_G_D_28_P_0" fill="#ffffff" fill-opacity="1" fill-rule="nonzero" d=" M23.46 90.01 C21.09,72.72 36.08,46.03 36.72,44.9 C36.72,44.9 40.2,46.88 40.2,46.88 C40.05,47.14 25.23,73.52 27.42,89.46 C27.42,89.46 23.46,90.01 23.46,90.01z "/><path id="_R_G_L_5_G_D_29_P_0" stroke="#343434" stroke-linecap="round" stroke-linejoin="round" fill="none" stroke-width="0.6" stroke-opacity="1" d=" M23.46 90.01 C21.09,72.72 36.08,46.03 36.72,44.9 C36.72,44.9 40.2,46.88 40.2,46.88 C40.05,47.14 25.23,73.52 27.42,89.46 C27.42,89.46 23.46,90.01 23.46,90.01z "/><path id="_R_G_L_5_G_D_30_P_0" fill="#ffffff" fill-opacity="1" fill-rule="nonzero" d=" M35.65 42.84 C36.82,37.13 38.63,31.17 43.06,27.4 C44.2,26.43 45.71,25.59 47.15,26.04 C48.8,26.55 49.55,28.47 49.67,30.19 C49.9,33.63 48.46,36.97 46.61,39.87 C44.76,42.78 42.48,45.38 40.71,48.34 C40.25,49.11 39.82,49.91 39.21,50.57 C37.99,51.89 35.2,52.35 34.55,50.16 C34.27,49.25 34.72,47.95 34.87,47.06 C35.1,45.65 35.36,44.24 35.65,42.84z "/><path id="_R_G_L_5_G_D_31_P_0" stroke="#343434" stroke-linecap="round" stroke-linejoin="round" fill="none" stroke-width="0.6" stroke-opacity="1" d=" M35.65 42.84 C36.82,37.13 38.63,31.17 43.06,27.4 C44.2,26.43 45.71,25.59 47.15,26.04 C48.8,26.55 49.55,28.47 49.67,30.19 C49.9,33.63 48.46,36.97 46.61,39.87 C44.76,42.78 42.48,45.38 40.71,48.34 C40.25,49.11 39.82,49.91 39.21,50.57 C37.99,51.89 35.2,52.35 34.55,50.16 C34.27,49.25 34.72,47.95 34.87,47.06 C35.1,45.65 35.36,44.24 35.65,42.84z "/><path id="_R_G_L_5_G_D_32_P_0" fill="#ffffff" fill-opacity="1" fill-rule="nonzero" d=" M26.55 36.34 C26.21,29.3 25.92,21.94 28.38,15.56 C29.51,12.63 31.18,10.05 32.84,7.49 C33.48,6.51 34.24,5.44 35.29,5.36 C36.73,5.24 37.76,7.01 38.26,8.63 C39.86,13.81 39.33,19.56 38.05,24.82 C36.76,30.08 34.75,35.04 33.35,40.26 C32.97,41.69 32.63,43.17 31.91,44.41 C31.38,45.31 30.6,46.12 29.68,46.39 C28.44,46.76 28.19,46.01 27.74,44.7 C26.83,42.06 26.69,39.15 26.55,36.34z "/><path id="_R_G_L_5_G_D_33_P_0" stroke="#343434" stroke-linecap="round" stroke-linejoin="round" fill="none" stroke-width="0.6" stroke-opacity="1" d=" M26.55 36.34 C26.21,29.3 25.92,21.94 28.38,15.56 C29.51,12.63 31.18,10.05 32.84,7.49 C33.48,6.51 34.24,5.44 35.29,5.36 C36.73,5.24 37.76,7.01 38.26,8.63 C39.86,13.81 39.33,19.56 38.05,24.82 C36.76,30.08 34.75,35.04 33.35,40.26 C32.97,41.69 32.63,43.17 31.91,44.41 C31.38,45.31 30.6,46.12 29.68,46.39 C28.44,46.76 28.19,46.01 27.74,44.7 C26.83,42.06 26.69,39.15 26.55,36.34z "/><path id="_R_G_L_5_G_D_34_P_0" fill="#ffffff" fill-opacity="1" fill-rule="nonzero" d=" M1.86 81.91 C1.5,61 12.69,47.95 13.17,47.41 C13.17,47.41 15.43,49.38 15.43,49.38 C15.32,49.51 4.52,62.15 4.86,81.86 C4.86,81.86 1.86,81.91 1.86,81.91z "/><path id="_R_G_L_5_G_D_35_P_0" stroke="#343434" stroke-linecap="round" stroke-linejoin="round" fill="none" stroke-width="0.6" stroke-opacity="1" d=" M1.86 81.91 C1.5,61 12.69,47.95 13.17,47.41 C13.17,47.41 15.43,49.38 15.43,49.38 C15.32,49.51 4.52,62.15 4.86,81.86 C4.86,81.86 1.86,81.91 1.86,81.91z "/><path id="_R_G_L_5_G_D_36_P_0" fill="#ffffff" fill-opacity="1" fill-rule="nonzero" d=" M13.73 42.45 C13.07,43.53 12.71,44.86 13.04,46.09 C13.32,47.16 14.08,48.03 14.82,48.86 C15.26,49.36 15.74,49.88 16.38,50.09 C17.04,50.3 17.77,50.14 18.42,49.89 C20.1,49.22 21.53,47.87 22.13,46.16 C22.73,44.46 22.43,42.43 21.24,41.07 C20.18,39.85 18.63,39.43 17.07,39.64 C15.56,39.85 14.5,41.19 13.73,42.45z "/><path id="_R_G_L_5_G_D_37_P_0" stroke="#343434" stroke-linecap="round" stroke-linejoin="round" fill="none" stroke-width="0.6" stroke-opacity="1" d=" M13.73 42.45 C13.07,43.53 12.71,44.86 13.04,46.09 C13.32,47.16 14.08,48.03 14.82,48.86 C15.26,49.36 15.74,49.88 16.38,50.09 C17.04,50.3 17.77,50.14 18.42,49.89 C20.1,49.22 21.53,47.87 22.13,46.16 C22.73,44.46 22.43,42.43 21.24,41.07 C20.18,39.85 18.63,39.43 17.07,39.64 C15.56,39.85 14.5,41.19 13.73,42.45z "/></g><g id="_R_G_L_4_G" transform=" translate(584.854, 223.875)"><path id="_R_G_L_4_G_D_0_P_0" fill="#ffffff" fill-opacity="1" fill-rule="nonzero" d=" M9.65 98.33 C1.5,66.23 24.68,32.31 25.67,30.88 C25.67,30.88 30.6,34.3 30.6,34.3 C30.38,34.63 7.99,67.43 15.46,96.86 C15.46,96.86 9.65,98.33 9.65,98.33z "/><path id="_R_G_L_4_G_D_1_P_0" stroke="#343434" stroke-linecap="round" stroke-linejoin="round" fill="none" stroke-width="0.6" stroke-opacity="1" d=" M9.65 98.33 C1.5,66.23 24.68,32.31 25.67,30.88 C25.67,30.88 30.6,34.3 30.6,34.3 C30.38,34.63 7.99,67.43 15.46,96.86 C15.46,96.86 9.65,98.33 9.65,98.33z "/><path id="_R_G_L_4_G_D_2_P_0" fill="#ffffff" fill-opacity="1" fill-rule="nonzero" d=" M29.47 22.57 C33.89,14.48 39.42,6.33 47.89,2.88 C50.08,1.99 52.76,1.5 54.74,2.93 C57.01,4.55 57.27,7.88 56.64,10.55 C55.39,15.92 51.66,20.27 47.5,23.73 C43.34,27.19 38.66,29.99 34.6,33.57 C33.54,34.51 32.52,35.51 31.28,36.2 C28.82,37.58 24.37,36.84 24.39,33.15 C24.4,31.62 25.67,29.88 26.32,28.6 C27.33,26.57 28.38,24.56 29.47,22.57z "/><path id="_R_G_L_4_G_D_3_P_0" stroke="#343434" stroke-linecap="round" stroke-linejoin="round" fill="none" stroke-width="0.6" stroke-opacity="1" d=" M29.47 22.57 C33.89,14.48 39.42,6.33 47.89,2.88 C50.08,1.99 52.76,1.5 54.74,2.93 C57.01,4.55 57.27,7.88 56.64,10.55 C55.39,15.92 51.66,20.27 47.5,23.73 C43.34,27.19 38.66,29.99 34.6,33.57 C33.54,34.51 32.52,35.51 31.28,36.2 C28.82,37.58 24.37,36.84 24.39,33.15 C24.4,31.62 25.67,29.88 26.32,28.6 C27.33,26.57 28.38,24.56 29.47,22.57z "/></g><g id="_R_G_L_3_G" transform=" translate(969.921, 231.356)"><path id="_R_G_L_3_G_D_0_P_0" fill="#ffffff" fill-opacity="1" fill-rule="nonzero" d=" M35.81 89.06 C35.81,89.06 38.06,87.08 38.06,87.08 C31.9,80.06 23.95,74.01 14.43,69.09 C14.43,69.09 13.05,71.75 13.05,71.75 C22.24,76.5 29.9,82.32 35.81,89.06z "/><path id="_R_G_L_3_G_D_1_P_0" stroke="#343434" stroke-linecap="round" stroke-linejoin="round" fill="none" stroke-width="0.6" stroke-opacity="1" d=" M35.81 89.06 C35.81,89.06 38.06,87.08 38.06,87.08 C31.9,80.06 23.95,74.01 14.43,69.09 C14.43,69.09 13.05,71.75 13.05,71.75 C22.24,76.5 29.9,82.32 35.81,89.06z "/><path id="_R_G_L_3_G_D_2_P_0" fill="#ffffff" fill-opacity="1" fill-rule="nonzero" d=" M7.46 69.21 C7.49,70.09 7.83,70.94 8.31,71.68 C8.89,72.55 9.69,73.29 10.66,73.66 C12.62,74.41 15.06,73.32 15.87,71.39 C16.69,69.47 15.82,67 14,65.96 C11.54,64.57 7.35,66.03 7.46,69.21z "/><path id="_R_G_L_3_G_D_3_P_0" stroke="#343434" stroke-linecap="round" stroke-linejoin="round" fill="none" stroke-width="0.6" stroke-opacity="1" d=" M7.46 69.21 C7.49,70.09 7.83,70.94 8.31,71.68 C8.89,72.55 9.69,73.29 10.66,73.66 C12.62,74.41 15.06,73.32 15.87,71.39 C16.69,69.47 15.82,67 14,65.96 C11.54,64.57 7.35,66.03 7.46,69.21z "/><path id="_R_G_L_3_G_D_4_P_0" fill="#ffffff" fill-opacity="1" fill-rule="nonzero" d=" M20.95 43.07 C20.95,43.07 15.68,45.96 15.68,45.96 C15.94,46.42 32.18,76.58 42.18,123.52 C36.97,119.11 32.16,113.73 27.82,107.43 C27.82,107.43 25.35,109.13 25.35,109.13 C30.62,116.79 36.59,123.16 43.12,128.13 C48.19,153.53 51.3,183.5 49.18,216.15 C49.18,216.15 55.16,216.54 55.16,216.54 C61.56,118.38 21.35,43.82 20.95,43.07z "/><path id="_R_G_L_3_G_D_5_P_0" stroke="#343434" stroke-linecap="round" stroke-linejoin="round" fill="none" stroke-width="0.6" stroke-opacity="1" d=" M20.95 43.07 C20.95,43.07 15.68,45.96 15.68,45.96 C15.94,46.42 32.18,76.58 42.18,123.52 C36.97,119.11 32.16,113.73 27.82,107.43 C27.82,107.43 25.35,109.13 25.35,109.13 C30.62,116.79 36.59,123.16 43.12,128.13 C48.19,153.53 51.3,183.5 49.18,216.15 C49.18,216.15 55.16,216.54 55.16,216.54 C61.56,118.38 21.35,43.82 20.95,43.07z "/><path id="_R_G_L_3_G_D_6_P_0" fill="#ffffff" fill-opacity="1" fill-rule="nonzero" d=" M16.9 10.54 C16.44,7.39 15.56,3.7 12.61,2.53 C10.03,1.5 7,3.09 5.47,5.41 C3.95,7.73 3.56,10.59 3.22,13.35 C2.3,20.58 1.5,28.4 5.1,34.74 C7.43,38.83 11.27,41.7 14.17,45.33 C15.45,46.93 18.89,54.3 21.86,52.16 C23.74,50.8 22.12,45.44 21.83,43.67 C21.01,38.57 20.3,33.46 19.54,28.35 C18.66,22.41 17.78,16.48 16.9,10.54z "/><path id="_R_G_L_3_G_D_7_P_0" stroke="#343434" stroke-linecap="round" stroke-linejoin="round" fill="none" stroke-width="0.6" stroke-opacity="1" d=" M16.9 10.54 C16.44,7.39 15.56,3.7 12.61,2.53 C10.03,1.5 7,3.09 5.47,5.41 C3.95,7.73 3.56,10.59 3.22,13.35 C2.3,20.58 1.5,28.4 5.1,34.74 C7.43,38.83 11.27,41.7 14.17,45.33 C15.45,46.93 18.89,54.3 21.86,52.16 C23.74,50.8 22.12,45.44 21.83,43.67 C21.01,38.57 20.3,33.46 19.54,28.35 C18.66,22.41 17.78,16.48 16.9,10.54z "/><path id="_R_G_L_3_G_D_8_P_0" fill="#ffffff" fill-opacity="1" fill-rule="nonzero" d=" M23.28 109.39 C19.61,104.87 16.15,99.68 16.04,93.87 C16.01,92.37 16.33,90.68 17.59,89.85 C19.02,88.89 20.99,89.53 22.39,90.53 C25.2,92.54 26.87,95.76 27.94,99.04 C29.01,102.31 29.58,105.73 30.74,108.96 C31.05,109.81 31.39,110.65 31.52,111.54 C31.76,113.32 30.35,115.77 28.24,114.89 C27.36,114.52 26.64,113.35 26.04,112.67 C25.1,111.6 24.18,110.5 23.28,109.39z "/><path id="_R_G_L_3_G_D_9_P_0" stroke="#343434" stroke-linecap="round" stroke-linejoin="round" fill="none" stroke-width="0.6" stroke-opacity="1" d=" M23.28 109.39 C19.61,104.87 16.15,99.68 16.04,93.87 C16.01,92.37 16.33,90.68 17.59,89.85 C19.02,88.89 20.99,89.53 22.39,90.53 C25.2,92.54 26.87,95.76 27.94,99.04 C29.01,102.31 29.58,105.73 30.74,108.96 C31.05,109.81 31.39,110.65 31.52,111.54 C31.76,113.32 30.35,115.77 28.24,114.89 C27.36,114.52 26.64,113.35 26.04,112.67 C25.1,111.6 24.18,110.5 23.28,109.39z "/></g><g id="_R_G_L_2_G" transform=" translate(922.635, 167.318) translate(-45.072, -65.466)"><path id="_R_G_L_2_G_D_0_P_0" fill="#ffffff" fill-opacity="1" fill-rule="nonzero" d=" M55.08 126.15 C51.29,104.09 55.6,79.19 55.79,78.14 C55.79,78.14 59.73,78.83 59.73,78.83 C59.68,79.08 55.35,104.12 59.02,125.48 C59.02,125.48 55.08,126.15 55.08,126.15z "/><path id="_R_G_L_2_G_D_1_P_0" stroke="#343434" stroke-linecap="round" stroke-linejoin="round" fill="none" stroke-width="0.6" stroke-opacity="1" d=" M55.08 126.15 C51.29,104.09 55.6,79.19 55.79,78.14 C55.79,78.14 59.73,78.83 59.73,78.83 C59.68,79.08 55.35,104.12 59.02,125.48 C59.02,125.48 55.08,126.15 55.08,126.15z "/><path id="_R_G_L_2_G_D_2_P_0" fill="#ffffff" fill-opacity="1" fill-rule="nonzero" d=" M54.33 75.81 C54.53,78.04 54.93,80.28 55.78,82.36 C56.02,82.94 56.31,83.52 56.77,83.94 C57.24,84.35 57.92,84.58 58.5,84.35 C59.09,84.12 59.42,83.51 59.71,82.95 C60.62,81.16 61.54,79.37 62.45,77.58 C66.49,69.66 70.62,61.4 70.83,52.51 C70.87,50.71 70.73,48.82 69.8,47.26 C68.72,45.45 66.04,44.11 64.32,45.71 C62.47,47.43 60.98,49.89 59.71,52.06 C57.05,56.62 55.29,61.7 54.56,66.93 C54.15,69.87 54.07,72.85 54.33,75.81z "/><path id="_R_G_L_2_G_D_3_P_0" stroke="#343434" stroke-linecap="round" stroke-linejoin="round" fill="none" stroke-width="0.6" stroke-opacity="1" d=" M54.33 75.81 C54.53,78.04 54.93,80.28 55.78,82.36 C56.02,82.94 56.31,83.52 56.77,83.94 C57.24,84.35 57.92,84.58 58.5,84.35 C59.09,84.12 59.42,83.51 59.71,82.95 C60.62,81.16 61.54,79.37 62.45,77.58 C66.49,69.66 70.62,61.4 70.83,52.51 C70.87,50.71 70.73,48.82 69.8,47.26 C68.72,45.45 66.04,44.11 64.32,45.71 C62.47,47.43 60.98,49.89 59.71,52.06 C57.05,56.62 55.29,61.7 54.56,66.93 C54.15,69.87 54.07,72.85 54.33,75.81z "/><path id="_R_G_L_2_G_D_4_P_0" fill="#ffffff" fill-opacity="1" fill-rule="nonzero" d=" M17.57 107.44 C8.3,89.93 6.76,73.83 6.7,73.15 C6.7,73.15 9.69,72.88 9.69,72.88 C9.71,73.04 11.25,89.08 20.23,106.03 C20.23,106.03 17.57,107.44 17.57,107.44z "/><path id="_R_G_L_2_G_D_5_P_0" stroke="#343434" stroke-linecap="round" stroke-linejoin="round" fill="none" stroke-width="0.6" stroke-opacity="1" d=" M17.57 107.44 C8.3,89.93 6.76,73.83 6.7,73.15 C6.7,73.15 9.69,72.88 9.69,72.88 C9.71,73.04 11.25,89.08 20.23,106.03 C20.23,106.03 17.57,107.44 17.57,107.44z "/><path id="_R_G_L_2_G_D_6_P_0" fill="#ffffff" fill-opacity="1" fill-rule="nonzero" d=" M5.4 74.29 C6.14,74.96 6.99,75.54 8.04,75.81 C8.34,75.88 8.65,75.93 9.03,75.83 C9.4,75.72 9.84,75.43 10.1,75.04 C10.35,74.64 10.37,74.25 10.37,73.89 C10.37,72.77 10.36,71.64 10.36,70.52 C10.36,65.55 10.31,60.4 7.92,57.16 C7.44,56.5 6.83,55.91 5.88,55.86 C4.77,55.81 2.93,56.79 2.43,58.28 C1.9,59.89 1.77,61.56 1.68,63.01 C1.5,66.05 1.96,68.8 3.03,71.04 C3.63,72.29 4.42,73.39 5.4,74.29z "/><path id="_R_G_L_2_G_D_7_P_0" stroke="#343434" stroke-linecap="round" stroke-linejoin="round" fill="none" stroke-width="0.6" stroke-opacity="1" d=" M5.4 74.29 C6.14,74.96 6.99,75.54 8.04,75.81 C8.34,75.88 8.65,75.93 9.03,75.83 C9.4,75.72 9.84,75.43 10.1,75.04 C10.35,74.64 10.37,74.25 10.37,73.89 C10.37,72.77 10.36,71.64 10.36,70.52 C10.36,65.55 10.31,60.4 7.92,57.16 C7.44,56.5 6.83,55.91 5.88,55.86 C4.77,55.81 2.93,56.79 2.43,58.28 C1.9,59.89 1.77,61.56 1.68,63.01 C1.5,66.05 1.96,68.8 3.03,71.04 C3.63,72.29 4.42,73.39 5.4,74.29z "/><path id="_R_G_L_2_G_D_8_P_0" fill="#ffffff" fill-opacity="1" fill-rule="nonzero" d=" M78.05 114.89 C78.05,114.89 75.05,114.98 75.05,114.98 C74.76,105.65 76.43,95.8 80.04,85.7 C80.04,85.7 82.86,86.7 82.86,86.7 C79.39,96.45 77.77,105.93 78.05,114.89z "/><path id="_R_G_L_2_G_D_9_P_0" stroke="#343434" stroke-linecap="round" stroke-linejoin="round" fill="none" stroke-width="0.6" stroke-opacity="1" d=" M78.05 114.89 C78.05,114.89 75.05,114.98 75.05,114.98 C74.76,105.65 76.43,95.8 80.04,85.7 C80.04,85.7 82.86,86.7 82.86,86.7 C79.39,96.45 77.77,105.93 78.05,114.89z "/><path id="_R_G_L_2_G_D_10_P_0" fill="#ffffff" fill-opacity="1" fill-rule="nonzero" d=" M76.15 93.98 C76.32,94.97 76.64,95.95 77.31,96.8 C77.5,97.04 77.72,97.28 78.08,97.42 C78.44,97.57 78.96,97.61 79.41,97.45 C79.86,97.29 80.11,96.99 80.32,96.71 C81.01,95.82 81.7,94.93 82.38,94.04 C85.42,90.1 88.52,86 88.62,81.97 C88.64,81.16 88.52,80.32 87.8,79.7 C86.96,78.98 84.9,78.62 83.59,79.5 C82.19,80.45 81.06,81.69 80.11,82.79 C78.1,85.09 76.79,87.54 76.27,89.96 C75.97,91.32 75.93,92.68 76.15,93.98z "/><path id="_R_G_L_2_G_D_11_P_0" stroke="#343434" stroke-linecap="round" stroke-linejoin="round" fill="none" stroke-width="0.6" stroke-opacity="1" d=" M76.15 93.98 C76.32,94.97 76.64,95.95 77.31,96.8 C77.5,97.04 77.72,97.28 78.08,97.42 C78.44,97.57 78.96,97.61 79.41,97.45 C79.86,97.29 80.11,96.99 80.32,96.71 C81.01,95.82 81.7,94.93 82.38,94.04 C85.42,90.1 88.52,86 88.62,81.97 C88.64,81.16 88.52,80.32 87.8,79.7 C86.96,78.98 84.9,78.62 83.59,79.5 C82.19,80.45 81.06,81.69 80.11,82.79 C78.1,85.09 76.79,87.54 76.27,89.96 C75.97,91.32 75.93,92.68 76.15,93.98z "/><path id="_R_G_L_2_G_D_12_P_0" fill="#ffffff" fill-opacity="1" fill-rule="nonzero" d=" M69.03 106.19 C64.8,102.19 60.69,97.51 59.82,91.76 C59.6,90.27 59.69,88.55 60.83,87.56 C62.13,86.43 64.16,86.8 65.68,87.61 C68.73,89.23 70.81,92.21 72.3,95.31 C73.79,98.42 74.8,101.73 76.38,104.79 C76.79,105.59 77.25,106.38 77.48,107.24 C77.96,108.97 76.88,111.59 74.67,110.99 C73.75,110.74 72.89,109.68 72.21,109.08 C71.13,108.14 70.07,107.17 69.03,106.19z "/><path id="_R_G_L_2_G_D_13_P_0" stroke="#343434" stroke-linecap="round" stroke-linejoin="round" fill="none" stroke-width="0.6" stroke-opacity="1" d=" M69.03 106.19 C64.8,102.19 60.69,97.51 59.82,91.76 C59.6,90.27 59.69,88.55 60.83,87.56 C62.13,86.43 64.16,86.8 65.68,87.61 C68.73,89.23 70.81,92.21 72.3,95.31 C73.79,98.42 74.8,101.73 76.38,104.79 C76.79,105.59 77.25,106.38 77.48,107.24 C77.96,108.97 76.88,111.59 74.67,110.99 C73.75,110.74 72.89,109.68 72.21,109.08 C71.13,108.14 70.07,107.17 69.03,106.19z "/><path id="_R_G_L_2_G_D_14_P_0" fill="#ffffff" fill-opacity="1" fill-rule="nonzero" d=" M48.08 54.95 C48.08,54.95 44.6,52.97 44.6,52.97 C44.19,53.71 37.68,65.29 33.85,78.05 C31.38,60.05 30.59,45.72 30.58,45.45 C30.58,45.45 24.58,45.77 24.58,45.77 C24.7,47.88 27.46,97.79 39.37,129.43 C39.37,129.43 44.99,127.32 44.99,127.32 C40.74,116.02 37.67,102.05 35.48,88.87 C37.65,73.53 47.96,55.17 48.08,54.95z "/><path id="_R_G_L_2_G_D_15_P_0" stroke="#343434" stroke-linecap="round" stroke-linejoin="round" fill="none" stroke-width="0.6" stroke-opacity="1" d=" M48.08 54.95 C48.08,54.95 44.6,52.97 44.6,52.97 C44.19,53.71 37.68,65.29 33.85,78.05 C31.38,60.05 30.59,45.72 30.58,45.45 C30.58,45.45 24.58,45.77 24.58,45.77 C24.7,47.88 27.46,97.79 39.37,129.43 C39.37,129.43 44.99,127.32 44.99,127.32 C40.74,116.02 37.67,102.05 35.48,88.87 C37.65,73.53 47.96,55.17 48.08,54.95z "/><path id="_R_G_L_2_G_D_16_P_0" fill="#ffffff" fill-opacity="1" fill-rule="nonzero" d=" M24.39 54.49 C23.02,52.84 22.29,50.76 21.58,48.73 C19.23,41.94 16.87,35.16 14.51,28.37 C12.32,22.06 10.12,15.17 12.29,8.85 C13.01,6.74 14.27,4.74 16.14,3.54 C19.29,1.5 23.68,2.17 26.68,4.43 C29.68,6.68 31.47,10.23 32.48,13.85 C34.18,19.93 33.95,26.36 33.7,32.66 C33.45,39 33.2,45.33 32.95,51.66 C32.86,53.94 33.83,57.69 30.87,57.71 C28.46,57.72 25.91,56.31 24.39,54.49z "/><path id="_R_G_L_2_G_D_17_P_0" stroke="#343434" stroke-linecap="round" stroke-linejoin="round" fill="none" stroke-width="0.6" stroke-opacity="1" d=" M24.39 54.49 C23.02,52.84 22.29,50.76 21.58,48.73 C19.23,41.94 16.87,35.16 14.51,28.37 C12.32,22.06 10.12,15.17 12.29,8.85 C13.01,6.74 14.27,4.74 16.14,3.54 C19.29,1.5 23.68,2.17 26.68,4.43 C29.68,6.68 31.47,10.23 32.48,13.85 C34.18,19.93 33.95,26.36 33.7,32.66 C33.45,39 33.2,45.33 32.95,51.66 C32.86,53.94 33.83,57.69 30.87,57.71 C28.46,57.72 25.91,56.31 24.39,54.49z "/><path id="_R_G_L_2_G_D_18_P_0" fill="#ffffff" fill-opacity="1" fill-rule="nonzero" d=" M43.53 50.91 C44.7,45.2 46.51,39.24 50.94,35.47 C52.08,34.5 53.59,33.66 55.03,34.11 C56.68,34.62 57.43,36.54 57.55,38.25 C57.78,41.7 56.34,45.04 54.49,47.94 C52.64,50.85 50.36,53.45 48.59,56.41 C48.13,57.18 47.7,57.98 47.09,58.64 C45.87,59.96 43.08,60.42 42.43,58.23 C42.15,57.32 42.6,56.02 42.75,55.13 C42.98,53.72 43.24,52.31 43.53,50.91z "/><path id="_R_G_L_2_G_D_19_P_0" stroke="#343434" stroke-linecap="round" stroke-linejoin="round" fill="none" stroke-width="0.6" stroke-opacity="1" d=" M43.53 50.91 C44.7,45.2 46.51,39.24 50.94,35.47 C52.08,34.5 53.59,33.66 55.03,34.11 C56.68,34.62 57.43,36.54 57.55,38.25 C57.78,41.7 56.34,45.04 54.49,47.94 C52.64,50.85 50.36,53.45 48.59,56.41 C48.13,57.18 47.7,57.98 47.09,58.64 C45.87,59.96 43.08,60.42 42.43,58.23 C42.15,57.32 42.6,56.02 42.75,55.13 C42.98,53.72 43.24,52.31 43.53,50.91z "/><path id="_R_G_L_2_G_D_20_P_0" fill="#ffffff" fill-opacity="1" fill-rule="nonzero" d=" M62.47 119.23 C62.47,119.23 59.47,119.18 59.47,119.18 C59.81,99.47 49.01,86.83 48.9,86.7 C48.9,86.7 51.16,84.73 51.16,84.73 C51.63,85.27 62.83,98.32 62.47,119.23z "/><path id="_R_G_L_2_G_D_21_P_0" stroke="#343434" stroke-linecap="round" stroke-linejoin="round" fill="none" stroke-width="0.6" stroke-opacity="1" d=" M62.47 119.23 C62.47,119.23 59.47,119.18 59.47,119.18 C59.81,99.47 49.01,86.83 48.9,86.7 C48.9,86.7 51.16,84.73 51.16,84.73 C51.63,85.27 62.83,98.32 62.47,119.23z "/><path id="_R_G_L_2_G_D_22_P_0" fill="#ffffff" fill-opacity="1" fill-rule="nonzero" d=" M52.29 82.62 C52.86,83.56 53.17,84.7 52.89,85.76 C52.65,86.68 51.99,87.43 51.36,88.15 C50.97,88.58 50.57,89.03 50.01,89.21 C49.44,89.4 48.81,89.25 48.26,89.03 C46.81,88.46 45.57,87.29 45.05,85.82 C44.54,84.36 44.79,82.6 45.82,81.43 C46.74,80.38 48.07,80.02 49.41,80.2 C50.72,80.38 51.63,81.54 52.29,82.62z "/><path id="_R_G_L_2_G_D_23_P_0" stroke="#343434" stroke-linecap="round" stroke-linejoin="round" fill="none" stroke-width="0.6" stroke-opacity="1" d=" M52.29 82.62 C52.86,83.56 53.17,84.7 52.89,85.76 C52.65,86.68 51.99,87.43 51.36,88.15 C50.97,88.58 50.57,89.03 50.01,89.21 C49.44,89.4 48.81,89.25 48.26,89.03 C46.81,88.46 45.57,87.29 45.05,85.82 C44.54,84.36 44.79,82.6 45.82,81.43 C46.74,80.38 48.07,80.02 49.41,80.2 C50.72,80.38 51.63,81.54 52.29,82.62z "/></g><g id="_R_G_L_1_G" transform=" translate(891.824, 218.069)"><path id="_R_G_L_1_G_D_0_P_0" fill="#ffffff" fill-opacity="1" fill-rule="nonzero" d=" M43.58 76.37 C39.52,45.23 21.39,28.83 21.21,28.67 C21.21,28.67 23.85,25.67 23.85,25.67 C24.64,26.37 43.29,43.15 47.54,75.85 C47.54,75.85 43.58,76.37 43.58,76.37z "/><path id="_R_G_L_1_G_D_1_P_0" stroke="#343434" stroke-linecap="round" stroke-linejoin="round" fill="none" stroke-width="0.6" stroke-opacity="1" d=" M43.58 76.37 C39.52,45.23 21.39,28.83 21.21,28.67 C21.21,28.67 23.85,25.67 23.85,25.67 C24.64,26.37 43.29,43.15 47.54,75.85 C47.54,75.85 43.58,76.37 43.58,76.37z "/><path id="_R_G_L_1_G_D_2_P_0" fill="#ffffff" fill-opacity="1" fill-rule="nonzero" d=" M15.95 26.7 C9.91,21.93 3.95,16.25 2.08,8.78 C1.6,6.86 1.5,4.58 2.86,3.14 C4.42,1.5 7.13,1.75 9.21,2.63 C13.41,4.41 16.5,8.09 18.84,12 C21.18,15.91 22.92,20.15 25.37,23.99 C26.01,24.99 26.71,25.98 27.13,27.09 C27.97,29.31 26.89,32.88 23.92,32.35 C22.69,32.14 21.43,30.84 20.46,30.13 C18.94,29.02 17.43,27.87 15.95,26.7z "/><path id="_R_G_L_1_G_D_3_P_0" stroke="#343434" stroke-linecap="round" stroke-linejoin="round" fill="none" stroke-width="0.6" stroke-opacity="1" d=" M15.95 26.7 C9.91,21.93 3.95,16.25 2.08,8.78 C1.6,6.86 1.5,4.58 2.86,3.14 C4.42,1.5 7.13,1.75 9.21,2.63 C13.41,4.41 16.5,8.09 18.84,12 C21.18,15.91 22.92,20.15 25.37,23.99 C26.01,24.99 26.71,25.98 27.13,27.09 C27.97,29.31 26.89,32.88 23.92,32.35 C22.69,32.14 21.43,30.84 20.46,30.13 C18.94,29.02 17.43,27.87 15.95,26.7z "/></g><g id="_R_G_L_0_G" transform=" translate(903.151, 225.651)"><path id="_R_G_L_0_G_D_0_P_0" fill="#ffffff" fill-opacity="1" fill-rule="nonzero" d=" M14.26 13.02 C15.56,17.15 16.87,21.42 16.7,25.68 C16.52,29.99 14.83,33.9 14.35,38.15 C14.14,40.04 14.16,42.03 13.55,43.76 C13.31,44.46 12.95,45.12 12.39,45.49 C11.83,45.85 11.04,45.84 10.52,45.31 C10.03,44.8 9.92,43.99 9.81,43.26 C9.14,38.74 7.5,34.42 5.9,30.16 C4.29,25.89 2.69,21.55 2.09,17.03 C1.5,12.51 2.02,7.71 4.35,4.29 C5.11,3.17 6.08,2.2 7.28,1.79 C8.13,1.5 9.09,1.53 9.95,1.94 C11.11,2.48 11.23,3.32 11.63,4.6 C12.51,7.41 13.39,10.21 14.26,13.02z "/><path id="_R_G_L_0_G_D_1_P_0" stroke="#343434" stroke-linecap="round" stroke-linejoin="round" fill="none" stroke-width="0.6" stroke-opacity="1" d=" M14.26 13.02 C15.56,17.15 16.87,21.42 16.7,25.68 C16.52,29.99 14.83,33.9 14.35,38.15 C14.14,40.04 14.16,42.03 13.55,43.76 C13.31,44.46 12.95,45.12 12.39,45.49 C11.83,45.85 11.04,45.84 10.52,45.31 C10.03,44.8 9.92,43.99 9.81,43.26 C9.14,38.74 7.5,34.42 5.9,30.16 C4.29,25.89 2.69,21.55 2.09,17.03 C1.5,12.51 2.02,7.71 4.35,4.29 C5.11,3.17 6.08,2.2 7.28,1.79 C8.13,1.5 9.09,1.53 9.95,1.94 C11.11,2.48 11.23,3.32 11.63,4.6 C12.51,7.41 13.39,10.21 14.26,13.02z "/><path id="_R_G_L_0_G_D_2_P_0" fill="#ffffff" fill-opacity="1" fill-rule="nonzero" d=" M19.14 96.69 C8.6,78.91 9.74,42.54 9.8,41 C9.8,41 13.8,41.14 13.8,41.14 C13.78,41.51 12.64,77.88 22.58,94.65 C22.58,94.65 19.14,96.69 19.14,96.69z "/><path id="_R_G_L_0_G_D_3_P_0" stroke="#343434" stroke-linecap="round" stroke-linejoin="round" fill="none" stroke-width="0.6" stroke-opacity="1" d=" M19.14 96.69 C8.6,78.91 9.74,42.54 9.8,41 C9.8,41 13.8,41.14 13.8,41.14 C13.78,41.51 12.64,77.88 22.58,94.65 C22.58,94.65 19.14,96.69 19.14,96.69z "/></g></g><g id="time_group"/></svg>