<svg xmlns="http://www.w3.org/2000/svg" xmlns:xlink="http://www.w3.org/1999/xlink" preserveAspectRatio="xMidYMid meet" width="1512" height="594" viewBox="0 0 1512 594" style="width:100%;height:100%"><defs><animateTransform repeatCount="indefinite" dur="3s" begin="0s" xlink:href="#_R_G_L_13_G" fill="freeze" attributeName="transform" from="-5" to="-5" type="rotate" additive="sum" keyTimes="0;0.4555556;0.9888889;1" values="-5;0;-5;-5" keySplines="0.512 0 0.667 1;0.373 0 0.474 1;0 0 0 0" calcMode="spline"/><animateTransform repeatCount="indefinite" dur="3s" begin="0s" xlink:href="#_R_G_L_13_G" fill="freeze" attributeName="transform" from="-8.37 -203.932" to="-8.37 -203.932" type="translate" additive="sum" keyTimes="0;1" values="-8.37 -203.932;-8.37 -203.932" keySplines="0 0 1 1" calcMode="spline"/><animateTransform repeatCount="indefinite" dur="3s" begin="0s" xlink:href="#_R_G_L_12_G" fill="freeze" attributeName="transform" from="-5" to="-5" type="rotate" additive="sum" keyTimes="0;0.5444444;0.9888889;1" values="-5;0;-5;-5" keySplines="0.512 0 0.667 1;0.373 0 0.474 1;0 0 0 0" calcMode="spline"/><animateTransform repeatCount="indefinite" dur="3s" begin="0s" xlink:href="#_R_G_L_12_G" fill="freeze" attributeName="transform" from="-5.851 -101.457" to="-5.851 -101.457" type="translate" additive="sum" keyTimes="0;1" values="-5.851 -101.457;-5.851 -101.457" keySplines="0 0 1 1" calcMode="spline"/><animateTransform repeatCount="indefinite" dur="3s" begin="0s" xlink:href="#_R_G_L_11_G" fill="freeze" attributeName="transform" from="5" to="5" type="rotate" additive="sum" keyTimes="0;0.4333333;0.9888889;1" values="5;10;5;5" keySplines="0.512 0 0.667 1;0.373 0 0.474 1;0 0 0 0" calcMode="spline"/><animateTransform repeatCount="indefinite" dur="3s" begin="0s" xlink:href="#_R_G_L_11_G" fill="freeze" attributeName="transform" from="-51.575 -194.938" to="-51.575 -194.938" type="translate" additive="sum" keyTimes="0;1" values="-51.575 -194.938;-51.575 -194.938" keySplines="0 0 1 1" calcMode="spline"/><animateTransform repeatCount="indefinite" dur="3s" begin="0s" xlink:href="#_R_G_L_10_G" fill="freeze" attributeName="transform" from="-22" to="-22" type="rotate" additive="sum" keyTimes="0;0.5666667;0.9888889;1" values="-22;-16;-22;-22" keySplines="0.512 0 0.667 1;0.373 0 0.474 1;0 0 0 0" calcMode="spline"/><animateTransform repeatCount="indefinite" dur="3s" begin="0s" xlink:href="#_R_G_L_10_G" fill="freeze" attributeName="transform" from="-7.708 -180.914" to="-7.708 -180.914" type="translate" additive="sum" keyTimes="0;1" values="-7.708 -180.914;-7.708 -180.914" keySplines="0 0 1 1" calcMode="spline"/><animateTransform repeatCount="indefinite" dur="3s" begin="0s" xlink:href="#_R_G_L_9_G" fill="freeze" attributeName="transform" from="-5" to="-5" type="rotate" additive="sum" keyTimes="0;0.3444444;0.9888889;1" values="-5;0;-5;-5" keySplines="0.512 0 0.667 1;0.373 0 0.474 1;0 0 0 0" calcMode="spline"/><animateTransform repeatCount="indefinite" dur="3s" begin="0s" xlink:href="#_R_G_L_9_G" fill="freeze" attributeName="transform" from="-7.531 -89.219" to="-7.531 -89.219" type="translate" additive="sum" keyTimes="0;1" values="-7.531 -89.219;-7.531 -89.219" keySplines="0 0 1 1" calcMode="spline"/><animateTransform repeatCount="indefinite" dur="3s" begin="0s" xlink:href="#_R_G_L_8_G" fill="freeze" attributeName="transform" from="-6" to="-6" type="rotate" additive="sum" keyTimes="0;0.5444444;0.9888889;1" values="-6;0;-6;-6" keySplines="0.512 0 0.667 1;0.373 0 0.474 1;0 0 0 0" calcMode="spline"/><animateTransform repeatCount="indefinite" dur="3s" begin="0s" xlink:href="#_R_G_L_8_G" fill="freeze" attributeName="transform" from="-7.283 -98.593" to="-7.283 -98.593" type="translate" additive="sum" keyTimes="0;1" values="-7.283 -98.593;-7.283 -98.593" keySplines="0 0 1 1" calcMode="spline"/><animateTransform repeatCount="indefinite" dur="3s" begin="0s" xlink:href="#_R_G_L_7_G" fill="freeze" attributeName="transform" from="-5" to="-5" type="rotate" additive="sum" keyTimes="0;0.3666667;0.9888889;1" values="-5;0;-5;-5" keySplines="0.512 0 0.667 1;0.373 0 0.474 1;0 0 0 0" calcMode="spline"/><animateTransform repeatCount="indefinite" dur="3s" begin="0s" xlink:href="#_R_G_L_7_G" fill="freeze" attributeName="transform" from="-51.575 -196.37" to="-51.575 -196.37" type="translate" additive="sum" keyTimes="0;1" values="-51.575 -196.37;-51.575 -196.37" keySplines="0 0 1 1" calcMode="spline"/><animateTransform repeatCount="indefinite" dur="3s" begin="0s" xlink:href="#_R_G_L_6_G" fill="freeze" attributeName="transform" from="-5" to="-5" type="rotate" additive="sum" keyTimes="0;0.5444444;0.9888889;1" values="-5;0;-5;-5" keySplines="0.512 0 0.667 1;0.373 0 0.474 1;0 0 0 0" calcMode="spline"/><animateTransform repeatCount="indefinite" dur="3s" begin="0s" xlink:href="#_R_G_L_6_G" fill="freeze" attributeName="transform" from="-6.276 -182.346" to="-6.276 -182.346" type="translate" additive="sum" keyTimes="0;1" values="-6.276 -182.346;-6.276 -182.346" keySplines="0 0 1 1" calcMode="spline"/><animateTransform repeatCount="indefinite" dur="3s" begin="0s" xlink:href="#_R_G_L_5_G" fill="freeze" attributeName="transform" from="-5" to="-5" type="rotate" additive="sum" keyTimes="0;0.4555556;0.9888889;1" values="-5;0;-5;-5" keySplines="0.512 0 0.667 1;0.373 0 0.474 1;0 0 0 0" calcMode="spline"/><animateTransform repeatCount="indefinite" dur="3s" begin="0s" xlink:href="#_R_G_L_5_G" fill="freeze" attributeName="transform" from="-53.007 -200.666" to="-53.007 -200.666" type="translate" additive="sum" keyTimes="0;1" values="-53.007 -200.666;-53.007 -200.666" keySplines="0 0 1 1" calcMode="spline"/><animateTransform repeatCount="indefinite" dur="3s" begin="0s" xlink:href="#_R_G_L_4_G" fill="freeze" attributeName="transform" from="-15" to="-15" type="rotate" additive="sum" keyTimes="0;0.5777778;0.9888889;1" values="-15;-8;-15;-15" keySplines="0.512 0 0.667 1;0.373 0 0.474 1;0 0 0 0" calcMode="spline"/><animateTransform repeatCount="indefinite" dur="3s" begin="0s" xlink:href="#_R_G_L_4_G" fill="freeze" attributeName="transform" from="-10.524 -187.051" to="-10.524 -187.051" type="translate" additive="sum" keyTimes="0;1" values="-10.524 -187.051;-10.524 -187.051" keySplines="0 0 1 1" calcMode="spline"/><animateTransform repeatCount="indefinite" dur="3s" begin="0s" xlink:href="#_R_G_L_3_G" fill="freeze" attributeName="transform" from="-5" to="-5" type="rotate" additive="sum" keyTimes="0;0.3555556;0.9888889;1" values="-5;0;-5;-5" keySplines="0.512 0 0.667 1;0.373 0 0.474 1;0 0 0 0" calcMode="spline"/><animateTransform repeatCount="indefinite" dur="3s" begin="0s" xlink:href="#_R_G_L_3_G" fill="freeze" attributeName="transform" from="-10.395 -89.219" to="-10.395 -89.219" type="translate" additive="sum" keyTimes="0;1" values="-10.395 -89.219;-10.395 -89.219" keySplines="0 0 1 1" calcMode="spline"/><animateTransform repeatCount="indefinite" dur="3s" begin="0s" xlink:href="#_R_G_L_2_G" fill="freeze" attributeName="transform" from="-5" to="-5" type="rotate" additive="sum" keyTimes="0;0.5444444;0.9888889;1" values="-5;0;-5;-5" keySplines="0.512 0 0.667 1;0.373 0 0.474 1;0 0 0 0" calcMode="spline"/><animateTransform repeatCount="indefinite" dur="3s" begin="0s" xlink:href="#_R_G_L_2_G" fill="freeze" attributeName="transform" from="-32.714 -203.932" to="-32.714 -203.932" type="translate" additive="sum" keyTimes="0;1" values="-32.714 -203.932;-32.714 -203.932" keySplines="0 0 1 1" calcMode="spline"/><animateTransform repeatCount="indefinite" dur="3s" begin="0s" xlink:href="#_R_G_L_1_G" fill="freeze" attributeName="transform" from="5" to="5" type="rotate" additive="sum" keyTimes="0;0.4444444;0.9888889;1" values="5;13;5;5" keySplines="0.512 0 0.667 1;0.373 0 0.474 1;0 0 0 0" calcMode="spline"/><animateTransform repeatCount="indefinite" dur="3s" begin="0s" xlink:href="#_R_G_L_1_G" fill="freeze" attributeName="transform" from="-22.392 -112.62" to="-22.392 -112.62" type="translate" additive="sum" keyTimes="0;1" values="-22.392 -112.62;-22.392 -112.62" keySplines="0 0 1 1" calcMode="spline"/><animateTransform repeatCount="indefinite" dur="3s" begin="0s" xlink:href="#_R_G_L_0_G" fill="freeze" attributeName="transform" from="-5" to="-5" type="rotate" additive="sum" keyTimes="0;0.5;0.9888889;1" values="-5;0;-5;-5" keySplines="0.512 0 0.667 1;0.373 0 0.474 1;0 0 0 0" calcMode="spline"/><animateTransform repeatCount="indefinite" dur="3s" begin="0s" xlink:href="#_R_G_L_0_G" fill="freeze" attributeName="transform" from="-5.345 -184.679" to="-5.345 -184.679" type="translate" additive="sum" keyTimes="0;1" values="-5.345 -184.679;-5.345 -184.679" keySplines="0 0 1 1" calcMode="spline"/><animate attributeType="XML" attributeName="opacity" dur="3s" from="0" to="1" xlink:href="#time_group"/></defs><g id="_R_G"><g id="_R_G_L_13_G" transform=" translate(74.205, 257.933)"><path id="_R_G_L_13_G_D_0_P_0" fill="#ffffff" fill-opacity="1" fill-rule="nonzero" d=" M4.64 114.64 C4.72,112.49 4.8,110.35 4.88,108.23 C4.88,108.23 4.87,108.23 4.88,108.22 C6.17,75.55 8.16,47.03 9.25,39.42 C9.25,39.42 15.19,40.27 15.19,40.27 C14.24,46.88 12.57,70.54 11.32,98.87 C15.33,92.22 18.84,84.67 21.23,77.08 C21.23,77.08 25.05,78.28 25.05,78.28 C21.6,89.28 16.52,99.07 10.98,106.83 C9.17,151.77 8.6,205.14 13.49,221.33 C13.49,221.33 7.74,223.07 7.74,223.07 C2.9,207.02 3.08,158.19 4.64,114.64z "/><path id="_R_G_L_13_G_D_1_P_0" stroke="#343434" stroke-linecap="round" stroke-linejoin="round" fill="none" stroke-width="0.6" stroke-opacity="1" d=" M4.64 114.64 C4.72,112.49 4.8,110.35 4.88,108.23 C4.88,108.23 4.87,108.23 4.88,108.22 C6.17,75.55 8.16,47.03 9.25,39.42 C9.25,39.42 15.19,40.27 15.19,40.27 C14.24,46.88 12.57,70.54 11.32,98.87 C15.33,92.22 18.84,84.67 21.23,77.08 C21.23,77.08 25.05,78.28 25.05,78.28 C21.6,89.28 16.52,99.07 10.98,106.83 C9.17,151.77 8.6,205.14 13.49,221.33 C13.49,221.33 7.74,223.07 7.74,223.07 C2.9,207.02 3.08,158.19 4.64,114.64z "/><path id="_R_G_L_13_G_D_2_P_0" fill="#ffffff" fill-opacity="1" fill-rule="nonzero" d=" M22.01 12.32 C22.63,9.2 23.04,5.43 20.65,3.33 C18.57,1.5 15.18,1.98 12.97,3.65 C10.75,5.32 9.43,7.89 8.17,10.37 C4.88,16.88 1.5,23.97 2.76,31.15 C3.58,35.78 6.23,39.78 7.75,44.17 C8.42,46.11 9.18,54.21 12.7,53.19 C14.93,52.55 15.2,46.95 15.52,45.19 C16.46,40.11 17.51,35.05 18.51,29.98 C19.68,24.1 20.84,18.21 22.01,12.32z "/><path id="_R_G_L_13_G_D_3_P_0" stroke="#343434" stroke-linecap="round" stroke-linejoin="round" fill="none" stroke-width="0.6" stroke-opacity="1" d=" M22.01 12.32 C22.63,9.2 23.04,5.43 20.65,3.33 C18.57,1.5 15.18,1.98 12.97,3.65 C10.75,5.32 9.43,7.89 8.17,10.37 C4.88,16.88 1.5,23.97 2.76,31.15 C3.58,35.78 6.23,39.78 7.75,44.17 C8.42,46.11 9.18,54.21 12.7,53.19 C14.93,52.55 15.2,46.95 15.52,45.19 C16.46,40.11 17.51,35.05 18.51,29.98 C19.68,24.1 20.84,18.21 22.01,12.32z "/><path id="_R_G_L_13_G_D_4_P_0" fill="#ffffff" fill-opacity="1" fill-rule="nonzero" d=" M29.03 79.09 C33.84,71.22 38.15,62.37 36.93,53.3 C36.61,50.97 35.7,48.4 33.48,47.39 C30.94,46.23 27.92,47.67 25.92,49.53 C21.88,53.29 19.97,58.7 19.04,64.03 C18.11,69.36 18.02,74.81 16.93,80.11 C16.64,81.5 16.29,82.89 16.31,84.3 C16.34,87.12 19.2,90.62 22.38,88.76 C23.71,87.99 24.58,86.02 25.37,84.82 C26.63,82.93 27.85,81.02 29.03,79.09z "/><path id="_R_G_L_13_G_D_5_P_0" stroke="#343434" stroke-linecap="round" stroke-linejoin="round" fill="none" stroke-width="0.6" stroke-opacity="1" d=" M29.03 79.09 C33.84,71.22 38.15,62.37 36.93,53.3 C36.61,50.97 35.7,48.4 33.48,47.39 C30.94,46.23 27.92,47.67 25.92,49.53 C21.88,53.29 19.97,58.7 19.04,64.03 C18.11,69.36 18.02,74.81 16.93,80.11 C16.64,81.5 16.29,82.89 16.31,84.3 C16.34,87.12 19.2,90.62 22.38,88.76 C23.71,87.99 24.58,86.02 25.37,84.82 C26.63,82.93 27.85,81.02 29.03,79.09z "/></g><g id="_R_G_L_12_G" transform=" translate(1461.316, 352.689)"><path id="_R_G_L_12_G_D_0_P_0" fill="#ffffff" fill-opacity="1" fill-rule="nonzero" d=" M5.2 112.63 C5.2,112.63 1.5,111.12 1.5,111.12 C7.72,95.88 18.71,60.84 21.15,43.66 C21.15,43.66 25.11,44.22 25.11,44.22 C22.54,62.32 11.43,97.38 5.2,112.63z "/><path id="_R_G_L_12_G_D_1_P_0" stroke="#343434" stroke-linecap="round" stroke-linejoin="round" fill="none" stroke-width="0.6" stroke-opacity="1" d=" M5.2 112.63 C5.2,112.63 1.5,111.12 1.5,111.12 C7.72,95.88 18.71,60.84 21.15,43.66 C21.15,43.66 25.11,44.22 25.11,44.22 C22.54,62.32 11.43,97.38 5.2,112.63z "/><path id="_R_G_L_12_G_D_2_P_0" fill="#ffffff" fill-opacity="1" fill-rule="nonzero" d=" M19.08 37.78 C18.96,29.46 18.92,20.75 22.69,13.33 C24.43,9.92 26.9,6.94 29.35,3.99 C30.29,2.86 31.41,1.64 32.88,1.58 C34.9,1.5 36.26,3.64 36.87,5.57 C38.84,11.75 37.81,18.52 35.74,24.68 C33.68,30.83 30.61,36.6 28.4,42.7 C27.79,44.37 27.23,46.11 26.16,47.54 C25.38,48.57 24.24,49.5 22.95,49.77 C21.19,50.16 20.88,49.26 20.32,47.7 C19.18,44.54 19.13,41.1 19.08,37.78z "/><path id="_R_G_L_12_G_D_3_P_0" stroke="#343434" stroke-linecap="round" stroke-linejoin="round" fill="none" stroke-width="0.6" stroke-opacity="1" d=" M19.08 37.78 C18.96,29.46 18.92,20.75 22.69,13.33 C24.43,9.92 26.9,6.94 29.35,3.99 C30.29,2.86 31.41,1.64 32.88,1.58 C34.9,1.5 36.26,3.64 36.87,5.57 C38.84,11.75 37.81,18.52 35.74,24.68 C33.68,30.83 30.61,36.6 28.4,42.7 C27.79,44.37 27.23,46.11 26.16,47.54 C25.38,48.57 24.24,49.5 22.95,49.77 C21.19,50.16 20.88,49.26 20.32,47.7 C19.18,44.54 19.13,41.1 19.08,37.78z "/></g><g id="_R_G_L_11_G" transform=" translate(1471.879, 499.169)"><path id="_R_G_L_11_G_D_0_P_0" fill="#ffffff" fill-opacity="1" fill-rule="nonzero" d=" M35.81 89.06 C35.81,89.06 38.06,87.08 38.06,87.08 C31.9,80.06 23.95,74.01 14.43,69.09 C14.43,69.09 13.05,71.75 13.05,71.75 C22.24,76.5 29.9,82.32 35.81,89.06z "/><path id="_R_G_L_11_G_D_1_P_0" stroke="#343434" stroke-linecap="round" stroke-linejoin="round" fill="none" stroke-width="0.6" stroke-opacity="1" d=" M35.81 89.06 C35.81,89.06 38.06,87.08 38.06,87.08 C31.9,80.06 23.95,74.01 14.43,69.09 C14.43,69.09 13.05,71.75 13.05,71.75 C22.24,76.5 29.9,82.32 35.81,89.06z "/><path id="_R_G_L_11_G_D_2_P_0" fill="#ffffff" fill-opacity="1" fill-rule="nonzero" d=" M7.46 69.21 C7.49,70.09 7.83,70.94 8.31,71.68 C8.89,72.55 9.69,73.29 10.66,73.66 C12.62,74.41 15.06,73.32 15.87,71.39 C16.69,69.47 15.82,67 14,65.96 C11.54,64.57 7.35,66.03 7.46,69.21z "/><path id="_R_G_L_11_G_D_3_P_0" stroke="#343434" stroke-linecap="round" stroke-linejoin="round" fill="none" stroke-width="0.6" stroke-opacity="1" d=" M7.46 69.21 C7.49,70.09 7.83,70.94 8.31,71.68 C8.89,72.55 9.69,73.29 10.66,73.66 C12.62,74.41 15.06,73.32 15.87,71.39 C16.69,69.47 15.82,67 14,65.96 C11.54,64.57 7.35,66.03 7.46,69.21z "/><path id="_R_G_L_11_G_D_4_P_0" fill="#ffffff" fill-opacity="1" fill-rule="nonzero" d=" M20.95 43.07 C20.95,43.07 15.68,45.96 15.68,45.96 C15.94,46.42 32.18,76.58 42.18,123.52 C36.97,119.11 32.16,113.73 27.82,107.43 C27.82,107.43 25.35,109.13 25.35,109.13 C30.62,116.79 36.59,123.16 43.12,128.13 C48.19,153.53 51.3,183.5 49.18,216.15 C49.18,216.15 55.16,216.54 55.16,216.54 C61.56,118.38 21.35,43.82 20.95,43.07z "/><path id="_R_G_L_11_G_D_5_P_0" stroke="#343434" stroke-linecap="round" stroke-linejoin="round" fill="none" stroke-width="0.6" stroke-opacity="1" d=" M20.95 43.07 C20.95,43.07 15.68,45.96 15.68,45.96 C15.94,46.42 32.18,76.58 42.18,123.52 C36.97,119.11 32.16,113.73 27.82,107.43 C27.82,107.43 25.35,109.13 25.35,109.13 C30.62,116.79 36.59,123.16 43.12,128.13 C48.19,153.53 51.3,183.5 49.18,216.15 C49.18,216.15 55.16,216.54 55.16,216.54 C61.56,118.38 21.35,43.82 20.95,43.07z "/><path id="_R_G_L_11_G_D_6_P_0" fill="#ffffff" fill-opacity="1" fill-rule="nonzero" d=" M16.9 10.54 C16.44,7.39 15.56,3.7 12.61,2.53 C10.03,1.5 7,3.09 5.47,5.41 C3.95,7.73 3.56,10.59 3.22,13.35 C2.3,20.58 1.5,28.4 5.1,34.74 C7.43,38.83 11.27,41.7 14.17,45.33 C15.45,46.93 18.89,54.3 21.86,52.16 C23.74,50.8 22.12,45.44 21.83,43.67 C21.01,38.57 20.3,33.46 19.54,28.35 C19.54,28.35 16.9,10.54 16.9,10.54z "/><path id="_R_G_L_11_G_D_7_P_0" stroke="#343434" stroke-linecap="round" stroke-linejoin="round" fill="none" stroke-width="0.6" stroke-opacity="1" d=" M16.9 10.54 C16.44,7.39 15.56,3.7 12.61,2.53 C10.03,1.5 7,3.09 5.47,5.41 C3.95,7.73 3.56,10.59 3.22,13.35 C2.3,20.58 1.5,28.4 5.1,34.74 C7.43,38.83 11.27,41.7 14.17,45.33 C15.45,46.93 18.89,54.3 21.86,52.16 C23.74,50.8 22.12,45.44 21.83,43.67 C21.01,38.57 20.3,33.46 19.54,28.35 C19.54,28.35 16.9,10.54 16.9,10.54z "/><path id="_R_G_L_11_G_D_8_P_0" fill="#ffffff" fill-opacity="1" fill-rule="nonzero" d=" M23.28 109.39 C19.61,104.87 16.15,99.68 16.04,93.87 C16.01,92.37 16.33,90.68 17.59,89.85 C19.02,88.89 20.99,89.53 22.39,90.53 C25.2,92.54 26.87,95.76 27.94,99.04 C29.01,102.31 29.58,105.73 30.74,108.96 C31.05,109.81 31.39,110.65 31.52,111.54 C31.76,113.32 30.35,115.77 28.24,114.89 C27.36,114.52 26.64,113.35 26.04,112.67 C25.1,111.6 24.18,110.5 23.28,109.39z "/><path id="_R_G_L_11_G_D_9_P_0" stroke="#343434" stroke-linecap="round" stroke-linejoin="round" fill="none" stroke-width="0.6" stroke-opacity="1" d=" M23.28 109.39 C19.61,104.87 16.15,99.68 16.04,93.87 C16.01,92.37 16.33,90.68 17.59,89.85 C19.02,88.89 20.99,89.53 22.39,90.53 C25.2,92.54 26.87,95.76 27.94,99.04 C29.01,102.31 29.58,105.73 30.74,108.96 C31.05,109.81 31.39,110.65 31.52,111.54 C31.76,113.32 30.35,115.77 28.24,114.89 C27.36,114.52 26.64,113.35 26.04,112.67 C25.1,111.6 24.18,110.5 23.28,109.39z "/></g><g id="_R_G_L_10_G" transform=" translate(1201.385, 487.481)"><path id="_R_G_L_10_G_D_0_P_0" fill="#ffffff" fill-opacity="1" fill-rule="nonzero" d=" M30.54 98.26 C31.25,96.23 31.95,94.21 32.66,92.21 C32.66,92.21 32.65,92.2 32.66,92.2 C43.53,61.36 53.85,34.7 57.14,27.75 C57.14,27.75 62.56,30.31 62.56,30.31 C59.7,36.35 51.13,58.46 41.57,85.16 C47.37,79.99 52.95,73.81 57.47,67.27 C57.47,67.27 60.77,69.54 60.77,69.54 C54.22,79.03 46.48,86.89 38.9,92.67 C23.91,135.07 7.61,185.9 7.51,202.81 C7.51,202.81 1.5,202.78 1.5,202.78 C1.61,186.01 16.19,139.41 30.54,98.26z "/><path id="_R_G_L_10_G_D_1_P_0" stroke="#343434" stroke-linecap="round" stroke-linejoin="round" fill="none" stroke-width="0.6" stroke-opacity="1" d=" M30.54 98.26 C31.25,96.23 31.95,94.21 32.66,92.21 C32.66,92.21 32.65,92.2 32.66,92.2 C43.53,61.36 53.85,34.7 57.14,27.75 C57.14,27.75 62.56,30.31 62.56,30.31 C59.7,36.35 51.13,58.46 41.57,85.16 C47.37,79.99 52.95,73.81 57.47,67.27 C57.47,67.27 60.77,69.54 60.77,69.54 C54.22,79.03 46.48,86.89 38.9,92.67 C23.91,135.07 7.61,185.9 7.51,202.81 C7.51,202.81 1.5,202.78 1.5,202.78 C1.61,186.01 16.19,139.41 30.54,98.26z "/><path id="_R_G_L_10_G_D_2_P_0" fill="#ffffff" fill-opacity="1" fill-rule="nonzero" d=" M50.78 35.51 C51.85,27.25 53.06,18.63 57.85,11.83 C60.06,8.7 62.93,6.1 65.77,3.54 C66.86,2.55 68.15,1.5 69.61,1.65 C71.63,1.86 72.66,4.17 73,6.18 C74.06,12.58 72.07,19.13 69.14,24.92 C66.22,30.71 62.36,35.99 59.3,41.71 C58.45,43.28 57.65,44.92 56.39,46.18 C55.47,47.09 54.21,47.84 52.89,47.93 C51.09,48.06 50.92,47.13 50.58,45.5 C49.91,42.21 50.35,38.8 50.78,35.51z "/><path id="_R_G_L_10_G_D_3_P_0" stroke="#343434" stroke-linecap="round" stroke-linejoin="round" fill="none" stroke-width="0.6" stroke-opacity="1" d=" M50.78 35.51 C51.85,27.25 53.06,18.63 57.85,11.83 C60.06,8.7 62.93,6.1 65.77,3.54 C66.86,2.55 68.15,1.5 69.61,1.65 C71.63,1.86 72.66,4.17 73,6.18 C74.06,12.58 72.07,19.13 69.14,24.92 C66.22,30.71 62.36,35.99 59.3,41.71 C58.45,43.28 57.65,44.92 56.39,46.18 C55.47,47.09 54.21,47.84 52.89,47.93 C51.09,48.06 50.92,47.13 50.58,45.5 C49.91,42.21 50.35,38.8 50.78,35.51z "/><path id="_R_G_L_10_G_D_4_P_0" fill="#ffffff" fill-opacity="1" fill-rule="nonzero" d=" M60.71 70.59 C59.71,70.68 58.69,70.62 57.69,70.2 C57.41,70.08 57.13,69.93 56.89,69.61 C56.66,69.31 56.49,68.81 56.52,68.34 C56.56,67.86 56.79,67.54 57.01,67.26 C57.69,66.37 58.38,65.48 59.06,64.59 C62.09,60.64 65.26,56.59 69.13,55.46 C69.91,55.24 70.76,55.14 71.53,55.68 C72.44,56.31 73.32,58.21 72.8,59.7 C72.25,61.3 71.33,62.7 70.52,63.91 C68.81,66.43 66.78,68.33 64.57,69.46 C63.33,70.09 62.03,70.48 60.71,70.59z "/><path id="_R_G_L_10_G_D_5_P_0" stroke="#343434" stroke-linecap="round" stroke-linejoin="round" fill="none" stroke-width="0.6" stroke-opacity="1" d=" M60.71 70.59 C59.71,70.68 58.69,70.62 57.69,70.2 C57.41,70.08 57.13,69.93 56.89,69.61 C56.66,69.31 56.49,68.81 56.52,68.34 C56.56,67.86 56.79,67.54 57.01,67.26 C57.69,66.37 58.38,65.48 59.06,64.59 C62.09,60.64 65.26,56.59 69.13,55.46 C69.91,55.24 70.76,55.14 71.53,55.68 C72.44,56.31 73.32,58.21 72.8,59.7 C72.25,61.3 71.33,62.7 70.52,63.91 C68.81,66.43 66.78,68.33 64.57,69.46 C63.33,70.09 62.03,70.48 60.71,70.59z "/></g><g id="_R_G_L_9_G" transform=" translate(1150.036, 471.521)"><path id="_R_G_L_9_G_D_0_P_0" fill="#ffffff" fill-opacity="1" fill-rule="nonzero" d=" M5.05 102.48 C5.05,102.48 1.5,100.63 1.5,100.63 C9.09,86.03 23.25,52.14 27.26,35.26 C27.26,35.26 31.15,36.18 31.15,36.18 C26.93,53.97 12.65,87.86 5.05,102.48z "/><path id="_R_G_L_9_G_D_1_P_0" stroke="#343434" stroke-linecap="round" stroke-linejoin="round" fill="none" stroke-width="0.6" stroke-opacity="1" d=" M5.05 102.48 C5.05,102.48 1.5,100.63 1.5,100.63 C9.09,86.03 23.25,52.14 27.26,35.26 C27.26,35.26 31.15,36.18 31.15,36.18 C26.93,53.97 12.65,87.86 5.05,102.48z "/><path id="_R_G_L_9_G_D_2_P_0" fill="#ffffff" fill-opacity="1" fill-rule="nonzero" d=" M26.29 32.01 C26.29,34.25 26.48,36.52 27.14,38.66 C27.33,39.26 27.56,39.86 27.99,40.32 C28.41,40.78 29.07,41.07 29.67,40.89 C30.28,40.72 30.67,40.14 31,39.61 C32.07,37.91 33.14,36.21 34.22,34.51 C38.96,26.99 43.82,19.13 44.83,10.3 C45.04,8.51 45.07,6.61 44.28,4.98 C43.37,3.07 40.82,1.5 38.96,2.94 C36.96,4.49 35.26,6.8 33.8,8.84 C30.74,13.15 28.52,18.05 27.32,23.19 C26.65,26.08 26.3,29.04 26.29,32.01z "/><path id="_R_G_L_9_G_D_3_P_0" stroke="#343434" stroke-linecap="round" stroke-linejoin="round" fill="none" stroke-width="0.6" stroke-opacity="1" d=" M26.29 32.01 C26.29,34.25 26.48,36.52 27.14,38.66 C27.33,39.26 27.56,39.86 27.99,40.32 C28.41,40.78 29.07,41.07 29.67,40.89 C30.28,40.72 30.67,40.14 31,39.61 C32.07,37.91 33.14,36.21 34.22,34.51 C38.96,26.99 43.82,19.13 44.83,10.3 C45.04,8.51 45.07,6.61 44.28,4.98 C43.37,3.07 40.82,1.5 38.96,2.94 C36.96,4.49 35.26,6.8 33.8,8.84 C30.74,13.15 28.52,18.05 27.32,23.19 C26.65,26.08 26.3,29.04 26.29,32.01z "/></g><g id="_R_G_L_8_G" transform=" translate(1006.235, 397.992)"><path id="_R_G_L_8_G_D_0_P_0" fill="#ffffff" fill-opacity="1" fill-rule="nonzero" d=" M5.2 112.63 C5.2,112.63 1.5,111.12 1.5,111.12 C7.72,95.88 18.71,60.84 21.15,43.66 C21.15,43.66 25.11,44.22 25.11,44.22 C22.54,62.32 11.43,97.38 5.2,112.63z "/><path id="_R_G_L_8_G_D_1_P_0" stroke="#343434" stroke-linecap="round" stroke-linejoin="round" fill="none" stroke-width="0.6" stroke-opacity="1" d=" M5.2 112.63 C5.2,112.63 1.5,111.12 1.5,111.12 C7.72,95.88 18.71,60.84 21.15,43.66 C21.15,43.66 25.11,44.22 25.11,44.22 C22.54,62.32 11.43,97.38 5.2,112.63z "/><path id="_R_G_L_8_G_D_2_P_0" fill="#ffffff" fill-opacity="1" fill-rule="nonzero" d=" M19.08 37.78 C18.96,29.46 18.92,20.75 22.69,13.33 C24.43,9.92 26.9,6.94 29.35,3.99 C30.29,2.86 31.41,1.64 32.88,1.58 C34.9,1.5 36.26,3.64 36.87,5.57 C38.84,11.75 37.81,18.52 35.74,24.68 C33.68,30.83 30.61,36.6 28.4,42.7 C27.79,44.37 27.23,46.11 26.16,47.54 C25.38,48.57 24.24,49.5 22.95,49.77 C21.19,50.16 20.88,49.26 20.32,47.7 C19.18,44.54 19.13,41.1 19.08,37.78z "/><path id="_R_G_L_8_G_D_3_P_0" stroke="#343434" stroke-linecap="round" stroke-linejoin="round" fill="none" stroke-width="0.6" stroke-opacity="1" d=" M19.08 37.78 C18.96,29.46 18.92,20.75 22.69,13.33 C24.43,9.92 26.9,6.94 29.35,3.99 C30.29,2.86 31.41,1.64 32.88,1.58 C34.9,1.5 36.26,3.64 36.87,5.57 C38.84,11.75 37.81,18.52 35.74,24.68 C33.68,30.83 30.61,36.6 28.4,42.7 C27.79,44.37 27.23,46.11 26.16,47.54 C25.38,48.57 24.24,49.5 22.95,49.77 C21.19,50.16 20.88,49.26 20.32,47.7 C19.18,44.54 19.13,41.1 19.08,37.78z "/></g><g id="_R_G_L_7_G" transform=" translate(940.194, 493.164)"><path id="_R_G_L_7_G_D_0_P_0" fill="#ffffff" fill-opacity="1" fill-rule="nonzero" d=" M35.81 89.06 C35.81,89.06 38.06,87.08 38.06,87.08 C31.9,80.06 23.95,74.01 14.43,69.09 C14.43,69.09 13.05,71.75 13.05,71.75 C22.24,76.5 29.9,82.32 35.81,89.06z "/><path id="_R_G_L_7_G_D_1_P_0" stroke="#343434" stroke-linecap="round" stroke-linejoin="round" fill="none" stroke-width="0.6" stroke-opacity="1" d=" M35.81 89.06 C35.81,89.06 38.06,87.08 38.06,87.08 C31.9,80.06 23.95,74.01 14.43,69.09 C14.43,69.09 13.05,71.75 13.05,71.75 C22.24,76.5 29.9,82.32 35.81,89.06z "/><path id="_R_G_L_7_G_D_2_P_0" fill="#ffffff" fill-opacity="1" fill-rule="nonzero" d=" M7.46 69.21 C7.49,70.09 7.83,70.94 8.31,71.68 C8.89,72.55 9.69,73.29 10.66,73.66 C12.62,74.41 15.06,73.32 15.87,71.39 C16.69,69.47 15.82,67 14,65.96 C11.54,64.57 7.35,66.03 7.46,69.21z "/><path id="_R_G_L_7_G_D_3_P_0" stroke="#343434" stroke-linecap="round" stroke-linejoin="round" fill="none" stroke-width="0.6" stroke-opacity="1" d=" M7.46 69.21 C7.49,70.09 7.83,70.94 8.31,71.68 C8.89,72.55 9.69,73.29 10.66,73.66 C12.62,74.41 15.06,73.32 15.87,71.39 C16.69,69.47 15.82,67 14,65.96 C11.54,64.57 7.35,66.03 7.46,69.21z "/><path id="_R_G_L_7_G_D_4_P_0" fill="#ffffff" fill-opacity="1" fill-rule="nonzero" d=" M20.95 43.07 C20.95,43.07 15.68,45.96 15.68,45.96 C15.94,46.42 32.18,76.58 42.18,123.52 C36.97,119.11 32.16,113.73 27.82,107.43 C27.82,107.43 25.35,109.13 25.35,109.13 C30.62,116.79 36.59,123.16 43.12,128.13 C48.19,153.53 51.3,183.5 49.18,216.15 C49.18,216.15 55.16,216.54 55.16,216.54 C61.56,118.38 21.35,43.82 20.95,43.07z "/><path id="_R_G_L_7_G_D_5_P_0" stroke="#343434" stroke-linecap="round" stroke-linejoin="round" fill="none" stroke-width="0.6" stroke-opacity="1" d=" M20.95 43.07 C20.95,43.07 15.68,45.96 15.68,45.96 C15.94,46.42 32.18,76.58 42.18,123.52 C36.97,119.11 32.16,113.73 27.82,107.43 C27.82,107.43 25.35,109.13 25.35,109.13 C30.62,116.79 36.59,123.16 43.12,128.13 C48.19,153.53 51.3,183.5 49.18,216.15 C49.18,216.15 55.16,216.54 55.16,216.54 C61.56,118.38 21.35,43.82 20.95,43.07z "/><path id="_R_G_L_7_G_D_6_P_0" fill="#ffffff" fill-opacity="1" fill-rule="nonzero" d=" M16.9 10.54 C16.44,7.39 15.56,3.7 12.61,2.53 C10.03,1.5 7,3.09 5.47,5.41 C3.95,7.73 3.56,10.59 3.22,13.35 C2.3,20.58 1.5,28.4 5.1,34.74 C7.43,38.83 11.27,41.7 14.17,45.33 C15.45,46.93 18.89,54.3 21.86,52.16 C23.74,50.8 22.12,45.44 21.83,43.67 C21.01,38.57 20.3,33.46 19.54,28.35 C18.66,22.41 17.78,16.48 16.9,10.54z "/><path id="_R_G_L_7_G_D_7_P_0" stroke="#343434" stroke-linecap="round" stroke-linejoin="round" fill="none" stroke-width="0.6" stroke-opacity="1" d=" M16.9 10.54 C16.44,7.39 15.56,3.7 12.61,2.53 C10.03,1.5 7,3.09 5.47,5.41 C3.95,7.73 3.56,10.59 3.22,13.35 C2.3,20.58 1.5,28.4 5.1,34.74 C7.43,38.83 11.27,41.7 14.17,45.33 C15.45,46.93 18.89,54.3 21.86,52.16 C23.74,50.8 22.12,45.44 21.83,43.67 C21.01,38.57 20.3,33.46 19.54,28.35 C18.66,22.41 17.78,16.48 16.9,10.54z "/><path id="_R_G_L_7_G_D_8_P_0" fill="#ffffff" fill-opacity="1" fill-rule="nonzero" d=" M23.28 109.39 C19.61,104.87 16.15,99.68 16.04,93.87 C16.01,92.37 16.33,90.68 17.59,89.85 C19.02,88.89 20.99,89.53 22.39,90.53 C25.2,92.54 26.87,95.76 27.94,99.04 C29.01,102.31 29.58,105.73 30.74,108.96 C31.05,109.81 31.39,110.65 31.52,111.54 C31.76,113.32 30.35,115.77 28.24,114.89 C27.36,114.52 26.64,113.35 26.04,112.67 C25.1,111.6 24.18,110.5 23.28,109.39z "/><path id="_R_G_L_7_G_D_9_P_0" stroke="#343434" stroke-linecap="round" stroke-linejoin="round" fill="none" stroke-width="0.6" stroke-opacity="1" d=" M23.28 109.39 C19.61,104.87 16.15,99.68 16.04,93.87 C16.01,92.37 16.33,90.68 17.59,89.85 C19.02,88.89 20.99,89.53 22.39,90.53 C25.2,92.54 26.87,95.76 27.94,99.04 C29.01,102.31 29.58,105.73 30.74,108.96 C31.05,109.81 31.39,110.65 31.52,111.54 C31.76,113.32 30.35,115.77 28.24,114.89 C27.36,114.52 26.64,113.35 26.04,112.67 C25.1,111.6 24.18,110.5 23.28,109.39z "/></g><g id="_R_G_L_6_G" transform=" translate(728.506, 508.169)"><path id="_R_G_L_6_G_D_0_P_0" fill="#ffffff" fill-opacity="1" fill-rule="nonzero" d=" M30.53 98.26 C31.25,96.23 31.95,94.21 32.66,92.21 C32.66,92.21 32.65,92.2 32.66,92.2 C43.53,61.36 53.85,34.7 57.14,27.75 C57.14,27.75 62.56,30.31 62.56,30.31 C59.7,36.35 51.12,58.46 41.57,85.16 C47.36,79.99 52.95,73.81 57.47,67.27 C57.47,67.27 60.76,69.54 60.76,69.54 C54.22,79.03 46.48,86.89 38.9,92.67 C23.91,135.07 7.61,185.9 7.51,202.81 C7.51,202.81 1.5,202.78 1.5,202.78 C1.61,186.01 16.19,139.41 30.53,98.26z "/><path id="_R_G_L_6_G_D_1_P_0" stroke="#343434" stroke-linecap="round" stroke-linejoin="round" fill="none" stroke-width="0.6" stroke-opacity="1" d=" M30.53 98.26 C31.25,96.23 31.95,94.21 32.66,92.21 C32.66,92.21 32.65,92.2 32.66,92.2 C43.53,61.36 53.85,34.7 57.14,27.75 C57.14,27.75 62.56,30.31 62.56,30.31 C59.7,36.35 51.12,58.46 41.57,85.16 C47.36,79.99 52.95,73.81 57.47,67.27 C57.47,67.27 60.76,69.54 60.76,69.54 C54.22,79.03 46.48,86.89 38.9,92.67 C23.91,135.07 7.61,185.9 7.51,202.81 C7.51,202.81 1.5,202.78 1.5,202.78 C1.61,186.01 16.19,139.41 30.53,98.26z "/><path id="_R_G_L_6_G_D_2_P_0" fill="#ffffff" fill-opacity="1" fill-rule="nonzero" d=" M50.78 35.51 C51.85,27.25 53.06,18.63 57.85,11.83 C60.06,8.7 62.93,6.1 65.77,3.54 C66.86,2.55 68.15,1.5 69.61,1.65 C71.63,1.86 72.66,4.17 73,6.18 C74.06,12.58 72.07,19.13 69.14,24.92 C66.22,30.71 62.36,35.99 59.29,41.71 C58.45,43.28 57.65,44.92 56.39,46.18 C55.47,47.09 54.21,47.84 52.89,47.93 C51.09,48.06 50.91,47.13 50.58,45.5 C49.91,42.21 50.35,38.8 50.78,35.51z "/><path id="_R_G_L_6_G_D_3_P_0" stroke="#343434" stroke-linecap="round" stroke-linejoin="round" fill="none" stroke-width="0.6" stroke-opacity="1" d=" M50.78 35.51 C51.85,27.25 53.06,18.63 57.85,11.83 C60.06,8.7 62.93,6.1 65.77,3.54 C66.86,2.55 68.15,1.5 69.61,1.65 C71.63,1.86 72.66,4.17 73,6.18 C74.06,12.58 72.07,19.13 69.14,24.92 C66.22,30.71 62.36,35.99 59.29,41.71 C58.45,43.28 57.65,44.92 56.39,46.18 C55.47,47.09 54.21,47.84 52.89,47.93 C51.09,48.06 50.91,47.13 50.58,45.5 C49.91,42.21 50.35,38.8 50.78,35.51z "/><path id="_R_G_L_6_G_D_4_P_0" fill="#ffffff" fill-opacity="1" fill-rule="nonzero" d=" M60.71 70.59 C59.71,70.68 58.69,70.62 57.69,70.2 C57.41,70.08 57.12,69.93 56.89,69.61 C56.66,69.31 56.49,68.81 56.52,68.34 C56.56,67.86 56.79,67.54 57.01,67.26 C57.69,66.37 58.38,65.48 59.06,64.59 C62.09,60.64 65.26,56.59 69.13,55.46 C69.91,55.24 70.75,55.14 71.53,55.68 C72.44,56.31 73.32,58.21 72.8,59.7 C72.25,61.3 71.33,62.7 70.52,63.91 C68.81,66.43 66.78,68.33 64.57,69.46 C63.33,70.09 62.03,70.48 60.71,70.59z "/><path id="_R_G_L_6_G_D_5_P_0" stroke="#343434" stroke-linecap="round" stroke-linejoin="round" fill="none" stroke-width="0.6" stroke-opacity="1" d=" M60.71 70.59 C59.71,70.68 58.69,70.62 57.69,70.2 C57.41,70.08 57.12,69.93 56.89,69.61 C56.66,69.31 56.49,68.81 56.52,68.34 C56.56,67.86 56.79,67.54 57.01,67.26 C57.69,66.37 58.38,65.48 59.06,64.59 C62.09,60.64 65.26,56.59 69.13,55.46 C69.91,55.24 70.75,55.14 71.53,55.68 C72.44,56.31 73.32,58.21 72.8,59.7 C72.25,61.3 71.33,62.7 70.52,63.91 C68.81,66.43 66.78,68.33 64.57,69.46 C63.33,70.09 62.03,70.48 60.71,70.59z "/></g><g id="_R_G_L_5_G" transform=" translate(1452.994, 253.055)"><path id="_R_G_L_5_G_D_0_P_0" fill="#ffffff" fill-opacity="1" fill-rule="nonzero" d=" M35.81 89.06 C35.81,89.06 38.06,87.08 38.06,87.08 C31.9,80.06 23.95,74.01 14.43,69.09 C14.43,69.09 13.05,71.75 13.05,71.75 C22.24,76.5 29.9,82.32 35.81,89.06z "/><path id="_R_G_L_5_G_D_1_P_0" stroke="#343434" stroke-linecap="round" stroke-linejoin="round" fill="none" stroke-width="0.6" stroke-opacity="1" d=" M35.81 89.06 C35.81,89.06 38.06,87.08 38.06,87.08 C31.9,80.06 23.95,74.01 14.43,69.09 C14.43,69.09 13.05,71.75 13.05,71.75 C22.24,76.5 29.9,82.32 35.81,89.06z "/><path id="_R_G_L_5_G_D_2_P_0" fill="#e7e9be" fill-opacity="1" fill-rule="nonzero" d=" M7.46 69.21 C7.49,70.09 7.83,70.94 8.31,71.68 C8.89,72.55 9.69,73.29 10.66,73.66 C12.62,74.41 15.06,73.32 15.87,71.39 C16.69,69.47 15.82,67 14,65.96 C11.54,64.57 7.35,66.03 7.46,69.21z "/><path id="_R_G_L_5_G_D_3_P_0" stroke="#343434" stroke-linecap="round" stroke-linejoin="round" fill="none" stroke-width="0.6" stroke-opacity="1" d=" M7.46 69.21 C7.49,70.09 7.83,70.94 8.31,71.68 C8.89,72.55 9.69,73.29 10.66,73.66 C12.62,74.41 15.06,73.32 15.87,71.39 C16.69,69.47 15.82,67 14,65.96 C11.54,64.57 7.35,66.03 7.46,69.21z "/><path id="_R_G_L_5_G_D_4_P_0" fill="#ffffff" fill-opacity="1" fill-rule="nonzero" d=" M20.95 43.07 C20.95,43.07 15.68,45.96 15.68,45.96 C15.94,46.42 32.18,76.58 42.18,123.52 C36.97,119.11 32.16,113.73 27.82,107.43 C27.82,107.43 25.35,109.13 25.35,109.13 C30.62,116.79 36.59,123.16 43.12,128.13 C48.19,153.53 51.3,183.5 49.18,216.15 C49.18,216.15 55.16,216.54 55.16,216.54 C61.56,118.38 21.35,43.82 20.95,43.07z "/><path id="_R_G_L_5_G_D_5_P_0" stroke="#343434" stroke-linecap="round" stroke-linejoin="round" fill="none" stroke-width="0.6" stroke-opacity="1" d=" M20.95 43.07 C20.95,43.07 15.68,45.96 15.68,45.96 C15.94,46.42 32.18,76.58 42.18,123.52 C36.97,119.11 32.16,113.73 27.82,107.43 C27.82,107.43 25.35,109.13 25.35,109.13 C30.62,116.79 36.59,123.16 43.12,128.13 C48.19,153.53 51.3,183.5 49.18,216.15 C49.18,216.15 55.16,216.54 55.16,216.54 C61.56,118.38 21.35,43.82 20.95,43.07z "/><path id="_R_G_L_5_G_D_6_P_0" fill="#ffffff" fill-opacity="1" fill-rule="nonzero" d=" M16.9 10.54 C16.44,7.39 15.56,3.7 12.61,2.53 C10.03,1.5 7,3.09 5.47,5.41 C3.95,7.73 3.56,10.59 3.22,13.35 C2.3,20.58 1.5,28.4 5.1,34.74 C7.43,38.83 11.27,41.7 14.17,45.33 C15.45,46.93 18.89,54.3 21.86,52.16 C23.74,50.81 22.12,45.44 21.83,43.67 C21.01,38.58 20.3,33.46 19.54,28.35 C18.66,22.41 17.78,16.48 16.9,10.54z "/><path id="_R_G_L_5_G_D_7_P_0" stroke="#343434" stroke-linecap="round" stroke-linejoin="round" fill="none" stroke-width="0.6" stroke-opacity="1" d=" M16.9 10.54 C16.44,7.39 15.56,3.7 12.61,2.53 C10.03,1.5 7,3.09 5.47,5.41 C3.95,7.73 3.56,10.59 3.22,13.35 C2.3,20.58 1.5,28.4 5.1,34.74 C7.43,38.83 11.27,41.7 14.17,45.33 C15.45,46.93 18.89,54.3 21.86,52.16 C23.74,50.81 22.12,45.44 21.83,43.67 C21.01,38.58 20.3,33.46 19.54,28.35 C18.66,22.41 17.78,16.48 16.9,10.54z "/><path id="_R_G_L_5_G_D_8_P_0" fill="#ffffff" fill-opacity="1" fill-rule="nonzero" d=" M23.28 109.39 C19.61,104.87 16.15,99.68 16.04,93.87 C16.01,92.37 16.33,90.68 17.59,89.85 C19.02,88.89 20.99,89.53 22.39,90.53 C25.2,92.54 26.87,95.76 27.94,99.04 C29.01,102.31 29.58,105.73 30.74,108.96 C31.05,109.81 31.39,110.65 31.52,111.54 C31.76,113.32 30.35,115.77 28.24,114.89 C27.36,114.52 26.64,113.35 26.04,112.67 C25.1,111.6 24.18,110.5 23.28,109.39z "/><path id="_R_G_L_5_G_D_9_P_0" stroke="#343434" stroke-linecap="round" stroke-linejoin="round" fill="none" stroke-width="0.6" stroke-opacity="1" d=" M23.28 109.39 C19.61,104.87 16.15,99.68 16.04,93.87 C16.01,92.37 16.33,90.68 17.59,89.85 C19.02,88.89 20.99,89.53 22.39,90.53 C25.2,92.54 26.87,95.76 27.94,99.04 C29.01,102.31 29.58,105.73 30.74,108.96 C31.05,109.81 31.39,110.65 31.52,111.54 C31.76,113.32 30.35,115.77 28.24,114.89 C27.36,114.52 26.64,113.35 26.04,112.67 C25.1,111.6 24.18,110.5 23.28,109.39z "/></g><g id="_R_G_L_4_G" transform=" translate(563.847, 332.381)"><path id="_R_G_L_4_G_D_0_P_0" fill="#ffffff" fill-opacity="1" fill-rule="nonzero" d=" M27.25 81.87 C27.25,81.87 24.99,79.9 24.99,79.9 C31.15,72.88 39.1,66.83 48.63,61.9 C48.63,61.9 50.01,64.57 50.01,64.57 C40.82,69.32 33.16,75.14 27.25,81.87z "/><path id="_R_G_L_4_G_D_1_P_0" stroke="#343434" stroke-linecap="round" stroke-linejoin="round" fill="none" stroke-width="0.6" stroke-opacity="1" d=" M27.25 81.87 C27.25,81.87 24.99,79.9 24.99,79.9 C31.15,72.88 39.1,66.83 48.63,61.9 C48.63,61.9 50.01,64.57 50.01,64.57 C40.82,69.32 33.16,75.14 27.25,81.87z "/><path id="_R_G_L_4_G_D_2_P_0" fill="#e7e9be" fill-opacity="1" fill-rule="nonzero" d=" M55.6 62.03 C55.57,62.91 55.23,63.76 54.74,64.5 C54.17,65.36 53.37,66.11 52.4,66.48 C50.44,67.22 48,66.14 47.18,64.21 C46.36,62.28 47.24,59.82 49.06,58.78 C51.51,57.38 55.71,58.85 55.6,62.03z "/><path id="_R_G_L_4_G_D_3_P_0" stroke="#343434" stroke-linecap="round" stroke-linejoin="round" fill="none" stroke-width="0.6" stroke-opacity="1" d=" M55.6 62.03 C55.57,62.91 55.23,63.76 54.74,64.5 C54.17,65.36 53.37,66.11 52.4,66.48 C50.44,67.22 48,66.14 47.18,64.21 C46.36,62.28 47.24,59.82 49.06,58.78 C51.51,57.38 55.71,58.85 55.6,62.03z "/><path id="_R_G_L_4_G_D_4_P_0" fill="#ffffff" fill-opacity="1" fill-rule="nonzero" d=" M42.11 35.89 C42.11,35.89 47.37,38.78 47.37,38.78 C47.11,39.24 30.88,69.4 20.88,116.34 C26.09,111.93 30.9,106.54 35.23,100.24 C35.23,100.24 37.71,101.94 37.71,101.94 C32.44,109.6 26.47,115.98 19.93,120.95 C14.87,146.35 11.76,176.32 13.88,208.97 C13.88,208.97 7.89,209.36 7.89,209.36 C1.5,111.19 41.7,36.63 42.11,35.89z "/><path id="_R_G_L_4_G_D_5_P_0" stroke="#343434" stroke-linecap="round" stroke-linejoin="round" fill="none" stroke-width="0.6" stroke-opacity="1" d=" M42.11 35.89 C42.11,35.89 47.37,38.78 47.37,38.78 C47.11,39.24 30.88,69.4 20.88,116.34 C26.09,111.93 30.9,106.54 35.23,100.24 C35.23,100.24 37.71,101.94 37.71,101.94 C32.44,109.6 26.47,115.98 19.93,120.95 C14.87,146.35 11.76,176.32 13.88,208.97 C13.88,208.97 7.89,209.36 7.89,209.36 C1.5,111.19 41.7,36.63 42.11,35.89z "/><path id="_R_G_L_4_G_D_6_P_0" fill="#ffffff" fill-opacity="1" fill-rule="nonzero" d=" M64.94 13.54 C66.58,10.81 68.24,7.4 66.69,4.62 C65.34,2.19 62,1.5 59.35,2.33 C56.7,3.16 54.58,5.13 52.57,7.05 C47.29,12.07 41.71,17.61 40.49,24.8 C39.7,29.44 40.85,34.09 40.81,38.74 C40.78,40.79 38.78,48.67 42.44,48.9 C44.75,49.04 46.89,43.86 47.79,42.31 C50.38,37.84 53.06,33.43 55.71,29 C58.79,23.84 61.87,18.69 64.94,13.54z "/><path id="_R_G_L_4_G_D_7_P_0" stroke="#343434" stroke-linecap="round" stroke-linejoin="round" fill="none" stroke-width="0.6" stroke-opacity="1" d=" M64.94 13.54 C66.58,10.81 68.24,7.4 66.69,4.62 C65.34,2.19 62,1.5 59.35,2.33 C56.7,3.16 54.58,5.13 52.57,7.05 C47.29,12.07 41.71,17.61 40.49,24.8 C39.7,29.44 40.85,34.09 40.81,38.74 C40.78,40.79 38.78,48.67 42.44,48.9 C44.75,49.04 46.89,43.86 47.79,42.31 C50.38,37.84 53.06,33.43 55.71,29 C58.79,23.84 61.87,18.69 64.94,13.54z "/><path id="_R_G_L_4_G_D_8_P_0" fill="#ffffff" fill-opacity="1" fill-rule="nonzero" d=" M39.78 102.21 C43.45,97.68 46.91,92.5 47.02,86.69 C47.04,85.19 46.73,83.5 45.47,82.66 C44.03,81.71 42.06,82.35 40.67,83.34 C37.85,85.35 36.18,88.58 35.12,91.85 C34.05,95.12 33.48,98.54 32.31,101.78 C32.01,102.63 31.66,103.47 31.54,104.36 C31.29,106.14 32.71,108.59 34.82,107.7 C35.7,107.34 36.41,106.17 37.01,105.49 C37.95,104.41 38.88,103.32 39.78,102.21z "/><path id="_R_G_L_4_G_D_9_P_0" stroke="#343434" stroke-linecap="round" stroke-linejoin="round" fill="none" stroke-width="0.6" stroke-opacity="1" d=" M39.78 102.21 C43.45,97.68 46.91,92.5 47.02,86.69 C47.04,85.19 46.73,83.5 45.47,82.66 C44.03,81.71 42.06,82.35 40.67,83.34 C37.85,85.35 36.18,88.58 35.12,91.85 C34.05,95.12 33.48,98.54 32.31,101.78 C32.01,102.63 31.66,103.47 31.54,104.36 C31.29,106.14 32.71,108.59 34.82,107.7 C35.7,107.34 36.41,106.17 37.01,105.49 C37.95,104.41 38.88,103.32 39.78,102.21z "/></g><g id="_R_G_L_3_G" transform=" translate(688.91, 471.521)"><path id="_R_G_L_3_G_D_0_P_0" fill="#ffffff" fill-opacity="1" fill-rule="nonzero" d=" M5.05 102.48 C5.05,102.48 1.5,100.63 1.5,100.63 C9.09,86.03 23.25,52.14 27.26,35.26 C27.26,35.26 31.15,36.18 31.15,36.18 C26.93,53.97 12.65,87.86 5.05,102.48z "/><path id="_R_G_L_3_G_D_1_P_0" stroke="#343434" stroke-linecap="round" stroke-linejoin="round" fill="none" stroke-width="0.6" stroke-opacity="1" d=" M5.05 102.48 C5.05,102.48 1.5,100.63 1.5,100.63 C9.09,86.03 23.25,52.14 27.26,35.26 C27.26,35.26 31.15,36.18 31.15,36.18 C26.93,53.97 12.65,87.86 5.05,102.48z "/><path id="_R_G_L_3_G_D_2_P_0" fill="#ffffff" fill-opacity="1" fill-rule="nonzero" d=" M26.29 32.01 C26.29,34.25 26.48,36.52 27.14,38.66 C27.33,39.26 27.56,39.86 27.99,40.32 C28.41,40.78 29.07,41.07 29.67,40.89 C30.28,40.72 30.67,40.14 31,39.61 C32.07,37.91 33.15,36.21 34.22,34.51 C38.96,26.99 43.82,19.13 44.83,10.3 C45.04,8.51 45.07,6.61 44.28,4.98 C43.37,3.07 40.82,1.5 38.96,2.94 C36.96,4.49 35.26,6.8 33.8,8.84 C30.74,13.15 28.52,18.05 27.32,23.19 C26.65,26.08 26.3,29.04 26.29,32.01z "/><path id="_R_G_L_3_G_D_3_P_0" stroke="#343434" stroke-linecap="round" stroke-linejoin="round" fill="none" stroke-width="0.6" stroke-opacity="1" d=" M26.29 32.01 C26.29,34.25 26.48,36.52 27.14,38.66 C27.33,39.26 27.56,39.86 27.99,40.32 C28.41,40.78 29.07,41.07 29.67,40.89 C30.28,40.72 30.67,40.14 31,39.61 C32.07,37.91 33.15,36.21 34.22,34.51 C38.96,26.99 43.82,19.13 44.83,10.3 C45.04,8.51 45.07,6.61 44.28,4.98 C43.37,3.07 40.82,1.5 38.96,2.94 C36.96,4.49 35.26,6.8 33.8,8.84 C30.74,13.15 28.52,18.05 27.32,23.19 C26.65,26.08 26.3,29.04 26.29,32.01z "/></g><g id="_R_G_L_2_G" transform=" translate(944.209, 327.74)"><path id="_R_G_L_2_G_D_0_P_0" fill="#ffffff" fill-opacity="1" fill-rule="nonzero" d=" M35.02 114.64 C34.94,112.49 34.86,110.35 34.78,108.23 C34.78,108.23 34.79,108.23 34.78,108.22 C33.49,75.55 31.49,47.03 30.41,39.42 C30.41,39.42 24.47,40.27 24.47,40.27 C25.42,46.88 27.09,70.54 28.34,98.87 C24.33,92.22 20.82,84.67 18.43,77.08 C18.43,77.08 14.61,78.28 14.61,78.28 C18.06,89.28 23.14,99.07 28.68,106.83 C30.49,151.77 31.06,205.14 26.17,221.33 C26.17,221.33 31.92,223.07 31.92,223.07 C36.75,207.02 36.58,158.19 35.02,114.64z "/><path id="_R_G_L_2_G_D_1_P_0" stroke="#343434" stroke-linecap="round" stroke-linejoin="round" fill="none" stroke-width="0.6" stroke-opacity="1" d=" M35.02 114.64 C34.94,112.49 34.86,110.35 34.78,108.23 C34.78,108.23 34.79,108.23 34.78,108.22 C33.49,75.55 31.49,47.03 30.41,39.42 C30.41,39.42 24.47,40.27 24.47,40.27 C25.42,46.88 27.09,70.54 28.34,98.87 C24.33,92.22 20.82,84.67 18.43,77.08 C18.43,77.08 14.61,78.28 14.61,78.28 C18.06,89.28 23.14,99.07 28.68,106.83 C30.49,151.77 31.06,205.14 26.17,221.33 C26.17,221.33 31.92,223.07 31.92,223.07 C36.75,207.02 36.58,158.19 35.02,114.64z "/><path id="_R_G_L_2_G_D_2_P_0" fill="#ffffff" fill-opacity="1" fill-rule="nonzero" d=" M17.65 12.32 C17.03,9.2 16.61,5.43 19,3.33 C21.09,1.5 24.47,1.98 26.69,3.65 C28.9,5.32 30.23,7.89 31.48,10.37 C34.77,16.88 38.15,23.97 36.89,31.15 C36.07,35.78 33.42,39.78 31.9,44.17 C31.23,46.11 30.47,54.21 26.95,53.19 C24.73,52.55 24.46,46.95 24.13,45.19 C23.19,40.11 22.15,35.05 21.14,29.98 C19.98,24.1 18.81,18.21 17.65,12.32z "/><path id="_R_G_L_2_G_D_3_P_0" stroke="#343434" stroke-linecap="round" stroke-linejoin="round" fill="none" stroke-width="0.6" stroke-opacity="1" d=" M17.65 12.32 C17.03,9.2 16.61,5.43 19,3.33 C21.09,1.5 24.47,1.98 26.69,3.65 C28.9,5.32 30.23,7.89 31.48,10.37 C34.77,16.88 38.15,23.97 36.89,31.15 C36.07,35.78 33.42,39.78 31.9,44.17 C31.23,46.11 30.47,54.21 26.95,53.19 C24.73,52.55 24.46,46.95 24.13,45.19 C23.19,40.11 22.15,35.05 21.14,29.98 C19.98,24.1 18.81,18.21 17.65,12.32z "/><path id="_R_G_L_2_G_D_4_P_0" fill="#ffffff" fill-opacity="1" fill-rule="nonzero" d=" M10.62 79.09 C5.81,71.22 1.5,62.37 2.72,53.3 C3.04,50.97 3.95,48.4 6.18,47.39 C8.72,46.23 11.73,47.67 13.74,49.53 C17.77,53.29 19.68,58.7 20.61,64.03 C21.54,69.36 21.63,74.81 22.73,80.11 C23.01,81.5 23.37,82.89 23.35,84.3 C23.31,87.12 20.45,90.62 17.27,88.76 C15.95,87.99 15.07,86.02 14.28,84.82 C13.02,82.93 11.81,81.02 10.62,79.09z "/><path id="_R_G_L_2_G_D_5_P_0" stroke="#343434" stroke-linecap="round" stroke-linejoin="round" fill="none" stroke-width="0.6" stroke-opacity="1" d=" M10.62 79.09 C5.81,71.22 1.5,62.37 2.72,53.3 C3.04,50.97 3.95,48.4 6.18,47.39 C8.72,46.23 11.73,47.67 13.74,49.53 C17.77,53.29 19.68,58.7 20.61,64.03 C21.54,69.36 21.63,74.81 22.73,80.11 C23.01,81.5 23.37,82.89 23.35,84.3 C23.31,87.12 20.45,90.62 17.27,88.76 C15.95,87.99 15.07,86.02 14.28,84.82 C13.02,82.93 11.81,81.02 10.62,79.09z "/></g><g id="_R_G_L_1_G" transform=" translate(406.694, 451.033)"><path id="_R_G_L_1_G_D_0_P_0" fill="#ffffff" fill-opacity="1" fill-rule="nonzero" d=" M20.76 49.83 C20.76,49.83 15.78,52.17 15.78,52.17 C19.15,59.35 20.25,72.56 20.41,86.23 C19.12,82.55 17.69,79.7 16.29,77.29 C16.29,77.29 12.83,79.29 12.83,79.29 C15.71,84.28 18.78,91.23 20.15,104.79 C19.96,110.5 19.7,115.81 19.48,120.23 C19.39,121.94 19.31,123.54 19.24,125.01 C19.24,125.01 24.74,125.26 24.74,125.26 C24.81,123.8 24.89,122.21 24.97,120.51 C26,99.64 27.74,64.71 20.76,49.83z "/><path id="_R_G_L_1_G_D_1_P_0" stroke="#343434" stroke-linecap="round" stroke-linejoin="round" fill="none" stroke-width="0.6" stroke-opacity="1" d=" M20.76 49.83 C20.76,49.83 15.78,52.17 15.78,52.17 C19.15,59.35 20.25,72.56 20.41,86.23 C19.12,82.55 17.69,79.7 16.29,77.29 C16.29,77.29 12.83,79.29 12.83,79.29 C15.71,84.28 18.78,91.23 20.15,104.79 C19.96,110.5 19.7,115.81 19.48,120.23 C19.39,121.94 19.31,123.54 19.24,125.01 C19.24,125.01 24.74,125.26 24.74,125.26 C24.81,123.8 24.89,122.21 24.97,120.51 C26,99.64 27.74,64.71 20.76,49.83z "/><path id="_R_G_L_1_G_D_2_P_0" fill="#ffffff" fill-opacity="1" fill-rule="nonzero" d=" M15.78 54.49 C14.4,52.84 13.67,50.76 12.97,48.73 C10.61,41.94 8.25,35.16 5.9,28.37 C3.7,22.06 1.5,15.17 3.67,8.85 C4.4,6.74 5.65,4.74 7.52,3.54 C10.68,1.5 15.06,2.17 18.06,4.43 C21.07,6.68 22.85,10.23 23.87,13.85 C25.57,19.93 25.33,26.36 25.08,32.66 C24.84,39 24.59,45.33 24.34,51.66 C24.25,53.94 25.22,57.69 22.25,57.71 C19.84,57.72 17.29,56.31 15.78,54.49z "/><path id="_R_G_L_1_G_D_3_P_0" stroke="#343434" stroke-linecap="round" stroke-linejoin="round" fill="none" stroke-width="0.6" stroke-opacity="1" d=" M15.78 54.49 C14.4,52.84 13.67,50.76 12.97,48.73 C10.61,41.94 8.25,35.16 5.9,28.37 C3.7,22.06 1.5,15.17 3.67,8.85 C4.4,6.74 5.65,4.74 7.52,3.54 C10.68,1.5 15.06,2.17 18.06,4.43 C21.07,6.68 22.85,10.23 23.87,13.85 C25.57,19.93 25.33,26.36 25.08,32.66 C24.84,39 24.59,45.33 24.34,51.66 C24.25,53.94 25.22,57.69 22.25,57.71 C19.84,57.72 17.29,56.31 15.78,54.49z "/><path id="_R_G_L_1_G_D_4_P_0" fill="#ffffff" fill-opacity="1" fill-rule="nonzero" d=" M8.28 72.55 C4.82,65.67 1.81,58.01 3.27,50.45 C3.65,48.5 4.51,46.4 6.36,45.67 C8.46,44.83 10.81,46.21 12.33,47.89 C15.38,51.26 16.64,55.91 17.11,60.44 C17.58,64.97 17.36,69.56 17.97,74.07 C18.12,75.25 18.34,76.43 18.25,77.62 C18.08,79.99 15.59,82.77 13.12,81.04 C12.1,80.32 11.5,78.61 10.92,77.56 C10.01,75.91 9.13,74.23 8.28,72.55z "/><path id="_R_G_L_1_G_D_5_P_0" stroke="#343434" stroke-linecap="round" stroke-linejoin="round" fill="none" stroke-width="0.6" stroke-opacity="1" d=" M8.28 72.55 C4.82,65.67 1.81,58.01 3.27,50.45 C3.65,48.5 4.51,46.4 6.36,45.67 C8.46,44.83 10.81,46.21 12.33,47.89 C15.38,51.26 16.64,55.91 17.11,60.44 C17.58,64.97 17.36,69.56 17.97,74.07 C18.12,75.25 18.34,76.43 18.25,77.62 C18.08,79.99 15.59,82.77 13.12,81.04 C12.1,80.32 11.5,78.61 10.92,77.56 C10.01,75.91 9.13,74.23 8.28,72.55z "/></g><g id="_R_G_L_0_G" transform=" translate(82.327, 468.986)"><path id="_R_G_L_0_G_D_0_P_0" fill="#ffffff" fill-opacity="1" fill-rule="nonzero" d=" M3.94 105.65 C4.03,103.5 4.13,101.36 4.22,99.24 C4.22,99.24 4.22,99.24 4.22,99.23 C5.76,66.57 7.97,38.06 9.11,30.46 C9.11,30.46 15.05,31.36 15.05,31.36 C14.05,37.96 12.2,61.61 10.73,89.93 C14.8,83.31 18.36,75.78 20.81,68.21 C20.81,68.21 24.62,69.44 24.62,69.44 C21.09,80.41 15.93,90.17 10.34,97.88 C8.19,142.81 7.21,196.17 11.98,212.4 C11.98,212.4 6.22,214.09 6.22,214.09 C1.5,198.01 2.05,149.18 3.94,105.65z "/><path id="_R_G_L_0_G_D_1_P_0" stroke="#343434" stroke-linecap="round" stroke-linejoin="round" fill="none" stroke-width="0.6" stroke-opacity="1" d=" M3.94 105.65 C4.03,103.5 4.13,101.36 4.22,99.24 C4.22,99.24 4.22,99.24 4.22,99.23 C5.76,66.57 7.97,38.06 9.11,30.46 C9.11,30.46 15.05,31.36 15.05,31.36 C14.05,37.96 12.2,61.61 10.73,89.93 C14.8,83.31 18.36,75.78 20.81,68.21 C20.81,68.21 24.62,69.44 24.62,69.44 C21.09,80.41 15.93,90.17 10.34,97.88 C8.19,142.81 7.21,196.17 11.98,212.4 C11.98,212.4 6.22,214.09 6.22,214.09 C1.5,198.01 2.05,149.18 3.94,105.65z "/><path id="_R_G_L_0_G_D_2_P_0" fill="#ffffff" fill-opacity="1" fill-rule="nonzero" d=" M5.26 39.72 C3.91,31.51 2.58,22.91 5.21,15.01 C6.43,11.38 8.43,8.06 10.41,4.79 C11.18,3.53 12.1,2.15 13.55,1.88 C15.54,1.5 17.2,3.41 18.09,5.24 C20.95,11.06 20.93,17.91 19.8,24.3 C18.66,30.69 16.49,36.85 15.2,43.21 C14.84,44.95 14.55,46.75 13.7,48.32 C13.09,49.46 12.09,50.54 10.86,51.01 C9.17,51.65 8.73,50.81 7.95,49.35 C6.36,46.39 5.79,43 5.26,39.72z "/><path id="_R_G_L_0_G_D_3_P_0" stroke="#343434" stroke-linecap="round" stroke-linejoin="round" fill="none" stroke-width="0.6" stroke-opacity="1" d=" M5.26 39.72 C3.91,31.51 2.58,22.91 5.21,15.01 C6.43,11.38 8.43,8.06 10.41,4.79 C11.18,3.53 12.1,2.15 13.55,1.88 C15.54,1.5 17.2,3.41 18.09,5.24 C20.95,11.06 20.93,17.91 19.8,24.3 C18.66,30.69 16.49,36.85 15.2,43.21 C14.84,44.95 14.55,46.75 13.7,48.32 C13.09,49.46 12.09,50.54 10.86,51.01 C9.17,51.65 8.73,50.81 7.95,49.35 C6.36,46.39 5.79,43 5.26,39.72z "/><path id="_R_G_L_0_G_D_4_P_0" fill="#ffffff" fill-opacity="1" fill-rule="nonzero" d=" M24.87 70.46 C23.94,70.84 22.94,71.07 21.86,70.95 C21.56,70.92 21.24,70.86 20.93,70.63 C20.62,70.4 20.31,69.97 20.21,69.51 C20.11,69.04 20.24,68.67 20.36,68.34 C20.76,67.29 21.16,66.24 21.56,65.19 C23.33,60.54 25.2,55.74 28.57,53.55 C29.26,53.11 30.04,52.77 30.94,53.07 C32,53.41 33.38,54.97 33.31,56.55 C33.24,58.24 32.77,59.85 32.34,61.24 C31.43,64.15 30.03,66.55 28.24,68.26 C27.23,69.23 26.1,69.97 24.87,70.46z "/><path id="_R_G_L_0_G_D_5_P_0" stroke="#343434" stroke-linecap="round" stroke-linejoin="round" fill="none" stroke-width="0.6" stroke-opacity="1" d=" M24.87 70.46 C23.94,70.84 22.94,71.07 21.86,70.95 C21.56,70.92 21.24,70.86 20.93,70.63 C20.62,70.4 20.31,69.97 20.21,69.51 C20.11,69.04 20.24,68.67 20.36,68.34 C20.76,67.29 21.16,66.24 21.56,65.19 C23.33,60.54 25.2,55.74 28.57,53.55 C29.26,53.11 30.04,52.77 30.94,53.07 C32,53.41 33.38,54.97 33.31,56.55 C33.24,58.24 32.77,59.85 32.34,61.24 C31.43,64.15 30.03,66.55 28.24,68.26 C27.23,69.23 26.1,69.97 24.87,70.46z "/></g></g><g id="time_group"/></svg>