<svg xmlns="http://www.w3.org/2000/svg" xmlns:xlink="http://www.w3.org/1999/xlink" preserveAspectRatio="xMidYMid meet" width="1512" height="362" viewBox="0 0 1512 362" style="width:100%;height:100%"><defs><animateTransform repeatCount="indefinite" dur="3s" begin="0s" xlink:href="#_R_G_L_5_G" fill="freeze" attributeName="transform" from="-5" to="-5" type="rotate" additive="sum" keyTimes="0;0.4888889;0.9888889;1" values="-5;0;-5;-5" keySplines="0.512 0 0.667 1;0.373 0 0.474 1;0 0 0 0" calcMode="spline"/><animateTransform repeatCount="indefinite" dur="3s" begin="0s" xlink:href="#_R_G_L_5_G" fill="freeze" attributeName="transform" from="-22.75 -116.075" to="-22.75 -116.075" type="translate" additive="sum" keyTimes="0;1" values="-22.75 -116.075;-22.75 -116.075" keySplines="0 0 1 1" calcMode="spline"/><animateTransform repeatCount="indefinite" dur="3s" begin="0s" xlink:href="#_R_G_L_4_G" fill="freeze" attributeName="transform" from="-10" to="-10" type="rotate" additive="sum" keyTimes="0;0.4888889;0.9888889;1" values="-10;-4;-10;-10" keySplines="0.512 0 0.667 1;0.373 0 0.474 1;0 0 0 0" calcMode="spline"/><animateTransform repeatCount="indefinite" dur="3s" begin="0s" xlink:href="#_R_G_L_4_G" fill="freeze" attributeName="transform" from="-6.35 -102.849" to="-6.35 -102.849" type="translate" additive="sum" keyTimes="0;1" values="-6.35 -102.849;-6.35 -102.849" keySplines="0 0 1 1" calcMode="spline"/><animateTransform repeatCount="indefinite" dur="3s" begin="0s" xlink:href="#_R_G_L_3_G" fill="freeze" attributeName="transform" from="-5" to="-5" type="rotate" additive="sum" keyTimes="0;0.4222222;0.9888889;1" values="-5;0;-5;-5" keySplines="0.512 0 0.667 1;0.373 0 0.474 1;0 0 0 0" calcMode="spline"/><animateTransform repeatCount="indefinite" dur="3s" begin="0s" xlink:href="#_R_G_L_3_G" fill="freeze" attributeName="transform" from="-8.597 -91.725" to="-8.597 -91.725" type="translate" additive="sum" keyTimes="0;1" values="-8.597 -91.725;-8.597 -91.725" keySplines="0 0 1 1" calcMode="spline"/><animateTransform repeatCount="indefinite" dur="3s" begin="0s" xlink:href="#_R_G_L_2_G" fill="freeze" attributeName="transform" from="-8" to="-8" type="rotate" additive="sum" keyTimes="0;0.4888889;0.9888889;1" values="-8;-1;-8;-8" keySplines="0.512 0 0.667 1;0.373 0 0.474 1;0 0 0 0" calcMode="spline"/><animateTransform repeatCount="indefinite" dur="3s" begin="0s" xlink:href="#_R_G_L_2_G" fill="freeze" attributeName="transform" from="-22.154 -117.646" to="-22.154 -117.646" type="translate" additive="sum" keyTimes="0;1" values="-22.154 -117.646;-22.154 -117.646" keySplines="0 0 1 1" calcMode="spline"/><animateTransform repeatCount="indefinite" dur="3s" begin="0s" xlink:href="#_R_G_L_1_G" fill="freeze" attributeName="transform" from="-5" to="-5" type="rotate" additive="sum" keyTimes="0;0.5888889;0.9888889;1" values="-5;0;-5;-5" keySplines="0.512 0 0.667 1;0.373 0 0.474 1;0 0 0 0" calcMode="spline"/><animateTransform repeatCount="indefinite" dur="3s" begin="0s" xlink:href="#_R_G_L_1_G" fill="freeze" attributeName="transform" from="-26.939 -84.351" to="-26.939 -84.351" type="translate" additive="sum" keyTimes="0;1" values="-26.939 -84.351;-26.939 -84.351" keySplines="0 0 1 1" calcMode="spline"/><animateTransform repeatCount="indefinite" dur="3s" begin="0s" xlink:href="#_R_G_L_0_G" fill="freeze" attributeName="transform" from="-5" to="-5" type="rotate" additive="sum" keyTimes="0;0.5333333;0.9888889;1" values="-5;0;-5;-5" keySplines="0.512 0 0.667 1;0.373 0 0.474 1;0 0 0 0" calcMode="spline"/><animateTransform repeatCount="indefinite" dur="3s" begin="0s" xlink:href="#_R_G_L_0_G" fill="freeze" attributeName="transform" from="-65.17 -176.336" to="-65.17 -176.336" type="translate" additive="sum" keyTimes="0;1" values="-65.17 -176.336;-65.17 -176.336" keySplines="0 0 1 1" calcMode="spline"/><animate attributeType="XML" attributeName="opacity" dur="3s" from="0" to="1" xlink:href="#time_group"/></defs><g id="_R_G"><g id="_R_G_L_5_G" transform=" translate(1331.937, 236.445)"><path id="_R_G_L_5_G_D_0_P_0" fill="#ffffff" fill-opacity="1" fill-rule="nonzero" d=" M23 73.95 C23,73.95 20.26,72.73 20.26,72.73 C24.05,64.2 29.85,56.05 37.48,48.52 C37.48,48.52 39.59,50.66 39.59,50.66 C32.22,57.93 26.64,65.76 23,73.95z "/><path id="_R_G_L_5_G_D_1_P_0" stroke="#343434" stroke-linecap="round" stroke-linejoin="round" fill="none" stroke-width="0.6" stroke-opacity="1" d=" M23 73.95 C23,73.95 20.26,72.73 20.26,72.73 C24.05,64.2 29.85,56.05 37.48,48.52 C37.48,48.52 39.59,50.66 39.59,50.66 C32.22,57.93 26.64,65.76 23,73.95z "/><path id="_R_G_L_5_G_D_2_P_0" fill="#ffffff" fill-opacity="1" fill-rule="nonzero" d=" M20.76 49.83 C20.76,49.83 15.78,52.17 15.78,52.17 C19.15,59.35 20.25,72.56 20.41,86.23 C19.12,82.55 17.69,79.7 16.29,77.29 C16.29,77.29 12.83,79.29 12.83,79.29 C15.71,84.28 18.78,91.23 20.15,104.79 C19.96,110.5 19.7,115.81 19.48,120.23 C19.39,121.94 19.31,123.54 19.24,125.01 C19.24,125.01 24.74,125.26 24.74,125.26 C24.81,123.8 24.89,122.21 24.97,120.51 C26,99.64 27.74,64.71 20.76,49.83z "/><path id="_R_G_L_5_G_D_3_P_0" stroke="#343434" stroke-linecap="round" stroke-linejoin="round" fill="none" stroke-width="0.6" stroke-opacity="1" d=" M20.76 49.83 C20.76,49.83 15.78,52.17 15.78,52.17 C19.15,59.35 20.25,72.56 20.41,86.23 C19.12,82.55 17.69,79.7 16.29,77.29 C16.29,77.29 12.83,79.29 12.83,79.29 C15.71,84.28 18.78,91.23 20.15,104.79 C19.96,110.5 19.7,115.81 19.48,120.23 C19.39,121.94 19.31,123.54 19.24,125.01 C19.24,125.01 24.74,125.26 24.74,125.26 C24.81,123.8 24.89,122.21 24.97,120.51 C26,99.64 27.74,64.71 20.76,49.83z "/><path id="_R_G_L_5_G_D_4_P_0" fill="#ffffff" fill-opacity="1" fill-rule="nonzero" d=" M15.78 54.49 C14.4,52.84 13.67,50.76 12.97,48.73 C10.61,41.94 8.25,35.16 5.9,28.37 C3.7,22.06 1.5,15.17 3.67,8.85 C4.4,6.74 5.65,4.74 7.52,3.54 C10.68,1.5 15.06,2.17 18.06,4.43 C21.07,6.68 22.85,10.23 23.87,13.85 C25.57,19.93 25.33,26.36 25.09,32.66 C24.84,39 24.59,45.33 24.34,51.66 C24.25,53.94 25.22,57.69 22.25,57.71 C19.84,57.72 17.29,56.31 15.78,54.49z "/><path id="_R_G_L_5_G_D_5_P_0" stroke="#343434" stroke-linecap="round" stroke-linejoin="round" fill="none" stroke-width="0.6" stroke-opacity="1" d=" M15.78 54.49 C14.4,52.84 13.67,50.76 12.97,48.73 C10.61,41.94 8.25,35.16 5.9,28.37 C3.7,22.06 1.5,15.17 3.67,8.85 C4.4,6.74 5.65,4.74 7.52,3.54 C10.68,1.5 15.06,2.17 18.06,4.43 C21.07,6.68 22.85,10.23 23.87,13.85 C25.57,19.93 25.33,26.36 25.09,32.66 C24.84,39 24.59,45.33 24.34,51.66 C24.25,53.94 25.22,57.69 22.25,57.71 C19.84,57.72 17.29,56.31 15.78,54.49z "/><path id="_R_G_L_5_G_D_6_P_0" fill="#ffffff" fill-opacity="1" fill-rule="nonzero" d=" M30.38 54.3 C30.1,55.26 29.97,56.28 30.2,57.34 C30.26,57.64 30.36,57.95 30.62,58.23 C30.88,58.52 31.34,58.78 31.8,58.84 C32.27,58.89 32.63,58.72 32.95,58.57 C33.95,58.06 34.96,57.56 35.97,57.06 C40.41,54.83 44.99,52.48 46.83,48.9 C47.2,48.17 47.46,47.36 47.07,46.5 C46.63,45.48 44.93,44.27 43.37,44.49 C41.69,44.73 40.14,45.36 38.81,45.93 C36,47.13 33.75,48.77 32.23,50.73 C31.37,51.82 30.75,53.02 30.38,54.3z "/><path id="_R_G_L_5_G_D_7_P_0" stroke="#343434" stroke-linecap="round" stroke-linejoin="round" fill="none" stroke-width="0.6" stroke-opacity="1" d=" M30.38 54.3 C30.1,55.26 29.97,56.28 30.2,57.34 C30.26,57.64 30.36,57.95 30.62,58.23 C30.88,58.52 31.34,58.78 31.8,58.84 C32.27,58.89 32.63,58.72 32.95,58.57 C33.95,58.06 34.96,57.56 35.97,57.06 C40.41,54.83 44.99,52.48 46.83,48.9 C47.2,48.17 47.46,47.36 47.07,46.5 C46.63,45.48 44.93,44.27 43.37,44.49 C41.69,44.73 40.14,45.36 38.81,45.93 C36,47.13 33.75,48.77 32.23,50.73 C31.37,51.82 30.75,53.02 30.38,54.3z "/><path id="_R_G_L_5_G_D_8_P_0" fill="#ffffff" fill-opacity="1" fill-rule="nonzero" d=" M8.28 72.55 C4.82,65.67 1.81,58.01 3.27,50.45 C3.65,48.5 4.51,46.4 6.36,45.67 C8.46,44.83 10.81,46.21 12.33,47.89 C15.38,51.26 16.64,55.91 17.11,60.44 C17.58,64.97 17.36,69.56 17.97,74.07 C18.12,75.25 18.34,76.43 18.25,77.62 C18.08,79.99 15.59,82.77 13.12,81.04 C12.1,80.32 11.5,78.61 10.92,77.56 C10.01,75.91 9.13,74.23 8.28,72.55z "/><path id="_R_G_L_5_G_D_9_P_0" stroke="#343434" stroke-linecap="round" stroke-linejoin="round" fill="none" stroke-width="0.6" stroke-opacity="1" d=" M8.28 72.55 C4.82,65.67 1.81,58.01 3.27,50.45 C3.65,48.5 4.51,46.4 6.36,45.67 C8.46,44.83 10.81,46.21 12.33,47.89 C15.38,51.26 16.64,55.91 17.11,60.44 C17.58,64.97 17.36,69.56 17.97,74.07 C18.12,75.25 18.34,76.43 18.25,77.62 C18.08,79.99 15.59,82.77 13.12,81.04 C12.1,80.32 11.5,78.61 10.92,77.56 C10.01,75.91 9.13,74.23 8.28,72.55z "/></g><g id="_R_G_L_4_G" transform=" translate(1129.004, 229.144)"><path id="_R_G_L_4_G_D_0_P_0" fill="#ffffff" fill-opacity="1" fill-rule="nonzero" d=" M5.2 112.63 C5.2,112.63 1.5,111.12 1.5,111.12 C7.72,95.88 18.71,60.84 21.15,43.66 C21.15,43.66 25.11,44.22 25.11,44.22 C22.54,62.32 11.43,97.38 5.2,112.63z "/><path id="_R_G_L_4_G_D_1_P_0" stroke="#343434" stroke-linecap="round" stroke-linejoin="round" fill="none" stroke-width="0.6" stroke-opacity="1" d=" M5.2 112.63 C5.2,112.63 1.5,111.12 1.5,111.12 C7.72,95.88 18.71,60.84 21.15,43.66 C21.15,43.66 25.11,44.22 25.11,44.22 C22.54,62.32 11.43,97.38 5.2,112.63z "/><path id="_R_G_L_4_G_D_2_P_0" fill="#ffffff" fill-opacity="1" fill-rule="nonzero" d=" M19.08 37.78 C18.96,29.46 18.92,20.75 22.69,13.33 C24.43,9.92 26.9,6.94 29.35,3.99 C30.29,2.86 31.41,1.64 32.88,1.58 C34.9,1.5 36.26,3.64 36.87,5.57 C38.84,11.75 37.81,18.52 35.74,24.68 C33.68,30.83 30.61,36.6 28.4,42.7 C27.79,44.37 27.23,46.11 26.16,47.54 C25.38,48.57 24.24,49.5 22.95,49.77 C21.19,50.16 20.88,49.26 20.32,47.7 C19.18,44.54 19.13,41.1 19.08,37.78z "/><path id="_R_G_L_4_G_D_3_P_0" stroke="#343434" stroke-linecap="round" stroke-linejoin="round" fill="none" stroke-width="0.6" stroke-opacity="1" d=" M19.08 37.78 C18.96,29.46 18.92,20.75 22.69,13.33 C24.43,9.92 26.9,6.94 29.35,3.99 C30.29,2.86 31.41,1.64 32.88,1.58 C34.9,1.5 36.26,3.64 36.87,5.57 C38.84,11.75 37.81,18.52 35.74,24.68 C33.68,30.83 30.61,36.6 28.4,42.7 C27.79,44.37 27.23,46.11 26.16,47.54 C25.38,48.57 24.24,49.5 22.95,49.77 C21.19,50.16 20.88,49.26 20.32,47.7 C19.18,44.54 19.13,41.1 19.08,37.78z "/></g><g id="_R_G_L_3_G" transform=" translate(1021.077, 184.268)"><path id="_R_G_L_3_G_D_0_P_0" fill="#ffffff" fill-opacity="1" fill-rule="nonzero" d=" M5.05 102.48 C5.05,102.48 1.5,100.63 1.5,100.63 C9.09,86.03 23.25,52.14 27.26,35.26 C27.26,35.26 31.15,36.18 31.15,36.18 C26.93,53.97 12.65,87.86 5.05,102.48z "/><path id="_R_G_L_3_G_D_1_P_0" stroke="#343434" stroke-linecap="round" stroke-linejoin="round" fill="none" stroke-width="0.6" stroke-opacity="1" d=" M5.05 102.48 C5.05,102.48 1.5,100.63 1.5,100.63 C9.09,86.03 23.25,52.14 27.26,35.26 C27.26,35.26 31.15,36.18 31.15,36.18 C26.93,53.97 12.65,87.86 5.05,102.48z "/><path id="_R_G_L_3_G_D_2_P_0" fill="#ffffff" fill-opacity="1" fill-rule="nonzero" d=" M26.29 32.01 C26.29,34.25 26.48,36.52 27.14,38.66 C27.33,39.26 27.56,39.86 27.99,40.32 C28.41,40.78 29.07,41.07 29.67,40.89 C30.28,40.72 30.67,40.14 31,39.61 C32.07,37.91 33.14,36.21 34.22,34.51 C38.96,26.99 43.82,19.13 44.83,10.3 C45.04,8.51 45.07,6.61 44.28,4.98 C43.37,3.07 40.82,1.5 38.96,2.94 C36.96,4.49 35.26,6.8 33.8,8.84 C30.74,13.15 28.52,18.05 27.32,23.19 C26.65,26.08 26.3,29.04 26.29,32.01z "/><path id="_R_G_L_3_G_D_3_P_0" stroke="#343434" stroke-linecap="round" stroke-linejoin="round" fill="none" stroke-width="0.6" stroke-opacity="1" d=" M26.29 32.01 C26.29,34.25 26.48,36.52 27.14,38.66 C27.33,39.26 27.56,39.86 27.99,40.32 C28.41,40.78 29.07,41.07 29.67,40.89 C30.28,40.72 30.67,40.14 31,39.61 C32.07,37.91 33.14,36.21 34.22,34.51 C38.96,26.99 43.82,19.13 44.83,10.3 C45.04,8.51 45.07,6.61 44.28,4.98 C43.37,3.07 40.82,1.5 38.96,2.94 C36.96,4.49 35.26,6.8 33.8,8.84 C30.74,13.15 28.52,18.05 27.32,23.19 C26.65,26.08 26.3,29.04 26.29,32.01z "/></g><g id="_R_G_L_2_G" transform=" translate(44.735, 175.292)"><path id="_R_G_L_2_G_D_0_P_0" fill="#ffffff" fill-opacity="1" fill-rule="nonzero" d=" M20.76 49.83 C20.76,49.83 15.78,52.17 15.78,52.17 C19.15,59.35 20.25,72.56 20.41,86.23 C19.12,82.55 17.69,79.7 16.29,77.29 C16.29,77.29 12.83,79.29 12.83,79.29 C15.71,84.28 18.78,91.23 20.15,104.79 C19.96,110.5 19.7,115.81 19.48,120.23 C19.39,121.94 19.31,123.54 19.25,125.01 C19.25,125.01 24.74,125.26 24.74,125.26 C24.81,123.8 24.89,122.21 24.97,120.51 C26,99.64 27.74,64.71 20.76,49.83z "/><path id="_R_G_L_2_G_D_1_P_0" stroke="#343434" stroke-linecap="round" stroke-linejoin="round" fill="none" stroke-width="0.6" stroke-opacity="1" d=" M20.76 49.83 C20.76,49.83 15.78,52.17 15.78,52.17 C19.15,59.35 20.25,72.56 20.41,86.23 C19.12,82.55 17.69,79.7 16.29,77.29 C16.29,77.29 12.83,79.29 12.83,79.29 C15.71,84.28 18.78,91.23 20.15,104.79 C19.96,110.5 19.7,115.81 19.48,120.23 C19.39,121.94 19.31,123.54 19.25,125.01 C19.25,125.01 24.74,125.26 24.74,125.26 C24.81,123.8 24.89,122.21 24.97,120.51 C26,99.64 27.74,64.71 20.76,49.83z "/><path id="_R_G_L_2_G_D_2_P_0" fill="#ffffff" fill-opacity="1" fill-rule="nonzero" d=" M15.78 54.49 C14.4,52.84 13.67,50.76 12.97,48.73 C10.61,41.94 8.25,35.16 5.9,28.37 C3.7,22.06 1.5,15.17 3.67,8.85 C4.4,6.74 5.65,4.74 7.52,3.54 C10.68,1.5 15.06,2.17 18.06,4.43 C21.07,6.68 22.85,10.23 23.87,13.85 C25.57,19.93 25.33,26.36 25.08,32.66 C24.84,39 24.59,45.33 24.34,51.66 C24.25,53.94 25.22,57.69 22.25,57.71 C19.84,57.72 17.29,56.31 15.78,54.49z "/><path id="_R_G_L_2_G_D_3_P_0" stroke="#343434" stroke-linecap="round" stroke-linejoin="round" fill="none" stroke-width="0.6" stroke-opacity="1" d=" M15.78 54.49 C14.4,52.84 13.67,50.76 12.97,48.73 C10.61,41.94 8.25,35.16 5.9,28.37 C3.7,22.06 1.5,15.17 3.67,8.85 C4.4,6.74 5.65,4.74 7.52,3.54 C10.68,1.5 15.06,2.17 18.06,4.43 C21.07,6.68 22.85,10.23 23.87,13.85 C25.57,19.93 25.33,26.36 25.08,32.66 C24.84,39 24.59,45.33 24.34,51.66 C24.25,53.94 25.22,57.69 22.25,57.71 C19.84,57.72 17.29,56.31 15.78,54.49z "/><path id="_R_G_L_2_G_D_4_P_0" fill="#ffffff" fill-opacity="1" fill-rule="nonzero" d=" M8.28 72.55 C4.82,65.67 1.81,58.01 3.27,50.45 C3.65,48.5 4.51,46.4 6.36,45.67 C8.46,44.84 10.81,46.21 12.33,47.88 C15.38,51.26 16.64,55.91 17.11,60.44 C17.58,64.97 17.36,69.56 17.97,74.07 C18.12,75.25 18.34,76.43 18.25,77.62 C18.08,79.99 15.59,82.77 13.12,81.04 C12.1,80.32 11.5,78.61 10.92,77.56 C10.01,75.91 9.13,74.23 8.28,72.55z "/><path id="_R_G_L_2_G_D_5_P_0" stroke="#343434" stroke-linecap="round" stroke-linejoin="round" fill="none" stroke-width="0.6" stroke-opacity="1" d=" M8.28 72.55 C4.82,65.67 1.81,58.01 3.27,50.45 C3.65,48.5 4.51,46.4 6.36,45.67 C8.46,44.84 10.81,46.21 12.33,47.88 C15.38,51.26 16.64,55.91 17.11,60.44 C17.58,64.97 17.36,69.56 17.97,74.07 C18.12,75.25 18.34,76.43 18.25,77.62 C18.08,79.99 15.59,82.77 13.12,81.04 C12.1,80.32 11.5,78.61 10.92,77.56 C10.01,75.91 9.13,74.23 8.28,72.55z "/></g><g id="_R_G_L_1_G" transform=" translate(599.95, 109.145)"><path id="_R_G_L_1_G_D_0_P_0" fill="#ffffff" fill-opacity="1" fill-rule="nonzero" d=" M26.38 91.84 C22.98,75.28 17.63,59.13 10.45,43.82 C10.45,43.82 14.98,41.7 14.98,41.7 C22.32,57.36 27.8,73.89 31.28,90.83 C31.28,90.83 26.38,91.84 26.38,91.84z "/><path id="_R_G_L_1_G_D_1_P_0" stroke="#343434" stroke-linecap="round" stroke-linejoin="round" fill="none" stroke-width="0.6" stroke-opacity="1" d=" M26.38 91.84 C22.98,75.28 17.63,59.13 10.45,43.82 C10.45,43.82 14.98,41.7 14.98,41.7 C22.32,57.36 27.8,73.89 31.28,90.83 C31.28,90.83 26.38,91.84 26.38,91.84z "/><path id="_R_G_L_1_G_D_2_P_0" fill="#ffffff" fill-opacity="1" fill-rule="nonzero" d=" M2.2 16.5 C1.84,21.62 1.5,26.9 3.18,31.75 C4.88,36.66 8.49,40.67 10.58,45.42 C11.51,47.53 12.15,49.81 13.56,51.64 C14.13,52.37 14.84,53.03 15.72,53.29 C16.6,53.54 17.67,53.31 18.19,52.55 C18.69,51.82 18.57,50.86 18.47,49.98 C17.85,44.6 18.61,39.17 19.34,33.8 C20.07,28.44 20.78,22.99 20.06,17.62 C19.34,12.26 17,6.89 12.68,3.62 C11.27,2.56 9.63,1.72 7.87,1.59 C6.62,1.5 5.33,1.81 4.3,2.53 C2.91,3.49 3.04,4.48 2.93,6.07 C2.69,9.54 2.44,13.02 2.2,16.5z "/><path id="_R_G_L_1_G_D_3_P_0" stroke="#343434" stroke-linecap="round" stroke-linejoin="round" fill="none" stroke-width="0.6" stroke-opacity="1" d=" M2.2 16.5 C1.84,21.62 1.5,26.9 3.18,31.75 C4.88,36.66 8.49,40.67 10.58,45.42 C11.51,47.53 12.15,49.81 13.56,51.64 C14.13,52.37 14.84,53.03 15.72,53.29 C16.6,53.54 17.67,53.31 18.19,52.55 C18.69,51.82 18.57,50.86 18.47,49.98 C17.85,44.6 18.61,39.17 19.34,33.8 C20.07,28.44 20.78,22.99 20.06,17.62 C19.34,12.26 17,6.89 12.68,3.62 C11.27,2.56 9.63,1.72 7.87,1.59 C6.62,1.5 5.33,1.81 4.3,2.53 C2.91,3.49 3.04,4.48 2.93,6.07 C2.69,9.54 2.44,13.02 2.2,16.5z "/></g><g id="_R_G_L_0_G" transform=" translate(1436.706, 229.893)"><path id="_R_G_L_0_G_D_0_P_0" fill="#ffffff" fill-opacity="1" fill-rule="nonzero" d=" M45.03 98.26 C44.32,96.23 43.61,94.21 42.9,92.21 C42.9,92.21 42.91,92.2 42.9,92.2 C32.03,61.36 21.71,34.7 18.42,27.75 C18.42,27.75 13,30.32 13,30.32 C15.86,36.35 24.44,58.46 33.99,85.16 C28.2,79.99 22.61,73.81 18.09,67.27 C18.09,67.27 14.8,69.54 14.8,69.54 C21.34,79.03 29.08,86.89 36.66,92.67 C51.65,135.07 67.95,185.9 68.05,202.81 C68.05,202.81 74.06,202.78 74.06,202.78 C73.95,186.01 59.37,139.41 45.03,98.26z "/><path id="_R_G_L_0_G_D_1_P_0" stroke="#343434" stroke-linecap="round" stroke-linejoin="round" fill="none" stroke-width="0.6" stroke-opacity="1" d=" M45.03 98.26 C44.32,96.23 43.61,94.21 42.9,92.21 C42.9,92.21 42.91,92.2 42.9,92.2 C32.03,61.36 21.71,34.7 18.42,27.75 C18.42,27.75 13,30.32 13,30.32 C15.86,36.35 24.44,58.46 33.99,85.16 C28.2,79.99 22.61,73.81 18.09,67.27 C18.09,67.27 14.8,69.54 14.8,69.54 C21.34,79.03 29.08,86.89 36.66,92.67 C51.65,135.07 67.95,185.9 68.05,202.81 C68.05,202.81 74.06,202.78 74.06,202.78 C73.95,186.01 59.37,139.41 45.03,98.26z "/><path id="_R_G_L_0_G_D_2_P_0" fill="#ffffff" fill-opacity="1" fill-rule="nonzero" d=" M24.78 35.51 C23.71,27.25 22.5,18.63 17.71,11.83 C15.5,8.7 12.63,6.11 9.79,3.54 C8.7,2.55 7.41,1.5 5.95,1.66 C3.93,1.87 2.9,4.18 2.56,6.18 C1.5,12.58 3.49,19.13 6.42,24.92 C9.34,30.71 13.2,35.99 16.27,41.71 C17.11,43.28 17.91,44.92 19.17,46.18 C20.09,47.09 21.35,47.84 22.67,47.93 C24.47,48.06 24.64,47.13 24.98,45.5 C25.65,42.21 25.21,38.8 24.78,35.51z "/><path id="_R_G_L_0_G_D_3_P_0" stroke="#343434" stroke-linecap="round" stroke-linejoin="round" fill="none" stroke-width="0.6" stroke-opacity="1" d=" M24.78 35.51 C23.71,27.25 22.5,18.63 17.71,11.83 C15.5,8.7 12.63,6.11 9.79,3.54 C8.7,2.55 7.41,1.5 5.95,1.66 C3.93,1.87 2.9,4.18 2.56,6.18 C1.5,12.58 3.49,19.13 6.42,24.92 C9.34,30.71 13.2,35.99 16.27,41.71 C17.11,43.28 17.91,44.92 19.17,46.18 C20.09,47.09 21.35,47.84 22.67,47.93 C24.47,48.06 24.64,47.13 24.98,45.5 C25.65,42.21 25.21,38.8 24.78,35.51z "/><path id="_R_G_L_0_G_D_4_P_0" fill="#ffffff" fill-opacity="1" fill-rule="nonzero" d=" M14.85 70.59 C15.85,70.68 16.87,70.62 17.87,70.2 C18.15,70.08 18.43,69.93 18.67,69.61 C18.9,69.31 19.07,68.81 19.04,68.34 C19,67.86 18.77,67.54 18.55,67.26 C17.87,66.37 17.18,65.48 16.5,64.59 C13.47,60.64 10.3,56.59 6.43,55.46 C5.65,55.24 4.81,55.14 4.03,55.68 C3.12,56.31 2.24,58.21 2.76,59.7 C3.31,61.3 4.23,62.7 5.04,63.91 C6.75,66.43 8.78,68.33 10.99,69.46 C12.23,70.09 13.53,70.48 14.85,70.59z "/><path id="_R_G_L_0_G_D_5_P_0" stroke="#343434" stroke-linecap="round" stroke-linejoin="round" fill="none" stroke-width="0.6" stroke-opacity="1" d=" M14.85 70.59 C15.85,70.68 16.87,70.62 17.87,70.2 C18.15,70.08 18.43,69.93 18.67,69.61 C18.9,69.31 19.07,68.81 19.04,68.34 C19,67.86 18.77,67.54 18.55,67.26 C17.87,66.37 17.18,65.48 16.5,64.59 C13.47,60.64 10.3,56.59 6.43,55.46 C5.65,55.24 4.81,55.14 4.03,55.68 C3.12,56.31 2.24,58.21 2.76,59.7 C3.31,61.3 4.23,62.7 5.04,63.91 C6.75,66.43 8.78,68.33 10.99,69.46 C12.23,70.09 13.53,70.48 14.85,70.59z "/></g></g><g id="time_group"/></svg>