<svg preserveAspectRatio="none" width="100%" height="100%" overflow="visible" style="display: block;" viewBox="0 0 108 84" fill="none" xmlns="http://www.w3.org/2000/svg">
<g id="a" clip-path="url(#clip0_0_4)">
<path id="Vector" d="M107.473 28.9824C99.037 31.3397 90.0739 35.1757 83.152 40.0792C81.6822 41.1188 80.5175 42.5754 79.9406 44.2822C78.1491 49.5748 82.7638 52.7715 86.9901 54.3949C93.1411 56.7577 99.8634 57.8473 106.43 57.2969C106.813 57.2636 106.957 57.7862 106.608 57.9474C97.1623 62.4005 85.3761 61.5777 76.7071 55.7125C74.8435 54.4505 73.1074 52.9716 71.0996 51.9543C69.0918 50.9369 66.6958 50.4087 64.5826 51.1926C62.2919 52.0377 60.8055 54.2003 59.3856 56.1906C55.5696 61.5499 52.0366 67.026 47.2334 71.5181C45.2644 73.3639 42.3525 74.9483 39.607 75.0595C39.1855 75.0762 38.9636 74.5591 39.2798 74.2701C43.9998 69.9726 46.6954 63.8238 48.8696 57.775C52.4525 47.8013 55.076 36.9937 52.7354 26.6586C51.7537 22.3222 49.9289 18.2304 48.5368 14.0107C47.3166 10.3137 46.4236 6.3998 46.7564 2.54707C46.7896 2.16903 47.3221 2.12455 47.433 2.48592C49.2911 8.57912 51.8535 13.7494 55.9912 18.8697C57.2613 20.4431 59.014 21.5939 60.9885 22.022C66.1189 23.1394 68.8644 18.8419 71.3215 15.2283C75.1652 9.56871 79.8685 4.49289 85.2153 0.234325C85.476 0.0230642 85.8365 0.328836 85.6645 0.61793C82.198 6.57214 80.3233 13.5382 80.0904 20.4153C79.985 23.4341 80.5286 26.9922 83.1797 28.4265C84.7106 29.2549 86.552 29.1381 88.2825 28.9936C94.1173 28.521 100.878 27.8817 107.329 27.9873C107.906 27.9984 108.017 28.8212 107.456 28.9713L107.473 28.9824Z" fill="var(--fill-0, white)" stroke="var(--stroke-0, #010101)" stroke-width="0.6" stroke-miterlimit="10"/>
<path id="Vector_2" d="M60.8498 76.9942C61.2492 77.2889 60.9996 77.9282 60.5059 77.8615C56.8619 77.3333 53.5064 75.2485 50.661 72.8357C47.3609 70.0393 44.499 66.7258 40.9881 64.1963C37.4772 61.6667 33.9552 60.2101 29.6567 61.322C26.107 62.2393 23.1452 64.6855 21.3537 67.8933C18.6027 72.819 16.0624 77.3889 15.4912 83.3487C15.4412 83.8769 14.7424 84.0158 14.4984 83.5433C12.9786 80.6246 13.3946 76.5884 14.282 73.375C15.3081 69.6446 16.7779 66.7759 18.3365 63.24C19.895 59.7042 20.9655 55.7014 19.9061 51.9821C18.6249 47.5067 14.5483 44.4212 10.3885 42.3419C7.03287 40.6685 3.5719 39.123 0.42153 37.0993C-0.083195 36.7769 0.238498 35.9874 0.826419 36.1042C4.68673 36.8714 8.59141 37.4384 12.5072 37.7942C18.1923 38.3113 24.4708 38.2168 28.8636 34.5697C34.5431 29.8553 34.9647 21.0213 39.5016 15.3283C39.8233 14.9225 40.4778 15.2449 40.3669 15.7509C39.363 20.1762 39.8511 24.924 41.282 29.2493C42.297 32.3237 43.9554 35.2202 46.3293 37.4162C49.2467 40.1181 53.1015 41.6303 57.0062 42.3475C60.1843 42.9312 63.4289 43.0202 66.6625 43.0202C67.2282 43.0202 67.378 43.7985 66.8566 44.0153C63.9947 45.2162 60.8443 45.7332 57.8159 46.5226C54.0555 47.5067 50.1397 49.2857 48.3593 52.7493C47.1834 55.0342 47.1224 57.7862 47.7825 60.2713C48.4425 62.7564 49.7681 65.0135 51.2656 67.1094C54.0055 70.9399 57.1115 74.2367 60.8554 76.9886L60.8498 76.9942Z" fill="var(--fill-0, white)" stroke="var(--stroke-0, #010101)" stroke-width="0.6" stroke-miterlimit="10"/>
<path id="Vector_3" d="M28.3866 46.1168C29.5458 45.7832 30.8991 46.3447 31.4926 47.401" stroke="var(--stroke-0, #010101)" stroke-width="0.6" stroke-linecap="round" stroke-linejoin="round"/>
<path id="Vector_4" d="M35.8355 47.8792C36.6341 46.973 38.0762 46.7117 39.1411 47.2843" stroke="var(--stroke-0, #010101)" stroke-width="0.6" stroke-linecap="round" stroke-linejoin="round"/>
<path id="Vector_5" d="M62.9797 32.963C64.3108 32.7685 65.7251 33.5857 66.2243 34.8422" stroke="var(--stroke-0, #010101)" stroke-width="0.6" stroke-linecap="round" stroke-linejoin="round"/>
<path id="Vector_6" d="M70.961 36.0152C71.976 35.1312 73.6122 35.0534 74.7048 35.8429" stroke="var(--stroke-0, #010101)" stroke-width="0.6" stroke-linecap="round" stroke-linejoin="round"/>
</g>
<defs>
<clipPath id="clip0_0_4">
<rect width="108" height="84" fill="white"/>
</clipPath>
</defs>
</svg>
