<svg xmlns="http://www.w3.org/2000/svg" xmlns:xlink="http://www.w3.org/1999/xlink" preserveAspectRatio="xMidYMid meet" width="64" height="64" viewBox="0 0 64 64" style="width:100%;height:100%"><defs><animateMotion repeatCount="indefinite" dur="4.0333333s" begin="0s" xlink:href="#_R_G_L_0_G" fill="freeze" keyTimes="0;0.2479339;0.4958678;0.7438017;0.9917355;1" path="M21.75 31.11 C21.75,31.11 47.51,31.11 47.51,31.11 C47.51,31.11 21.75,31.11 21.75,31.11 C21.75,31.11 47.51,31.11 47.51,31.11 C47.51,31.11 21.75,31.11 21.75,31.11 C21.75,31.11 21.75,31.11 21.75,31.11 " keyPoints="0;0.25;0.5;0.75;1;1" keySplines="0.333 0 0.667 1;0.333 0 0.667 1;0.333 0 0.667 1;0.333 0 0.667 1;0 0 0 0" calcMode="spline"/><animateTransform repeatCount="indefinite" dur="4.0333333s" begin="0s" xlink:href="#_R_G_L_0_G" fill="freeze" attributeName="transform" from="8" to="368" type="rotate" additive="sum" keyTimes="0;0.9917355;1" values="8;368;368" keySplines="0.167 0.167 0.833 0.833;0 0 0 0" calcMode="spline"/><animateTransform repeatCount="indefinite" dur="4.0333333s" begin="0s" xlink:href="#_R_G_L_0_G" fill="freeze" attributeName="transform" from="-8.97 -9.724" to="-8.97 -9.724" type="translate" additive="sum" keyTimes="0;1" values="-8.97 -9.724;-8.97 -9.724" keySplines="0 0 1 1" calcMode="spline"/><animate attributeType="XML" attributeName="opacity" dur="4s" from="0" to="1" xlink:href="#time_group"/></defs><g id="_R_G"><g id="_R_G_L_0_G"><path id="_R_G_L_0_G_D_0_P_0" fill="#e7e9be" fill-opacity="1" fill-rule="nonzero" d=" M7.69 7.93 C6.56,10.2 5.46,12.61 3.42,14.11 C2.59,14.73 1.5,15.41 1.61,16.44 C1.73,17.56 3.18,17.95 4.31,17.92 C8.01,17.84 11.79,16.2 13.88,13.15 C15.46,10.83 16.44,6.21 14.01,4.08 C11.05,1.5 8.8,5.7 7.69,7.93z "/><path id="_R_G_L_0_G_D_1_P_0" stroke="#343434" stroke-linecap="round" stroke-linejoin="round" fill="none" stroke-width="0.6" stroke-opacity="1" d=" M7.69 7.93 C6.56,10.2 5.46,12.61 3.42,14.11 C2.59,14.73 1.5,15.41 1.61,16.44 C1.73,17.56 3.18,17.95 4.31,17.92 C8.01,17.84 11.79,16.2 13.88,13.15 C15.46,10.83 16.44,6.21 14.01,4.08 C11.05,1.5 8.8,5.7 7.69,7.93z "/></g></g><g id="time_group"/></svg>