<svg xmlns="http://www.w3.org/2000/svg" xmlns:xlink="http://www.w3.org/1999/xlink" preserveAspectRatio="xMidYMid meet" width="80" height="80" viewBox="0 0 80 80" style="width:100%;height:100%"><defs><animateMotion repeatCount="indefinite" dur="4.0333333s" begin="0s" xlink:href="#_R_G_L_0_G" fill="freeze" keyTimes="0;0.2479339;0.4958678;0.7438017;0.9917355;1" path="M26.25 38.61 C26.25,38.61 49.51,38.61 49.51,38.61 C49.51,38.61 26.25,38.61 26.25,38.61 C26.25,38.61 49.51,38.61 49.51,38.61 C49.51,38.61 26.25,38.61 26.25,38.61 C26.25,38.61 26.25,38.61 26.25,38.61 " keyPoints="0;0.25;0.5;0.75;1;1" keySplines="0.333 0 0.667 1;0.333 0 0.667 1;0.333 0 0.667 1;0.333 0 0.667 1;0 0 0 0" calcMode="spline"/><animateTransform repeatCount="indefinite" dur="4.0333333s" begin="0s" xlink:href="#_R_G_L_0_G" fill="freeze" attributeName="transform" from="8" to="368" type="rotate" additive="sum" keyTimes="0;0.9917355;1" values="8;368;368" keySplines="0.167 0.167 0.833 0.833;0 0 0 0" calcMode="spline"/><animateTransform repeatCount="indefinite" dur="4.0333333s" begin="0s" xlink:href="#_R_G_L_0_G" fill="freeze" attributeName="transform" from="-11.063 -5.943" to="-11.063 -5.943" type="translate" additive="sum" keyTimes="0;1" values="-11.063 -5.943;-11.063 -5.943" keySplines="0 0 1 1" calcMode="spline"/><animate attributeType="XML" attributeName="opacity" dur="4s" from="0" to="1" xlink:href="#time_group"/></defs><g id="_R_G"><g id="_R_G_L_0_G"><path id="_R_G_L_0_G_D_0_P_0" fill="#e7e9be" fill-opacity="1" fill-rule="nonzero" d=" M4.21 3.35 C3.21,3.5 2.01,3.81 1.72,4.78 C1.5,5.53 1.96,6.31 2.47,6.9 C4.41,9.15 7.47,10.39 10.44,10.11 C12.69,9.9 20.63,5.91 17.7,2.77 C16.51,1.5 13.99,1.92 12.51,2.12 C9.74,2.5 6.97,2.94 4.21,3.35z "/><path id="_R_G_L_0_G_D_1_P_0" stroke="#343434" stroke-linecap="round" stroke-linejoin="round" fill="none" stroke-width="0.6" stroke-opacity="1" d=" M4.21 3.35 C3.21,3.5 2.01,3.81 1.72,4.78 C1.5,5.53 1.96,6.31 2.47,6.9 C4.41,9.15 7.47,10.39 10.44,10.11 C12.69,9.9 20.63,5.91 17.7,2.77 C16.51,1.5 13.99,1.92 12.51,2.12 C9.74,2.5 6.97,2.94 4.21,3.35z "/></g></g><g id="time_group"/></svg>