<svg xmlns="http://www.w3.org/2000/svg" xmlns:xlink="http://www.w3.org/1999/xlink" preserveAspectRatio="xMidYMid meet" width="1512" height="169" viewBox="0 0 1512 169" style="width:100%;height:100%"><defs><animateTransform repeatCount="indefinite" dur="3s" begin="0s" xlink:href="#_R_G_L_0_G" fill="freeze" attributeName="transform" from="-5" to="-5" type="rotate" additive="sum" keyTimes="0;0.4888889;0.9888889;1" values="-5;0;-5;-5" keySplines="0.512 0 0.667 1;0.373 0 0.474 1;0 0 0 0" calcMode="spline"/><animateTransform repeatCount="indefinite" dur="3s" begin="0s" xlink:href="#_R_G_L_0_G" fill="freeze" attributeName="transform" from="-31.332 -127.466" to="-31.332 -127.466" type="translate" additive="sum" keyTimes="0;1" values="-31.332 -127.466;-31.332 -127.466" keySplines="0 0 1 1" calcMode="spline"/><animate attributeType="XML" attributeName="opacity" dur="3s" from="0" to="1" xlink:href="#time_group"/></defs><g id="_R_G"><g id="_R_G_L_0_G" transform=" translate(592.696, 137.267)"><path id="_R_G_L_0_G_D_0_P_0" fill="#ffffff" fill-opacity="1" fill-rule="nonzero" d=" M39.47 54.95 C39.47,54.95 35.99,52.97 35.99,52.97 C35.57,53.71 29.07,65.29 25.24,78.05 C22.77,60.05 21.97,45.72 21.96,45.45 C21.96,45.45 15.97,45.77 15.97,45.77 C16.08,47.88 18.85,97.79 30.76,129.43 C30.76,129.43 36.37,127.32 36.37,127.32 C32.12,116.02 29.05,102.05 26.87,88.87 C29.03,73.53 39.34,55.17 39.47,54.95z "/><path id="_R_G_L_0_G_D_1_P_0" stroke="#343434" stroke-linecap="round" stroke-linejoin="round" fill="none" stroke-width="0.6" stroke-opacity="1" d=" M39.47 54.95 C39.47,54.95 35.99,52.97 35.99,52.97 C35.57,53.71 29.07,65.29 25.24,78.05 C22.77,60.05 21.97,45.72 21.96,45.45 C21.96,45.45 15.97,45.77 15.97,45.77 C16.08,47.88 18.85,97.79 30.76,129.43 C30.76,129.43 36.37,127.32 36.37,127.32 C32.12,116.02 29.05,102.05 26.87,88.87 C29.03,73.53 39.34,55.17 39.47,54.95z "/><path id="_R_G_L_0_G_D_2_P_0" fill="#ffffff" fill-opacity="1" fill-rule="nonzero" d=" M15.78 54.49 C14.4,52.84 13.67,50.76 12.97,48.73 C12.97,48.73 5.9,28.37 5.9,28.37 C3.7,22.06 1.5,15.17 3.67,8.85 C4.4,6.74 5.65,4.74 7.52,3.54 C10.68,1.5 15.06,2.17 18.06,4.43 C21.07,6.68 22.85,10.23 23.86,13.85 C25.56,19.93 25.33,26.36 25.08,32.66 C24.83,39 24.59,45.33 24.34,51.66 C24.25,53.94 25.22,57.69 22.25,57.71 C19.84,57.72 17.29,56.31 15.78,54.49z "/><path id="_R_G_L_0_G_D_3_P_0" stroke="#343434" stroke-linecap="round" stroke-linejoin="round" fill="none" stroke-width="0.6" stroke-opacity="1" d=" M15.78 54.49 C14.4,52.84 13.67,50.76 12.97,48.73 C12.97,48.73 5.9,28.37 5.9,28.37 C3.7,22.06 1.5,15.17 3.67,8.85 C4.4,6.74 5.65,4.74 7.52,3.54 C10.68,1.5 15.06,2.17 18.06,4.43 C21.07,6.68 22.85,10.23 23.86,13.85 C25.56,19.93 25.33,26.36 25.08,32.66 C24.83,39 24.59,45.33 24.34,51.66 C24.25,53.94 25.22,57.69 22.25,57.71 C19.84,57.72 17.29,56.31 15.78,54.49z "/><path id="_R_G_L_0_G_D_4_P_0" fill="#ffffff" fill-opacity="1" fill-rule="nonzero" d=" M34.91 50.91 C36.08,45.2 37.89,39.24 42.32,35.47 C43.46,34.5 44.97,33.66 46.41,34.11 C48.06,34.62 48.82,36.54 48.93,38.25 C49.16,41.7 47.73,45.04 45.88,47.94 C44.03,50.84 41.74,53.45 39.98,56.41 C39.52,57.18 39.09,57.98 38.48,58.64 C37.26,59.96 34.47,60.42 33.81,58.23 C33.54,57.32 33.98,56.02 34.13,55.13 C34.37,53.72 34.63,52.31 34.91,50.91z "/><path id="_R_G_L_0_G_D_5_P_0" stroke="#343434" stroke-linecap="round" stroke-linejoin="round" fill="none" stroke-width="0.6" stroke-opacity="1" d=" M34.91 50.91 C36.08,45.2 37.89,39.24 42.32,35.47 C43.46,34.5 44.97,33.66 46.41,34.11 C48.06,34.62 48.82,36.54 48.93,38.25 C49.16,41.7 47.73,45.04 45.88,47.94 C44.03,50.84 41.74,53.45 39.98,56.41 C39.52,57.18 39.09,57.98 38.48,58.64 C37.26,59.96 34.47,60.42 33.81,58.23 C33.54,57.32 33.98,56.02 34.13,55.13 C34.37,53.72 34.63,52.31 34.91,50.91z "/></g></g><g id="time_group"/></svg>