<svg xmlns="http://www.w3.org/2000/svg" xmlns:xlink="http://www.w3.org/1999/xlink" preserveAspectRatio="xMidYMid meet" width="1512" height="256" viewBox="0 0 1512 256" style="width:100%;height:100%"><defs><animateTransform repeatCount="indefinite" dur="3s" begin="0s" xlink:href="#_R_G_L_0_G" fill="freeze" attributeName="transform" from="-5" to="-5" type="rotate" additive="sum" keyTimes="0;0.6222222;0.9888889;1" values="-5;0;-5;-5" keySplines="0.512 0 0.667 1;0.373 0 0.474 1;0 0 0 0" calcMode="spline"/><animateTransform repeatCount="indefinite" dur="3s" begin="0s" xlink:href="#_R_G_L_0_G" fill="freeze" attributeName="transform" from="-21.886 -112.62" to="-21.886 -112.62" type="translate" additive="sum" keyTimes="0;1" values="-21.886 -112.62;-21.886 -112.62" keySplines="0 0 1 1" calcMode="spline"/><animate attributeType="XML" attributeName="opacity" dur="3s" from="0" to="1" xlink:href="#time_group"/></defs><g id="_R_G"><g id="_R_G_L_0_G" transform=" translate(863.427, 123.375)"><path id="_R_G_L_0_G_D_0_P_0" fill="#ffffff" fill-opacity="1" fill-rule="nonzero" d=" M23 73.95 C23,73.95 20.26,72.73 20.26,72.73 C24.05,64.2 29.85,56.06 37.48,48.52 C37.48,48.52 39.59,50.66 39.59,50.66 C32.22,57.93 26.64,65.76 23,73.95z "/><path id="_R_G_L_0_G_D_1_P_0" stroke="#343434" stroke-linecap="round" stroke-linejoin="round" fill="none" stroke-width="0.6" stroke-opacity="1" d=" M23 73.95 C23,73.95 20.26,72.73 20.26,72.73 C24.05,64.2 29.85,56.06 37.48,48.52 C37.48,48.52 39.59,50.66 39.59,50.66 C32.22,57.93 26.64,65.76 23,73.95z "/><path id="_R_G_L_0_G_D_2_P_0" fill="#ffffff" fill-opacity="1" fill-rule="nonzero" d=" M20.76 49.83 C20.76,49.83 15.78,52.17 15.78,52.17 C19.15,59.35 20.25,72.56 20.41,86.23 C19.12,82.55 17.69,79.7 16.29,77.29 C16.29,77.29 12.83,79.29 12.83,79.29 C15.71,84.28 18.78,91.23 20.15,104.79 C19.96,110.5 19.7,115.81 19.48,120.23 C19.39,121.94 19.31,123.54 19.25,125.01 C19.25,125.01 24.74,125.26 24.74,125.26 C24.81,123.8 24.89,122.21 24.97,120.51 C26.01,99.64 27.74,64.71 20.76,49.83z "/><path id="_R_G_L_0_G_D_3_P_0" stroke="#343434" stroke-linecap="round" stroke-linejoin="round" fill="none" stroke-width="0.6" stroke-opacity="1" d=" M20.76 49.83 C20.76,49.83 15.78,52.17 15.78,52.17 C19.15,59.35 20.25,72.56 20.41,86.23 C19.12,82.55 17.69,79.7 16.29,77.29 C16.29,77.29 12.83,79.29 12.83,79.29 C15.71,84.28 18.78,91.23 20.15,104.79 C19.96,110.5 19.7,115.81 19.48,120.23 C19.39,121.94 19.31,123.54 19.25,125.01 C19.25,125.01 24.74,125.26 24.74,125.26 C24.81,123.8 24.89,122.21 24.97,120.51 C26.01,99.64 27.74,64.71 20.76,49.83z "/><path id="_R_G_L_0_G_D_4_P_0" fill="#ffffff" fill-opacity="1" fill-rule="nonzero" d=" M15.78 54.49 C14.41,52.84 13.67,50.76 12.97,48.73 C10.61,41.94 8.25,35.16 5.9,28.37 C3.7,22.06 1.5,15.17 3.67,8.85 C4.4,6.74 5.65,4.74 7.52,3.54 C10.68,1.5 15.06,2.17 18.06,4.43 C21.07,6.68 22.85,10.23 23.87,13.85 C25.57,19.93 25.33,26.36 25.08,32.66 C25.08,32.66 24.34,51.66 24.34,51.66 C24.25,53.94 25.22,57.69 22.25,57.71 C19.84,57.72 17.29,56.31 15.78,54.49z "/><path id="_R_G_L_0_G_D_5_P_0" stroke="#343434" stroke-linecap="round" stroke-linejoin="round" fill="none" stroke-width="0.6" stroke-opacity="1" d=" M15.78 54.49 C14.41,52.84 13.67,50.76 12.97,48.73 C10.61,41.94 8.25,35.16 5.9,28.37 C3.7,22.06 1.5,15.17 3.67,8.85 C4.4,6.74 5.65,4.74 7.52,3.54 C10.68,1.5 15.06,2.17 18.06,4.43 C21.07,6.68 22.85,10.23 23.87,13.85 C25.57,19.93 25.33,26.36 25.08,32.66 C25.08,32.66 24.34,51.66 24.34,51.66 C24.25,53.94 25.22,57.69 22.25,57.71 C19.84,57.72 17.29,56.31 15.78,54.49z "/><path id="_R_G_L_0_G_D_6_P_0" fill="#ffffff" fill-opacity="1" fill-rule="nonzero" d=" M30.38 54.3 C30.1,55.26 29.97,56.28 30.2,57.34 C30.26,57.64 30.36,57.95 30.62,58.23 C30.88,58.52 31.34,58.78 31.8,58.84 C32.27,58.89 32.63,58.72 32.95,58.57 C33.95,58.06 34.96,57.56 35.97,57.06 C40.41,54.83 44.99,52.48 46.83,48.9 C47.2,48.17 47.46,47.36 47.07,46.5 C46.63,45.48 44.93,44.27 43.37,44.49 C41.69,44.73 40.14,45.36 38.81,45.93 C36,47.13 33.75,48.77 32.23,50.73 C31.37,51.82 30.75,53.02 30.38,54.3z "/><path id="_R_G_L_0_G_D_7_P_0" stroke="#343434" stroke-linecap="round" stroke-linejoin="round" fill="none" stroke-width="0.6" stroke-opacity="1" d=" M30.38 54.3 C30.1,55.26 29.97,56.28 30.2,57.34 C30.26,57.64 30.36,57.95 30.62,58.23 C30.88,58.52 31.34,58.78 31.8,58.84 C32.27,58.89 32.63,58.72 32.95,58.57 C33.95,58.06 34.96,57.56 35.97,57.06 C40.41,54.83 44.99,52.48 46.83,48.9 C47.2,48.17 47.46,47.36 47.07,46.5 C46.63,45.48 44.93,44.27 43.37,44.49 C41.69,44.73 40.14,45.36 38.81,45.93 C36,47.13 33.75,48.77 32.23,50.73 C31.37,51.82 30.75,53.02 30.38,54.3z "/><path id="_R_G_L_0_G_D_8_P_0" fill="#ffffff" fill-opacity="1" fill-rule="nonzero" d=" M8.28 72.55 C4.82,65.67 1.81,58.01 3.27,50.45 C3.65,48.5 4.51,46.4 6.36,45.67 C8.46,44.83 10.81,46.21 12.33,47.89 C15.38,51.26 16.64,55.91 17.11,60.44 C17.58,64.97 17.36,69.56 17.97,74.07 C18.12,75.25 18.34,76.43 18.25,77.62 C18.08,79.99 15.59,82.77 13.12,81.04 C12.1,80.32 11.5,78.61 10.92,77.56 C10.01,75.91 9.13,74.23 8.28,72.55z "/><path id="_R_G_L_0_G_D_9_P_0" stroke="#343434" stroke-linecap="round" stroke-linejoin="round" fill="none" stroke-width="0.6" stroke-opacity="1" d=" M8.28 72.55 C4.82,65.67 1.81,58.01 3.27,50.45 C3.65,48.5 4.51,46.4 6.36,45.67 C8.46,44.83 10.81,46.21 12.33,47.89 C15.38,51.26 16.64,55.91 17.11,60.44 C17.58,64.97 17.36,69.56 17.97,74.07 C18.12,75.25 18.34,76.43 18.25,77.62 C18.08,79.99 15.59,82.77 13.12,81.04 C12.1,80.32 11.5,78.61 10.92,77.56 C10.01,75.91 9.13,74.23 8.28,72.55z "/></g></g><g id="time_group"/></svg>