<svg xmlns="http://www.w3.org/2000/svg" xmlns:xlink="http://www.w3.org/1999/xlink" preserveAspectRatio="xMidYMid meet" width="1512" height="355" viewBox="0 0 1512 355" style="width:100%;height:100%"><defs><animateTransform repeatCount="indefinite" dur="3s" begin="0s" xlink:href="#_R_G_L_3_G" fill="freeze" attributeName="transform" from="-16" to="-16" type="rotate" additive="sum" keyTimes="0;0.4222222;0.9888889;1" values="-16;-6;-16;-16" keySplines="0.512 0 0.667 1;0.373 0 0.474 1;0 0 0 0" calcMode="spline"/><animateTransform repeatCount="indefinite" dur="3s" begin="0s" xlink:href="#_R_G_L_3_G" fill="freeze" attributeName="transform" from="-8.943 -178.718" to="-8.943 -178.718" type="translate" additive="sum" keyTimes="0;1" values="-8.943 -178.718;-8.943 -178.718" keySplines="0 0 1 1" calcMode="spline"/><animateTransform repeatCount="indefinite" dur="3s" begin="0s" xlink:href="#_R_G_L_2_G" fill="freeze" attributeName="transform" from="-5" to="-5" type="rotate" additive="sum" keyTimes="0;0.4888889;0.9888889;1" values="-5;0;-5;-5" keySplines="0.512 0 0.667 1;0.373 0 0.474 1;0 0 0 0" calcMode="spline"/><animateTransform repeatCount="indefinite" dur="3s" begin="0s" xlink:href="#_R_G_L_2_G" fill="freeze" attributeName="transform" from="-2.171 -109.066" to="-2.171 -109.066" type="translate" additive="sum" keyTimes="0;1" values="-2.171 -109.066;-2.171 -109.066" keySplines="0 0 1 1" calcMode="spline"/><animateTransform repeatCount="indefinite" dur="3s" begin="0s" xlink:href="#_R_G_L_1_G" fill="freeze" attributeName="transform" from="-5" to="-5" type="rotate" additive="sum" keyTimes="0;0.6111111;0.9888889;1" values="-5;0;-5;-5" keySplines="0.512 0 0.667 1;0.373 0 0.474 1;0 0 0 0" calcMode="spline"/><animateTransform repeatCount="indefinite" dur="3s" begin="0s" xlink:href="#_R_G_L_1_G" fill="freeze" attributeName="transform" from="-25.163 -120.381" to="-25.163 -120.381" type="translate" additive="sum" keyTimes="0;1" values="-25.163 -120.381;-25.163 -120.381" keySplines="0 0 1 1" calcMode="spline"/><animateTransform repeatCount="indefinite" dur="3s" begin="0s" xlink:href="#_R_G_L_0_G" fill="freeze" attributeName="transform" from="-5" to="-5" type="rotate" additive="sum" keyTimes="0;0.4777778;0.9888889;1" values="-5;0;-5;-5" keySplines="0.512 0 0.667 1;0.373 0 0.474 1;0 0 0 0" calcMode="spline"/><animateTransform repeatCount="indefinite" dur="3s" begin="0s" xlink:href="#_R_G_L_0_G" fill="freeze" attributeName="transform" from="-30.332 -121.466" to="-30.332 -121.466" type="translate" additive="sum" keyTimes="0;1" values="-30.332 -121.466;-30.332 -121.466" keySplines="0 0 1 1" calcMode="spline"/><animate attributeType="XML" attributeName="opacity" dur="3s" from="0" to="1" xlink:href="#time_group"/></defs><g id="_R_G"><g id="_R_G_L_3_G" transform=" translate(173.183, 200.881)"><path id="_R_G_L_3_G_D_0_P_0" fill="#ffffff" fill-opacity="1" fill-rule="nonzero" d=" M35.12 96.51 C35.92,94.51 36.72,92.52 37.51,90.55 C37.51,90.55 37.5,90.55 37.51,90.54 C49.73,60.22 61.22,34.03 64.81,27.24 C64.81,27.24 70.11,30.04 70.11,30.04 C66.99,35.94 57.45,57.66 46.72,83.91 C52.74,79 58.59,73.07 63.4,66.73 C63.4,66.73 66.59,69.15 66.59,69.15 C59.64,78.34 51.55,85.85 43.72,91.29 C26.87,132.99 8.35,183.05 7.5,199.94 C7.5,199.94 1.5,199.64 1.5,199.64 C2.35,182.9 18.98,136.98 35.12,96.51z "/><path id="_R_G_L_3_G_D_1_P_0" stroke="#343434" stroke-linecap="round" stroke-linejoin="round" fill="none" stroke-width="0.6" stroke-opacity="1" d=" M35.12 96.51 C35.92,94.51 36.72,92.52 37.51,90.55 C37.51,90.55 37.5,90.55 37.51,90.54 C49.73,60.22 61.22,34.03 64.81,27.24 C64.81,27.24 70.11,30.04 70.11,30.04 C66.99,35.94 57.45,57.66 46.72,83.91 C52.74,79 58.59,73.07 63.4,66.73 C63.4,66.73 66.59,69.15 66.59,69.15 C59.64,78.34 51.55,85.85 43.72,91.29 C26.87,132.99 8.35,183.05 7.5,199.94 C7.5,199.94 1.5,199.64 1.5,199.64 C2.35,182.9 18.98,136.98 35.12,96.51z "/><path id="_R_G_L_3_G_D_2_P_0" fill="#ffffff" fill-opacity="1" fill-rule="nonzero" d=" M58.11 34.71 C59.55,26.51 61.14,17.95 66.23,11.36 C68.57,8.33 71.55,5.87 74.5,3.43 C75.64,2.5 76.97,1.5 78.42,1.72 C80.43,2.02 81.36,4.37 81.61,6.39 C82.39,12.83 80.11,19.29 76.93,24.94 C73.75,30.6 69.66,35.7 66.35,41.28 C65.44,42.81 64.56,44.41 63.25,45.61 C62.29,46.49 61,47.18 59.68,47.21 C57.87,47.26 57.74,46.32 57.48,44.69 C56.95,41.37 57.54,37.98 58.11,34.71z "/><path id="_R_G_L_3_G_D_3_P_0" stroke="#343434" stroke-linecap="round" stroke-linejoin="round" fill="none" stroke-width="0.6" stroke-opacity="1" d=" M58.11 34.71 C59.55,26.51 61.14,17.95 66.23,11.36 C68.57,8.33 71.55,5.87 74.5,3.43 C75.64,2.5 76.97,1.5 78.42,1.72 C80.43,2.02 81.36,4.37 81.61,6.39 C82.39,12.83 80.11,19.29 76.93,24.94 C73.75,30.6 69.66,35.7 66.35,41.28 C65.44,42.81 64.56,44.41 63.25,45.61 C62.29,46.49 61,47.18 59.68,47.21 C57.87,47.26 57.74,46.32 57.48,44.69 C56.95,41.37 57.54,37.98 58.11,34.71z "/><path id="_R_G_L_3_G_D_4_P_0" fill="#ffffff" fill-opacity="1" fill-rule="nonzero" d=" M66.49 70.2 C65.48,70.24 64.47,70.14 63.49,69.67 C63.21,69.54 62.94,69.37 62.72,69.05 C62.5,68.73 62.35,68.23 62.41,67.76 C62.46,67.29 62.71,66.98 62.93,66.71 C63.66,65.85 64.38,64.99 65.11,64.13 C68.31,60.32 71.65,56.41 75.56,55.46 C76.36,55.26 77.2,55.2 77.96,55.78 C78.84,56.45 79.63,58.38 79.05,59.85 C78.42,61.42 77.45,62.79 76.58,63.95 C74.76,66.4 72.65,68.21 70.39,69.23 C69.12,69.81 67.81,70.14 66.49,70.2z "/><path id="_R_G_L_3_G_D_5_P_0" stroke="#343434" stroke-linecap="round" stroke-linejoin="round" fill="none" stroke-width="0.6" stroke-opacity="1" d=" M66.49 70.2 C65.48,70.24 64.47,70.14 63.49,69.67 C63.21,69.54 62.94,69.37 62.72,69.05 C62.5,68.73 62.35,68.23 62.41,67.76 C62.46,67.29 62.71,66.98 62.93,66.71 C63.66,65.85 64.38,64.99 65.11,64.13 C68.31,60.32 71.65,56.41 75.56,55.46 C76.36,55.26 77.2,55.2 77.96,55.78 C78.84,56.45 79.63,58.38 79.05,59.85 C78.42,61.42 77.45,62.79 76.58,63.95 C74.76,66.4 72.65,68.21 70.39,69.23 C69.12,69.81 67.81,70.14 66.49,70.2z "/></g><g id="_R_G_L_2_G" transform=" translate(578.558, 219.129)"><path id="_R_G_L_2_G_D_0_P_0" fill="#ffffff" fill-opacity="1" fill-rule="nonzero" d=" M5.2 112.63 C5.2,112.63 1.5,111.12 1.5,111.12 C7.72,95.88 18.71,60.84 21.15,43.66 C21.15,43.66 25.11,44.22 25.11,44.22 C22.54,62.32 11.43,97.38 5.2,112.63z "/><path id="_R_G_L_2_G_D_1_P_0" stroke="#343434" stroke-linecap="round" stroke-linejoin="round" fill="none" stroke-width="0.6" stroke-opacity="1" d=" M5.2 112.63 C5.2,112.63 1.5,111.12 1.5,111.12 C7.72,95.88 18.71,60.84 21.15,43.66 C21.15,43.66 25.11,44.22 25.11,44.22 C22.54,62.32 11.43,97.38 5.2,112.63z "/><path id="_R_G_L_2_G_D_2_P_0" fill="#ffffff" fill-opacity="1" fill-rule="nonzero" d=" M19.08 37.78 C18.96,29.46 18.92,20.75 22.69,13.33 C24.43,9.92 26.9,6.94 29.35,3.99 C30.29,2.86 31.41,1.64 32.88,1.58 C34.9,1.5 36.26,3.64 36.87,5.57 C38.84,11.75 37.81,18.52 35.74,24.68 C33.68,30.83 30.61,36.6 28.4,42.7 C27.79,44.37 27.23,46.11 26.16,47.54 C25.38,48.57 24.24,49.5 22.95,49.77 C21.19,50.16 20.88,49.26 20.32,47.7 C19.18,44.54 19.13,41.1 19.08,37.78z "/><path id="_R_G_L_2_G_D_3_P_0" stroke="#343434" stroke-linecap="round" stroke-linejoin="round" fill="none" stroke-width="0.6" stroke-opacity="1" d=" M19.08 37.78 C18.96,29.46 18.92,20.75 22.69,13.33 C24.43,9.92 26.9,6.94 29.35,3.99 C30.29,2.86 31.41,1.64 32.88,1.58 C34.9,1.5 36.26,3.64 36.87,5.57 C38.84,11.75 37.81,18.52 35.74,24.68 C33.68,30.83 30.61,36.6 28.4,42.7 C27.79,44.37 27.23,46.11 26.16,47.54 C25.38,48.57 24.24,49.5 22.95,49.77 C21.19,50.16 20.88,49.26 20.32,47.7 C19.18,44.54 19.13,41.1 19.08,37.78z "/></g><g id="_R_G_L_1_G" transform=" translate(241.227, 215.087)"><path id="_R_G_L_1_G_D_0_P_0" fill="#ffffff" fill-opacity="1" fill-rule="nonzero" d=" M24.37 73.95 C24.37,73.95 21.63,72.73 21.63,72.73 C25.42,64.2 31.22,56.06 38.85,48.52 C38.85,48.52 40.96,50.66 40.96,50.66 C33.59,57.93 28.01,65.76 24.37,73.95z "/><path id="_R_G_L_1_G_D_1_P_0" stroke="#343434" stroke-linecap="round" stroke-linejoin="round" fill="none" stroke-width="0.6" stroke-opacity="1" d=" M24.37 73.95 C24.37,73.95 21.63,72.73 21.63,72.73 C25.42,64.2 31.22,56.06 38.85,48.52 C38.85,48.52 40.96,50.66 40.96,50.66 C33.59,57.93 28.01,65.76 24.37,73.95z "/><path id="_R_G_L_1_G_D_2_P_0" fill="#ffffff" fill-opacity="1" fill-rule="nonzero" d=" M22.13 49.83 C22.13,49.83 17.15,52.17 17.15,52.17 C20.52,59.35 21.62,72.56 21.78,86.23 C20.49,82.55 19.06,79.7 17.66,77.29 C17.66,77.29 14.2,79.29 14.2,79.29 C17.08,84.28 20.15,91.23 21.52,104.79 C21.33,110.5 21.07,115.81 20.85,120.23 C20.76,121.94 20.68,123.54 20.62,125.01 C20.62,125.01 26.11,125.26 26.11,125.26 C26.18,123.8 26.26,122.21 26.34,120.51 C27.38,99.64 29.11,64.71 22.13,49.83z "/><path id="_R_G_L_1_G_D_3_P_0" stroke="#343434" stroke-linecap="round" stroke-linejoin="round" fill="none" stroke-width="0.6" stroke-opacity="1" d=" M22.13 49.83 C22.13,49.83 17.15,52.17 17.15,52.17 C20.52,59.35 21.62,72.56 21.78,86.23 C20.49,82.55 19.06,79.7 17.66,77.29 C17.66,77.29 14.2,79.29 14.2,79.29 C17.08,84.28 20.15,91.23 21.52,104.79 C21.33,110.5 21.07,115.81 20.85,120.23 C20.76,121.94 20.68,123.54 20.62,125.01 C20.62,125.01 26.11,125.26 26.11,125.26 C26.18,123.8 26.26,122.21 26.34,120.51 C27.38,99.64 29.11,64.71 22.13,49.83z "/><path id="_R_G_L_1_G_D_4_P_0" fill="#ffffff" fill-opacity="1" fill-rule="nonzero" d=" M17.15 54.49 C15.77,52.84 15.04,50.76 14.34,48.73 C11.98,41.94 9.62,35.16 7.27,28.37 C5.07,22.06 2.87,15.17 5.04,8.85 C5.77,6.74 7.02,4.74 8.89,3.54 C12.05,1.5 16.43,2.17 19.43,4.43 C22.44,6.68 24.22,10.23 25.24,13.85 C26.94,19.93 26.7,26.36 26.45,32.66 C26.21,39 25.96,45.33 25.71,51.66 C25.62,53.94 26.59,57.69 23.62,57.71 C21.21,57.72 18.66,56.31 17.15,54.49z "/><path id="_R_G_L_1_G_D_5_P_0" stroke="#343434" stroke-linecap="round" stroke-linejoin="round" fill="none" stroke-width="0.6" stroke-opacity="1" d=" M17.15 54.49 C15.77,52.84 15.04,50.76 14.34,48.73 C11.98,41.94 9.62,35.16 7.27,28.37 C5.07,22.06 2.87,15.17 5.04,8.85 C5.77,6.74 7.02,4.74 8.89,3.54 C12.05,1.5 16.43,2.17 19.43,4.43 C22.44,6.68 24.22,10.23 25.24,13.85 C26.94,19.93 26.7,26.36 26.45,32.66 C26.21,39 25.96,45.33 25.71,51.66 C25.62,53.94 26.59,57.69 23.62,57.71 C21.21,57.72 18.66,56.31 17.15,54.49z "/><path id="_R_G_L_1_G_D_6_P_0" fill="#ffffff" fill-opacity="1" fill-rule="nonzero" d=" M31.75 54.3 C31.47,55.26 31.34,56.28 31.57,57.34 C31.63,57.64 31.73,57.95 31.99,58.23 C32.25,58.52 32.71,58.78 33.17,58.84 C33.64,58.89 34,58.72 34.32,58.57 C34.32,58.57 37.34,57.06 37.34,57.06 C41.78,54.83 46.36,52.48 48.2,48.9 C48.57,48.17 48.83,47.36 48.44,46.5 C48,45.48 46.3,44.27 44.74,44.49 C43.06,44.73 41.51,45.36 40.18,45.93 C37.37,47.13 35.12,48.77 33.6,50.73 C32.74,51.82 32.12,53.02 31.75,54.3z "/><path id="_R_G_L_1_G_D_7_P_0" stroke="#343434" stroke-linecap="round" stroke-linejoin="round" fill="none" stroke-width="0.6" stroke-opacity="1" d=" M31.75 54.3 C31.47,55.26 31.34,56.28 31.57,57.34 C31.63,57.64 31.73,57.95 31.99,58.23 C32.25,58.52 32.71,58.78 33.17,58.84 C33.64,58.89 34,58.72 34.32,58.57 C34.32,58.57 37.34,57.06 37.34,57.06 C41.78,54.83 46.36,52.48 48.2,48.9 C48.57,48.17 48.83,47.36 48.44,46.5 C48,45.48 46.3,44.27 44.74,44.49 C43.06,44.73 41.51,45.36 40.18,45.93 C37.37,47.13 35.12,48.77 33.6,50.73 C32.74,51.82 32.12,53.02 31.75,54.3z "/><path id="_R_G_L_1_G_D_8_P_0" fill="#ffffff" fill-opacity="1" fill-rule="nonzero" d=" M8.78 72.95 C4.94,66.28 1.5,58.8 2.53,51.17 C2.8,49.21 3.55,47.05 5.35,46.22 C7.4,45.27 9.82,46.51 11.43,48.1 C14.67,51.3 16.19,55.87 16.91,60.36 C17.63,64.86 17.68,69.45 18.54,73.92 C18.76,75.09 19.04,76.26 19.02,77.45 C18.98,79.83 16.66,82.74 14.1,81.16 C13.03,80.49 12.34,78.82 11.7,77.81 C10.7,76.21 9.73,74.59 8.78,72.95z "/><path id="_R_G_L_1_G_D_9_P_0" stroke="#343434" stroke-linecap="round" stroke-linejoin="round" fill="none" stroke-width="0.6" stroke-opacity="1" d=" M8.78 72.95 C4.94,66.28 1.5,58.8 2.53,51.17 C2.8,49.21 3.55,47.05 5.35,46.22 C7.4,45.27 9.82,46.51 11.43,48.1 C14.67,51.3 16.19,55.87 16.91,60.36 C17.63,64.86 17.68,69.45 18.54,73.92 C18.76,75.09 19.04,76.26 19.02,77.45 C18.98,79.83 16.66,82.74 14.1,81.16 C13.03,80.49 12.34,78.82 11.7,77.81 C10.7,76.21 9.73,74.59 8.78,72.95z "/></g><g id="_R_G_L_0_G" transform=" translate(1077.695, 288.538)"><path id="_R_G_L_0_G_D_0_P_0" fill="#ffffff" fill-opacity="1" fill-rule="nonzero" d=" M39.47 54.95 C39.47,54.95 35.99,52.97 35.99,52.97 C35.57,53.71 29.07,65.29 25.24,78.05 C22.77,60.05 21.98,45.72 21.96,45.45 C21.96,45.45 15.97,45.77 15.97,45.77 C16.08,47.88 18.85,97.79 30.76,129.43 C30.76,129.43 36.37,127.32 36.37,127.32 C32.12,116.02 29.05,102.05 26.87,88.87 C29.03,73.53 39.34,55.17 39.47,54.95z "/><path id="_R_G_L_0_G_D_1_P_0" stroke="#343434" stroke-linecap="round" stroke-linejoin="round" fill="none" stroke-width="0.6" stroke-opacity="1" d=" M39.47 54.95 C39.47,54.95 35.99,52.97 35.99,52.97 C35.57,53.71 29.07,65.29 25.24,78.05 C22.77,60.05 21.98,45.72 21.96,45.45 C21.96,45.45 15.97,45.77 15.97,45.77 C16.08,47.88 18.85,97.79 30.76,129.43 C30.76,129.43 36.37,127.32 36.37,127.32 C32.12,116.02 29.05,102.05 26.87,88.87 C29.03,73.53 39.34,55.17 39.47,54.95z "/><path id="_R_G_L_0_G_D_2_P_0" fill="#ffffff" fill-opacity="1" fill-rule="nonzero" d=" M15.78 54.49 C14.4,52.84 13.67,50.76 12.97,48.73 C10.61,41.94 8.25,35.16 5.9,28.37 C3.7,22.06 1.5,15.17 3.67,8.85 C4.4,6.74 5.65,4.74 7.52,3.54 C10.68,1.5 15.06,2.17 18.06,4.43 C21.07,6.68 22.85,10.23 23.87,13.85 C25.57,19.93 25.33,26.36 25.09,32.66 C24.84,39 24.59,45.33 24.34,51.66 C24.25,53.94 25.22,57.69 22.25,57.71 C19.84,57.72 17.29,56.31 15.78,54.49z "/><path id="_R_G_L_0_G_D_3_P_0" stroke="#343434" stroke-linecap="round" stroke-linejoin="round" fill="none" stroke-width="0.6" stroke-opacity="1" d=" M15.78 54.49 C14.4,52.84 13.67,50.76 12.97,48.73 C10.61,41.94 8.25,35.16 5.9,28.37 C3.7,22.06 1.5,15.17 3.67,8.85 C4.4,6.74 5.65,4.74 7.52,3.54 C10.68,1.5 15.06,2.17 18.06,4.43 C21.07,6.68 22.85,10.23 23.87,13.85 C25.57,19.93 25.33,26.36 25.09,32.66 C24.84,39 24.59,45.33 24.34,51.66 C24.25,53.94 25.22,57.69 22.25,57.71 C19.84,57.72 17.29,56.31 15.78,54.49z "/><path id="_R_G_L_0_G_D_4_P_0" fill="#ffffff" fill-opacity="1" fill-rule="nonzero" d=" M34.92 50.91 C36.08,45.2 37.9,39.24 42.32,35.47 C43.46,34.5 44.97,33.66 46.41,34.11 C48.06,34.62 48.82,36.54 48.93,38.26 C49.16,41.7 47.73,45.04 45.88,47.94 C44.03,50.84 41.74,53.45 39.98,56.41 C39.52,57.18 39.09,57.98 38.48,58.64 C37.26,59.96 34.47,60.42 33.81,58.23 C33.54,57.32 33.98,56.02 34.13,55.13 C34.37,53.72 34.63,52.31 34.92,50.91z "/><path id="_R_G_L_0_G_D_5_P_0" stroke="#343434" stroke-linecap="round" stroke-linejoin="round" fill="none" stroke-width="0.6" stroke-opacity="1" d=" M34.92 50.91 C36.08,45.2 37.9,39.24 42.32,35.47 C43.46,34.5 44.97,33.66 46.41,34.11 C48.06,34.62 48.82,36.54 48.93,38.26 C49.16,41.7 47.73,45.04 45.88,47.94 C44.03,50.84 41.74,53.45 39.98,56.41 C39.52,57.18 39.09,57.98 38.48,58.64 C37.26,59.96 34.47,60.42 33.81,58.23 C33.54,57.32 33.98,56.02 34.13,55.13 C34.37,53.72 34.63,52.31 34.92,50.91z "/></g></g><g id="time_group"/></svg>