<svg xmlns="http://www.w3.org/2000/svg" xmlns:xlink="http://www.w3.org/1999/xlink" preserveAspectRatio="xMidYMid meet" width="1512" height="308" viewBox="0 0 1512 308" style="width:100%;height:100%"><defs><animateTransform repeatCount="indefinite" dur="2.9666667s" begin="0s" xlink:href="#_R_G_L_6_G" fill="freeze" attributeName="transform" from="-3" to="-3" type="rotate" additive="sum" keyTimes="0;0.5617978;1" values="-3;0;-3" keySplines="0.512 0 0.667 1;0.373 0 0.474 1" calcMode="spline"/><animateTransform repeatCount="indefinite" dur="2.9666667s" begin="0s" xlink:href="#_R_G_L_6_G" fill="freeze" attributeName="transform" from="-17.216 -189.342" to="-17.216 -189.342" type="translate" additive="sum" keyTimes="0;1" values="-17.216 -189.342;-17.216 -189.342" keySplines="0 0 1 1" calcMode="spline"/><animateTransform repeatCount="indefinite" dur="2.9666667s" begin="0s" xlink:href="#_R_G_L_5_G" fill="freeze" attributeName="transform" from="-4" to="-4" type="rotate" additive="sum" keyTimes="0;0.4494382;1" values="-4;2;-4" keySplines="0.512 0 0.667 1;0.373 0 0.474 1" calcMode="spline"/><animateTransform repeatCount="indefinite" dur="2.9666667s" begin="0s" xlink:href="#_R_G_L_5_G" fill="freeze" attributeName="transform" from="-30.268 -119.764" to="-30.268 -119.764" type="translate" additive="sum" keyTimes="0;1" values="-30.268 -119.764;-30.268 -119.764" keySplines="0 0 1 1" calcMode="spline"/><animateTransform repeatCount="indefinite" dur="2.9666667s" begin="0s" xlink:href="#_R_G_L_1_G" fill="freeze" attributeName="transform" from="-4" to="-4" type="rotate" additive="sum" keyTimes="0;0.5617978;1" values="-4;4;-4" keySplines="0.512 0 0.667 1;0.373 0 0.474 1" calcMode="spline"/><animateTransform repeatCount="indefinite" dur="2.9666667s" begin="0s" xlink:href="#_R_G_L_1_G" fill="freeze" attributeName="transform" from="-5.786 -88.076" to="-5.786 -88.076" type="translate" additive="sum" keyTimes="0;1" values="-5.786 -88.076;-5.786 -88.076" keySplines="0 0 1 1" calcMode="spline"/><animateTransform repeatCount="indefinite" dur="2.9666667s" begin="0s" xlink:href="#_R_G_L_0_G" fill="freeze" attributeName="transform" from="-5" to="-5" type="rotate" additive="sum" keyTimes="0;0.4606742;1" values="-5;0;-5" keySplines="0.512 0 0.667 1;0.373 0 0.474 1" calcMode="spline"/><animateTransform repeatCount="indefinite" dur="2.9666667s" begin="0s" xlink:href="#_R_G_L_0_G" fill="freeze" attributeName="transform" from="-24.621 -153.143" to="-24.621 -153.143" type="translate" additive="sum" keyTimes="0;1" values="-24.621 -153.143;-24.621 -153.143" keySplines="0 0 1 1" calcMode="spline"/><animate attributeType="XML" attributeName="opacity" dur="3s" from="0" to="1" xlink:href="#time_group"/></defs><g id="_R_G"><g id="_R_G_L_6_G" transform=" translate(1421.073, 231.45)"><path id="_R_G_L_6_G_D_0_P_0" fill="#ffffff" fill-opacity="1" fill-rule="nonzero" d=" M37.37 92.29 C37.37,92.29 40.2,91.31 40.2,91.31 C37.17,82.49 32.11,73.87 25.16,65.7 C25.16,65.7 22.88,67.64 22.88,67.64 C29.58,75.52 34.46,83.82 37.37,92.29z "/><path id="_R_G_L_6_G_D_1_P_0" stroke="#343434" stroke-linecap="round" stroke-linejoin="round" fill="none" stroke-width="0.6" stroke-opacity="1" d=" M37.37 92.29 C37.37,92.29 40.2,91.31 40.2,91.31 C37.17,82.49 32.11,73.87 25.16,65.7 C25.16,65.7 22.88,67.64 22.88,67.64 C29.58,75.52 34.46,83.82 37.37,92.29z "/><path id="_R_G_L_6_G_D_2_P_0" fill="#ffffff" fill-opacity="1" fill-rule="nonzero" d=" M18.67 63.17 C18.36,64 18.36,64.91 18.52,65.78 C18.73,66.8 19.18,67.79 19.95,68.5 C21.47,69.93 24.14,69.86 25.63,68.38 C27.12,66.91 27.25,64.3 25.96,62.65 C24.22,60.42 19.77,60.19 18.67,63.17z "/><path id="_R_G_L_6_G_D_3_P_0" stroke="#343434" stroke-linecap="round" stroke-linejoin="round" fill="none" stroke-width="0.6" stroke-opacity="1" d=" M18.67 63.17 C18.36,64 18.36,64.91 18.52,65.78 C18.73,66.8 19.18,67.79 19.95,68.5 C21.47,69.93 24.14,69.86 25.63,68.38 C27.12,66.91 27.25,64.3 25.96,62.65 C24.22,60.42 19.77,60.19 18.67,63.17z "/><path id="_R_G_L_6_G_D_4_P_0" fill="#ffffff" fill-opacity="1" fill-rule="nonzero" d=" M41.07 44.11 C41.07,44.11 35.11,44.78 35.11,44.78 C35.17,45.31 38.74,79.37 30.18,126.59 C27.03,120.54 24.63,113.73 23.01,106.26 C23.01,106.26 20.08,106.89 20.08,106.89 C22.04,115.98 25.15,124.14 29.31,131.22 C24.35,156.64 15.86,185.55 1.5,214.95 C1.5,214.95 6.89,217.58 6.89,217.58 C50.06,129.19 41.17,44.95 41.07,44.11z "/><path id="_R_G_L_6_G_D_5_P_0" stroke="#343434" stroke-linecap="round" stroke-linejoin="round" fill="none" stroke-width="0.6" stroke-opacity="1" d=" M41.07 44.11 C41.07,44.11 35.11,44.78 35.11,44.78 C35.17,45.31 38.74,79.37 30.18,126.59 C27.03,120.54 24.63,113.73 23.01,106.26 C23.01,106.26 20.08,106.89 20.08,106.89 C22.04,115.98 25.15,124.14 29.31,131.22 C24.35,156.64 15.86,185.55 1.5,214.95 C1.5,214.95 6.89,217.58 6.89,217.58 C50.06,129.19 41.17,44.95 41.07,44.11z "/><path id="_R_G_L_6_G_D_6_P_0" fill="#ffffff" fill-opacity="1" fill-rule="nonzero" d=" M49.68 12.47 C50.44,9.38 51.03,5.64 48.75,3.43 C46.75,1.5 43.34,1.82 41.05,3.39 C38.76,4.96 37.32,7.46 35.95,9.88 C32.36,16.22 28.65,23.15 29.58,30.38 C30.18,35.05 32.64,39.16 33.95,43.62 C34.53,45.59 34.91,53.71 38.47,52.86 C40.73,52.32 41.26,46.74 41.67,45 C42.84,39.97 44.12,34.96 45.36,29.95 C46.8,24.12 48.24,18.3 49.68,12.47z "/><path id="_R_G_L_6_G_D_7_P_0" stroke="#343434" stroke-linecap="round" stroke-linejoin="round" fill="none" stroke-width="0.6" stroke-opacity="1" d=" M49.68 12.47 C50.44,9.38 51.03,5.64 48.75,3.43 C46.75,1.5 43.34,1.82 41.05,3.39 C38.76,4.96 37.32,7.46 35.95,9.88 C32.36,16.22 28.65,23.15 29.58,30.38 C30.18,35.05 32.64,39.16 33.95,43.62 C34.53,45.59 34.91,53.71 38.47,52.86 C40.73,52.32 41.26,46.74 41.67,45 C42.84,39.97 44.12,34.96 45.36,29.95 C46.8,24.12 48.24,18.3 49.68,12.47z "/><path id="_R_G_L_6_G_D_8_P_0" fill="#ffffff" fill-opacity="1" fill-rule="nonzero" d=" M18.06 106.35 C16.38,100.77 15.15,94.66 17.25,89.24 C17.79,87.85 18.73,86.4 20.21,86.1 C21.9,85.77 23.48,87.11 24.4,88.56 C26.24,91.48 26.55,95.11 26.3,98.54 C26.05,101.97 25.28,105.35 25.13,108.79 C25.09,109.68 25.09,110.59 24.87,111.46 C24.42,113.2 22.18,114.93 20.56,113.31 C19.89,112.64 19.67,111.29 19.37,110.43 C18.91,109.08 18.47,107.72 18.06,106.35z "/><path id="_R_G_L_6_G_D_9_P_0" stroke="#343434" stroke-linecap="round" stroke-linejoin="round" fill="none" stroke-width="0.6" stroke-opacity="1" d=" M18.06 106.35 C16.38,100.77 15.15,94.66 17.25,89.24 C17.79,87.85 18.73,86.4 20.21,86.1 C21.9,85.77 23.48,87.11 24.4,88.56 C26.24,91.48 26.55,95.11 26.3,98.54 C26.05,101.97 25.28,105.35 25.13,108.79 C25.09,109.68 25.09,110.59 24.87,111.46 C24.42,113.2 22.18,114.93 20.56,113.31 C19.89,112.64 19.67,111.29 19.37,110.43 C18.91,109.08 18.47,107.72 18.06,106.35z "/></g><g id="_R_G_L_5_G" transform=" translate(1122.327, 219.402)"><path id="_R_G_L_5_G_D_0_P_0" fill="#ffffff" fill-opacity="1" fill-rule="nonzero" d=" M39.47 54.95 C39.47,54.95 35.99,52.97 35.99,52.97 C35.57,53.71 29.07,65.29 25.24,78.05 C22.77,60.05 21.98,45.72 21.96,45.45 C21.96,45.45 15.97,45.77 15.97,45.77 C16.08,47.88 18.85,97.79 30.76,129.43 C30.76,129.43 36.37,127.32 36.37,127.32 C32.12,116.02 29.05,102.05 26.87,88.87 C29.03,73.53 39.34,55.17 39.47,54.95z "/><path id="_R_G_L_5_G_D_1_P_0" stroke="#343434" stroke-linecap="round" stroke-linejoin="round" fill="none" stroke-width="0.6" stroke-opacity="1" d=" M39.47 54.95 C39.47,54.95 35.99,52.97 35.99,52.97 C35.57,53.71 29.07,65.29 25.24,78.05 C22.77,60.05 21.98,45.72 21.96,45.45 C21.96,45.45 15.97,45.77 15.97,45.77 C16.08,47.88 18.85,97.79 30.76,129.43 C30.76,129.43 36.37,127.32 36.37,127.32 C32.12,116.02 29.05,102.05 26.87,88.87 C29.03,73.53 39.34,55.17 39.47,54.95z "/><path id="_R_G_L_5_G_D_2_P_0" fill="#ffffff" fill-opacity="1" fill-rule="nonzero" d=" M15.78 54.49 C14.4,52.84 13.67,50.76 12.97,48.73 C10.61,41.94 8.25,35.16 5.9,28.37 C3.7,22.06 1.5,15.17 3.67,8.85 C4.4,6.74 5.65,4.74 7.52,3.54 C10.68,1.5 15.06,2.17 18.06,4.43 C21.07,6.68 22.85,10.23 23.87,13.85 C25.57,19.93 25.33,26.36 25.09,32.66 C25.09,32.66 24.34,51.66 24.34,51.66 C24.25,53.94 25.22,57.69 22.25,57.71 C19.84,57.72 17.29,56.31 15.78,54.49z "/><path id="_R_G_L_5_G_D_3_P_0" stroke="#343434" stroke-linecap="round" stroke-linejoin="round" fill="none" stroke-width="0.6" stroke-opacity="1" d=" M15.78 54.49 C14.4,52.84 13.67,50.76 12.97,48.73 C10.61,41.94 8.25,35.16 5.9,28.37 C3.7,22.06 1.5,15.17 3.67,8.85 C4.4,6.74 5.65,4.74 7.52,3.54 C10.68,1.5 15.06,2.17 18.06,4.43 C21.07,6.68 22.85,10.23 23.87,13.85 C25.57,19.93 25.33,26.36 25.09,32.66 C25.09,32.66 24.34,51.66 24.34,51.66 C24.25,53.94 25.22,57.69 22.25,57.71 C19.84,57.72 17.29,56.31 15.78,54.49z "/><path id="_R_G_L_5_G_D_4_P_0" fill="#ffffff" fill-opacity="1" fill-rule="nonzero" d=" M34.92 50.91 C36.08,45.2 37.9,39.24 42.32,35.47 C43.46,34.5 44.97,33.66 46.41,34.11 C48.06,34.62 48.82,36.54 48.93,38.26 C49.16,41.7 47.73,45.04 45.88,47.94 C44.03,50.84 41.74,53.45 39.98,56.41 C39.52,57.18 39.09,57.98 38.48,58.64 C37.26,59.96 34.47,60.42 33.81,58.23 C33.54,57.32 33.98,56.02 34.13,55.13 C34.37,53.72 34.63,52.31 34.92,50.91z "/><path id="_R_G_L_5_G_D_5_P_0" stroke="#343434" stroke-linecap="round" stroke-linejoin="round" fill="none" stroke-width="0.6" stroke-opacity="1" d=" M34.92 50.91 C36.08,45.2 37.9,39.24 42.32,35.47 C43.46,34.5 44.97,33.66 46.41,34.11 C48.06,34.62 48.82,36.54 48.93,38.26 C49.16,41.7 47.73,45.04 45.88,47.94 C44.03,50.84 41.74,53.45 39.98,56.41 C39.52,57.18 39.09,57.98 38.48,58.64 C37.26,59.96 34.47,60.42 33.81,58.23 C33.54,57.32 33.98,56.02 34.13,55.13 C34.37,53.72 34.63,52.31 34.92,50.91z "/></g><g id="_R_G_L_4_G" transform=" translate(1152.231, 172.508) translate(-11.292, -42.522)"><path id="_R_G_L_4_G_D_0_P_0" fill="#ffffff" fill-opacity="1" fill-rule="nonzero" d=" M5.29 83.54 C1.5,61.49 5.81,36.58 5.99,35.53 C5.99,35.53 9.93,36.22 9.93,36.22 C9.89,36.47 5.56,61.51 9.23,82.87 C9.23,82.87 5.29,83.54 5.29,83.54z "/><path id="_R_G_L_4_G_D_1_P_0" stroke="#343434" stroke-linecap="round" stroke-linejoin="round" fill="none" stroke-width="0.6" stroke-opacity="1" d=" M5.29 83.54 C1.5,61.49 5.81,36.58 5.99,35.53 C5.99,35.53 9.93,36.22 9.93,36.22 C9.89,36.47 5.56,61.51 9.23,82.87 C9.23,82.87 5.29,83.54 5.29,83.54z "/><path id="_R_G_L_4_G_D_2_P_0" fill="#ffffff" fill-opacity="1" fill-rule="nonzero" d=" M4.54 33.2 C4.74,35.44 5.14,37.67 5.99,39.75 C6.23,40.33 6.51,40.91 6.98,41.33 C7.44,41.75 8.13,41.97 8.71,41.74 C9.3,41.51 9.63,40.9 9.92,40.34 C10.83,38.55 11.75,36.76 12.66,34.97 C16.7,27.05 20.83,18.79 21.04,9.9 C21.08,8.1 20.94,6.21 20.01,4.66 C18.93,2.84 16.25,1.5 14.53,3.1 C12.68,4.82 11.19,7.28 9.92,9.45 C7.26,14.01 5.5,19.1 4.77,24.32 C4.36,27.26 4.28,30.24 4.54,33.2z "/><path id="_R_G_L_4_G_D_3_P_0" stroke="#343434" stroke-linecap="round" stroke-linejoin="round" fill="none" stroke-width="0.6" stroke-opacity="1" d=" M4.54 33.2 C4.74,35.44 5.14,37.67 5.99,39.75 C6.23,40.33 6.51,40.91 6.98,41.33 C7.44,41.75 8.13,41.97 8.71,41.74 C9.3,41.51 9.63,40.9 9.92,40.34 C10.83,38.55 11.75,36.76 12.66,34.97 C16.7,27.05 20.83,18.79 21.04,9.9 C21.08,8.1 20.94,6.21 20.01,4.66 C18.93,2.84 16.25,1.5 14.53,3.1 C12.68,4.82 11.19,7.28 9.92,9.45 C7.26,14.01 5.5,19.1 4.77,24.32 C4.36,27.26 4.28,30.24 4.54,33.2z "/></g><g id="_R_G_L_3_G" transform=" translate(845.204, 101.952) translate(-57.912, -51.492)"><path id="_R_G_L_3_G_D_0_P_0" fill="#ffffff" fill-opacity="1" fill-rule="nonzero" d=" M4.28 84.73 C4.28,84.73 1.5,81.85 1.5,81.85 C12.42,71.34 17.51,38.56 17.56,38.23 C17.56,38.23 21.51,38.83 21.51,38.83 C21.3,40.23 16.16,73.28 4.28,84.73z "/><path id="_R_G_L_3_G_D_1_P_0" stroke="#343434" stroke-linecap="round" stroke-linejoin="round" fill="none" stroke-width="0.6" stroke-opacity="1" d=" M4.28 84.73 C4.28,84.73 1.5,81.85 1.5,81.85 C12.42,71.34 17.51,38.56 17.56,38.23 C17.56,38.23 21.51,38.83 21.51,38.83 C21.3,40.23 16.16,73.28 4.28,84.73z "/><path id="_R_G_L_3_G_D_2_P_0" fill="#ffffff" fill-opacity="1" fill-rule="nonzero" d=" M16.52 32.6 C16.18,25.57 15.89,18.2 18.35,11.83 C19.49,8.9 21.16,6.31 22.81,3.76 C23.45,2.77 24.21,1.71 25.26,1.62 C26.7,1.5 27.74,3.27 28.24,4.89 C29.83,10.07 29.3,15.83 28.02,21.09 C26.73,26.34 24.72,31.31 23.33,36.52 C22.94,37.96 22.6,39.44 21.88,40.67 C21.36,41.57 20.57,42.38 19.66,42.65 C18.41,43.02 18.16,42.27 17.71,40.97 C16.81,38.32 16.66,35.41 16.52,32.6z "/><path id="_R_G_L_3_G_D_3_P_0" stroke="#343434" stroke-linecap="round" stroke-linejoin="round" fill="none" stroke-width="0.6" stroke-opacity="1" d=" M16.52 32.6 C16.18,25.57 15.89,18.2 18.35,11.83 C19.49,8.9 21.16,6.31 22.81,3.76 C23.45,2.77 24.21,1.71 25.26,1.62 C26.7,1.5 27.74,3.27 28.24,4.89 C29.83,10.07 29.3,15.83 28.02,21.09 C26.73,26.34 24.72,31.31 23.33,36.52 C22.94,37.96 22.6,39.44 21.88,40.67 C21.36,41.57 20.57,42.38 19.66,42.65 C18.41,43.02 18.16,42.27 17.71,40.97 C16.81,38.32 16.66,35.41 16.52,32.6z "/><path id="_R_G_L_3_G_D_4_P_0" fill="#ffffff" fill-opacity="1" fill-rule="nonzero" d=" M89.61 87.16 C88.98,69.14 103.16,50.26 103.76,49.46 C103.76,49.46 106.95,51.88 106.95,51.88 C106.81,52.06 93.03,70.44 93.61,87.02 C93.61,87.02 89.61,87.16 89.61,87.16z "/><path id="_R_G_L_3_G_D_5_P_0" stroke="#343434" stroke-linecap="round" stroke-linejoin="round" fill="none" stroke-width="0.6" stroke-opacity="1" d=" M89.61 87.16 C88.98,69.14 103.16,50.26 103.76,49.46 C103.76,49.46 106.95,51.88 106.95,51.88 C106.81,52.06 93.03,70.44 93.61,87.02 C93.61,87.02 89.61,87.16 89.61,87.16z "/><path id="_R_G_L_3_G_D_6_P_0" fill="#ffffff" fill-opacity="1" fill-rule="nonzero" d=" M104.3 42.61 C103.54,43.49 103.1,44.61 102.91,45.75 C102.68,47.1 102.78,48.54 103.38,49.77 C104.6,52.25 107.91,53.39 110.43,52.28 C112.95,51.15 114.33,48 113.51,45.37 C112.4,41.82 107.05,39.46 104.3,42.61z "/><path id="_R_G_L_3_G_D_7_P_0" stroke="#343434" stroke-linecap="round" stroke-linejoin="round" fill="none" stroke-width="0.6" stroke-opacity="1" d=" M104.3 42.61 C103.54,43.49 103.1,44.61 102.91,45.75 C102.68,47.1 102.78,48.54 103.38,49.77 C104.6,52.25 107.91,53.39 110.43,52.28 C112.95,51.15 114.33,48 113.51,45.37 C112.4,41.82 107.05,39.46 104.3,42.61z "/><path id="_R_G_L_3_G_D_8_P_0" fill="#ffffff" fill-opacity="1" fill-rule="nonzero" d=" M20.11 101.48 C17.73,84.2 32.73,57.51 33.37,56.38 C33.37,56.38 36.85,58.36 36.85,58.36 C36.7,58.62 21.88,85 24.07,100.94 C24.07,100.94 20.11,101.48 20.11,101.48z "/><path id="_R_G_L_3_G_D_9_P_0" stroke="#343434" stroke-linecap="round" stroke-linejoin="round" fill="none" stroke-width="0.6" stroke-opacity="1" d=" M20.11 101.48 C17.73,84.2 32.73,57.51 33.37,56.38 C33.37,56.38 36.85,58.36 36.85,58.36 C36.7,58.62 21.88,85 24.07,100.94 C24.07,100.94 20.11,101.48 20.11,101.48z "/><path id="_R_G_L_3_G_D_10_P_0" fill="#ffffff" fill-opacity="1" fill-rule="nonzero" d=" M32.29 54.32 C33.46,48.61 35.27,42.65 39.7,38.88 C40.84,37.91 42.35,37.07 43.79,37.52 C45.44,38.03 46.2,39.95 46.31,41.66 C46.54,45.11 45.11,48.45 43.26,51.35 C41.4,54.25 39.12,56.86 37.36,59.82 C36.9,60.59 36.47,61.39 35.86,62.05 C34.64,63.37 31.85,63.83 31.19,61.64 C30.92,60.72 31.36,59.43 31.51,58.54 C31.74,57.12 32.01,55.72 32.29,54.32z "/><path id="_R_G_L_3_G_D_11_P_0" stroke="#343434" stroke-linecap="round" stroke-linejoin="round" fill="none" stroke-width="0.6" stroke-opacity="1" d=" M32.29 54.32 C33.46,48.61 35.27,42.65 39.7,38.88 C40.84,37.91 42.35,37.07 43.79,37.52 C45.44,38.03 46.2,39.95 46.31,41.66 C46.54,45.11 45.11,48.45 43.26,51.35 C41.4,54.25 39.12,56.86 37.36,59.82 C36.9,60.59 36.47,61.39 35.86,62.05 C34.64,63.37 31.85,63.83 31.19,61.64 C30.92,60.72 31.36,59.43 31.51,58.54 C31.74,57.12 32.01,55.72 32.29,54.32z "/><path id="_R_G_L_3_G_D_12_P_0" fill="#ffffff" fill-opacity="1" fill-rule="nonzero" d=" M35.78 94.75 C26.51,77.24 24.97,61.14 24.91,60.46 C24.91,60.46 27.89,60.19 27.89,60.19 C27.91,60.35 29.45,76.39 38.43,93.35 C38.43,93.35 35.78,94.75 35.78,94.75z "/><path id="_R_G_L_3_G_D_13_P_0" stroke="#343434" stroke-linecap="round" stroke-linejoin="round" fill="none" stroke-width="0.6" stroke-opacity="1" d=" M35.78 94.75 C26.51,77.24 24.97,61.14 24.91,60.46 C24.91,60.46 27.89,60.19 27.89,60.19 C27.91,60.35 29.45,76.39 38.43,93.35 C38.43,93.35 35.78,94.75 35.78,94.75z "/><path id="_R_G_L_3_G_D_14_P_0" fill="#ffffff" fill-opacity="1" fill-rule="nonzero" d=" M61.6 81.48 C61.6,81.48 64.6,81.58 64.6,81.58 C64.89,72.25 63.21,62.39 59.61,52.29 C59.61,52.29 56.78,53.3 56.78,53.3 C60.26,63.05 61.88,72.53 61.6,81.48z "/><path id="_R_G_L_3_G_D_15_P_0" stroke="#343434" stroke-linecap="round" stroke-linejoin="round" fill="none" stroke-width="0.6" stroke-opacity="1" d=" M61.6 81.48 C61.6,81.48 64.6,81.58 64.6,81.58 C64.89,72.25 63.21,62.39 59.61,52.29 C59.61,52.29 56.78,53.3 56.78,53.3 C60.26,63.05 61.88,72.53 61.6,81.48z "/><path id="_R_G_L_3_G_D_16_P_0" fill="#ffffff" fill-opacity="1" fill-rule="nonzero" d=" M63.49 60.58 C63.32,61.57 63,62.54 62.33,63.4 C62.15,63.64 61.92,63.87 61.57,64.02 C61.21,64.17 60.68,64.21 60.24,64.05 C59.79,63.89 59.54,63.59 59.32,63.31 C58.63,62.42 57.95,61.53 57.26,60.64 C54.22,56.7 51.12,52.6 51.02,48.57 C51,47.75 51.12,46.91 51.84,46.3 C52.69,45.58 54.75,45.22 56.05,46.1 C57.46,47.05 58.58,48.29 59.54,49.38 C61.54,51.68 62.86,54.14 63.38,56.56 C63.67,57.92 63.72,59.27 63.49,60.58z "/><path id="_R_G_L_3_G_D_17_P_0" stroke="#343434" stroke-linecap="round" stroke-linejoin="round" fill="none" stroke-width="0.6" stroke-opacity="1" d=" M63.49 60.58 C63.32,61.57 63,62.54 62.33,63.4 C62.15,63.64 61.92,63.87 61.57,64.02 C61.21,64.17 60.68,64.21 60.24,64.05 C59.79,63.89 59.54,63.59 59.32,63.31 C58.63,62.42 57.95,61.53 57.26,60.64 C54.22,56.7 51.12,52.6 51.02,48.57 C51,47.75 51.12,46.91 51.84,46.3 C52.69,45.58 54.75,45.22 56.05,46.1 C57.46,47.05 58.58,48.29 59.54,49.38 C61.54,51.68 62.86,54.14 63.38,56.56 C63.67,57.92 63.72,59.27 63.49,60.58z "/><path id="_R_G_L_3_G_D_18_P_0" fill="#ffffff" fill-opacity="1" fill-rule="nonzero" d=" M70.61 72.79 C74.84,68.78 78.95,64.1 79.82,58.35 C80.04,56.87 79.96,55.15 78.82,54.16 C77.52,53.03 75.48,53.4 73.97,54.2 C70.91,55.83 68.83,58.81 67.35,61.91 C65.86,65.01 64.85,68.33 63.27,71.39 C62.85,72.19 62.4,72.97 62.16,73.84 C61.68,75.57 62.76,78.18 64.97,77.59 C65.89,77.34 66.76,76.28 67.44,75.68 C68.51,74.73 69.57,73.77 70.61,72.79z "/><path id="_R_G_L_3_G_D_19_P_0" stroke="#343434" stroke-linecap="round" stroke-linejoin="round" fill="none" stroke-width="0.6" stroke-opacity="1" d=" M70.61 72.79 C74.84,68.78 78.95,64.1 79.82,58.35 C80.04,56.87 79.96,55.15 78.82,54.16 C77.52,53.03 75.48,53.4 73.97,54.2 C70.91,55.83 68.83,58.81 67.35,61.91 C65.86,65.01 64.85,68.33 63.27,71.39 C62.85,72.19 62.4,72.97 62.16,73.84 C61.68,75.57 62.76,78.18 64.97,77.59 C65.89,77.34 66.76,76.28 67.44,75.68 C68.51,74.73 69.57,73.77 70.61,72.79z "/><path id="_R_G_L_3_G_D_20_P_0" fill="#ffffff" fill-opacity="1" fill-rule="nonzero" d=" M19.84 77.3 C19.84,77.3 16.84,77.25 16.84,77.25 C17.17,57.54 6.37,44.89 6.26,44.77 C6.26,44.77 8.52,42.8 8.52,42.8 C9,43.34 20.19,56.39 19.84,77.3z "/><path id="_R_G_L_3_G_D_21_P_0" stroke="#343434" stroke-linecap="round" stroke-linejoin="round" fill="none" stroke-width="0.6" stroke-opacity="1" d=" M19.84 77.3 C19.84,77.3 16.84,77.25 16.84,77.25 C17.17,57.54 6.37,44.89 6.26,44.77 C6.26,44.77 8.52,42.8 8.52,42.8 C9,43.34 20.19,56.39 19.84,77.3z "/><path id="_R_G_L_3_G_D_22_P_0" fill="#ffffff" fill-opacity="1" fill-rule="nonzero" d=" M9.66 40.69 C10.23,41.63 10.54,42.77 10.26,43.83 C10.02,44.75 9.36,45.5 8.73,46.22 C8.34,46.65 7.93,47.1 7.38,47.28 C6.81,47.46 6.18,47.32 5.62,47.1 C4.18,46.53 2.94,45.36 2.42,43.89 C1.9,42.42 2.16,40.67 3.19,39.5 C4.1,38.45 5.44,38.09 6.78,38.27 C8.09,38.45 9,39.6 9.66,40.69z "/><path id="_R_G_L_3_G_D_23_P_0" stroke="#343434" stroke-linecap="round" stroke-linejoin="round" fill="none" stroke-width="0.6" stroke-opacity="1" d=" M9.66 40.69 C10.23,41.63 10.54,42.77 10.26,43.83 C10.02,44.75 9.36,45.5 8.73,46.22 C8.34,46.65 7.93,47.1 7.38,47.28 C6.81,47.46 6.18,47.32 5.62,47.1 C4.18,46.53 2.94,45.36 2.42,43.89 C1.9,42.42 2.16,40.67 3.19,39.5 C4.1,38.45 5.44,38.09 6.78,38.27 C8.09,38.45 9,39.6 9.66,40.69z "/><path id="_R_G_L_3_G_D_24_P_0" fill="#ffffff" fill-opacity="1" fill-rule="nonzero" d=" M95.67 83.32 C98.76,78.39 102.54,73.43 108.01,71.45 C109.41,70.93 111.12,70.68 112.32,71.6 C113.68,72.66 113.72,74.72 113.23,76.37 C112.24,79.68 109.72,82.31 106.98,84.38 C104.23,86.45 101.18,88.1 98.49,90.25 C97.79,90.81 97.11,91.41 96.31,91.81 C94.7,92.62 91.93,92.08 92.08,89.8 C92.14,88.85 93.01,87.79 93.46,87 C94.18,85.76 94.91,84.54 95.67,83.32z "/><path id="_R_G_L_3_G_D_25_P_0" stroke="#343434" stroke-linecap="round" stroke-linejoin="round" fill="none" stroke-width="0.6" stroke-opacity="1" d=" M95.67 83.32 C98.76,78.39 102.54,73.43 108.01,71.45 C109.41,70.93 111.12,70.68 112.32,71.6 C113.68,72.66 113.72,74.72 113.23,76.37 C112.24,79.68 109.72,82.31 106.98,84.38 C104.23,86.45 101.18,88.1 98.49,90.25 C97.79,90.81 97.11,91.41 96.31,91.81 C94.7,92.62 91.93,92.08 92.08,89.8 C92.14,88.85 93.01,87.79 93.46,87 C94.18,85.76 94.91,84.54 95.67,83.32z "/><path id="_R_G_L_3_G_D_26_P_0" fill="#ffffff" fill-opacity="1" fill-rule="nonzero" d=" M75.13 72.91 C75.04,65.22 75.7,57.01 80.32,50.86 C81.52,49.27 83.22,47.76 85.2,47.92 C87.45,48.09 88.96,50.35 89.59,52.53 C90.85,56.9 89.94,61.63 88.38,65.91 C86.81,70.18 84.61,74.21 83.17,78.53 C82.79,79.66 82.47,80.82 81.87,81.85 C80.67,83.9 77.22,85.31 75.76,82.67 C75.16,81.57 75.37,79.78 75.31,78.58 C75.21,76.69 75.16,74.8 75.13,72.91z "/><path id="_R_G_L_3_G_D_27_P_0" stroke="#343434" stroke-linecap="round" stroke-linejoin="round" fill="none" stroke-width="0.6" stroke-opacity="1" d=" M75.13 72.91 C75.04,65.22 75.7,57.01 80.32,50.86 C81.52,49.27 83.22,47.76 85.2,47.92 C87.45,48.09 88.96,50.35 89.59,52.53 C90.85,56.9 89.94,61.63 88.38,65.91 C86.81,70.18 84.61,74.21 83.17,78.53 C82.79,79.66 82.47,80.82 81.87,81.85 C80.67,83.9 77.22,85.31 75.76,82.67 C75.16,81.57 75.37,79.78 75.31,78.58 C75.21,76.69 75.16,74.8 75.13,72.91z "/><path id="_R_G_L_3_G_D_28_P_0" fill="#ffffff" fill-opacity="1" fill-rule="nonzero" d=" M23.6 61.6 C24.34,62.28 25.19,62.85 26.25,63.12 C26.54,63.19 26.86,63.25 27.23,63.14 C27.6,63.04 28.04,62.75 28.3,62.35 C28.56,61.95 28.57,61.56 28.57,61.21 C28.57,60.08 28.57,58.96 28.57,57.83 C28.56,52.86 28.51,47.71 26.13,44.47 C25.64,43.81 25.03,43.22 24.08,43.18 C22.98,43.12 21.13,44.1 20.64,45.59 C20.1,47.2 19.97,48.87 19.89,50.32 C19.7,53.37 20.17,56.11 21.23,58.35 C21.84,59.6 22.63,60.7 23.6,61.6z "/><path id="_R_G_L_3_G_D_29_P_0" stroke="#343434" stroke-linecap="round" stroke-linejoin="round" fill="none" stroke-width="0.6" stroke-opacity="1" d=" M23.6 61.6 C24.34,62.28 25.19,62.85 26.25,63.12 C26.54,63.19 26.86,63.25 27.23,63.14 C27.6,63.04 28.04,62.75 28.3,62.35 C28.56,61.95 28.57,61.56 28.57,61.21 C28.57,60.08 28.57,58.96 28.57,57.83 C28.56,52.86 28.51,47.71 26.13,44.47 C25.64,43.81 25.03,43.22 24.08,43.18 C22.98,43.12 21.13,44.1 20.64,45.59 C20.1,47.2 19.97,48.87 19.89,50.32 C19.7,53.37 20.17,56.11 21.23,58.35 C21.84,59.6 22.63,60.7 23.6,61.6z "/></g><g id="_R_G_L_2_G" transform=" translate(395.378, 123.543) translate(-26.181, -23.968)"><path id="_R_G_L_2_G_D_0_P_0" fill="#ffffff" fill-opacity="1" fill-rule="nonzero" d=" M19.43 46.44 C19.43,46.44 16.43,46.39 16.43,46.39 C16.77,26.68 5.97,14.03 5.86,13.91 C5.86,13.91 8.12,11.93 8.12,11.93 C8.6,12.48 19.79,25.53 19.43,46.44z "/><path id="_R_G_L_2_G_D_1_P_0" stroke="#343434" stroke-linecap="round" stroke-linejoin="round" fill="none" stroke-width="0.6" stroke-opacity="1" d=" M19.43 46.44 C19.43,46.44 16.43,46.39 16.43,46.39 C16.77,26.68 5.97,14.03 5.86,13.91 C5.86,13.91 8.12,11.93 8.12,11.93 C8.6,12.48 19.79,25.53 19.43,46.44z "/><path id="_R_G_L_2_G_D_2_P_0" fill="#ffffff" fill-opacity="1" fill-rule="nonzero" d=" M9.26 9.83 C9.83,10.77 10.14,11.91 9.86,12.97 C9.62,13.89 8.96,14.64 8.33,15.36 C7.94,15.79 7.53,16.24 6.98,16.42 C6.41,16.6 5.78,16.46 5.22,16.24 C3.77,15.67 2.54,14.5 2.02,13.03 C1.5,11.56 1.76,9.81 2.78,8.64 C3.7,7.59 5.04,7.23 6.38,7.41 C7.69,7.59 8.6,8.74 9.26,9.83z "/><path id="_R_G_L_2_G_D_3_P_0" stroke="#343434" stroke-linecap="round" stroke-linejoin="round" fill="none" stroke-width="0.6" stroke-opacity="1" d=" M9.26 9.83 C9.83,10.77 10.14,11.91 9.86,12.97 C9.62,13.89 8.96,14.64 8.33,15.36 C7.94,15.79 7.53,16.24 6.98,16.42 C6.41,16.6 5.78,16.46 5.22,16.24 C3.77,15.67 2.54,14.5 2.02,13.03 C1.5,11.56 1.76,9.81 2.78,8.64 C3.7,7.59 5.04,7.23 6.38,7.41 C7.69,7.59 8.6,8.74 9.26,9.83z "/><path id="_R_G_L_2_G_D_4_P_0" fill="#ffffff" fill-opacity="1" fill-rule="nonzero" d=" M40.27 37.76 C40.27,37.76 37.27,37.86 37.27,37.86 C36.98,28.53 38.65,18.67 42.26,8.57 C42.26,8.57 45.08,9.58 45.08,9.58 C41.61,19.33 39.99,28.81 40.27,37.76z "/><path id="_R_G_L_2_G_D_5_P_0" stroke="#343434" stroke-linecap="round" stroke-linejoin="round" fill="none" stroke-width="0.6" stroke-opacity="1" d=" M40.27 37.76 C40.27,37.76 37.27,37.86 37.27,37.86 C36.98,28.53 38.65,18.67 42.26,8.57 C42.26,8.57 45.08,9.58 45.08,9.58 C41.61,19.33 39.99,28.81 40.27,37.76z "/><path id="_R_G_L_2_G_D_6_P_0" fill="#ffffff" fill-opacity="1" fill-rule="nonzero" d=" M38.37 16.86 C38.54,17.85 38.86,18.82 39.53,19.68 C39.71,19.92 39.94,20.15 40.3,20.3 C40.66,20.45 41.18,20.48 41.63,20.33 C42.07,20.17 42.33,19.87 42.54,19.59 C42.54,19.59 44.6,16.91 44.6,16.91 C47.64,12.98 50.74,8.87 50.84,4.85 C50.86,4.03 50.74,3.19 50.02,2.58 C49.17,1.86 47.11,1.5 45.81,2.38 C44.4,3.33 43.28,4.57 42.33,5.66 C40.32,7.96 39.01,10.42 38.48,12.84 C38.19,14.2 38.15,15.55 38.37,16.86z "/><path id="_R_G_L_2_G_D_7_P_0" stroke="#343434" stroke-linecap="round" stroke-linejoin="round" fill="none" stroke-width="0.6" stroke-opacity="1" d=" M38.37 16.86 C38.54,17.85 38.86,18.82 39.53,19.68 C39.71,19.92 39.94,20.15 40.3,20.3 C40.66,20.45 41.18,20.48 41.63,20.33 C42.07,20.17 42.33,19.87 42.54,19.59 C42.54,19.59 44.6,16.91 44.6,16.91 C47.64,12.98 50.74,8.87 50.84,4.85 C50.86,4.03 50.74,3.19 50.02,2.58 C49.17,1.86 47.11,1.5 45.81,2.38 C44.4,3.33 43.28,4.57 42.33,5.66 C40.32,7.96 39.01,10.42 38.48,12.84 C38.19,14.2 38.15,15.55 38.37,16.86z "/><path id="_R_G_L_2_G_D_8_P_0" fill="#ffffff" fill-opacity="1" fill-rule="nonzero" d=" M31.25 29.07 C27.02,25.06 22.91,20.38 22.04,14.63 C21.82,13.15 21.91,11.43 23.05,10.44 C24.35,9.31 26.38,9.68 27.9,10.48 C30.95,12.11 33.03,15.09 34.52,18.19 C36,21.29 37.02,24.61 38.6,27.67 C39.01,28.47 39.46,29.25 39.7,30.12 C40.18,31.85 39.1,34.46 36.89,33.87 C35.97,33.62 35.11,32.56 34.43,31.96 C33.35,31.01 32.29,30.05 31.25,29.07z "/><path id="_R_G_L_2_G_D_9_P_0" stroke="#343434" stroke-linecap="round" stroke-linejoin="round" fill="none" stroke-width="0.6" stroke-opacity="1" d=" M31.25 29.07 C27.02,25.06 22.91,20.38 22.04,14.63 C21.82,13.15 21.91,11.43 23.05,10.44 C24.35,9.31 26.38,9.68 27.9,10.48 C30.95,12.11 33.03,15.09 34.52,18.19 C36,21.29 37.02,24.61 38.6,27.67 C39.01,28.47 39.46,29.25 39.7,30.12 C40.18,31.85 39.1,34.46 36.89,33.87 C35.97,33.62 35.11,32.56 34.43,31.96 C33.35,31.01 32.29,30.05 31.25,29.07z "/></g><g id="_R_G_L_1_G" transform=" translate(312.495, 129.576)"><path id="_R_G_L_1_G_D_0_P_0" fill="#ffffff" fill-opacity="1" fill-rule="nonzero" d=" M4.88 85.86 C17.29,57.03 10.07,33.67 10,33.43 C10,33.43 13.8,32.21 13.8,32.21 C14.13,33.21 21.59,57.16 8.55,87.45 C8.55,87.45 4.88,85.86 4.88,85.86z "/><path id="_R_G_L_1_G_D_1_P_0" stroke="#343434" stroke-linecap="round" stroke-linejoin="round" fill="none" stroke-width="0.6" stroke-opacity="1" d=" M4.88 85.86 C17.29,57.03 10.07,33.67 10,33.43 C10,33.43 13.8,32.21 13.8,32.21 C14.13,33.21 21.59,57.16 8.55,87.45 C8.55,87.45 4.88,85.86 4.88,85.86z "/><path id="_R_G_L_1_G_D_2_P_0" fill="#ffffff" fill-opacity="1" fill-rule="nonzero" d=" M6.48 29.05 C3.73,21.87 1.5,13.94 3.71,6.57 C4.28,4.67 5.35,2.66 7.26,2.12 C9.44,1.5 11.64,3.1 12.98,4.92 C15.68,8.59 16.46,13.34 16.48,17.89 C16.49,22.44 15.82,26.99 15.97,31.54 C16.01,32.73 16.1,33.93 15.9,35.1 C15.49,37.44 12.73,39.96 10.45,37.99 C9.51,37.17 9.08,35.41 8.61,34.31 C7.87,32.57 7.16,30.82 6.48,29.05z "/><path id="_R_G_L_1_G_D_3_P_0" stroke="#343434" stroke-linecap="round" stroke-linejoin="round" fill="none" stroke-width="0.6" stroke-opacity="1" d=" M6.48 29.05 C3.73,21.87 1.5,13.94 3.71,6.57 C4.28,4.67 5.35,2.66 7.26,2.12 C9.44,1.5 11.64,3.1 12.98,4.92 C15.68,8.59 16.46,13.34 16.48,17.89 C16.49,22.44 15.82,26.99 15.97,31.54 C16.01,32.73 16.1,33.93 15.9,35.1 C15.49,37.44 12.73,39.96 10.45,37.99 C9.51,37.17 9.08,35.41 8.61,34.31 C7.87,32.57 7.16,30.82 6.48,29.05z "/></g><g id="_R_G_L_0_G" transform=" translate(180.006, 160.701)"><path id="_R_G_L_0_G_D_0_P_0" fill="#ffffff" fill-opacity="1" fill-rule="nonzero" d=" M15.17 92.29 C15.17,92.29 12.33,91.31 12.33,91.31 C15.36,82.49 20.42,73.87 27.37,65.7 C27.37,65.7 29.66,67.64 29.66,67.64 C22.95,75.52 18.08,83.82 15.17,92.29z "/><path id="_R_G_L_0_G_D_1_P_0" stroke="#343434" stroke-linecap="round" stroke-linejoin="round" fill="none" stroke-width="0.6" stroke-opacity="1" d=" M15.17 92.29 C15.17,92.29 12.33,91.31 12.33,91.31 C15.36,82.49 20.42,73.87 27.37,65.7 C27.37,65.7 29.66,67.64 29.66,67.64 C22.95,75.52 18.08,83.82 15.17,92.29z "/><path id="_R_G_L_0_G_D_2_P_0" fill="#ffffff" fill-opacity="1" fill-rule="nonzero" d=" M33.86 63.17 C34.17,64 34.18,64.91 34.01,65.78 C33.81,66.8 33.35,67.79 32.59,68.5 C31.06,69.93 28.39,69.86 26.9,68.38 C25.42,66.91 25.29,64.3 26.58,62.65 C28.32,60.42 32.76,60.19 33.86,63.17z "/><path id="_R_G_L_0_G_D_3_P_0" stroke="#343434" stroke-linecap="round" stroke-linejoin="round" fill="none" stroke-width="0.6" stroke-opacity="1" d=" M33.86 63.17 C34.17,64 34.18,64.91 34.01,65.78 C33.81,66.8 33.35,67.79 32.59,68.5 C31.06,69.93 28.39,69.86 26.9,68.38 C25.42,66.91 25.29,64.3 26.58,62.65 C28.32,60.42 32.76,60.19 33.86,63.17z "/><path id="_R_G_L_0_G_D_4_P_0" fill="#ffffff" fill-opacity="1" fill-rule="nonzero" d=" M11.46 44.11 C11.46,44.11 17.42,44.78 17.42,44.78 C17.37,45.31 13.79,79.37 22.35,126.59 C25.5,120.54 27.91,113.73 29.52,106.26 C29.52,106.26 32.46,106.89 32.46,106.89 C30.49,115.98 27.39,124.14 23.23,131.22 C28.18,156.64 36.67,185.55 51.03,214.95 C51.03,214.95 45.64,217.58 45.64,217.58 C2.47,129.19 11.37,44.95 11.46,44.11z "/><path id="_R_G_L_0_G_D_5_P_0" stroke="#343434" stroke-linecap="round" stroke-linejoin="round" fill="none" stroke-width="0.6" stroke-opacity="1" d=" M11.46 44.11 C11.46,44.11 17.42,44.78 17.42,44.78 C17.37,45.31 13.79,79.37 22.35,126.59 C25.5,120.54 27.91,113.73 29.52,106.26 C29.52,106.26 32.46,106.89 32.46,106.89 C30.49,115.98 27.39,124.14 23.23,131.22 C28.18,156.64 36.67,185.55 51.03,214.95 C51.03,214.95 45.64,217.58 45.64,217.58 C2.47,129.19 11.37,44.95 11.46,44.11z "/><path id="_R_G_L_0_G_D_6_P_0" fill="#ffffff" fill-opacity="1" fill-rule="nonzero" d=" M2.86 12.47 C2.09,9.38 1.5,5.64 3.79,3.43 C5.79,1.5 9.19,1.82 11.48,3.39 C13.77,4.96 15.22,7.46 16.59,9.88 C20.17,16.22 23.88,23.15 22.96,30.38 C22.36,35.05 19.9,39.16 18.59,43.62 C18.01,45.59 17.63,53.71 14.06,52.86 C11.81,52.32 11.28,46.74 10.87,45 C9.69,39.97 8.41,34.96 7.17,29.95 C5.74,24.12 4.3,18.3 2.86,12.47z "/><path id="_R_G_L_0_G_D_7_P_0" stroke="#343434" stroke-linecap="round" stroke-linejoin="round" fill="none" stroke-width="0.6" stroke-opacity="1" d=" M2.86 12.47 C2.09,9.38 1.5,5.64 3.79,3.43 C5.79,1.5 9.19,1.82 11.48,3.39 C13.77,4.96 15.22,7.46 16.59,9.88 C20.17,16.22 23.88,23.15 22.96,30.38 C22.36,35.05 19.9,39.16 18.59,43.62 C18.01,45.59 17.63,53.71 14.06,52.86 C11.81,52.32 11.28,46.74 10.87,45 C9.69,39.97 8.41,34.96 7.17,29.95 C5.74,24.12 4.3,18.3 2.86,12.47z "/><path id="_R_G_L_0_G_D_8_P_0" fill="#ffffff" fill-opacity="1" fill-rule="nonzero" d=" M34.47 106.35 C36.15,100.77 37.39,94.66 35.28,89.24 C34.74,87.85 33.8,86.4 32.32,86.1 C30.63,85.77 29.05,87.11 28.14,88.56 C26.3,91.48 25.98,95.11 26.23,98.54 C26.48,101.97 27.26,105.35 27.41,108.79 C27.45,109.68 27.44,110.59 27.67,111.46 C28.12,113.2 30.35,114.93 31.97,113.31 C32.65,112.64 32.87,111.29 33.16,110.43 C33.62,109.08 34.06,107.72 34.47,106.35z "/><path id="_R_G_L_0_G_D_9_P_0" stroke="#343434" stroke-linecap="round" stroke-linejoin="round" fill="none" stroke-width="0.6" stroke-opacity="1" d=" M34.47 106.35 C36.15,100.77 37.39,94.66 35.28,89.24 C34.74,87.85 33.8,86.4 32.32,86.1 C30.63,85.77 29.05,87.11 28.14,88.56 C26.3,91.48 25.98,95.11 26.23,98.54 C26.48,101.97 27.26,105.35 27.41,108.79 C27.45,109.68 27.44,110.59 27.67,111.46 C28.12,113.2 30.35,114.93 31.97,113.31 C32.65,112.64 32.87,111.29 33.16,110.43 C33.62,109.08 34.06,107.72 34.47,106.35z "/></g></g><g id="time_group"/></svg>