<svg preserveAspectRatio="none" width="100%" height="100%" overflow="visible" style="display: block;" viewBox="0 0 24.5475 32.4823" fill="none" xmlns="http://www.w3.org/2000/svg">
<path id="color 6" d="M0.31975 18.704C0.0800826 13.5729 2.03737 8.43821 5.36729 4.53091C6.76171 2.89318 8.45028 1.4225 10.4838 0.728919C13.752 -0.382266 17.5358 0.754336 20.0415 3.12922C22.5471 5.5041 23.8652 8.93934 24.1703 12.3782C24.4753 15.8171 23.8398 19.2741 22.9066 22.5967C22.3619 24.5359 21.661 26.5331 20.1722 27.8876C18.9266 29.0205 17.2744 29.5689 15.673 30.0918C13.5559 30.7817 11.1266 31.9946 8.89693 32.1725C7.26284 32.2996 6.23154 31.1703 5.18209 30.0664C2.26614 26.9943 0.515841 22.9417 0.316118 18.704H0.31975Z" fill="var(--fill-0, #B2C083)" stroke="var(--stroke-0, #010101)" stroke-width="0.6" stroke-miterlimit="10"/>
</svg>
