<svg preserveAspectRatio="none" width="100%" height="100%" overflow="visible" style="display: block;" viewBox="0 0 25.9594 31.7336" fill="none" xmlns="http://www.w3.org/2000/svg">
<path id="color 1" d="M3.32123 7.30669C0.902766 10.3606 0.0748222 14.4495 0.350803 18.335C0.565051 21.3599 1.4293 24.3921 3.20865 26.8468C4.988 29.3016 7.74781 31.1245 10.7691 31.3969C14.3822 31.7201 17.8501 29.8608 20.6753 27.584C22.698 25.9572 24.5899 23.9745 25.3125 21.4834C26.4818 17.4599 24.3793 13.3056 23.6603 9.17682C23.3516 7.4011 23.279 5.51645 22.3748 3.95861C20.7625 1.18428 16.4884 -0.573275 13.5216 0.748526C9.8685 2.37536 5.87041 4.08571 3.32486 7.29943L3.32123 7.30669Z" fill="var(--fill-0, #B2C083)" stroke="var(--stroke-0, #010101)" stroke-width="0.6" stroke-miterlimit="10"/>
</svg>
