<svg preserveAspectRatio="none" width="100%" height="100%" overflow="visible" style="display: block;" viewBox="0 0 31.4603 28.8697" fill="none" xmlns="http://www.w3.org/2000/svg">
<path id="color 4" d="M0.466558 9.65056C1.2255 4.08738 4.58085 1.95943 9.77 1.05159C12.3555 0.532316 15.0136 0.0566126 17.581 0.437901C21.0307 1.01891 24.7311 2.44602 27.0733 4.98432C28.5911 6.65472 29.4336 8.97514 30.1345 11.2447C30.5738 12.7154 30.9479 14.2115 31.0931 15.7076C31.5361 19.6766 29.7677 24.125 26.4269 26.3074C24.3171 27.6837 21.757 28.0432 19.295 28.301C13.2996 28.7549 4.06883 29.4231 1.19282 22.8795C0.317674 20.6172 0.506503 18.1115 0.401194 15.7149C0.335831 13.6995 0.183315 11.6841 0.459296 9.72319L0.47019 9.65419L0.466558 9.65056Z" fill="var(--fill-0, #FEE5AF)" stroke="var(--stroke-0, #010101)" stroke-width="0.6" stroke-miterlimit="10"/>
</svg>
