<svg preserveAspectRatio="none" width="100%" height="100%" overflow="visible" style="display: block;" viewBox="0 0 136.5 34.5" fill="none" xmlns="http://www.w3.org/2000/svg">
<g id="Frame 43">
<g id="Union">
<mask id="path-1-outside-1_0_4" maskUnits="userSpaceOnUse" x="-0.75" y="7.25" width="138" height="28" fill="black">
<rect fill="white" x="-0.75" y="7.25" width="138" height="28"/>
<path d="M136.25 26.25H136.101C136.199 26.4154 136.25 26.5819 136.25 26.75C136.25 30.8921 105.805 34.25 68.25 34.25C30.6946 34.25 0.25 30.8921 0.25 26.75C0.25 26.5819 0.300669 26.4154 0.399414 26.25H0.25V8.25H136.25V26.25Z"/>
</mask>
<path d="M136.25 26.25H136.101C136.199 26.4154 136.25 26.5819 136.25 26.75C136.25 30.8921 105.805 34.25 68.25 34.25C30.6946 34.25 0.25 30.8921 0.25 26.75C0.25 26.5819 0.300669 26.4154 0.399414 26.25H0.25V8.25H136.25V26.25Z" fill="#ffffff"/>
<path d="M136.25 26.25V26.5H136.5V26.25H136.25ZM136.101 26.25V26H135.66L135.886 26.3782L136.101 26.25ZM0.399414 26.25L0.614057 26.3782L0.839881 26H0.399414V26.25ZM0.25 26.25H0V26.5H0.25V26.25ZM0.25 8.25V8H0V8.25H0.25ZM136.25 8.25H136.5V8H136.25V8.25ZM136.25 26.25V26H136.101V26.25V26.5H136.25V26.25ZM136.101 26.25L135.886 26.3782C135.966 26.5117 136 26.6345 136 26.75H136.25H136.5C136.5 26.5293 136.433 26.319 136.315 26.1218L136.101 26.25ZM136.25 26.75H136C136 26.9267 135.92 27.1249 135.715 27.3475C135.509 27.5714 135.19 27.8042 134.75 28.0414C133.87 28.5156 132.557 28.9805 130.843 29.4274C127.42 30.3202 122.454 31.1267 116.306 31.8048C104.012 33.1608 87.0215 34 68.25 34V34.25V34.5C87.0339 34.5 104.043 33.6603 116.361 32.3018C122.518 31.6227 127.511 30.8131 130.969 29.9112C132.697 29.4608 134.055 28.9839 134.987 28.4816C135.453 28.2305 135.825 27.9666 136.083 27.6862C136.342 27.4045 136.5 27.091 136.5 26.75H136.25ZM68.25 34.25V34C49.4785 34 32.4881 33.1608 20.1941 31.8048C14.0456 31.1267 9.0804 30.3202 5.65686 29.4274C3.9431 28.9805 2.62977 28.5156 1.75013 28.0414C1.31006 27.8042 0.99112 27.5714 0.784989 27.3475C0.580041 27.1249 0.5 26.9267 0.5 26.75H0.25H0C0 27.091 0.157807 27.4045 0.417164 27.6862C0.675337 27.9666 1.04715 28.2305 1.5129 28.4816C2.44491 28.9839 3.80347 29.4608 5.5307 29.9112C8.98913 30.8131 13.9823 31.6227 20.1393 32.3018C32.4566 33.6603 49.4661 34.5 68.25 34.5V34.25ZM0.25 26.75H0.5C0.5 26.6345 0.534305 26.5117 0.614057 26.3782L0.399414 26.25L0.184771 26.1218C0.0670326 26.319 0 26.5293 0 26.75H0.25ZM0.399414 26.25V26H0.25V26.25V26.5H0.399414V26.25ZM0.25 26.25H0.5V8.25H0.25H0V26.25H0.25ZM0.25 8.25V8.5H136.25V8.25V8H0.25V8.25ZM136.25 8.25H136V26.25H136.25H136.5V8.25H136.25Z" fill="#614D47" mask="url(#path-1-outside-1_0_4)"/>
</g>
<path id="Ellipse 5" d="M68.25 0.125C87.0306 0.125 104.035 0.96441 116.347 2.32227C122.501 3.0011 127.488 3.81042 130.938 4.70996C132.661 5.15948 134.009 5.63362 134.928 6.12891C135.387 6.37646 135.746 6.63221 135.991 6.89844C136.237 7.1653 136.375 7.45009 136.375 7.75C136.375 8.04991 136.237 8.3347 135.991 8.60156C135.746 8.86779 135.387 9.12354 134.928 9.37109C134.009 9.86638 132.661 10.3405 130.938 10.79C127.488 11.6896 122.501 12.4989 116.347 13.1777C104.035 14.5356 87.0306 15.375 68.25 15.375C49.4694 15.375 32.4647 14.5356 20.1533 13.1777C13.9985 12.4989 9.0122 11.6896 5.5625 10.79C3.83864 10.3405 2.49118 9.86638 1.57227 9.37109C1.11301 9.12354 0.753925 8.86779 0.508789 8.60156C0.263111 8.3347 0.125 8.04991 0.125 7.75C0.125 7.45009 0.263111 7.1653 0.508789 6.89844C0.753925 6.63221 1.11301 6.37646 1.57227 6.12891C2.49118 5.63362 3.83864 5.15948 5.5625 4.70996C9.0122 3.81042 13.9985 3.0011 20.1533 2.32227C32.4647 0.96441 49.4694 0.125 68.25 0.125Z" fill="#ffffff" stroke="#614D47" stroke-width="0.25"/>
</g>
</svg>
