<svg preserveAspectRatio="none" width="100%" height="100%" overflow="visible" style="display: block;" viewBox="0 0 55.0726 16.8149" fill="none" xmlns="http://www.w3.org/2000/svg">
<g id="cloud 4">
<path id="Vector" d="M52.9592 11.6174C52.5593 11.4575 52.1195 11.3775 51.7496 11.1476C51.2298 10.8177 50.9399 10.2279 50.62 9.70805C49.1505 7.29888 46.4014 5.70943 43.5824 5.64945C39.9737 5.56948 36.085 7.72873 32.9561 5.91935C30.6868 4.6098 29.7072 1.57085 27.2681 0.601184C25.3687 -0.148558 23.2294 0.621177 21.44 1.60084C18.4311 3.25027 15.752 5.52949 13.7027 8.27854C13.1429 9.02828 12.5831 9.858 11.7234 10.2379C10.9437 10.5877 10.054 10.5078 9.20426 10.4878C7.24494 10.4278 5.27561 10.6577 3.38626 11.1675C2.44658 11.4175 1.48692 11.7773 0.84714 12.5071C0.20736 13.2368 0.0673965 14.4764 0.757159 15.1462C1.25699 15.636 2.01674 15.706 2.7065 15.756C18.671 16.7956 34.7155 16.7656 50.68 15.676C53.0292 15.5161 57.1678 13.3168 52.9692 11.6174H52.9592Z" fill="var(--fill-0, white)" stroke="var(--stroke-0, #010101)" stroke-width="0.599794" stroke-miterlimit="10"/>
</g>
</svg>
