<svg preserveAspectRatio="none" width="100%" height="100%" overflow="visible" style="display: block;" viewBox="0 0 138.698 23.5531" fill="none" xmlns="http://www.w3.org/2000/svg">
<g id="cloud 3">
<path id="Vector" d="M127.092 17.5237C123.723 17.8036 119.645 17.6837 117.865 15.6144C117.296 14.9546 117.046 14.1549 116.316 13.5851C114.796 12.3755 112.057 12.6954 109.968 12.0556C107.069 11.1759 105.85 8.62681 103.18 7.42723C100.411 6.17766 96.8427 6.66749 93.5938 6.89741C92.2642 6.98738 90.8347 7.01736 89.7151 6.48755C88.9354 6.11767 88.4256 5.52787 87.9257 4.96807C86.2863 3.1387 84.317 1.29932 81.468 0.559579C78.6189 -0.180166 74.7803 0.68954 74.0505 2.79881C73.7806 3.58854 73.9605 4.45824 73.4907 5.19798C72.8009 6.28761 70.9416 6.73745 69.2721 6.80743C67.6027 6.8774 65.8733 6.69747 64.2739 7.05734C62.3845 7.48719 60.7851 8.6368 58.7958 8.60681C57.4762 8.58682 56.3066 8.02702 55.147 7.56718C51.6382 6.16766 47.1698 5.55786 43.661 6.94738C41.6417 7.7471 40.1322 9.13663 38.0329 9.82639C35.8436 10.5461 33.1446 10.4762 31.2952 11.5758C30.2556 12.1956 29.5858 13.1453 28.3762 13.5951C24.7875 14.9047 20.9388 10.7261 17.1201 11.6258C15.9605 11.8957 15.1208 12.5954 14.1411 13.1153C12.2818 14.1049 9.94259 14.4548 7.69336 14.8747C5.44414 15.2945 3.12493 15.8343 1.59545 17.0839C0.0659807 18.3335 -0.273897 20.4627 1.4755 21.5524C2.67509 22.3021 4.42447 22.3421 6.02392 22.3521C15.0608 22.3721 24.1077 22.3921 33.1446 22.4221C35.3038 22.4221 37.4931 22.4221 39.5824 22.0522C42.2715 21.5623 44.7506 20.4527 47.5196 20.3228C51.0784 20.1528 54.3573 21.6323 57.8661 22.1122C61.9347 22.672 66.0832 21.8623 70.1818 21.5024C75.0002 21.0825 79.8685 21.2625 84.7168 21.4524C100.032 22.0422 115.346 22.632 130.661 23.2118C132.88 23.3018 135.319 23.3317 137.069 22.3521C139.368 21.0525 138.368 19.2532 136.469 18.2635C133.8 16.864 130.151 17.2538 127.092 17.5138V17.5237Z" fill="var(--fill-0, white)" stroke="var(--stroke-0, #010101)" stroke-width="0.599794" stroke-miterlimit="10"/>
</g>
</svg>
