<svg preserveAspectRatio="none" width="100%" height="100%" overflow="visible" style="display: block;" viewBox="0 0 500.996 79.6386" fill="none" xmlns="http://www.w3.org/2000/svg">
<g id="clouds 2">
<g id="i">
<path id="Vector" d="M100.34 61.3803C97.5812 62.04 95.2121 63.8694 92.453 64.5292C89.9739 65.119 87.3848 64.7191 84.8356 64.8691C82.9063 64.979 80.837 65.5388 79.4475 66.7984C78.5978 67.5681 77.3782 67.7781 76.3185 67.3482C73.2796 66.1186 70.0607 65.2089 66.9618 66.0986C64.8725 66.6984 63.0831 68.068 61.0638 68.8677C53.4564 71.8866 44.7994 66.3685 36.8221 68.1479C35.3126 68.4878 33.8532 69.0776 32.3337 69.3575C30.4643 69.6974 28.535 69.5474 26.6356 69.5075C17.6787 69.2975 8.69179 71.4768 0.8145 75.7353C-0.0751934 76.2151 0.264712 77.5747 1.27436 77.5947C17.9886 78.0145 34.7028 78.4244 51.4171 78.8442C62.9531 79.1341 74.5092 79.4141 85.9952 78.3344C90.8935 77.8746 95.7719 77.1548 100.69 77.1049C110.657 76.9949 120.553 79.604 130.5 78.9442C135.178 78.6343 139.807 77.5947 144.505 77.5447C149.503 77.4947 154.432 78.5643 159.41 79.0342C171.726 80.2138 184.031 77.7746 196.127 75.0256C197.737 74.6557 198.097 72.4864 196.667 71.6667C193.008 69.5674 188.23 69.2575 183.892 69.5974C178.193 70.0473 172.315 71.2868 166.877 69.5374C164.878 68.8977 162.979 67.858 160.889 67.6181C156.081 67.0583 151.543 70.807 146.734 70.2472C144.565 69.9973 142.596 68.8777 140.466 68.4078C139.027 68.0879 137.338 68.1779 136.098 68.8777C135.268 69.3475 134.269 69.2176 133.509 68.6478C132.499 67.898 131.08 67.5881 129.79 67.7081C127.791 67.898 125.931 68.8177 123.962 69.1976C118.084 70.3372 114.086 65.129 108.947 64.6691C107.898 64.5792 106.938 64.0193 106.298 63.1796C104.999 61.4702 102.499 60.8604 100.34 61.3803Z" fill="var(--fill-0, white)" stroke="var(--stroke-0, #010101)" stroke-width="0.599794" stroke-miterlimit="10"/>
</g>
<path id="Vector_2" d="M498.883 11.6174C498.483 11.4575 498.043 11.3775 497.673 11.1476C497.154 10.8177 496.864 10.2279 496.544 9.70805C495.074 7.29888 492.325 5.70943 489.506 5.64945C485.897 5.56948 482.009 7.72873 478.88 5.91935C476.611 4.6098 475.631 1.57085 473.192 0.601184C471.293 -0.148558 469.153 0.621177 467.364 1.60084C464.355 3.25027 461.676 5.52949 459.626 8.27854C459.067 9.02828 458.507 9.858 457.647 10.2379C456.867 10.5877 455.978 10.5078 455.128 10.4878C453.169 10.4278 451.199 10.6577 449.31 11.1675C448.37 11.4175 447.411 11.7773 446.771 12.5071C446.131 13.2368 445.991 14.4764 446.681 15.1462C447.181 15.636 447.941 15.706 448.63 15.756C464.595 16.7956 480.639 16.7656 496.604 15.676C498.953 15.5161 503.092 13.3168 498.893 11.6174H498.883Z" fill="var(--fill-0, white)" stroke="var(--stroke-0, #010101)" stroke-width="0.599794" stroke-miterlimit="10"/>
</g>
</svg>
