<svg preserveAspectRatio="none" width="100%" height="100%" overflow="visible" style="display: block;" viewBox="0 0 1734 117.879" fill="none" xmlns="http://www.w3.org/2000/svg">
<g id="back rooms slow">
<path id="Vector" d="M17.0242 117.579L151.888 117.579V15.9644L17.0242 15.9644V117.579Z" fill="var(--fill-0, #F3EEE4)" stroke="var(--stroke-0, #010101)" stroke-width="0.599794" stroke-miterlimit="10"/>
<path id="Vector_2" d="M17.0242 20.1431L151.888 20.1431V15.9645L17.0242 15.9645V20.1431Z" fill="var(--fill-0, white)" stroke="var(--stroke-0, #010101)" stroke-width="0.599794" stroke-miterlimit="10"/>
<path id="Vector_3" d="M0.299897 6.30788L42.2255 6.30788V0.309948L0.299897 0.309948V6.30788Z" fill="var(--fill-0, white)" stroke="var(--stroke-0, #010101)" stroke-width="0.599794" stroke-miterlimit="10"/>
<path id="Vector_4" d="M21.2627 6.29782H39.8663L36.0276 20.0531V117.57H6.49779V20.0531L2.65911 6.29782H21.2627Z" fill="var(--fill-0, #F3EEE4)" stroke="var(--stroke-0, #010101)" stroke-width="0.599794" stroke-miterlimit="10"/>
<path id="Vector_5" d="M123.348 117.579L45.5643 117.579V70.0258C45.5643 48.5632 62.9883 31.1292 84.4609 31.1292C105.924 31.1292 123.358 48.5532 123.358 70.0258V117.579H123.348Z" fill="var(--fill-0, #F3EEE4)" stroke="var(--stroke-0, #010101)" stroke-width="0.599794" stroke-miterlimit="10"/>
<path id="Vector_6" d="M118.959 117.57V70.0159C118.959 50.9925 103.484 35.5278 84.4709 35.5278C65.4475 35.5278 49.9828 51.0025 49.9828 70.0159V117.57" stroke="var(--stroke-0, #010101)" stroke-width="0.599794" stroke-miterlimit="10"/>
<path id="Vector_7" d="M68.6663 117.57V70.0159C68.6663 61.3089 75.7539 54.2213 84.4609 54.2213C93.1679 54.2213 100.255 61.3089 100.255 70.0159V117.57" stroke="var(--stroke-0, #010101)" stroke-width="0.599794" stroke-miterlimit="10"/>
<path id="Vector_8" d="M118.959 74.3444H49.9728" stroke="var(--stroke-0, #010101)" stroke-width="0.599794" stroke-miterlimit="10"/>
<path id="Vector_9" d="M118.959 96.5668H49.9728" stroke="var(--stroke-0, #010101)" stroke-width="0.599794" stroke-miterlimit="10"/>
<path id="Vector_10" d="M84.4609 35.5278V117.57" stroke="var(--stroke-0, #010101)" stroke-width="0.599794" stroke-miterlimit="10"/>
<path id="Vector_11" d="M73.5547 58.5999L60.3392 45.3844" stroke="var(--stroke-0, #010101)" stroke-width="0.599794" stroke-miterlimit="10"/>
<path id="Vector_12" d="M95.3671 58.5999L108.583 45.3844" stroke="var(--stroke-0, #010101)" stroke-width="0.599794" stroke-miterlimit="10"/>
<path id="Vector_13" d="M143.97 117.579L278.834 117.579V15.9644L143.97 15.9644V117.579Z" fill="var(--fill-0, #F3EEE4)" stroke="var(--stroke-0, #010101)" stroke-width="0.599794" stroke-miterlimit="10"/>
<path id="Vector_14" d="M143.97 20.1431L278.834 20.1431V15.9645L143.97 15.9645V20.1431Z" fill="var(--fill-0, white)" stroke="var(--stroke-0, #010101)" stroke-width="0.599794" stroke-miterlimit="10"/>
<path id="Vector_15" d="M127.236 6.30788L169.162 6.30788V0.309948L127.236 0.309948V6.30788Z" fill="var(--fill-0, white)" stroke="var(--stroke-0, #010101)" stroke-width="0.599794" stroke-miterlimit="10"/>
<path id="Vector_16" d="M148.199 6.29782H166.803L162.964 20.0531V117.57H133.434V20.0531L129.605 6.29782H148.199Z" fill="var(--fill-0, #F3EEE4)" stroke="var(--stroke-0, #010101)" stroke-width="0.599794" stroke-miterlimit="10"/>
<path id="Vector_17" d="M250.294 117.579L172.511 117.579V70.0258C172.511 48.5632 189.935 31.1292 211.407 31.1292C232.87 31.1292 250.304 48.5532 250.304 70.0258V117.579H250.294Z" fill="var(--fill-0, #F3EEE4)" stroke="var(--stroke-0, #010101)" stroke-width="0.599794" stroke-miterlimit="10"/>
<path id="Vector_18" d="M245.895 117.57V70.0159C245.895 50.9925 230.421 35.5278 211.407 35.5278C192.394 35.5278 176.919 51.0025 176.919 70.0159V117.57" stroke="var(--stroke-0, #010101)" stroke-width="0.599794" stroke-miterlimit="10"/>
<path id="Vector_19" d="M195.603 117.57V70.0159C195.603 61.3089 202.69 54.2213 211.397 54.2213C220.104 54.2213 227.192 61.3089 227.192 70.0159V117.57" stroke="var(--stroke-0, #010101)" stroke-width="0.599794" stroke-miterlimit="10"/>
<path id="Vector_20" d="M245.895 74.3444H176.909" stroke="var(--stroke-0, #010101)" stroke-width="0.599794" stroke-miterlimit="10"/>
<path id="Vector_21" d="M245.895 96.5668H176.909" stroke="var(--stroke-0, #010101)" stroke-width="0.599794" stroke-miterlimit="10"/>
<path id="Vector_22" d="M211.397 35.5278V117.57" stroke="var(--stroke-0, #010101)" stroke-width="0.599794" stroke-miterlimit="10"/>
<path id="Vector_23" d="M200.501 58.5999L187.276 45.3844" stroke="var(--stroke-0, #010101)" stroke-width="0.599794" stroke-miterlimit="10"/>
<path id="Vector_24" d="M222.304 58.5999L235.519 45.3844" stroke="var(--stroke-0, #010101)" stroke-width="0.599794" stroke-miterlimit="10"/>
<path id="Vector_25" d="M270.907 117.579L405.77 117.579V15.9644L270.907 15.9644V117.579Z" fill="var(--fill-0, #F3EEE4)" stroke="var(--stroke-0, #010101)" stroke-width="0.599794" stroke-miterlimit="10"/>
<path id="Vector_26" d="M270.907 20.1431L405.77 20.1431V15.9645L270.907 15.9645V20.1431Z" fill="var(--fill-0, white)" stroke="var(--stroke-0, #010101)" stroke-width="0.599794" stroke-miterlimit="10"/>
<path id="Vector_27" d="M254.182 6.30788L296.108 6.30788V0.309948L254.182 0.309948V6.30788Z" fill="var(--fill-0, white)" stroke="var(--stroke-0, #010101)" stroke-width="0.599794" stroke-miterlimit="10"/>
<path id="Vector_28" d="M275.135 6.29782H293.739L289.9 20.0531V117.57H260.37V20.0531L256.542 6.29782H275.135Z" fill="var(--fill-0, #F3EEE4)" stroke="var(--stroke-0, #010101)" stroke-width="0.599794" stroke-miterlimit="10"/>
<path id="Vector_29" d="M377.23 117.579L299.447 117.579V70.0258C299.447 48.5632 316.871 31.1292 338.344 31.1292C359.806 31.1292 377.24 48.5532 377.24 70.0258V117.579H377.23Z" fill="var(--fill-0, #F3EEE4)" stroke="var(--stroke-0, #010101)" stroke-width="0.599794" stroke-miterlimit="10"/>
<path id="Vector_30" d="M372.832 117.57V70.0159C372.832 50.9925 357.357 35.5278 338.344 35.5278C319.32 35.5278 303.855 51.0025 303.855 70.0159V117.57" stroke="var(--stroke-0, #010101)" stroke-width="0.599794" stroke-miterlimit="10"/>
<path id="Vector_31" d="M322.539 117.57V70.0159C322.539 61.3089 329.627 54.2213 338.334 54.2213C347.041 54.2213 354.128 61.3089 354.128 70.0159V117.57" stroke="var(--stroke-0, #010101)" stroke-width="0.599794" stroke-miterlimit="10"/>
<path id="Vector_32" d="M372.832 74.3444H303.845" stroke="var(--stroke-0, #010101)" stroke-width="0.599794" stroke-miterlimit="10"/>
<path id="Vector_33" d="M372.832 96.5668H303.845" stroke="var(--stroke-0, #010101)" stroke-width="0.599794" stroke-miterlimit="10"/>
<path id="Vector_34" d="M338.334 35.5278V117.57" stroke="var(--stroke-0, #010101)" stroke-width="0.599794" stroke-miterlimit="10"/>
<path id="Vector_35" d="M327.437 58.5999L314.212 45.3844" stroke="var(--stroke-0, #010101)" stroke-width="0.599794" stroke-miterlimit="10"/>
<path id="Vector_36" d="M349.24 58.5999L362.455 45.3844" stroke="var(--stroke-0, #010101)" stroke-width="0.599794" stroke-miterlimit="10"/>
<path id="Vector_37" d="M397.843 117.579L532.707 117.579V15.9644L397.843 15.9644V117.579Z" fill="var(--fill-0, #F3EEE4)" stroke="var(--stroke-0, #010101)" stroke-width="0.599794" stroke-miterlimit="10"/>
<path id="Vector_38" d="M397.843 20.1431L532.707 20.1431V15.9645L397.843 15.9645V20.1431Z" fill="var(--fill-0, white)" stroke="var(--stroke-0, #010101)" stroke-width="0.599794" stroke-miterlimit="10"/>
<path id="Vector_39" d="M381.119 6.30788L423.044 6.30788V0.309948L381.119 0.309948V6.30788Z" fill="var(--fill-0, white)" stroke="var(--stroke-0, #010101)" stroke-width="0.599794" stroke-miterlimit="10"/>
<path id="Vector_40" d="M402.072 6.29782H420.675L416.837 20.0531V117.57H387.307V20.0531L383.478 6.29782H402.072Z" fill="var(--fill-0, #F3EEE4)" stroke="var(--stroke-0, #010101)" stroke-width="0.599794" stroke-miterlimit="10"/>
<path id="Vector_41" d="M504.166 117.579L426.383 117.579V70.0258C426.383 48.5632 443.807 31.1292 465.28 31.1292C486.742 31.1292 504.176 48.5532 504.176 70.0258V117.579H504.166Z" fill="var(--fill-0, #F3EEE4)" stroke="var(--stroke-0, #010101)" stroke-width="0.599794" stroke-miterlimit="10"/>
<path id="Vector_42" d="M499.768 117.57V70.0159C499.768 50.9925 484.293 35.5278 465.28 35.5278C446.256 35.5278 430.792 51.0025 430.792 70.0159V117.57" stroke="var(--stroke-0, #010101)" stroke-width="0.599794" stroke-miterlimit="10"/>
<path id="Vector_43" d="M449.475 117.57V70.0159C449.475 61.3089 456.563 54.2213 465.27 54.2213C473.977 54.2213 481.064 61.3089 481.064 70.0159V117.57" stroke="var(--stroke-0, #010101)" stroke-width="0.599794" stroke-miterlimit="10"/>
<path id="Vector_44" d="M499.768 74.3444H430.782" stroke="var(--stroke-0, #010101)" stroke-width="0.599794" stroke-miterlimit="10"/>
<path id="Vector_45" d="M499.768 96.5668H430.782" stroke="var(--stroke-0, #010101)" stroke-width="0.599794" stroke-miterlimit="10"/>
<path id="Vector_46" d="M465.28 35.5278V117.57" stroke="var(--stroke-0, #010101)" stroke-width="0.599794" stroke-miterlimit="10"/>
<path id="Vector_47" d="M454.374 58.5999L441.148 45.3844" stroke="var(--stroke-0, #010101)" stroke-width="0.599794" stroke-miterlimit="10"/>
<path id="Vector_48" d="M476.176 58.5999L489.391 45.3844" stroke="var(--stroke-0, #010101)" stroke-width="0.599794" stroke-miterlimit="10"/>
<path id="Vector_49" d="M524.759 117.579L659.623 117.579V15.9644L524.759 15.9644V117.579Z" fill="var(--fill-0, #F3EEE4)" stroke="var(--stroke-0, #010101)" stroke-width="0.599794" stroke-miterlimit="10"/>
<path id="Vector_50" d="M524.759 20.1431L659.623 20.1431V15.9645L524.759 15.9645V20.1431Z" fill="var(--fill-0, white)" stroke="var(--stroke-0, #010101)" stroke-width="0.599794" stroke-miterlimit="10"/>
<path id="Vector_51" d="M508.035 6.30788L549.961 6.30788V0.309948L508.035 0.309948V6.30788Z" fill="var(--fill-0, white)" stroke="var(--stroke-0, #010101)" stroke-width="0.599794" stroke-miterlimit="10"/>
<path id="Vector_52" d="M528.998 6.29782H547.601L543.763 20.0531V117.57H514.233V20.0531L510.394 6.29782H528.998Z" fill="var(--fill-0, #F3EEE4)" stroke="var(--stroke-0, #010101)" stroke-width="0.599794" stroke-miterlimit="10"/>
<path id="Vector_53" d="M631.083 117.579L553.3 117.579V70.0258C553.3 48.5632 570.724 31.1292 592.196 31.1292C613.659 31.1292 631.093 48.5532 631.093 70.0258V117.579H631.083Z" fill="var(--fill-0, #F3EEE4)" stroke="var(--stroke-0, #010101)" stroke-width="0.599794" stroke-miterlimit="10"/>
<path id="Vector_54" d="M626.694 117.57V70.0159C626.694 50.9925 611.219 35.5278 592.206 35.5278C573.183 35.5278 557.718 51.0025 557.718 70.0159V117.57" stroke="var(--stroke-0, #010101)" stroke-width="0.599794" stroke-miterlimit="10"/>
<path id="Vector_55" d="M576.402 117.57V70.0159C576.402 61.3089 583.489 54.2213 592.196 54.2213C600.903 54.2213 607.991 61.3089 607.991 70.0159V117.57" stroke="var(--stroke-0, #010101)" stroke-width="0.599794" stroke-miterlimit="10"/>
<path id="Vector_56" d="M626.694 74.3444H557.708" stroke="var(--stroke-0, #010101)" stroke-width="0.599794" stroke-miterlimit="10"/>
<path id="Vector_57" d="M626.694 96.5668H557.708" stroke="var(--stroke-0, #010101)" stroke-width="0.599794" stroke-miterlimit="10"/>
<path id="Vector_58" d="M592.196 35.5278V117.57" stroke="var(--stroke-0, #010101)" stroke-width="0.599794" stroke-miterlimit="10"/>
<path id="Vector_59" d="M581.29 58.5999L568.074 45.3844" stroke="var(--stroke-0, #010101)" stroke-width="0.599794" stroke-miterlimit="10"/>
<path id="Vector_60" d="M603.102 58.5999L616.318 45.3844" stroke="var(--stroke-0, #010101)" stroke-width="0.599794" stroke-miterlimit="10"/>
<path id="Vector_61" d="M651.696 117.579L786.559 117.579V15.9644L651.696 15.9644V117.579Z" fill="var(--fill-0, #F3EEE4)" stroke="var(--stroke-0, #010101)" stroke-width="0.599794" stroke-miterlimit="10"/>
<path id="Vector_62" d="M651.696 20.1431L786.559 20.1431V15.9645L651.696 15.9645V20.1431Z" fill="var(--fill-0, white)" stroke="var(--stroke-0, #010101)" stroke-width="0.599794" stroke-miterlimit="10"/>
<path id="Vector_63" d="M761.908 6.30788L803.833 6.30788V0.309948L761.908 0.309948V6.30788Z" fill="var(--fill-0, white)" stroke="var(--stroke-0, #010101)" stroke-width="0.599794" stroke-miterlimit="10"/>
<path id="Vector_64" d="M782.871 6.29782H801.474L797.635 20.0531V117.57H768.106V20.0531L764.277 6.29782H782.871Z" fill="var(--fill-0, #F3EEE4)" stroke="var(--stroke-0, #010101)" stroke-width="0.599794" stroke-miterlimit="10"/>
<path id="Vector_65" d="M634.971 6.30788L676.897 6.30788V0.309948L634.971 0.309948V6.30788Z" fill="var(--fill-0, white)" stroke="var(--stroke-0, #010101)" stroke-width="0.599794" stroke-miterlimit="10"/>
<path id="Vector_66" d="M655.934 6.29782H674.538L670.699 20.0531V117.57H641.169V20.0531L637.331 6.29782H655.934Z" fill="var(--fill-0, #F3EEE4)" stroke="var(--stroke-0, #010101)" stroke-width="0.599794" stroke-miterlimit="10"/>
<path id="Vector_67" d="M758.019 117.579L680.236 117.579V70.0258C680.236 48.5632 697.66 31.1292 719.133 31.1292C740.595 31.1292 758.029 48.5532 758.029 70.0258V117.579H758.019Z" fill="var(--fill-0, #F3EEE4)" stroke="var(--stroke-0, #010101)" stroke-width="0.599794" stroke-miterlimit="10"/>
<path id="Vector_68" d="M753.631 117.57V70.0159C753.631 50.9925 738.156 35.5278 719.143 35.5278C700.119 35.5278 684.654 51.0025 684.654 70.0159V117.57" stroke="var(--stroke-0, #010101)" stroke-width="0.599794" stroke-miterlimit="10"/>
<path id="Vector_69" d="M703.338 117.57V70.0159C703.338 61.3089 710.426 54.2213 719.133 54.2213C727.84 54.2213 734.927 61.3089 734.927 70.0159V117.57" stroke="var(--stroke-0, #010101)" stroke-width="0.599794" stroke-miterlimit="10"/>
<path id="Vector_70" d="M753.631 74.3444H684.644" stroke="var(--stroke-0, #010101)" stroke-width="0.599794" stroke-miterlimit="10"/>
<path id="Vector_71" d="M753.631 96.5668H684.644" stroke="var(--stroke-0, #010101)" stroke-width="0.599794" stroke-miterlimit="10"/>
<path id="Vector_72" d="M719.133 35.5278V117.57" stroke="var(--stroke-0, #010101)" stroke-width="0.599794" stroke-miterlimit="10"/>
<path id="Vector_73" d="M708.226 58.5999L695.011 45.3844" stroke="var(--stroke-0, #010101)" stroke-width="0.599794" stroke-miterlimit="10"/>
<path id="Vector_74" d="M730.039 58.5999L743.254 45.3844" stroke="var(--stroke-0, #010101)" stroke-width="0.599794" stroke-miterlimit="10"/>
<path id="Vector_75" d="M1716.98 15.9546H1582.12V117.57H1716.98V15.9546Z" fill="var(--fill-0, #F3EEE4)" stroke="var(--stroke-0, #010101)" stroke-width="0.599794" stroke-miterlimit="10"/>
<path id="Vector_76" d="M1716.98 15.9546H1582.12V20.1331H1716.98V15.9546Z" fill="var(--fill-0, white)" stroke="var(--stroke-0, #010101)" stroke-width="0.599794" stroke-miterlimit="10"/>
<path id="Vector_77" d="M1733.7 0.299897H1691.78V6.29783H1733.7V0.299897Z" fill="var(--fill-0, white)" stroke="var(--stroke-0, #010101)" stroke-width="0.599794" stroke-miterlimit="10"/>
<path id="Vector_78" d="M1712.74 6.29782H1694.15L1697.98 20.0531V117.57H1727.51V20.0531L1731.34 6.29782H1712.74Z" fill="var(--fill-0, #F3EEE4)" stroke="var(--stroke-0, #010101)" stroke-width="0.599794" stroke-miterlimit="10"/>
<path id="Vector_79" d="M1649.54 31.1192C1671.01 31.1192 1688.44 48.5432 1688.44 70.0159V117.569H1610.66V70.0159C1610.66 48.5532 1628.08 31.1192 1649.55 31.1192H1649.54Z" fill="var(--fill-0, #F3EEE4)" stroke="var(--stroke-0, #010101)" stroke-width="0.599794" stroke-miterlimit="10"/>
<path id="Vector_80" d="M1615.05 117.57V70.0159C1615.05 50.9925 1630.53 35.5278 1649.54 35.5278C1668.56 35.5278 1684.03 51.0025 1684.03 70.0159V117.57" stroke="var(--stroke-0, #010101)" stroke-width="0.599794" stroke-miterlimit="10"/>
<path id="Vector_81" d="M1665.34 117.57V70.0159C1665.34 61.3089 1658.25 54.2213 1649.54 54.2213C1640.84 54.2213 1633.75 61.3089 1633.75 70.0159V117.57" stroke="var(--stroke-0, #010101)" stroke-width="0.599794" stroke-miterlimit="10"/>
<path id="Vector_82" d="M1615.05 74.3444H1684.04" stroke="var(--stroke-0, #010101)" stroke-width="0.599794" stroke-miterlimit="10"/>
<path id="Vector_83" d="M1615.05 96.5668H1684.04" stroke="var(--stroke-0, #010101)" stroke-width="0.599794" stroke-miterlimit="10"/>
<path id="Vector_84" d="M1649.54 35.5278V117.57" stroke="var(--stroke-0, #010101)" stroke-width="0.599794" stroke-miterlimit="10"/>
<path id="Vector_85" d="M1660.45 58.5999L1673.66 45.3844" stroke="var(--stroke-0, #010101)" stroke-width="0.599794" stroke-miterlimit="10"/>
<path id="Vector_86" d="M1638.64 58.5999L1625.42 45.3844" stroke="var(--stroke-0, #010101)" stroke-width="0.599794" stroke-miterlimit="10"/>
<path id="Vector_87" d="M1590.04 15.9546H1455.18V117.57H1590.04V15.9546Z" fill="var(--fill-0, #F3EEE4)" stroke="var(--stroke-0, #010101)" stroke-width="0.599794" stroke-miterlimit="10"/>
<path id="Vector_88" d="M1590.04 15.9546H1455.18V20.1331H1590.04V15.9546Z" fill="var(--fill-0, white)" stroke="var(--stroke-0, #010101)" stroke-width="0.599794" stroke-miterlimit="10"/>
<path id="Vector_89" d="M1606.77 0.299897H1564.84V6.29783H1606.77V0.299897Z" fill="var(--fill-0, white)" stroke="var(--stroke-0, #010101)" stroke-width="0.599794" stroke-miterlimit="10"/>
<path id="Vector_90" d="M1585.8 6.29782H1567.21L1571.04 20.0531V117.57H1600.57V20.0531L1604.41 6.29782H1585.8Z" fill="var(--fill-0, #F3EEE4)" stroke="var(--stroke-0, #010101)" stroke-width="0.599794" stroke-miterlimit="10"/>
<path id="Vector_91" d="M1522.61 31.1192C1544.07 31.1192 1561.5 48.5432 1561.5 70.0159V117.569H1483.72V70.0159C1483.72 48.5532 1501.14 31.1192 1522.62 31.1192H1522.61Z" fill="var(--fill-0, #F3EEE4)" stroke="var(--stroke-0, #010101)" stroke-width="0.599794" stroke-miterlimit="10"/>
<path id="Vector_92" d="M1488.12 117.57V70.0159C1488.12 50.9925 1503.59 35.5278 1522.61 35.5278C1541.62 35.5278 1557.09 51.0025 1557.09 70.0159V117.57" stroke="var(--stroke-0, #010101)" stroke-width="0.599794" stroke-miterlimit="10"/>
<path id="Vector_93" d="M1538.4 117.57V70.0159C1538.4 61.3089 1531.31 54.2213 1522.61 54.2213C1513.9 54.2213 1506.81 61.3089 1506.81 70.0159V117.57" stroke="var(--stroke-0, #010101)" stroke-width="0.599794" stroke-miterlimit="10"/>
<path id="Vector_94" d="M1488.12 74.3444H1557.09" stroke="var(--stroke-0, #010101)" stroke-width="0.599794" stroke-miterlimit="10"/>
<path id="Vector_95" d="M1488.12 96.5668H1557.09" stroke="var(--stroke-0, #010101)" stroke-width="0.599794" stroke-miterlimit="10"/>
<path id="Vector_96" d="M1522.61 35.5278V117.57" stroke="var(--stroke-0, #010101)" stroke-width="0.599794" stroke-miterlimit="10"/>
<path id="Vector_97" d="M1533.51 58.5999L1546.73 45.3844" stroke="var(--stroke-0, #010101)" stroke-width="0.599794" stroke-miterlimit="10"/>
<path id="Vector_98" d="M1511.7 58.5999L1498.48 45.3844" stroke="var(--stroke-0, #010101)" stroke-width="0.599794" stroke-miterlimit="10"/>
<path id="Vector_99" d="M1463.1 15.9546H1328.23V117.57H1463.1V15.9546Z" fill="var(--fill-0, #F3EEE4)" stroke="var(--stroke-0, #010101)" stroke-width="0.599794" stroke-miterlimit="10"/>
<path id="Vector_100" d="M1463.1 15.9546H1328.23V20.1331H1463.1V15.9546Z" fill="var(--fill-0, white)" stroke="var(--stroke-0, #010101)" stroke-width="0.599794" stroke-miterlimit="10"/>
<path id="Vector_101" d="M1479.83 0.299897H1437.91V6.29783H1479.83V0.299897Z" fill="var(--fill-0, white)" stroke="var(--stroke-0, #010101)" stroke-width="0.599794" stroke-miterlimit="10"/>
<path id="Vector_102" d="M1458.87 6.29782H1440.26L1444.1 20.0531V117.57H1473.63V20.0531L1477.47 6.29782H1458.87Z" fill="var(--fill-0, #F3EEE4)" stroke="var(--stroke-0, #010101)" stroke-width="0.599794" stroke-miterlimit="10"/>
<path id="Vector_103" d="M1395.67 31.1192C1417.13 31.1192 1434.57 48.5432 1434.57 70.0159V117.569H1356.78V70.0159C1356.78 48.5532 1374.21 31.1192 1395.68 31.1192H1395.67Z" fill="var(--fill-0, #F3EEE4)" stroke="var(--stroke-0, #010101)" stroke-width="0.599794" stroke-miterlimit="10"/>
<path id="Vector_104" d="M1361.18 117.57V70.0159C1361.18 50.9925 1376.66 35.5278 1395.67 35.5278C1414.68 35.5278 1430.16 51.0025 1430.16 70.0159V117.57" stroke="var(--stroke-0, #010101)" stroke-width="0.599794" stroke-miterlimit="10"/>
<path id="Vector_105" d="M1411.46 117.57V70.0159C1411.46 61.3089 1404.38 54.2213 1395.67 54.2213C1386.96 54.2213 1379.88 61.3089 1379.88 70.0159V117.57" stroke="var(--stroke-0, #010101)" stroke-width="0.599794" stroke-miterlimit="10"/>
<path id="Vector_106" d="M1361.18 74.3444H1430.16" stroke="var(--stroke-0, #010101)" stroke-width="0.599794" stroke-miterlimit="10"/>
<path id="Vector_107" d="M1361.18 96.5668H1430.16" stroke="var(--stroke-0, #010101)" stroke-width="0.599794" stroke-miterlimit="10"/>
<path id="Vector_108" d="M1395.67 35.5278V117.57" stroke="var(--stroke-0, #010101)" stroke-width="0.599794" stroke-miterlimit="10"/>
<path id="Vector_109" d="M1406.58 58.5999L1419.79 45.3844" stroke="var(--stroke-0, #010101)" stroke-width="0.599794" stroke-miterlimit="10"/>
<path id="Vector_110" d="M1384.76 58.5999L1371.55 45.3844" stroke="var(--stroke-0, #010101)" stroke-width="0.599794" stroke-miterlimit="10"/>
<path id="Vector_111" d="M1336.16 15.9546H1201.3V117.57H1336.16V15.9546Z" fill="var(--fill-0, #F3EEE4)" stroke="var(--stroke-0, #010101)" stroke-width="0.599794" stroke-miterlimit="10"/>
<path id="Vector_112" d="M1336.16 15.9546H1201.3V20.1331H1336.16V15.9546Z" fill="var(--fill-0, white)" stroke="var(--stroke-0, #010101)" stroke-width="0.599794" stroke-miterlimit="10"/>
<path id="Vector_113" d="M1352.89 0.299897H1310.97V6.29783H1352.89V0.299897Z" fill="var(--fill-0, white)" stroke="var(--stroke-0, #010101)" stroke-width="0.599794" stroke-miterlimit="10"/>
<path id="Vector_114" d="M1331.93 6.29782H1313.33L1317.17 20.0531V117.57H1346.7V20.0531L1350.54 6.29782H1331.93Z" fill="var(--fill-0, #F3EEE4)" stroke="var(--stroke-0, #010101)" stroke-width="0.599794" stroke-miterlimit="10"/>
<path id="Vector_115" d="M1268.73 31.1192C1290.2 31.1192 1307.63 48.5432 1307.63 70.0159V117.569H1229.85V70.0159C1229.85 48.5532 1247.27 31.1192 1268.74 31.1192H1268.73Z" fill="var(--fill-0, #F3EEE4)" stroke="var(--stroke-0, #010101)" stroke-width="0.599794" stroke-miterlimit="10"/>
<path id="Vector_116" d="M1234.24 117.57V70.0159C1234.24 50.9925 1249.71 35.5278 1268.72 35.5278C1287.74 35.5278 1303.21 51.0025 1303.21 70.0159V117.57" stroke="var(--stroke-0, #010101)" stroke-width="0.599794" stroke-miterlimit="10"/>
<path id="Vector_117" d="M1284.53 117.57V70.0159C1284.53 61.3089 1277.44 54.2213 1268.73 54.2213C1260.03 54.2213 1252.94 61.3089 1252.94 70.0159V117.57" stroke="var(--stroke-0, #010101)" stroke-width="0.599794" stroke-miterlimit="10"/>
<path id="Vector_118" d="M1234.24 74.3444H1303.22" stroke="var(--stroke-0, #010101)" stroke-width="0.599794" stroke-miterlimit="10"/>
<path id="Vector_119" d="M1234.24 96.5668H1303.22" stroke="var(--stroke-0, #010101)" stroke-width="0.599794" stroke-miterlimit="10"/>
<path id="Vector_120" d="M1268.73 35.5278V117.57" stroke="var(--stroke-0, #010101)" stroke-width="0.599794" stroke-miterlimit="10"/>
<path id="Vector_121" d="M1279.64 58.5999L1292.85 45.3844" stroke="var(--stroke-0, #010101)" stroke-width="0.599794" stroke-miterlimit="10"/>
<path id="Vector_122" d="M1257.83 58.5999L1244.61 45.3844" stroke="var(--stroke-0, #010101)" stroke-width="0.599794" stroke-miterlimit="10"/>
<path id="Vector_123" d="M1209.24 15.9546H1074.38V117.57H1209.24V15.9546Z" fill="var(--fill-0, #F3EEE4)" stroke="var(--stroke-0, #010101)" stroke-width="0.599794" stroke-miterlimit="10"/>
<path id="Vector_124" d="M1209.24 15.9546H1074.38V20.1331H1209.24V15.9546Z" fill="var(--fill-0, white)" stroke="var(--stroke-0, #010101)" stroke-width="0.599794" stroke-miterlimit="10"/>
<path id="Vector_125" d="M1225.97 0.299897H1184.04V6.29783H1225.97V0.299897Z" fill="var(--fill-0, white)" stroke="var(--stroke-0, #010101)" stroke-width="0.599794" stroke-miterlimit="10"/>
<path id="Vector_126" d="M1205.01 6.29782H1186.41L1190.24 20.0531V117.57H1219.77V20.0531L1223.61 6.29782H1205.01Z" fill="var(--fill-0, #F3EEE4)" stroke="var(--stroke-0, #010101)" stroke-width="0.599794" stroke-miterlimit="10"/>
<path id="Vector_127" d="M1141.81 31.1192C1163.27 31.1192 1180.7 48.5432 1180.7 70.0159V117.569H1102.92V70.0159C1102.92 48.5532 1120.34 31.1192 1141.82 31.1192H1141.81Z" fill="var(--fill-0, #F3EEE4)" stroke="var(--stroke-0, #010101)" stroke-width="0.599794" stroke-miterlimit="10"/>
<path id="Vector_128" d="M1107.32 117.57V70.0159C1107.32 50.9925 1122.79 35.5278 1141.81 35.5278C1160.82 35.5278 1176.3 51.0025 1176.3 70.0159V117.57" stroke="var(--stroke-0, #010101)" stroke-width="0.599794" stroke-miterlimit="10"/>
<path id="Vector_129" d="M1157.6 117.57V70.0159C1157.6 61.3089 1150.51 54.2213 1141.81 54.2213C1133.1 54.2213 1126.01 61.3089 1126.01 70.0159V117.57" stroke="var(--stroke-0, #010101)" stroke-width="0.599794" stroke-miterlimit="10"/>
<path id="Vector_130" d="M1107.32 74.3444H1176.31" stroke="var(--stroke-0, #010101)" stroke-width="0.599794" stroke-miterlimit="10"/>
<path id="Vector_131" d="M1107.32 96.5668H1176.31" stroke="var(--stroke-0, #010101)" stroke-width="0.599794" stroke-miterlimit="10"/>
<path id="Vector_132" d="M1141.81 35.5278V117.57" stroke="var(--stroke-0, #010101)" stroke-width="0.599794" stroke-miterlimit="10"/>
<path id="Vector_133" d="M1152.71 58.5999L1165.93 45.3844" stroke="var(--stroke-0, #010101)" stroke-width="0.599794" stroke-miterlimit="10"/>
<path id="Vector_134" d="M1130.9 58.5999L1117.69 45.3844" stroke="var(--stroke-0, #010101)" stroke-width="0.599794" stroke-miterlimit="10"/>
<path id="Vector_135" d="M1082.31 15.9546H947.444V117.57H1082.31V15.9546Z" fill="var(--fill-0, #F3EEE4)" stroke="var(--stroke-0, #010101)" stroke-width="0.599794" stroke-miterlimit="10"/>
<path id="Vector_136" d="M1082.31 15.9546H947.444V20.1331H1082.31V15.9546Z" fill="var(--fill-0, white)" stroke="var(--stroke-0, #010101)" stroke-width="0.599794" stroke-miterlimit="10"/>
<path id="Vector_137" d="M972.095 0.299897H930.17V6.29783H972.095V0.299897Z" fill="var(--fill-0, white)" stroke="var(--stroke-0, #010101)" stroke-width="0.599794" stroke-miterlimit="10"/>
<path id="Vector_138" d="M951.133 6.29782H932.539L936.368 20.0531V117.57H965.897V20.0531L969.736 6.29782H951.133Z" fill="var(--fill-0, #F3EEE4)" stroke="var(--stroke-0, #010101)" stroke-width="0.599794" stroke-miterlimit="10"/>
<path id="Vector_139" d="M1099.03 0.299897H1057.11V6.29783H1099.03V0.299897Z" fill="var(--fill-0, white)" stroke="var(--stroke-0, #010101)" stroke-width="0.599794" stroke-miterlimit="10"/>
<path id="Vector_140" d="M1078.07 6.29782H1059.48L1063.3 20.0531V117.57H1092.83V20.0531L1096.67 6.29782H1078.07Z" fill="var(--fill-0, #F3EEE4)" stroke="var(--stroke-0, #010101)" stroke-width="0.599794" stroke-miterlimit="10"/>
<path id="Vector_141" d="M1014.87 31.1192C1036.33 31.1192 1053.77 48.5432 1053.77 70.0159V117.569H975.984V70.0159C975.984 48.5532 993.408 31.1192 1014.88 31.1192H1014.87Z" fill="var(--fill-0, #F3EEE4)" stroke="var(--stroke-0, #010101)" stroke-width="0.599794" stroke-miterlimit="10"/>
<path id="Vector_142" d="M980.382 117.57V70.0159C980.382 50.9925 995.857 35.5278 1014.87 35.5278C1033.88 35.5278 1049.36 51.0025 1049.36 70.0159V117.57" stroke="var(--stroke-0, #010101)" stroke-width="0.599794" stroke-miterlimit="10"/>
<path id="Vector_143" d="M1030.67 117.57V70.0159C1030.67 61.3089 1023.58 54.2213 1014.87 54.2213C1006.16 54.2213 999.076 61.3089 999.076 70.0159V117.57" stroke="var(--stroke-0, #010101)" stroke-width="0.599794" stroke-miterlimit="10"/>
<path id="Vector_144" d="M980.382 74.3444H1049.37" stroke="var(--stroke-0, #010101)" stroke-width="0.599794" stroke-miterlimit="10"/>
<path id="Vector_145" d="M980.382 96.5668H1049.37" stroke="var(--stroke-0, #010101)" stroke-width="0.599794" stroke-miterlimit="10"/>
<path id="Vector_146" d="M1014.87 35.5278V117.57" stroke="var(--stroke-0, #010101)" stroke-width="0.599794" stroke-miterlimit="10"/>
<path id="Vector_147" d="M1025.78 58.5999L1038.99 45.3844" stroke="var(--stroke-0, #010101)" stroke-width="0.599794" stroke-miterlimit="10"/>
<path id="Vector_148" d="M1003.96 58.5999L990.749 45.3844" stroke="var(--stroke-0, #010101)" stroke-width="0.599794" stroke-miterlimit="10"/>
</g>
</svg>
