<svg preserveAspectRatio="none" width="100%" height="100%" overflow="visible" style="display: block;" viewBox="0 0 175.28 75.784" fill="none" xmlns="http://www.w3.org/2000/svg">
<g id="balcony fast">
<path id="Vector" d="M153.837 25.941H21.4426V75.484H153.837V25.941Z" fill="var(--fill-0, #F3EEE4)" stroke="var(--stroke-0, #010101)" stroke-width="0.599794" stroke-miterlimit="10"/>
<path id="Vector_2" d="M153.837 69.3961H21.4426V75.484H153.837V69.3961Z" fill="var(--fill-0, white)" stroke="var(--stroke-0, #010101)" stroke-width="0.599794" stroke-miterlimit="10"/>
<path id="Vector_3" d="M153.837 25.941H21.4426V32.0289H153.837V25.941Z" fill="var(--fill-0, white)" stroke="var(--stroke-0, #010101)" stroke-width="0.599794" stroke-miterlimit="10"/>
<path id="Vector_4" d="M37.3672 0.299897H0.299897V6.29783H37.3672V0.299897Z" fill="var(--fill-0, white)" stroke="var(--stroke-0, #010101)" stroke-width="0.599794" stroke-miterlimit="10"/>
<path id="Vector_5" d="M18.8335 6.29787H2.38924L5.77803 20.0431V66.2672H31.8891V20.0431L35.2779 6.29787H18.8335Z" fill="var(--fill-0, #F3EEE4)" stroke="var(--stroke-0, #010101)" stroke-width="0.599794" stroke-miterlimit="10"/>
<path id="Vector_6" d="M33.1387 66.2672H4.52845V75.484H33.1387V66.2672Z" fill="var(--fill-0, white)" stroke="var(--stroke-0, #010101)" stroke-width="0.599794" stroke-miterlimit="10"/>
<path id="Vector_7" d="M137.912 6.29787L174.98 6.29787V0.299932L137.912 0.299932V6.29787Z" fill="var(--fill-0, white)" stroke="var(--stroke-0, #010101)" stroke-width="0.599794" stroke-miterlimit="10"/>
<path id="Vector_8" d="M156.446 6.29787H172.891L169.502 20.0431V66.2672H143.391V20.0431L140.002 6.29787H156.446Z" fill="var(--fill-0, #F3EEE4)" stroke="var(--stroke-0, #010101)" stroke-width="0.599794" stroke-miterlimit="10"/>
<path id="Vector_9" d="M142.141 75.4841H170.751V66.2672H142.141V75.4841Z" fill="var(--fill-0, white)" stroke="var(--stroke-0, #010101)" stroke-width="0.599794" stroke-miterlimit="10"/>
<path id="Vector_10" d="M87.9298 58.02C91.9656 58.02 95.2373 54.7483 95.2373 50.7125C95.2373 46.6767 91.9656 43.4051 87.9298 43.4051C83.894 43.4051 80.6223 46.6767 80.6223 50.7125C80.6223 54.7483 83.894 58.02 87.9298 58.02Z" fill="var(--fill-0, white)" stroke="var(--stroke-0, #010101)" stroke-width="0.599794" stroke-miterlimit="10"/>
<path id="Vector_11" d="M87.9298 55.5609C90.6075 55.5609 92.7781 53.3902 92.7781 50.7126C92.7781 48.0349 90.6075 45.8642 87.9298 45.8642C85.2522 45.8642 83.0815 48.0349 83.0815 50.7126C83.0815 53.3902 85.2522 55.5609 87.9298 55.5609Z" fill="var(--fill-0, #F3EEE4)" stroke="var(--stroke-0, #010101)" stroke-width="0.599794" stroke-miterlimit="10"/>
</g>
</svg>
