<svg width="131" height="158" viewBox="0 0 131 158" fill="none" xmlns="http://www.w3.org/2000/svg">
<mask id="mask0_45_1539" style="mask-type:alpha" maskUnits="userSpaceOnUse" x="-14" y="-34" width="145" height="192">
<path d="M58.7508 -32.8843C78.3172 -32.8843 96.1063 -22.3605 109.037 -5.19739C121.969 11.9663 129.997 35.7235 129.997 62.0069C129.997 88.2903 121.969 112.048 109.037 129.211C96.1063 146.374 78.3171 156.898 58.7508 156.898C39.1845 156.898 21.3954 146.374 8.4642 129.211C-4.46734 112.048 -12.4952 88.2903 -12.4953 62.0069C-12.4953 35.7235 -4.46735 11.9663 8.4642 -5.19739C21.3954 -22.3605 39.1845 -32.8843 58.7508 -32.8843Z" fill="#F3EEE4" stroke="#F3EEE4" stroke-width="2"/>
</mask>
<g mask="url(#mask0_45_1539)">
<path d="M126.025 127.304C120.356 118.605 113.774 111.542 106.46 106.324L108.205 103.876C115.831 109.314 122.674 116.649 128.543 125.659L126.025 127.304Z" fill="white" stroke="black" stroke-width="0.6" stroke-miterlimit="10"/>
<path d="M122.062 78.4416L119.312 77.2175C123.115 68.659 128.934 60.4918 136.59 52.9266L138.707 55.0738C131.312 62.3681 125.714 70.2242 122.072 78.4416H122.062Z" fill="white" stroke="black" stroke-width="0.6" stroke-miterlimit="10"/>
<path d="M119.435 47.9655L114.438 50.3033C117.819 57.5073 118.923 70.7615 119.084 84.4772C117.789 80.7748 116.354 77.9253 114.95 75.4972L111.478 77.5039C114.378 82.5206 117.448 89.4939 118.833 103.089C118.642 108.818 118.371 114.156 118.15 118.591C118.07 120.306 117.99 121.912 117.92 123.377L123.428 123.628C123.498 122.163 123.579 120.567 123.659 118.852C124.692 97.9119 126.428 62.8752 119.435 47.9455V47.9655Z" fill="white" stroke="black" stroke-width="0.6" stroke-miterlimit="10"/>
<path d="M114.438 52.6411C113.064 50.9856 112.321 48.8987 111.619 46.8619C109.251 40.0592 106.893 33.2465 104.525 26.4439C102.318 20.1028 100.11 13.1897 102.288 6.84861C103.01 4.73156 104.274 2.72487 106.15 1.52086C109.321 -0.515919 113.716 0.146286 116.726 2.41384C119.736 4.68139 121.532 8.23322 122.545 11.8653C124.251 17.9656 124.02 24.4171 123.769 30.7482C123.518 37.0994 123.268 43.4605 123.017 49.8117C122.926 52.0993 123.9 55.8619 120.92 55.8819C118.502 55.892 115.943 54.4772 114.428 52.6512L114.438 52.6411Z" fill="white" stroke="black" stroke-width="0.6" stroke-miterlimit="10"/>
<path d="M129.466 58.7259C129.185 59.6891 129.055 60.7125 129.286 61.7761C129.346 62.0771 129.446 62.3781 129.707 62.6691C129.968 62.96 130.429 63.2209 130.901 63.2711C131.373 63.3212 131.734 63.1607 132.055 63.0002C133.068 62.4985 134.072 61.9868 135.085 61.4851C139.55 59.2477 144.145 56.8998 145.981 53.3079C146.352 52.5754 146.613 51.7627 146.222 50.8999C145.771 49.8865 144.065 48.6624 142.51 48.8831C140.824 49.1239 139.269 49.7561 137.924 50.328C135.105 51.532 132.858 53.1774 131.322 55.134C130.46 56.2376 129.837 57.4417 129.466 58.7159V58.7259Z" fill="white" stroke="black" stroke-width="0.6" stroke-miterlimit="10"/>
<path d="M106.913 70.7615C103.441 63.8685 100.421 56.1729 101.886 48.5876C102.268 46.6311 103.13 44.5241 104.987 43.7917C107.094 42.9589 109.451 44.3335 110.977 46.0191C114.037 49.4104 115.301 54.0659 115.773 58.611C116.244 63.1562 116.033 67.7615 116.635 72.2866C116.796 73.4705 117.007 74.6545 116.916 75.8484C116.746 78.2264 114.247 81.0156 111.769 79.2799C110.736 78.5575 110.144 76.8518 109.562 75.7983C108.649 74.1327 107.766 72.4571 106.913 70.7615Z" fill="white" stroke="black" stroke-width="0.6" stroke-miterlimit="10"/>
<path d="M101.583 102.301C100.821 103.545 100.409 105.07 100.781 106.485C101.112 107.719 101.975 108.712 102.828 109.666C103.339 110.237 103.891 110.839 104.623 111.08C105.386 111.331 106.219 111.14 106.971 110.85C108.898 110.087 110.543 108.532 111.236 106.575C111.928 104.619 111.587 102.281 110.222 100.726C108.998 99.3312 107.212 98.8495 105.436 99.0904C103.66 99.3312 102.486 100.866 101.603 102.311L101.583 102.301Z" fill="#E5E7B9" stroke="black" stroke-width="0.6" stroke-miterlimit="10"/>
<path d="M34.2391 129.291C27.1956 136.916 21.9682 145.033 18.6973 153.401L15.898 152.308C19.2993 143.579 24.7274 135.15 32.0317 127.244L34.2391 129.291Z" fill="white" stroke="black" stroke-width="0.6" stroke-miterlimit="10"/>
<path d="M24.8578 156.331C21.4465 139.716 16.0786 123.512 8.88462 108.161L13.4298 106.033C20.7943 121.746 26.2926 138.331 29.7742 155.328L24.8578 156.331Z" fill="white" stroke="black" stroke-width="0.6" stroke-miterlimit="10"/>
<path d="M0.597019 80.7392C0.235816 85.8764 -0.10532 91.184 1.58029 96.0502C3.28597 100.967 6.90804 104.99 9.00502 109.756C9.93813 111.873 10.5803 114.171 11.995 115.997C12.5569 116.729 13.2793 117.391 14.1622 117.652C15.0451 117.913 16.1287 117.672 16.6405 116.91C17.1321 116.177 17.0217 115.214 16.9214 114.331C16.2993 108.933 17.0619 103.485 17.7943 98.0971C18.5267 92.7091 19.2391 87.2509 18.5167 81.863C17.7943 76.475 15.4565 71.0871 11.1221 67.8162C9.70736 66.7527 8.06188 65.9199 6.296 65.7895C5.04182 65.6992 3.74751 66.0102 2.70404 66.7226C1.31943 67.6858 1.43983 68.6891 1.32946 70.2744C1.08866 73.766 0.837821 77.2476 0.597019 80.7392Z" fill="white" stroke="black" stroke-width="0.6" stroke-miterlimit="10"/>
<path d="M29.3729 122.88C28.6103 123.752 28.1688 124.886 27.9782 126.03C27.7474 127.385 27.8478 128.829 28.4598 130.064C29.6839 132.542 33.005 133.696 35.5334 132.572C38.0618 131.448 39.4364 128.288 38.6136 125.639C37.51 122.077 32.132 119.709 29.3729 122.87V122.88Z" fill="#E5E7B9" stroke="black" stroke-width="0.6" stroke-miterlimit="10"/>
<path d="M38.6036 171.411L34.9213 169.826C41.6337 154.214 46.4899 137.799 49.3594 121.043L53.3126 121.726C50.3828 138.793 45.4364 155.508 38.6036 171.411Z" fill="white" stroke="black" stroke-width="0.6" stroke-miterlimit="10"/>
<path d="M42.1956 167.428L38.9347 165.09C39.5768 164.187 40.3494 163.134 41.2123 161.96C46.219 155.127 54.6069 143.689 60.8075 130.605L64.4396 132.321C58.0785 145.756 49.5501 157.384 44.4531 164.338C43.6002 165.502 42.8377 166.545 42.1956 167.428Z" fill="white" stroke="black" stroke-width="0.6" stroke-miterlimit="10"/>
<path d="M45.7173 122.247C45.5969 113.9 45.5568 105.161 49.3393 97.7158C51.0852 94.2944 53.5534 91.3044 56.0116 88.3446C56.9547 87.2108 58.0785 85.9767 59.5534 85.9165C61.5902 85.8362 62.9447 87.9834 63.5667 89.9198C65.5433 96.1205 64.5099 102.913 62.433 109.084C60.356 115.254 57.2858 121.043 55.0684 127.164C54.4564 128.849 53.8945 130.585 52.8209 132.02C52.0383 133.064 50.8945 133.987 49.6002 134.268C47.8243 134.649 47.5233 133.756 46.9614 132.191C45.8176 129.02 45.7675 125.569 45.7173 122.237V122.247Z" fill="white" stroke="black" stroke-width="0.6" stroke-miterlimit="10"/>
<path d="M55.2591 133.746C55.2591 135.993 55.4497 138.271 56.1119 140.418C56.2925 141.02 56.5233 141.622 56.9547 142.084C57.3862 142.545 58.0484 142.826 58.6504 142.655C59.2624 142.475 59.6437 141.903 59.9848 141.371C61.0584 139.665 62.132 137.96 63.2156 136.254C67.9714 128.709 72.8477 120.833 73.8711 111.973C74.0818 110.167 74.1018 108.271 73.3192 106.635C72.3961 104.719 69.8477 103.144 67.9814 104.589C65.9748 106.144 64.259 108.462 62.8042 110.518C59.734 114.833 57.5066 119.749 56.3026 124.906C55.6303 127.806 55.2691 130.776 55.2691 133.756L55.2591 133.746Z" fill="white" stroke="black" stroke-width="0.6" stroke-miterlimit="10"/>
</g>
</svg>
