<svg width="157" height="205" viewBox="0 0 157 205" fill="none" xmlns="http://www.w3.org/2000/svg">
<path d="M78.5 0.5C99.989 0.5 119.478 11.8715 133.611 30.3252C147.745 48.7794 156.5 74.2956 156.5 102.5C156.5 130.704 147.745 156.221 133.611 174.675C119.478 193.128 99.989 204.5 78.5 204.5C57.011 204.5 37.5215 193.128 23.3887 174.675C9.25546 156.221 0.5 130.704 0.5 102.5C0.5 74.2956 9.25546 48.7794 23.3887 30.3252C37.5215 11.8715 57.011 0.5 78.5 0.5Z" fill="#B08E68" stroke="#F3EEE4"/>
<path d="M78.5001 7.92487C98.0013 7.92491 115.731 18.4137 128.619 35.5196C141.508 52.6261 149.509 76.3042 149.509 102.5C149.509 128.696 141.508 152.374 128.619 169.481C115.731 186.586 98.0013 197.075 78.5001 197.075C58.999 197.075 41.2691 186.586 28.381 169.481C15.4925 152.374 7.49134 128.696 7.49133 102.5C7.49133 76.3042 15.4925 52.6261 28.381 35.5196C41.2691 18.4137 58.9989 7.92487 78.5001 7.92487Z" fill="#F3EEE4" stroke="#F3EEE4" stroke-width="2"/>
<path d="M109.477 96.7076C107.427 93.8057 105.172 91.1595 102.583 88.6174L97.7048 83.8173C97.3624 83.4812 97.0247 83.1404 96.687 82.7806C100.538 80.461 104.867 77.687 108.014 74.0514C111.067 70.5294 112.399 67.0689 111.972 63.7789C111.658 61.3551 110.303 59.3764 108.159 58.2024C106.701 57.4071 105.036 57 103.206 57C100.467 57 97.5172 57.9231 95.1111 59.5279C90.9837 62.2783 88.0852 66.6523 87.1566 71.5377C86.4765 75.1449 87.2035 78.5343 89.375 81.8859L78.2077 88.5133L76.1675 89.6542L77.279 85.7582L79.6288 77.8716L85.046 58.6947L79.3521 57.2367L78.7752 58.4533C75.3842 65.5209 68.4709 67.3719 61.1542 69.3317L60.8728 69.4074C56.1967 70.6572 50.8968 72.0726 46.9477 76.3425C45.1419 78.2929 43.9835 80.5036 43.5098 82.9179C42.8438 86.3168 43.6317 89.3843 45.6203 91.1359L45.7095 91.2116L46.0753 91.0885C47.3792 90.653 48.8566 90.1559 50.8874 88.6127L51.0656 88.4802L50.9202 88.3145C49.0958 86.26 48.2422 84.6221 48.9644 81.8764C49.5976 79.4669 52.5102 76.6786 56.0513 75.1023C59.2922 73.6537 60.9666 73.1993 63.4946 72.5034L64.1934 72.314C65.8397 71.8596 67.7017 71.3436 70.0186 70.5862C72.4904 69.7814 74.7417 68.6926 76.8851 67.2535L74.3242 75.8692L69.2448 93.5833L62.2986 97.6733C59.0155 99.6047 55.6479 101.91 52.0084 104.722C44.3821 110.8 39.7576 116.514 37.4594 122.711C36.3713 125.641 34.9033 131.331 37.2671 136.543C38.9368 140.221 42.7875 142.598 47.0743 142.598C47.3557 142.598 47.6371 142.588 47.9232 142.564C52.9042 142.209 56.9659 139.53 60.3287 134.375C63.4008 129.669 65.4129 124.173 67.3734 118.474L71.1865 106.298L74.4931 95.5336L92.2407 85.3605C93.1928 86.3641 94.1449 87.3109 95.1205 88.2719C100.055 93.1288 103.497 96.949 106.504 102.128C108.033 104.769 109.093 107.321 109.749 109.934C111.93 118.606 109.379 127.028 102.756 133.04C98.7413 136.68 92.8926 138.943 87.4989 138.943C83.4326 138.943 79.7883 137.698 76.9554 135.341C73.2502 132.259 72.1902 127.752 73.9725 122.654C76.1065 116.542 81.2 110.715 87.6021 107.07C89.1217 106.204 90.6179 105.579 92.4471 105.049L94.37 104.5L94.22 104.268C93.1272 102.554 92.0156 101.143 90.9275 100.069L90.843 99.9882L90.4115 100.111C88.2072 100.727 86.0919 101.688 83.9438 103.046C79.4225 105.91 75.6422 109.65 72.7202 114.161C71.285 116.372 70.1969 118.701 69.4042 121.291C67.2045 128.477 69.1041 134.72 74.7557 138.863C78.4422 141.57 82.9729 143 87.8648 143C88.0618 143 88.2634 143 88.4604 142.995C94.3231 142.853 100.364 140.714 105.031 137.116C110.289 133.073 113.698 127.961 115.171 121.92C117.263 113.333 115.405 105.087 109.491 96.7123L109.477 96.7076ZM104.121 60.6309C104.384 60.6309 104.642 60.6498 104.885 60.6877C105.913 60.8439 106.696 61.767 106.874 63.0309C107.329 66.302 104.243 70.1365 102.901 71.6324C99.8153 74.8987 96.4666 77.3319 93.8541 79.0977C92.025 75.8218 92.6159 72.4276 93.4461 70.1412C94.4263 67.618 95.9131 65.4405 97.8549 63.6747C99.942 61.7765 102.17 60.6687 103.971 60.6261H104.126L104.121 60.6309ZM42.8531 136.197C40.3861 132.311 41.9526 126.782 42.7359 124.581C43.5191 122.394 44.5557 120.358 45.9956 118.171C50.0901 111.979 57.1347 105.896 67.5141 99.5953L65.5911 106.208L62.0547 117.712C60.1927 123.108 56.7267 133.149 51.5393 136.799C50.1135 137.802 48.4767 138.356 46.943 138.356C46.5818 138.356 46.2207 138.323 45.8642 138.257C44.5744 138.006 43.5614 137.315 42.8531 136.202V136.197Z" fill="#615247"/>
<mask id="mask0_54_3082" style="mask-type:alpha" maskUnits="userSpaceOnUse" x="6" y="6" width="145" height="193">
<path d="M78.5001 7.92487C98.0013 7.92491 115.731 18.4137 128.619 35.5196C141.508 52.6261 149.509 76.3042 149.509 102.5C149.509 128.696 141.508 152.374 128.619 169.481C115.731 186.586 98.0013 197.075 78.5001 197.075C58.999 197.075 41.2691 186.586 28.381 169.481C15.4925 152.374 7.49134 128.696 7.49133 102.5C7.49133 76.3042 15.4925 52.6261 28.381 35.5196C41.2691 18.4137 58.9989 7.92487 78.5001 7.92487Z" fill="#F3EEE4" stroke="#F3EEE4" stroke-width="2"/>
</mask>
<g mask="url(#mask0_54_3082)">
<path d="M145.55 167.58C139.9 158.91 133.34 151.87 126.05 146.67L127.79 144.23C135.39 149.65 142.21 156.96 148.06 165.94L145.55 167.58Z" fill="white" stroke="black" stroke-width="0.6" stroke-miterlimit="10"/>
<path d="M141.6 118.88L138.86 117.66C142.65 109.13 148.45 100.99 156.08 93.45L158.19 95.59C150.82 102.86 145.24 110.69 141.61 118.88H141.6Z" fill="white" stroke="black" stroke-width="0.6" stroke-miterlimit="10"/>
<path d="M138.982 88.5055L134.002 90.8355C137.372 98.0155 138.472 111.225 138.632 124.895C137.342 121.205 135.912 118.365 134.512 115.945L131.052 117.945C133.942 122.945 137.002 129.895 138.382 143.445C138.192 149.155 137.922 154.475 137.702 158.895C137.622 160.605 137.542 162.205 137.472 163.665L142.962 163.915C143.032 162.455 143.112 160.865 143.192 159.155C144.222 138.285 145.952 103.365 138.982 88.4855V88.5055Z" fill="white" stroke="black" stroke-width="0.6" stroke-miterlimit="10"/>
<path d="M134.002 93.1655C132.632 91.5155 131.892 89.4355 131.192 87.4055C128.832 80.6255 126.482 73.8355 124.122 67.0555C121.922 60.7355 119.722 53.8455 121.892 47.5255C122.612 45.4155 123.872 43.4155 125.742 42.2155C128.902 40.1855 133.282 40.8455 136.282 43.1055C139.282 45.3655 141.072 48.9055 142.082 52.5255C143.782 58.6055 143.552 65.0355 143.302 71.3455C143.052 77.6755 142.802 84.0155 142.552 90.3455C142.462 92.6255 143.432 96.3755 140.462 96.3955C138.052 96.4055 135.502 94.9955 133.992 93.1755L134.002 93.1655Z" fill="white" stroke="black" stroke-width="0.6" stroke-miterlimit="10"/>
<path d="M148.98 99.23C148.7 100.19 148.57 101.21 148.8 102.27C148.86 102.57 148.96 102.87 149.22 103.16C149.48 103.45 149.94 103.71 150.41 103.76C150.88 103.81 151.24 103.65 151.56 103.49C152.57 102.99 153.57 102.48 154.58 101.98C159.03 99.75 163.61 97.41 165.44 93.83C165.81 93.1 166.07 92.29 165.68 91.43C165.23 90.42 163.53 89.2 161.98 89.42C160.3 89.66 158.75 90.29 157.41 90.86C154.6 92.06 152.36 93.7 150.83 95.65C149.97 96.75 149.35 97.95 148.98 99.22V99.23Z" fill="white" stroke="black" stroke-width="0.6" stroke-miterlimit="10"/>
<path d="M126.502 111.225C123.042 104.355 120.032 96.6855 121.492 89.1255C121.872 87.1755 122.732 85.0755 124.582 84.3455C126.682 83.5155 129.032 84.8855 130.552 86.5655C133.602 89.9455 134.862 94.5855 135.332 99.1155C135.802 103.645 135.592 108.235 136.192 112.745C136.352 113.925 136.562 115.105 136.472 116.295C136.302 118.665 133.812 121.445 131.342 119.715C130.312 118.995 129.722 117.295 129.142 116.245C128.232 114.585 127.352 112.915 126.502 111.225Z" fill="white" stroke="black" stroke-width="0.6" stroke-miterlimit="10"/>
<path d="M121.19 142.66C120.43 143.9 120.02 145.42 120.39 146.83C120.72 148.06 121.58 149.05 122.43 150C122.94 150.57 123.49 151.17 124.22 151.41C124.98 151.66 125.81 151.47 126.56 151.18C128.48 150.42 130.12 148.87 130.81 146.92C131.5 144.97 131.16 142.64 129.8 141.09C128.58 139.7 126.8 139.22 125.03 139.46C123.26 139.7 122.09 141.23 121.21 142.67L121.19 142.66Z" fill="#E5E7B9" stroke="black" stroke-width="0.6" stroke-miterlimit="10"/>
<path d="M54.07 169.56C47.05 177.16 41.84 185.25 38.58 193.59L35.79 192.5C39.18 183.8 44.59 175.4 51.87 167.52L54.07 169.56Z" fill="white" stroke="black" stroke-width="0.6" stroke-miterlimit="10"/>
<path d="M44.72 196.51C41.32 179.95 35.97 163.8 28.8 148.5L33.33 146.38C40.67 162.04 46.15 178.57 49.62 195.51L44.72 196.51Z" fill="white" stroke="black" stroke-width="0.6" stroke-miterlimit="10"/>
<path d="M20.54 121.17C20.18 126.29 19.84 131.58 21.52 136.43C23.22 141.33 26.83 145.34 28.92 150.09C29.85 152.2 30.49 154.49 31.9 156.31C32.46 157.04 33.18 157.7 34.06 157.96C34.94 158.22 36.02 157.98 36.53 157.22C37.02 156.49 36.91 155.53 36.81 154.65C36.19 149.27 36.95 143.84 37.68 138.47C38.41 133.1 39.12 127.66 38.4 122.29C37.68 116.92 35.35 111.55 31.03 108.29C29.62 107.23 27.98 106.4 26.22 106.27C24.97 106.18 23.68 106.49 22.64 107.2C21.26 108.16 21.38 109.16 21.27 110.74C21.03 114.22 20.78 117.69 20.54 121.17Z" fill="white" stroke="black" stroke-width="0.6" stroke-miterlimit="10"/>
<path d="M49.22 163.17C48.46 164.04 48.02 165.17 47.83 166.31C47.6 167.66 47.7 169.1 48.31 170.33C49.53 172.8 52.84 173.95 55.36 172.83C57.88 171.71 59.25 168.56 58.43 165.92C57.33 162.37 51.97 160.01 49.22 163.16V163.17Z" fill="#E5E7B9" stroke="black" stroke-width="0.6" stroke-miterlimit="10"/>
<path d="M58.42 211.54L54.75 209.96C61.44 194.4 66.28 178.04 69.14 161.34L73.08 162.02C70.16 179.03 65.23 195.69 58.42 211.54Z" fill="white" stroke="black" stroke-width="0.6" stroke-miterlimit="10"/>
<path d="M62 207.57L58.75 205.24C59.39 204.34 60.16 203.29 61.02 202.12C66.01 195.31 74.37 183.91 80.55 170.87L84.17 172.58C77.83 185.97 69.33 197.56 64.25 204.49C63.4 205.65 62.64 206.69 62 207.57Z" fill="white" stroke="black" stroke-width="0.6" stroke-miterlimit="10"/>
<path d="M65.51 162.54C65.39 154.22 65.35 145.51 69.12 138.09C70.86 134.68 73.32 131.7 75.77 128.75C76.71 127.62 77.83 126.39 79.3 126.33C81.33 126.25 82.68 128.39 83.3 130.32C85.27 136.5 84.24 143.27 82.17 149.42C80.1 155.57 77.04 161.34 74.83 167.44C74.22 169.12 73.66 170.85 72.59 172.28C71.81 173.32 70.67 174.24 69.38 174.52C67.61 174.9 67.31 174.01 66.75 172.45C65.61 169.29 65.56 165.85 65.51 162.53V162.54Z" fill="white" stroke="black" stroke-width="0.6" stroke-miterlimit="10"/>
<path d="M75.02 174C75.02 176.24 75.21 178.51 75.87 180.65C76.05 181.25 76.28 181.85 76.71 182.31C77.14 182.77 77.8 183.05 78.4 182.88C79.01 182.7 79.39 182.13 79.73 181.6C80.8 179.9 81.87 178.2 82.95 176.5C87.69 168.98 92.55 161.13 93.57 152.3C93.78 150.5 93.8 148.61 93.02 146.98C92.1 145.07 89.56 143.5 87.7 144.94C85.7 146.49 83.99 148.8 82.54 150.85C79.48 155.15 77.26 160.05 76.06 165.19C75.39 168.08 75.03 171.04 75.03 174.01L75.02 174Z" fill="white" stroke="black" stroke-width="0.6" stroke-miterlimit="10"/>
</g>
</svg>
