<svg width="80" height="86" viewBox="0 0 80 86" fill="none" xmlns="http://www.w3.org/2000/svg">
<path d="M73.4771 39.7076C71.4275 36.8057 69.1715 34.1595 66.5826 31.6174L61.7048 26.8173C61.3624 26.4812 61.0247 26.1404 60.687 25.7806C64.5376 23.461 68.8667 20.687 72.0138 17.0514C75.0671 13.5294 76.3991 10.0689 75.9723 6.77888C75.658 4.35515 74.3026 2.3764 72.1592 1.2024C70.7005 0.407112 69.0355 0 67.2063 0C64.4673 0 61.5172 0.923102 59.1111 2.52788C54.9837 5.27825 52.0852 9.65234 51.1566 14.5377C50.4765 18.1449 51.2035 21.5343 53.375 24.8859L42.2077 31.5133L40.1675 32.6542L41.279 28.7582L43.6288 20.8716L49.046 1.69472L43.3521 0.236693L42.7752 1.45329C39.3842 8.52094 32.4709 10.3719 25.1542 12.3317L24.8728 12.4074C20.1967 13.6572 14.8968 15.0726 10.9477 19.3425C9.14195 21.2929 7.98347 23.5036 7.50977 25.9179C6.84376 29.3168 7.63171 32.3843 9.62035 34.1359L9.70946 34.2116L10.0753 34.0885C11.3792 33.653 12.8566 33.1559 14.8874 31.6127L15.0656 31.4802L14.9202 31.3145C13.0958 29.26 12.2422 27.6221 12.9644 24.8764C13.5976 22.4669 16.5102 19.6786 20.0513 18.1023C23.2922 16.6537 24.9666 16.1993 27.4946 15.5034L28.1934 15.314C29.8397 14.8596 31.7017 14.3436 34.0186 13.5862C36.4904 12.7814 38.7417 11.6926 40.8851 10.2535L38.3242 18.8692L33.2448 36.5833L26.2986 40.6733C23.0155 42.6047 19.6479 44.9101 16.0084 47.722C8.38214 53.8003 3.75763 59.5141 1.45944 65.7107C0.371317 68.6409 -1.09671 74.331 1.26714 79.543C2.93684 83.2212 6.78748 85.5976 11.0743 85.5976C11.3557 85.5976 11.6371 85.5882 11.9232 85.5645C16.9042 85.2094 20.9659 82.5301 24.3287 77.3749C27.4008 72.6695 29.4129 67.1734 31.3734 61.4739L35.1865 49.2984L38.4931 38.5336L56.2407 28.3605C57.1928 29.3641 58.1449 30.3109 59.1205 31.2719C64.0545 36.1288 67.4971 39.949 70.5035 45.1279C72.0325 47.7694 73.0925 50.3209 73.7491 52.934C75.9301 61.6064 73.3786 70.028 66.7561 76.04C62.7413 79.6803 56.8926 81.9431 51.4989 81.9431C47.4326 81.9431 43.7883 80.6981 40.9554 78.3406C37.2502 75.2589 36.1902 70.7522 37.9725 65.6539C40.1065 59.5425 45.2 53.7151 51.6021 50.07C53.1217 49.2037 54.6179 48.5789 56.4471 48.0487L58.37 47.4995L58.22 47.2676C57.1272 45.5539 56.0156 44.1432 54.9275 43.0686L54.843 42.9882L54.4115 43.1112C52.2072 43.7266 50.0919 44.6876 47.9438 46.0462C43.4225 48.9102 39.6422 52.65 36.7202 57.1613C35.285 59.372 34.1969 61.7011 33.4042 64.2905C31.2045 71.4765 33.1041 77.7205 38.7557 81.8626C42.4422 84.5704 46.9729 86 51.8648 86C52.0618 86 52.2634 86 52.4604 85.9953C58.3231 85.8532 64.3641 83.7135 69.0308 80.1158C74.2885 76.0731 77.6983 70.9605 79.171 64.9201C81.2628 56.3329 79.4055 48.0865 73.4912 39.7123L73.4771 39.7076ZM68.1209 3.63087C68.3836 3.63087 68.6415 3.6498 68.8854 3.68768C69.9126 3.84389 70.6958 4.76699 70.8741 6.03094C71.329 9.30203 68.2429 13.1365 66.9015 14.6324C63.8153 17.8987 60.4666 20.3319 57.8541 22.0977C56.025 18.8218 56.6159 15.4276 57.4461 13.1412C58.4263 10.618 59.9131 8.44047 61.8549 6.67474C63.942 4.77646 66.1698 3.66874 67.9708 3.62614H68.1256L68.1209 3.63087ZM6.85314 79.1974C4.38611 75.311 5.95263 69.7818 6.73589 67.5806C7.51915 65.3935 8.55568 63.358 9.99556 61.1709C14.0901 54.979 21.1347 48.896 31.5141 42.5953L29.5911 49.2085L26.0547 60.7117C24.1927 66.1083 20.7267 76.1488 15.5393 79.7987C14.1135 80.8022 12.4767 81.3561 10.943 81.3561C10.5818 81.3561 10.2207 81.323 9.86423 81.2567C8.57444 81.0058 7.56136 80.3146 6.85314 79.2022V79.1974Z" fill="#615247"/>
</svg>
