<svg preserveAspectRatio="none" width="100%" height="100%" overflow="visible" style="display: block;" viewBox="0 0 224.063 25.1385" fill="none" xmlns="http://www.w3.org/2000/svg">
<g id="cloud 1">
<path id="Vector" d="M76.4794 0.57321C78.6386 1.4729 80.498 3.94205 82.6573 4.83175C84.5966 5.63147 86.6359 5.09166 88.6252 5.29159C90.1347 5.44154 91.7541 6.20127 92.8437 7.90069C93.5135 8.94033 94.4633 9.22023 95.293 8.64043C97.6721 6.981 100.201 5.75143 102.62 6.94102C104.26 7.75074 105.659 9.6001 107.249 10.6897C113.207 14.7683 119.994 7.31089 126.252 9.72006C127.442 10.1799 128.572 10.9796 129.771 11.3595C131.241 11.8193 132.75 11.6194 134.24 11.5594C141.257 11.2695 148.305 14.2285 154.473 19.9865C155.172 20.6363 154.902 22.4757 154.113 22.5057C141.017 23.0655 127.922 23.6353 114.816 24.1951C105.779 24.585 96.7224 24.9748 87.7155 23.4953C83.8768 22.8655 80.0581 21.8959 76.1994 21.8259C68.3921 21.676 60.6348 25.2147 52.8475 24.305C49.1788 23.8852 45.55 22.4757 41.8713 22.4057C37.9526 22.3357 34.094 23.7852 30.1954 24.425C20.5487 26.0245 10.902 22.7256 1.42525 18.9969C0.165686 18.497 -0.124258 15.5581 1.00535 14.4484C3.87437 11.6094 7.61309 11.1896 11.0119 11.6594C15.4804 12.2692 20.0788 13.9386 24.3473 11.5894C25.9168 10.7197 27.4063 9.3202 29.0357 9.00031C32.8044 8.25057 36.3632 13.3188 40.1319 12.5491C41.8313 12.2092 43.3708 10.6997 45.0402 10.0599C46.1699 9.6301 47.4893 9.75006 48.459 10.6997C49.1088 11.3295 49.8885 11.1596 50.4883 10.3898C51.278 9.38019 52.3977 8.96033 53.4074 9.12027C54.9768 9.38018 56.4263 10.6197 57.9757 11.1296C62.5841 12.679 65.7131 5.62147 69.7417 5.00169C70.5614 4.87173 71.3211 4.12199 71.8209 2.98238C72.8406 0.663182 74.8 -0.156538 76.4894 0.543221L76.4794 0.57321Z" fill="var(--fill-0, white)" stroke="var(--stroke-0, #010101)" stroke-width="0.599794" stroke-miterlimit="10"/>
<path id="Vector_2" d="M221.949 19.0068C221.549 18.8469 221.11 18.7669 220.74 18.537C220.22 18.2071 219.93 17.6173 219.61 17.0975C218.141 14.6883 215.392 13.0988 212.573 13.0389C208.964 12.9589 205.075 15.1182 201.946 13.3088C199.677 11.9992 198.697 8.96027 196.258 7.99061C194.359 7.24087 192.22 8.0106 190.43 8.99026C187.421 10.6397 184.742 12.9189 182.693 15.668C182.133 16.4177 181.573 17.2474 180.713 17.6273C179.934 17.9772 179.044 17.8972 178.194 17.8772C176.235 17.8172 174.266 18.0471 172.376 18.557C171.437 18.8069 170.477 19.1668 169.837 19.8965C169.197 20.6263 169.058 21.8658 169.747 22.5356C170.247 23.0254 171.007 23.0954 171.697 23.1454C187.661 24.185 203.706 24.155 219.67 23.0654C222.019 22.9055 226.158 20.7062 221.959 19.0068H221.949Z" fill="var(--fill-0, white)" stroke="var(--stroke-0, #010101)" stroke-width="0.599794" stroke-miterlimit="10"/>
</g>
</svg>
