<svg preserveAspectRatio="none" width="100%" height="100%" overflow="visible" style="display: block;" viewBox="0 0 1670.35 40.8659" fill="none" xmlns="http://www.w3.org/2000/svg">
<g id="front gates medium">
<path id="Vector" d="M132.694 3.29887H0.299897V8.53709H132.694V3.29887Z" fill="var(--fill-0, white)" stroke="var(--stroke-0, #010101)" stroke-width="0.599794" stroke-miterlimit="10"/>
<path id="Vector_2" d="M132.694 34.4781H0.299897V40.566H132.694V34.4781Z" fill="var(--fill-0, white)" stroke="var(--stroke-0, #010101)" stroke-width="0.599794" stroke-miterlimit="10"/>
<path id="Vector_3" d="M132.694 6.29783H0.299897V8.53708H132.694V6.29783Z" fill="var(--fill-0, #F3EEE4)" stroke="var(--stroke-0, #010101)" stroke-width="0.599794" stroke-miterlimit="10"/>
<path id="Vector_4" d="M132.704 8.53717V34.4682H106.823V14.0953C106.823 13.4455 106.563 12.8557 106.133 12.4358C105.714 12.006 105.124 11.7461 104.474 11.7461C103.174 11.7461 102.125 12.8057 102.125 14.0953V34.4682H93.3279V14.0953C93.3279 13.4455 93.0679 12.8557 92.6481 12.4358C92.2182 12.006 91.6284 11.7461 90.9787 11.7461C89.6791 11.7461 88.6295 12.8057 88.6295 14.0953V34.4682H79.8325V14.0953C79.8325 13.4455 79.5726 12.8557 79.1527 12.4358C78.7229 12.006 78.1331 11.7461 77.4833 11.7461C76.1838 11.7461 75.1341 12.8057 75.1341 14.0953V34.4682H66.3372V14.0953C66.3372 13.4455 66.0772 12.8557 65.6574 12.4358C65.2275 12.006 64.6377 11.7461 63.988 11.7461C62.6884 11.7461 61.6488 12.8057 61.6488 14.0953V34.4682H52.8518V14.0953C52.8518 13.4455 52.5919 12.8557 52.162 12.4358C51.7322 12.006 51.1524 11.7461 50.5026 11.7461C49.1931 11.7461 48.1534 12.8057 48.1534 14.0953V34.4682H39.3564V14.0953C39.3564 13.4455 39.0965 12.8557 38.6667 12.4358C38.2368 12.006 37.657 11.7461 37.0073 11.7461C35.6977 11.7461 34.6581 12.8057 34.6581 14.0953V34.4682H25.8611V14.0953C25.8611 13.4455 25.6012 12.8557 25.1713 12.4358C24.7415 12.006 24.1617 11.7461 23.5119 11.7461C22.2124 11.7461 21.1627 12.8057 21.1627 14.0953V34.4682H0.389862V8.53717H132.784H132.704Z" fill="var(--fill-0, #F3EEE4)" stroke="var(--stroke-0, #010101)" stroke-width="0.599794" stroke-miterlimit="10"/>
<path id="Vector_5" d="M259.631 3.29887H127.236V8.53709H259.631V3.29887Z" fill="var(--fill-0, white)" stroke="var(--stroke-0, #010101)" stroke-width="0.599794" stroke-miterlimit="10"/>
<path id="Vector_6" d="M259.631 34.4781H127.236V40.566H259.631V34.4781Z" fill="var(--fill-0, white)" stroke="var(--stroke-0, #010101)" stroke-width="0.599794" stroke-miterlimit="10"/>
<path id="Vector_7" d="M259.631 6.29783H127.236V8.53708H259.631V6.29783Z" fill="var(--fill-0, #F3EEE4)" stroke="var(--stroke-0, #010101)" stroke-width="0.599794" stroke-miterlimit="10"/>
<path id="Vector_8" d="M259.641 8.53717V34.4682H233.76V14.0953C233.76 13.4455 233.5 12.8557 233.07 12.4358C232.65 12.006 232.06 11.7461 231.41 11.7461C230.111 11.7461 229.061 12.8057 229.061 14.0953V34.4682H220.264V14.0953C220.264 13.4455 220.004 12.8557 219.584 12.4358C219.155 12.006 218.565 11.7461 217.915 11.7461C216.615 11.7461 215.566 12.8057 215.566 14.0953V34.4682H206.769V14.0953C206.769 13.4455 206.509 12.8557 206.089 12.4358C205.659 12.006 205.069 11.7461 204.42 11.7461C203.12 11.7461 202.07 12.8057 202.07 14.0953V34.4682H193.273V14.0953C193.273 13.4455 193.014 12.8557 192.594 12.4358C192.164 12.006 191.574 11.7461 190.924 11.7461C189.625 11.7461 188.585 12.8057 188.585 14.0953V34.4682H179.788V14.0953C179.788 13.4455 179.528 12.8557 179.098 12.4358C178.668 12.006 178.089 11.7461 177.439 11.7461C176.129 11.7461 175.09 12.8057 175.09 14.0953V34.4682H166.293V14.0953C166.293 13.4455 166.033 12.8557 165.603 12.4358C165.173 12.006 164.593 11.7461 163.944 11.7461C162.634 11.7461 161.594 12.8057 161.594 14.0953V34.4682H152.797V14.0953C152.797 13.4455 152.537 12.8557 152.108 12.4358C151.678 12.006 151.098 11.7461 150.448 11.7461C149.149 11.7461 148.099 12.8057 148.099 14.0953V34.4682H127.326V8.53717H259.721H259.641Z" fill="var(--fill-0, #F3EEE4)" stroke="var(--stroke-0, #010101)" stroke-width="0.599794" stroke-miterlimit="10"/>
<path id="Vector_9" d="M140.682 0.299913H113.801V6.29785H140.682V0.299913Z" fill="var(--fill-0, white)" stroke="var(--stroke-0, #010101)" stroke-width="0.599794" stroke-miterlimit="10"/>
<path id="Vector_10" d="M127.236 6.29783H115.32L117.779 12.3458V40.566H136.703V12.3458L139.162 6.29783H127.236Z" fill="var(--fill-0, #F3EEE4)" stroke="var(--stroke-0, #010101)" stroke-width="0.599794" stroke-miterlimit="10"/>
<path id="Vector_11" d="M137.613 31.3491H116.87V40.566H137.613V31.3491Z" fill="var(--fill-0, white)" stroke="var(--stroke-0, #010101)" stroke-width="0.599794" stroke-miterlimit="10"/>
<path id="Vector_12" d="M386.567 3.29887H254.173V8.53709H386.567V3.29887Z" fill="var(--fill-0, white)" stroke="var(--stroke-0, #010101)" stroke-width="0.599794" stroke-miterlimit="10"/>
<path id="Vector_13" d="M386.567 34.4781H254.173V40.566H386.567V34.4781Z" fill="var(--fill-0, white)" stroke="var(--stroke-0, #010101)" stroke-width="0.599794" stroke-miterlimit="10"/>
<path id="Vector_14" d="M386.567 6.29783H254.173V8.53708H386.567V6.29783Z" fill="var(--fill-0, #F3EEE4)" stroke="var(--stroke-0, #010101)" stroke-width="0.599794" stroke-miterlimit="10"/>
<path id="Vector_15" d="M386.577 8.53717V34.4682H360.696V14.0953C360.696 13.4455 360.436 12.8557 360.006 12.4358C359.586 12.006 358.996 11.7461 358.347 11.7461C357.047 11.7461 355.997 12.8057 355.997 14.0953V34.4682H347.2V14.0953C347.2 13.4455 346.941 12.8557 346.521 12.4358C346.091 12.006 345.501 11.7461 344.851 11.7461C343.552 11.7461 342.502 12.8057 342.502 14.0953V34.4682H333.705V14.0953C333.705 13.4455 333.445 12.8557 333.025 12.4358C332.596 12.006 332.006 11.7461 331.356 11.7461C330.056 11.7461 329.007 12.8057 329.007 14.0953V34.4682H320.21V14.0953C320.21 13.4455 319.95 12.8557 319.53 12.4358C319.1 12.006 318.51 11.7461 317.861 11.7461C316.561 11.7461 315.521 12.8057 315.521 14.0953V34.4682H306.724V14.0953C306.724 13.4455 306.465 12.8557 306.035 12.4358C305.605 12.006 305.025 11.7461 304.375 11.7461C303.066 11.7461 302.026 12.8057 302.026 14.0953V34.4682H293.229V14.0953C293.229 13.4455 292.969 12.8557 292.539 12.4358C292.109 12.006 291.53 11.7461 290.88 11.7461C289.57 11.7461 288.531 12.8057 288.531 14.0953V34.4682H279.734V14.0953C279.734 13.4455 279.474 12.8557 279.044 12.4358C278.614 12.006 278.034 11.7461 277.385 11.7461C276.085 11.7461 275.035 12.8057 275.035 14.0953V34.4682H254.262V8.53717H386.657H386.577Z" fill="var(--fill-0, #F3EEE4)" stroke="var(--stroke-0, #010101)" stroke-width="0.599794" stroke-miterlimit="10"/>
<path id="Vector_16" d="M267.618 0.299913H240.737V6.29785H267.618V0.299913Z" fill="var(--fill-0, white)" stroke="var(--stroke-0, #010101)" stroke-width="0.599794" stroke-miterlimit="10"/>
<path id="Vector_17" d="M254.172 6.29783H242.257L244.716 12.3458V40.566H263.639V12.3458L266.098 6.29783H254.172Z" fill="var(--fill-0, #F3EEE4)" stroke="var(--stroke-0, #010101)" stroke-width="0.599794" stroke-miterlimit="10"/>
<path id="Vector_18" d="M264.549 31.3491H243.806V40.566H264.549V31.3491Z" fill="var(--fill-0, white)" stroke="var(--stroke-0, #010101)" stroke-width="0.599794" stroke-miterlimit="10"/>
<path id="Vector_19" d="M513.513 3.29887H381.119V8.53709H513.513V3.29887Z" fill="var(--fill-0, white)" stroke="var(--stroke-0, #010101)" stroke-width="0.599794" stroke-miterlimit="10"/>
<path id="Vector_20" d="M513.513 34.4781H381.119V40.566H513.513V34.4781Z" fill="var(--fill-0, white)" stroke="var(--stroke-0, #010101)" stroke-width="0.599794" stroke-miterlimit="10"/>
<path id="Vector_21" d="M513.513 6.29783H381.119V8.53708H513.513V6.29783Z" fill="var(--fill-0, #F3EEE4)" stroke="var(--stroke-0, #010101)" stroke-width="0.599794" stroke-miterlimit="10"/>
<path id="Vector_22" d="M513.513 8.53717V34.4682H487.632V14.0953C487.632 13.4455 487.372 12.8557 486.942 12.4358C486.523 12.006 485.933 11.7461 485.283 11.7461C483.983 11.7461 482.934 12.8057 482.934 14.0953V34.4682H474.137V14.0953C474.137 13.4455 473.877 12.8557 473.457 12.4358C473.027 12.006 472.437 11.7461 471.788 11.7461C470.488 11.7461 469.438 12.8057 469.438 14.0953V34.4682H460.641V14.0953C460.641 13.4455 460.382 12.8557 459.962 12.4358C459.532 12.006 458.942 11.7461 458.292 11.7461C456.993 11.7461 455.943 12.8057 455.943 14.0953V34.4682H447.146V14.0953C447.146 13.4455 446.886 12.8557 446.466 12.4358C446.036 12.006 445.447 11.7461 444.797 11.7461C443.497 11.7461 442.458 12.8057 442.458 14.0953V34.4682H433.661V14.0953C433.661 13.4455 433.401 12.8557 432.971 12.4358C432.541 12.006 431.961 11.7461 431.312 11.7461C430.002 11.7461 428.962 12.8057 428.962 14.0953V34.4682H420.165V14.0953C420.165 13.4455 419.905 12.8557 419.476 12.4358C419.046 12.006 418.466 11.7461 417.816 11.7461C416.507 11.7461 415.467 12.8057 415.467 14.0953V34.4682H406.67V14.0953C406.67 13.4455 406.41 12.8557 405.98 12.4358C405.55 12.006 404.971 11.7461 404.321 11.7461C403.021 11.7461 401.972 12.8057 401.972 14.0953V34.4682H381.199V8.53717H513.593H513.513Z" fill="var(--fill-0, #F3EEE4)" stroke="var(--stroke-0, #010101)" stroke-width="0.599794" stroke-miterlimit="10"/>
<path id="Vector_23" d="M394.554 0.299913H367.673V6.29785H394.554V0.299913Z" fill="var(--fill-0, white)" stroke="var(--stroke-0, #010101)" stroke-width="0.599794" stroke-miterlimit="10"/>
<path id="Vector_24" d="M381.109 6.29783H369.193L371.652 12.3458V40.566H390.576V12.3458L393.035 6.29783H381.109Z" fill="var(--fill-0, #F3EEE4)" stroke="var(--stroke-0, #010101)" stroke-width="0.599794" stroke-miterlimit="10"/>
<path id="Vector_25" d="M391.485 31.3491H370.742V40.566H391.485V31.3491Z" fill="var(--fill-0, white)" stroke="var(--stroke-0, #010101)" stroke-width="0.599794" stroke-miterlimit="10"/>
<path id="Vector_26" d="M640.429 3.29887H508.035V8.53709H640.429V3.29887Z" fill="var(--fill-0, white)" stroke="var(--stroke-0, #010101)" stroke-width="0.599794" stroke-miterlimit="10"/>
<path id="Vector_27" d="M640.429 34.4781H508.035V40.566H640.429V34.4781Z" fill="var(--fill-0, white)" stroke="var(--stroke-0, #010101)" stroke-width="0.599794" stroke-miterlimit="10"/>
<path id="Vector_28" d="M640.429 6.29783H508.035V8.53708H640.429V6.29783Z" fill="var(--fill-0, #F3EEE4)" stroke="var(--stroke-0, #010101)" stroke-width="0.599794" stroke-miterlimit="10"/>
<path id="Vector_29" d="M640.43 8.53717V34.4682H614.548V14.0953C614.548 13.4455 614.289 12.8557 613.859 12.4358C613.439 12.006 612.849 11.7461 612.199 11.7461C610.9 11.7461 609.85 12.8057 609.85 14.0953V34.4682H601.053V14.0953C601.053 13.4455 600.793 12.8557 600.373 12.4358C599.943 12.006 599.354 11.7461 598.704 11.7461C597.404 11.7461 596.355 12.8057 596.355 14.0953V34.4682H587.558V14.0953C587.558 13.4455 587.298 12.8557 586.878 12.4358C586.448 12.006 585.858 11.7461 585.209 11.7461C583.909 11.7461 582.859 12.8057 582.859 14.0953V34.4682H574.062V14.0953C574.062 13.4455 573.802 12.8557 573.383 12.4358C572.953 12.006 572.363 11.7461 571.713 11.7461C570.414 11.7461 569.374 12.8057 569.374 14.0953V34.4682H560.577V14.0953C560.577 13.4455 560.317 12.8557 559.887 12.4358C559.457 12.006 558.878 11.7461 558.228 11.7461C556.918 11.7461 555.879 12.8057 555.879 14.0953V34.4682H547.082V14.0953C547.082 13.4455 546.822 12.8557 546.392 12.4358C545.962 12.006 545.382 11.7461 544.732 11.7461C543.423 11.7461 542.383 12.8057 542.383 14.0953V34.4682H533.586V14.0953C533.586 13.4455 533.326 12.8557 532.897 12.4358C532.467 12.006 531.887 11.7461 531.237 11.7461C529.938 11.7461 528.888 12.8057 528.888 14.0953V34.4682H508.115V8.53717H640.51H640.43Z" fill="var(--fill-0, #F3EEE4)" stroke="var(--stroke-0, #010101)" stroke-width="0.599794" stroke-miterlimit="10"/>
<path id="Vector_30" d="M521.481 0.299913H494.6V6.29785H521.481V0.299913Z" fill="var(--fill-0, white)" stroke="var(--stroke-0, #010101)" stroke-width="0.599794" stroke-miterlimit="10"/>
<path id="Vector_31" d="M508.035 6.29783H496.109L498.569 12.3458V40.566H517.502V12.3458L519.961 6.29783H508.035Z" fill="var(--fill-0, #F3EEE4)" stroke="var(--stroke-0, #010101)" stroke-width="0.599794" stroke-miterlimit="10"/>
<path id="Vector_32" d="M518.412 31.3491H497.669V40.566H518.412V31.3491Z" fill="var(--fill-0, white)" stroke="var(--stroke-0, #010101)" stroke-width="0.599794" stroke-miterlimit="10"/>
<path id="Vector_33" d="M767.366 3.29887H634.972V8.53709H767.366V3.29887Z" fill="var(--fill-0, white)" stroke="var(--stroke-0, #010101)" stroke-width="0.599794" stroke-miterlimit="10"/>
<path id="Vector_34" d="M767.366 34.4781H634.972V40.566H767.366V34.4781Z" fill="var(--fill-0, white)" stroke="var(--stroke-0, #010101)" stroke-width="0.599794" stroke-miterlimit="10"/>
<path id="Vector_35" d="M767.366 6.29783H634.972V8.53708H767.366V6.29783Z" fill="var(--fill-0, #F3EEE4)" stroke="var(--stroke-0, #010101)" stroke-width="0.599794" stroke-miterlimit="10"/>
<path id="Vector_36" d="M767.376 8.53717V34.4682H741.495V14.0953C741.495 13.4455 741.235 12.8557 740.805 12.4358C740.385 12.006 739.795 11.7461 739.146 11.7461C737.846 11.7461 736.796 12.8057 736.796 14.0953V34.4682H728V14.0953C728 13.4455 727.74 12.8557 727.32 12.4358C726.89 12.006 726.3 11.7461 725.65 11.7461C724.351 11.7461 723.301 12.8057 723.301 14.0953V34.4682H714.504V14.0953C714.504 13.4455 714.244 12.8557 713.824 12.4358C713.394 12.006 712.805 11.7461 712.155 11.7461C710.855 11.7461 709.806 12.8057 709.806 14.0953V34.4682H701.009V14.0953C701.009 13.4455 700.749 12.8557 700.329 12.4358C699.899 12.006 699.309 11.7461 698.66 11.7461C697.36 11.7461 696.32 12.8057 696.32 14.0953V34.4682H687.523V14.0953C687.523 13.4455 687.263 12.8557 686.834 12.4358C686.404 12.006 685.824 11.7461 685.174 11.7461C683.865 11.7461 682.825 12.8057 682.825 14.0953V34.4682H674.028V14.0953C674.028 13.4455 673.768 12.8557 673.338 12.4358C672.908 12.006 672.329 11.7461 671.679 11.7461C670.369 11.7461 669.33 12.8057 669.33 14.0953V34.4682H660.533V14.0953C660.533 13.4455 660.273 12.8557 659.843 12.4358C659.413 12.006 658.833 11.7461 658.184 11.7461C656.884 11.7461 655.834 12.8057 655.834 14.0953V34.4682H635.061V8.53717H767.456H767.376Z" fill="var(--fill-0, #F3EEE4)" stroke="var(--stroke-0, #010101)" stroke-width="0.599794" stroke-miterlimit="10"/>
<path id="Vector_37" d="M648.417 0.299913H621.536V6.29785H648.417V0.299913Z" fill="var(--fill-0, white)" stroke="var(--stroke-0, #010101)" stroke-width="0.599794" stroke-miterlimit="10"/>
<path id="Vector_38" d="M634.971 6.29783H623.056L625.505 12.3458V40.566H644.438V12.3458L646.897 6.29783H634.971Z" fill="var(--fill-0, #F3EEE4)" stroke="var(--stroke-0, #010101)" stroke-width="0.599794" stroke-miterlimit="10"/>
<path id="Vector_39" d="M645.348 31.3491H624.605V40.566H645.348V31.3491Z" fill="var(--fill-0, white)" stroke="var(--stroke-0, #010101)" stroke-width="0.599794" stroke-miterlimit="10"/>
<path id="Vector_40" d="M1537.65 8.53717L1670.05 8.53717V3.29895L1537.65 3.29895V8.53717Z" fill="var(--fill-0, white)" stroke="var(--stroke-0, #010101)" stroke-width="0.599794" stroke-miterlimit="10"/>
<path id="Vector_41" d="M1537.65 40.566L1670.05 40.566V34.4781L1537.65 34.4781V40.566Z" fill="var(--fill-0, white)" stroke="var(--stroke-0, #010101)" stroke-width="0.599794" stroke-miterlimit="10"/>
<path id="Vector_42" d="M1537.65 8.53717L1670.05 8.53717V6.29792L1537.65 6.29792V8.53717Z" fill="var(--fill-0, #F3EEE4)" stroke="var(--stroke-0, #010101)" stroke-width="0.599794" stroke-miterlimit="10"/>
<path id="Vector_43" d="M1537.65 8.53717V34.4682H1563.53V14.0953C1563.53 13.4455 1563.79 12.8557 1564.22 12.4358C1564.64 12.006 1565.23 11.7461 1565.88 11.7461C1567.18 11.7461 1568.23 12.8057 1568.23 14.0953V34.4682H1577.03V14.0953C1577.03 13.4455 1577.29 12.8557 1577.71 12.4358C1578.14 12.006 1578.73 11.7461 1579.38 11.7461C1580.68 11.7461 1581.73 12.8057 1581.73 14.0953V34.4682H1590.52V14.0953C1590.52 13.4455 1590.78 12.8557 1591.2 12.4358C1591.63 12.006 1592.22 11.7461 1592.87 11.7461C1594.17 11.7461 1595.22 12.8057 1595.22 14.0953V34.4682H1604.02V14.0953C1604.02 13.4455 1604.28 12.8557 1604.7 12.4358C1605.13 12.006 1605.72 11.7461 1606.37 11.7461C1607.67 11.7461 1608.71 12.8057 1608.71 14.0953V34.4682H1617.5V14.0953C1617.5 13.4455 1617.76 12.8557 1618.19 12.4358C1618.62 12.006 1619.2 11.7461 1619.85 11.7461C1621.16 11.7461 1622.2 12.8057 1622.2 14.0953V34.4682H1631V14.0953C1631 13.4455 1631.26 12.8557 1631.69 12.4358C1632.12 12.006 1632.7 11.7461 1633.35 11.7461C1634.66 11.7461 1635.7 12.8057 1635.7 14.0953V34.4682H1644.49V14.0953C1644.49 13.4455 1644.75 12.8557 1645.18 12.4358C1645.61 12.006 1646.19 11.7461 1646.84 11.7461C1648.14 11.7461 1649.19 12.8057 1649.19 14.0953V34.4682H1669.97V8.53717H1537.57H1537.65Z" fill="var(--fill-0, #F3EEE4)" stroke="var(--stroke-0, #010101)" stroke-width="0.599794" stroke-miterlimit="10"/>
<path id="Vector_44" d="M1410.71 8.53717L1543.11 8.53717V3.29895L1410.71 3.29895V8.53717Z" fill="var(--fill-0, white)" stroke="var(--stroke-0, #010101)" stroke-width="0.599794" stroke-miterlimit="10"/>
<path id="Vector_45" d="M1410.71 40.566L1543.11 40.566V34.4781L1410.71 34.4781V40.566Z" fill="var(--fill-0, white)" stroke="var(--stroke-0, #010101)" stroke-width="0.599794" stroke-miterlimit="10"/>
<path id="Vector_46" d="M1410.71 8.53717L1543.11 8.53717V6.29792L1410.71 6.29792V8.53717Z" fill="var(--fill-0, #F3EEE4)" stroke="var(--stroke-0, #010101)" stroke-width="0.599794" stroke-miterlimit="10"/>
<path id="Vector_47" d="M1410.71 8.53717V34.4682H1436.6V14.0953C1436.6 13.4455 1436.86 12.8557 1437.29 12.4358C1437.71 12.006 1438.3 11.7461 1438.94 11.7461C1440.24 11.7461 1441.29 12.8057 1441.29 14.0953V34.4682H1450.09V14.0953C1450.09 13.4455 1450.35 12.8557 1450.77 12.4358C1451.2 12.006 1451.79 11.7461 1452.44 11.7461C1453.74 11.7461 1454.79 12.8057 1454.79 14.0953V34.4682H1463.59V14.0953C1463.59 13.4455 1463.85 12.8557 1464.27 12.4358C1464.7 12.006 1465.29 11.7461 1465.94 11.7461C1467.24 11.7461 1468.28 12.8057 1468.28 14.0953V34.4682H1477.08V14.0953C1477.08 13.4455 1477.34 12.8557 1477.76 12.4358C1478.19 12.006 1478.78 11.7461 1479.43 11.7461C1480.73 11.7461 1481.77 12.8057 1481.77 14.0953V34.4682H1490.57V14.0953C1490.57 13.4455 1490.83 12.8557 1491.26 12.4358C1491.69 12.006 1492.27 11.7461 1492.92 11.7461C1494.23 11.7461 1495.27 12.8057 1495.27 14.0953V34.4682H1504.06V14.0953C1504.06 13.4455 1504.32 12.8557 1504.75 12.4358C1505.18 12.006 1505.76 11.7461 1506.41 11.7461C1507.72 11.7461 1508.76 12.8057 1508.76 14.0953V34.4682H1517.56V14.0953C1517.56 13.4455 1517.82 12.8557 1518.25 12.4358C1518.68 12.006 1519.26 11.7461 1519.91 11.7461C1521.21 11.7461 1522.26 12.8057 1522.26 14.0953V34.4682H1543.03V8.53717H1410.63H1410.71Z" fill="var(--fill-0, #F3EEE4)" stroke="var(--stroke-0, #010101)" stroke-width="0.599794" stroke-miterlimit="10"/>
<path id="Vector_48" d="M1529.66 6.29783L1556.54 6.29783V0.299897L1529.66 0.299897V6.29783Z" fill="var(--fill-0, white)" stroke="var(--stroke-0, #010101)" stroke-width="0.599794" stroke-miterlimit="10"/>
<path id="Vector_49" d="M1543.11 6.29783H1555.03L1552.58 12.3458V40.566H1533.64V12.3458L1531.18 6.29783H1543.11Z" fill="var(--fill-0, #F3EEE4)" stroke="var(--stroke-0, #010101)" stroke-width="0.599794" stroke-miterlimit="10"/>
<path id="Vector_50" d="M1532.74 40.566H1553.49V31.3492H1532.74V40.566Z" fill="var(--fill-0, white)" stroke="var(--stroke-0, #010101)" stroke-width="0.599794" stroke-miterlimit="10"/>
<path id="Vector_51" d="M1283.78 8.53717L1416.17 8.53717V3.29895L1283.78 3.29895V8.53717Z" fill="var(--fill-0, white)" stroke="var(--stroke-0, #010101)" stroke-width="0.599794" stroke-miterlimit="10"/>
<path id="Vector_52" d="M1283.78 40.566L1416.17 40.566V34.4781L1283.78 34.4781V40.566Z" fill="var(--fill-0, white)" stroke="var(--stroke-0, #010101)" stroke-width="0.599794" stroke-miterlimit="10"/>
<path id="Vector_53" d="M1283.78 8.53717L1416.17 8.53717V6.29792L1283.78 6.29792V8.53717Z" fill="var(--fill-0, #F3EEE4)" stroke="var(--stroke-0, #010101)" stroke-width="0.599794" stroke-miterlimit="10"/>
<path id="Vector_54" d="M1283.78 8.53717V34.4682H1309.66V14.0953C1309.66 13.4455 1309.92 12.8557 1310.35 12.4358C1310.77 12.006 1311.36 11.7461 1312.01 11.7461C1313.31 11.7461 1314.36 12.8057 1314.36 14.0953V34.4682H1323.15V14.0953C1323.15 13.4455 1323.41 12.8557 1323.83 12.4358C1324.26 12.006 1324.85 11.7461 1325.5 11.7461C1326.8 11.7461 1327.85 12.8057 1327.85 14.0953V34.4682H1336.65V14.0953C1336.65 13.4455 1336.91 12.8557 1337.33 12.4358C1337.76 12.006 1338.35 11.7461 1339 11.7461C1340.3 11.7461 1341.35 12.8057 1341.35 14.0953V34.4682H1350.15V14.0953C1350.15 13.4455 1350.41 12.8557 1350.83 12.4358C1351.26 12.006 1351.84 11.7461 1352.49 11.7461C1353.79 11.7461 1354.83 12.8057 1354.83 14.0953V34.4682H1363.63V14.0953C1363.63 13.4455 1363.89 12.8557 1364.32 12.4358C1364.75 12.006 1365.33 11.7461 1365.98 11.7461C1367.29 11.7461 1368.33 12.8057 1368.33 14.0953V34.4682H1377.13V14.0953C1377.13 13.4455 1377.39 12.8557 1377.82 12.4358C1378.25 12.006 1378.83 11.7461 1379.48 11.7461C1380.78 11.7461 1381.82 12.8057 1381.82 14.0953V34.4682H1390.62V14.0953C1390.62 13.4455 1390.88 12.8557 1391.31 12.4358C1391.74 12.006 1392.32 11.7461 1392.97 11.7461C1394.27 11.7461 1395.32 12.8057 1395.32 14.0953V34.4682H1416.09V8.53717H1283.7H1283.78Z" fill="var(--fill-0, #F3EEE4)" stroke="var(--stroke-0, #010101)" stroke-width="0.599794" stroke-miterlimit="10"/>
<path id="Vector_55" d="M1402.73 6.29783L1429.61 6.29783V0.299897L1402.73 0.299897V6.29783Z" fill="var(--fill-0, white)" stroke="var(--stroke-0, #010101)" stroke-width="0.599794" stroke-miterlimit="10"/>
<path id="Vector_56" d="M1416.17 6.29783H1428.1L1425.64 12.3458V40.566H1406.71V12.3458L1404.25 6.29783H1416.17Z" fill="var(--fill-0, #F3EEE4)" stroke="var(--stroke-0, #010101)" stroke-width="0.599794" stroke-miterlimit="10"/>
<path id="Vector_57" d="M1405.81 40.566H1426.55V31.3492H1405.81V40.566Z" fill="var(--fill-0, white)" stroke="var(--stroke-0, #010101)" stroke-width="0.599794" stroke-miterlimit="10"/>
<path id="Vector_58" d="M1156.84 8.53717L1289.24 8.53717V3.29895L1156.84 3.29895V8.53717Z" fill="var(--fill-0, white)" stroke="var(--stroke-0, #010101)" stroke-width="0.599794" stroke-miterlimit="10"/>
<path id="Vector_59" d="M1156.84 40.566L1289.24 40.566V34.4781L1156.84 34.4781V40.566Z" fill="var(--fill-0, white)" stroke="var(--stroke-0, #010101)" stroke-width="0.599794" stroke-miterlimit="10"/>
<path id="Vector_60" d="M1156.84 8.53717L1289.24 8.53717V6.29792L1156.84 6.29792V8.53717Z" fill="var(--fill-0, #F3EEE4)" stroke="var(--stroke-0, #010101)" stroke-width="0.599794" stroke-miterlimit="10"/>
<path id="Vector_61" d="M1156.84 8.53717V34.4682H1182.72V14.0953C1182.72 13.4455 1182.98 12.8557 1183.41 12.4358C1183.83 12.006 1184.42 11.7461 1185.07 11.7461C1186.37 11.7461 1187.42 12.8057 1187.42 14.0953V34.4682H1196.22V14.0953C1196.22 13.4455 1196.48 12.8557 1196.9 12.4358C1197.33 12.006 1197.92 11.7461 1198.57 11.7461C1199.87 11.7461 1200.92 12.8057 1200.92 14.0953V34.4682H1209.71V14.0953C1209.71 13.4455 1209.97 12.8557 1210.39 12.4358C1210.82 12.006 1211.41 11.7461 1212.06 11.7461C1213.36 11.7461 1214.41 12.8057 1214.41 14.0953V34.4682H1223.21V14.0953C1223.21 13.4455 1223.47 12.8557 1223.89 12.4358C1224.32 12.006 1224.91 11.7461 1225.56 11.7461C1226.86 11.7461 1227.9 12.8057 1227.9 14.0953V34.4682H1236.69V14.0953C1236.69 13.4455 1236.95 12.8557 1237.38 12.4358C1237.81 12.006 1238.39 11.7461 1239.04 11.7461C1240.35 11.7461 1241.39 12.8057 1241.39 14.0953V34.4682H1250.19V14.0953C1250.19 13.4455 1250.45 12.8557 1250.88 12.4358C1251.31 12.006 1251.89 11.7461 1252.54 11.7461C1253.85 11.7461 1254.89 12.8057 1254.89 14.0953V34.4682H1263.69V14.0953C1263.69 13.4455 1263.95 12.8557 1264.38 12.4358C1264.8 12.006 1265.38 11.7461 1266.03 11.7461C1267.33 11.7461 1268.38 12.8057 1268.38 14.0953V34.4682H1289.16V8.53717H1156.76H1156.84Z" fill="var(--fill-0, #F3EEE4)" stroke="var(--stroke-0, #010101)" stroke-width="0.599794" stroke-miterlimit="10"/>
<path id="Vector_62" d="M1275.8 6.29783L1302.68 6.29783V0.299897L1275.8 0.299897V6.29783Z" fill="var(--fill-0, white)" stroke="var(--stroke-0, #010101)" stroke-width="0.599794" stroke-miterlimit="10"/>
<path id="Vector_63" d="M1289.24 6.29783H1301.16L1298.7 12.3458V40.566H1279.77V12.3458L1277.31 6.29783H1289.24Z" fill="var(--fill-0, #F3EEE4)" stroke="var(--stroke-0, #010101)" stroke-width="0.599794" stroke-miterlimit="10"/>
<path id="Vector_64" d="M1278.87 40.566H1299.61V31.3492H1278.87V40.566Z" fill="var(--fill-0, white)" stroke="var(--stroke-0, #010101)" stroke-width="0.599794" stroke-miterlimit="10"/>
<path id="Vector_65" d="M1029.92 8.53717L1162.31 8.53717V3.29895L1029.92 3.29895V8.53717Z" fill="var(--fill-0, white)" stroke="var(--stroke-0, #010101)" stroke-width="0.599794" stroke-miterlimit="10"/>
<path id="Vector_66" d="M1029.92 40.566L1162.31 40.566V34.4781L1029.92 34.4781V40.566Z" fill="var(--fill-0, white)" stroke="var(--stroke-0, #010101)" stroke-width="0.599794" stroke-miterlimit="10"/>
<path id="Vector_67" d="M1029.92 8.53717L1162.31 8.53717V6.29792L1029.92 6.29792V8.53717Z" fill="var(--fill-0, #F3EEE4)" stroke="var(--stroke-0, #010101)" stroke-width="0.599794" stroke-miterlimit="10"/>
<path id="Vector_68" d="M1029.92 8.53717V34.4682H1055.8V14.0953C1055.8 13.4455 1056.06 12.8557 1056.49 12.4358C1056.91 12.006 1057.5 11.7461 1058.15 11.7461C1059.45 11.7461 1060.5 12.8057 1060.5 14.0953V34.4682H1069.29V14.0953C1069.29 13.4455 1069.55 12.8557 1069.97 12.4358C1070.4 12.006 1070.99 11.7461 1071.64 11.7461C1072.94 11.7461 1073.99 12.8057 1073.99 14.0953V34.4682H1082.79V14.0953C1082.79 13.4455 1083.05 12.8557 1083.47 12.4358C1083.9 12.006 1084.49 11.7461 1085.14 11.7461C1086.44 11.7461 1087.49 12.8057 1087.49 14.0953V34.4682H1096.28V14.0953C1096.28 13.4455 1096.54 12.8557 1096.96 12.4358C1097.39 12.006 1097.98 11.7461 1098.63 11.7461C1099.93 11.7461 1100.97 12.8057 1100.97 14.0953V34.4682H1109.77V14.0953C1109.77 13.4455 1110.03 12.8557 1110.46 12.4358C1110.89 12.006 1111.47 11.7461 1112.12 11.7461C1113.43 11.7461 1114.47 12.8057 1114.47 14.0953V34.4682H1123.26V14.0953C1123.26 13.4455 1123.52 12.8557 1123.95 12.4358C1124.38 12.006 1124.96 11.7461 1125.61 11.7461C1126.92 11.7461 1127.96 12.8057 1127.96 14.0953V34.4682H1136.76V14.0953C1136.76 13.4455 1137.02 12.8557 1137.45 12.4358C1137.88 12.006 1138.46 11.7461 1139.11 11.7461C1140.41 11.7461 1141.46 12.8057 1141.46 14.0953V34.4682H1162.23V8.53717H1029.84H1029.92Z" fill="var(--fill-0, #F3EEE4)" stroke="var(--stroke-0, #010101)" stroke-width="0.599794" stroke-miterlimit="10"/>
<path id="Vector_69" d="M1148.86 6.29783L1175.75 6.29783V0.299897L1148.86 0.299897V6.29783Z" fill="var(--fill-0, white)" stroke="var(--stroke-0, #010101)" stroke-width="0.599794" stroke-miterlimit="10"/>
<path id="Vector_70" d="M1162.31 6.29783H1174.24L1171.78 12.3458V40.566H1152.84V12.3458L1150.38 6.29783H1162.31Z" fill="var(--fill-0, #F3EEE4)" stroke="var(--stroke-0, #010101)" stroke-width="0.599794" stroke-miterlimit="10"/>
<path id="Vector_71" d="M1151.93 40.566H1172.68V31.3492H1151.93V40.566Z" fill="var(--fill-0, white)" stroke="var(--stroke-0, #010101)" stroke-width="0.599794" stroke-miterlimit="10"/>
<path id="Vector_72" d="M902.979 8.53717L1035.37 8.53717V3.29895L902.979 3.29895V8.53717Z" fill="var(--fill-0, white)" stroke="var(--stroke-0, #010101)" stroke-width="0.599794" stroke-miterlimit="10"/>
<path id="Vector_73" d="M902.979 40.566L1035.37 40.566V34.4781L902.979 34.4781V40.566Z" fill="var(--fill-0, white)" stroke="var(--stroke-0, #010101)" stroke-width="0.599794" stroke-miterlimit="10"/>
<path id="Vector_74" d="M902.979 8.53717L1035.37 8.53717V6.29792L902.979 6.29792V8.53717Z" fill="var(--fill-0, #F3EEE4)" stroke="var(--stroke-0, #010101)" stroke-width="0.599794" stroke-miterlimit="10"/>
<path id="Vector_75" d="M902.979 8.53717V34.4682H928.86V14.0953C928.86 13.4455 929.12 12.8557 929.55 12.4358C929.97 12.006 930.56 11.7461 931.21 11.7461C932.509 11.7461 933.559 12.8057 933.559 14.0953V34.4682H942.356V14.0953C942.356 13.4455 942.616 12.8557 943.036 12.4358C943.465 12.006 944.055 11.7461 944.705 11.7461C946.004 11.7461 947.054 12.8057 947.054 14.0953V34.4682H955.851V14.0953C955.851 13.4455 956.111 12.8557 956.531 12.4358C956.961 12.006 957.55 11.7461 958.2 11.7461C959.5 11.7461 960.549 12.8057 960.549 14.0953V34.4682H969.346V14.0953C969.346 13.4455 969.606 12.8557 970.026 12.4358C970.456 12.006 971.046 11.7461 971.696 11.7461C972.995 11.7461 974.035 12.8057 974.035 14.0953V34.4682H982.832V14.0953C982.832 13.4455 983.092 12.8557 983.522 12.4358C983.951 12.006 984.531 11.7461 985.181 11.7461C986.491 11.7461 987.53 12.8057 987.53 14.0953V34.4682H996.327V14.0953C996.327 13.4455 996.587 12.8557 997.017 12.4358C997.447 12.006 998.027 11.7461 998.676 11.7461C999.986 11.7461 1001.03 12.8057 1001.03 14.0953V34.4682H1009.82V14.0953C1009.82 13.4455 1010.08 12.8557 1010.51 12.4358C1010.94 12.006 1011.52 11.7461 1012.17 11.7461C1013.47 11.7461 1014.52 12.8057 1014.52 14.0953V34.4682H1035.29V8.53717H902.899H902.979Z" fill="var(--fill-0, #F3EEE4)" stroke="var(--stroke-0, #010101)" stroke-width="0.599794" stroke-miterlimit="10"/>
<path id="Vector_76" d="M1021.93 6.29783L1048.81 6.29783V0.299897L1021.93 0.299897V6.29783Z" fill="var(--fill-0, white)" stroke="var(--stroke-0, #010101)" stroke-width="0.599794" stroke-miterlimit="10"/>
<path id="Vector_77" d="M1035.37 6.29783H1047.3L1044.84 12.3458V40.566H1025.91V12.3458L1023.45 6.29783H1035.37Z" fill="var(--fill-0, #F3EEE4)" stroke="var(--stroke-0, #010101)" stroke-width="0.599794" stroke-miterlimit="10"/>
<path id="Vector_78" d="M1025.01 40.566H1045.75V31.3492H1025.01V40.566Z" fill="var(--fill-0, white)" stroke="var(--stroke-0, #010101)" stroke-width="0.599794" stroke-miterlimit="10"/>
</g>
</svg>
