<svg preserveAspectRatio="none" width="100%" height="100%" overflow="visible" style="display: block;" viewBox="0 0 174.31 319.68" fill="none" xmlns="http://www.w3.org/2000/svg">
<g id="main tower medium slow">
<path id="Vector" d="M168.472 52.152V319.38H5.82813V52.152H39.3766C39.2966 52.6619 39.2666 53.1817 39.2666 53.7115C39.2666 60.3192 44.6248 65.6774 51.2325 65.6774C57.8402 65.6774 63.1884 60.3192 63.1884 53.7115C63.1884 53.1817 63.1584 52.6519 63.0784 52.152H75.2942C75.2142 52.6619 75.1843 53.1817 75.1843 53.7115C75.1843 60.3192 80.5424 65.6774 87.1501 65.6774C93.7578 65.6774 99.106 60.3192 99.106 53.7115C99.106 53.1817 99.0761 52.6519 98.9961 52.152H111.212C111.132 52.6619 111.102 53.1817 111.102 53.7115C111.102 60.3192 116.46 65.6774 123.068 65.6774C129.675 65.6774 135.024 60.3192 135.024 53.7115C135.024 53.1817 134.994 52.6519 134.914 52.152H168.462H168.472Z" fill="var(--fill-0, #F3EEE4)" stroke="var(--stroke-0, #010101)" stroke-width="0.599794" stroke-miterlimit="10"/>
<path id="Vector_2" d="M174.01 108.793H0.299897V118.029H174.01V108.793Z" fill="var(--fill-0, white)" stroke="var(--stroke-0, #010101)" stroke-width="0.599794" stroke-miterlimit="10"/>
<path id="Vector_3" d="M174.01 118.029H0.299897V121.378H174.01V118.029Z" fill="var(--fill-0, white)" stroke="var(--stroke-0, #010101)" stroke-width="0.599794" stroke-miterlimit="10"/>
<path id="Vector_4" d="M168.472 133.494H5.8382V136.843H168.472V133.494Z" fill="var(--fill-0, white)" stroke="var(--stroke-0, #010101)" stroke-width="0.599794" stroke-miterlimit="10"/>
<path id="Vector_5" d="M37.3972 57.2603H0.329916V63.5281H37.3972V57.2603Z" fill="var(--fill-0, white)" stroke="var(--stroke-0, #010101)" stroke-width="0.599794" stroke-miterlimit="10"/>
<path id="Vector_6" d="M18.8637 63.5181H2.41934L5.80819 77.2734V108.793H31.9192V77.2734L35.308 63.5181H18.8637Z" fill="var(--fill-0, #F3EEE4)" stroke="var(--stroke-0, #010101)" stroke-width="0.599794" stroke-miterlimit="10"/>
<path id="Vector_7" d="M174.01 57.2603H136.943V63.5281H174.01V57.2603Z" fill="var(--fill-0, white)" stroke="var(--stroke-0, #010101)" stroke-width="0.599794" stroke-miterlimit="10"/>
<path id="Vector_8" d="M155.477 63.5181H139.032L142.421 77.2734V108.793H168.532V77.2734L171.921 63.5181H155.477Z" fill="var(--fill-0, #F3EEE4)" stroke="var(--stroke-0, #010101)" stroke-width="0.599794" stroke-miterlimit="10"/>
<path id="Vector_9" d="M51.3724 92.988C53.636 92.988 55.471 91.153 55.471 88.8894C55.471 86.6258 53.636 84.7908 51.3724 84.7908C49.1088 84.7908 47.2738 86.6258 47.2738 88.8894C47.2738 91.153 49.1088 92.988 51.3724 92.988Z" fill="var(--fill-0, white)" stroke="var(--stroke-0, #010101)" stroke-width="0.599794" stroke-miterlimit="10"/>
<path id="Vector_10" d="M87.1501 92.988C89.4137 92.988 91.2487 91.153 91.2487 88.8894C91.2487 86.6258 89.4137 84.7908 87.1501 84.7908C84.8865 84.7908 83.0515 86.6258 83.0515 88.8894C83.0515 91.153 84.8865 92.988 87.1501 92.988Z" fill="var(--fill-0, white)" stroke="var(--stroke-0, #010101)" stroke-width="0.599794" stroke-miterlimit="10"/>
<path id="Vector_11" d="M122.928 92.988C125.191 92.988 127.026 91.153 127.026 88.8894C127.026 86.6258 125.191 84.7908 122.928 84.7908C120.664 84.7908 118.829 86.6258 118.829 88.8894C118.829 91.153 120.664 92.988 122.928 92.988Z" fill="var(--fill-0, white)" stroke="var(--stroke-0, #010101)" stroke-width="0.599794" stroke-miterlimit="10"/>
<path id="Vector_12" d="M54.3814 193.034C54.3814 193.034 47.2838 199.042 47.2838 209.618V319.38H61.489V209.618C61.489 199.042 54.3914 193.034 54.3914 193.034H54.3814Z" fill="var(--fill-0, #F3EEE4)" stroke="var(--stroke-0, #010101)" stroke-width="0.599794" stroke-miterlimit="10"/>
<path id="Vector_13" d="M49.473 319.38V209.618C49.473 203.1 52.512 198.462 54.3714 196.223C56.2407 198.462 59.2696 203.1 59.2696 209.618V319.38" stroke="var(--stroke-0, #010101)" stroke-width="0.599794" stroke-miterlimit="10"/>
<path id="Vector_14" d="M119.929 193.034C119.929 193.034 112.831 199.042 112.831 209.618V319.38H127.036V209.618C127.036 199.042 119.939 193.034 119.939 193.034H119.929Z" fill="var(--fill-0, #F3EEE4)" stroke="var(--stroke-0, #010101)" stroke-width="0.599794" stroke-miterlimit="10"/>
<path id="Vector_15" d="M115.021 319.38V209.618C115.021 203.1 118.06 198.462 119.919 196.223C121.788 198.462 124.817 203.1 124.817 209.618V319.38" stroke="var(--stroke-0, #010101)" stroke-width="0.599794" stroke-miterlimit="10"/>
<path id="Vector_16" d="M87.1501 186.306C87.1501 186.306 76.1239 196.083 76.1239 207.479V319.38H98.1763V207.479C98.1763 196.073 87.1501 186.306 87.1501 186.306Z" fill="var(--fill-0, #F3EEE4)" stroke="var(--stroke-0, #010101)" stroke-width="0.599794" stroke-miterlimit="10"/>
<path id="Vector_17" d="M78.3232 319.38V207.479C78.3232 199.611 84.3111 192.384 87.1502 189.395C89.9892 192.384 95.9771 199.611 95.9771 207.479V319.38" stroke="var(--stroke-0, #010101)" stroke-width="0.599794" stroke-miterlimit="10"/>
<path id="Vector_18" d="M51.3724 173.37C57.1915 173.37 61.9088 168.653 61.9088 162.834C61.9088 157.015 57.1915 152.298 51.3724 152.298C45.5533 152.298 40.836 157.015 40.836 162.834C40.836 168.653 45.5533 173.37 51.3724 173.37Z" fill="var(--fill-0, #F3EEE4)" stroke="var(--stroke-0, #010101)" stroke-width="0.599794" stroke-miterlimit="10"/>
<path id="Vector_19" d="M51.3724 168.872C54.7071 168.872 57.4103 166.169 57.4103 162.834C57.4103 159.499 54.7071 156.796 51.3724 156.796C48.0378 156.796 45.3344 159.499 45.3344 162.834C45.3344 166.169 48.0378 168.872 51.3724 168.872Z" fill="var(--fill-0, white)" stroke="var(--stroke-0, #010101)" stroke-width="0.599794" stroke-miterlimit="10"/>
<path id="Vector_20" d="M49.1333 157.206C49.1333 154.497 50.143 152.308 51.3825 152.308C52.6221 152.308 53.6318 154.497 53.6318 157.206" stroke="var(--stroke-0, #010101)" stroke-width="0.599794" stroke-miterlimit="10"/>
<path id="Vector_21" d="M53.6217 157.196C55.541 155.287 57.8102 154.467 58.6799 155.347C59.5496 156.226 58.6999 158.485 56.7806 160.395" stroke="var(--stroke-0, #010101)" stroke-width="0.599794" stroke-miterlimit="10"/>
<path id="Vector_22" d="M57.0704 165.013C58.9798 166.933 59.7995 169.202 58.9198 170.071C58.0401 170.941 55.7809 170.091 53.8715 168.172" stroke="var(--stroke-0, #010101)" stroke-width="0.599794" stroke-miterlimit="10"/>
<path id="Vector_23" d="M53.6217 168.462C53.6217 171.171 52.612 173.36 51.3725 173.36C50.1329 173.36 49.1232 171.171 49.1232 168.462" stroke="var(--stroke-0, #010101)" stroke-width="0.599794" stroke-miterlimit="10"/>
<path id="Vector_24" d="M57.0105 160.385C59.7196 160.385 61.9088 161.394 61.9088 162.634C61.9088 163.874 59.7196 164.883 57.0105 164.883" stroke="var(--stroke-0, #010101)" stroke-width="0.599794" stroke-miterlimit="10"/>
<path id="Vector_25" d="M49.1333 168.472C47.2139 170.381 44.9447 171.201 44.075 170.321C43.2053 169.442 44.055 167.183 45.9743 165.273" stroke="var(--stroke-0, #010101)" stroke-width="0.599794" stroke-miterlimit="10"/>
<path id="Vector_26" d="M45.6744 160.665C43.7651 158.745 42.9454 156.476 43.8251 155.606C44.7048 154.737 46.964 155.586 48.8733 157.506" stroke="var(--stroke-0, #010101)" stroke-width="0.599794" stroke-miterlimit="10"/>
<path id="Vector_27" d="M45.7444 165.283C43.0353 165.283 40.8461 164.273 40.8461 163.034C40.8461 161.794 43.0353 160.785 45.7444 160.785" stroke="var(--stroke-0, #010101)" stroke-width="0.599794" stroke-miterlimit="10"/>
<path id="Vector_28" d="M87.1501 173.37C92.9692 173.37 97.6865 168.653 97.6865 162.834C97.6865 157.015 92.9692 152.298 87.1501 152.298C81.331 152.298 76.6138 157.015 76.6138 162.834C76.6138 168.653 81.331 173.37 87.1501 173.37Z" fill="var(--fill-0, #F3EEE4)" stroke="var(--stroke-0, #010101)" stroke-width="0.599794" stroke-miterlimit="10"/>
<path id="Vector_29" d="M87.1501 168.872C90.4848 168.872 93.1881 166.169 93.1881 162.834C93.1881 159.499 90.4848 156.796 87.1501 156.796C83.8154 156.796 81.1122 159.499 81.1122 162.834C81.1122 166.169 83.8154 168.872 87.1501 168.872Z" fill="var(--fill-0, white)" stroke="var(--stroke-0, #010101)" stroke-width="0.599794" stroke-miterlimit="10"/>
<path id="Vector_30" d="M84.9109 157.206C84.9109 154.497 85.9205 152.308 87.1601 152.308C88.3997 152.308 89.4093 154.497 89.4093 157.206" stroke="var(--stroke-0, #010101)" stroke-width="0.599794" stroke-miterlimit="10"/>
<path id="Vector_31" d="M89.3992 157.196C91.3186 155.287 93.5878 154.467 94.4575 155.347C95.3272 156.226 94.4775 158.485 92.5582 160.395" stroke="var(--stroke-0, #010101)" stroke-width="0.599794" stroke-miterlimit="10"/>
<path id="Vector_32" d="M92.8482 165.013C94.7575 166.933 95.5772 169.202 94.6975 170.071C93.8178 170.941 91.5586 170.091 89.6493 168.172" stroke="var(--stroke-0, #010101)" stroke-width="0.599794" stroke-miterlimit="10"/>
<path id="Vector_33" d="M89.3992 168.462C89.3992 171.171 88.3896 173.36 87.15 173.36C85.9104 173.36 84.9008 171.171 84.9008 168.462" stroke="var(--stroke-0, #010101)" stroke-width="0.599794" stroke-miterlimit="10"/>
<path id="Vector_34" d="M92.7883 160.385C95.4973 160.385 97.6866 161.394 97.6866 162.634C97.6866 163.874 95.4973 164.883 92.7883 164.883" stroke="var(--stroke-0, #010101)" stroke-width="0.599794" stroke-miterlimit="10"/>
<path id="Vector_35" d="M84.9108 168.472C82.9915 170.381 80.7223 171.201 79.8526 170.321C78.9829 169.442 79.8326 167.183 81.752 165.273" stroke="var(--stroke-0, #010101)" stroke-width="0.599794" stroke-miterlimit="10"/>
<path id="Vector_36" d="M81.452 160.665C79.5427 158.745 78.723 156.476 79.6027 155.606C80.4824 154.737 82.7416 155.586 84.6509 157.506" stroke="var(--stroke-0, #010101)" stroke-width="0.599794" stroke-miterlimit="10"/>
<path id="Vector_37" d="M81.5221 165.283C78.813 165.283 76.6238 164.273 76.6238 163.034C76.6238 161.794 78.813 160.785 81.5221 160.785" stroke="var(--stroke-0, #010101)" stroke-width="0.599794" stroke-miterlimit="10"/>
<path id="Vector_38" d="M122.928 173.37C128.747 173.37 133.464 168.653 133.464 162.834C133.464 157.015 128.747 152.298 122.928 152.298C117.109 152.298 112.391 157.015 112.391 162.834C112.391 168.653 117.109 173.37 122.928 173.37Z" fill="var(--fill-0, #F3EEE4)" stroke="var(--stroke-0, #010101)" stroke-width="0.599794" stroke-miterlimit="10"/>
<path id="Vector_39" d="M122.928 168.872C126.263 168.872 128.966 166.169 128.966 162.834C128.966 159.499 126.263 156.796 122.928 156.796C119.593 156.796 116.89 159.499 116.89 162.834C116.89 166.169 119.593 168.872 122.928 168.872Z" fill="var(--fill-0, white)" stroke="var(--stroke-0, #010101)" stroke-width="0.599794" stroke-miterlimit="10"/>
<path id="Vector_40" d="M120.679 157.206C120.679 154.497 121.688 152.308 122.928 152.308C124.167 152.308 125.177 154.497 125.177 157.206" stroke="var(--stroke-0, #010101)" stroke-width="0.599794" stroke-miterlimit="10"/>
<path id="Vector_41" d="M125.177 157.196C127.096 155.287 129.366 154.467 130.235 155.347C131.105 156.226 130.255 158.485 128.336 160.395" stroke="var(--stroke-0, #010101)" stroke-width="0.599794" stroke-miterlimit="10"/>
<path id="Vector_42" d="M128.626 165.013C130.535 166.933 131.355 169.202 130.475 170.071C129.596 170.941 127.336 170.091 125.427 168.172" stroke="var(--stroke-0, #010101)" stroke-width="0.599794" stroke-miterlimit="10"/>
<path id="Vector_43" d="M125.177 168.462C125.177 171.171 124.167 173.36 122.928 173.36C121.688 173.36 120.679 171.171 120.679 168.462" stroke="var(--stroke-0, #010101)" stroke-width="0.599794" stroke-miterlimit="10"/>
<path id="Vector_44" d="M128.556 160.385C131.265 160.385 133.454 161.394 133.454 162.634C133.454 163.874 131.265 164.883 128.556 164.883" stroke="var(--stroke-0, #010101)" stroke-width="0.599794" stroke-miterlimit="10"/>
<path id="Vector_45" d="M120.679 168.472C118.759 170.381 116.49 171.201 115.62 170.321C114.751 169.442 115.6 167.183 117.52 165.273" stroke="var(--stroke-0, #010101)" stroke-width="0.599794" stroke-miterlimit="10"/>
<path id="Vector_46" d="M117.23 160.665C115.32 158.745 114.501 156.476 115.38 155.606C116.26 154.737 118.519 155.586 120.429 157.506" stroke="var(--stroke-0, #010101)" stroke-width="0.599794" stroke-miterlimit="10"/>
<path id="Vector_47" d="M117.29 165.283C114.581 165.283 112.391 164.273 112.391 163.034C112.391 161.794 114.581 160.785 117.29 160.785" stroke="var(--stroke-0, #010101)" stroke-width="0.599794" stroke-miterlimit="10"/>
<path id="Vector_48" d="M161.614 39.7263H149.339V52.152H161.614V39.7263Z" fill="var(--fill-0, #F3EEE4)" stroke="var(--stroke-0, #010101)" stroke-width="0.599794" stroke-miterlimit="10"/>
<path id="Vector_49" d="M159.475 6.74764H151.468V39.7263H159.475V6.74764Z" fill="var(--fill-0, #F3EEE4)" stroke="var(--stroke-0, #010101)" stroke-width="0.599794" stroke-miterlimit="10"/>
<path id="Vector_50" d="M155.477 42.3754C157.156 42.3754 158.516 43.7349 158.516 45.4143V52.152H152.438V45.4143C152.438 43.7349 153.797 42.3754 155.477 42.3754Z" stroke="var(--stroke-0, #010101)" stroke-width="0.599794" stroke-miterlimit="10"/>
<path id="Vector_51" d="M159.475 6.74764H151.468V9.07684H159.475V6.74764Z" fill="var(--fill-0, #F3EEE4)" stroke="var(--stroke-0, #010101)" stroke-width="0.599794" stroke-miterlimit="10"/>
<path id="Vector_52" d="M157.566 4.41852H153.377V6.74772H157.566V4.41852Z" fill="var(--fill-0, #F3EEE4)" stroke="var(--stroke-0, #010101)" stroke-width="0.599794" stroke-miterlimit="10"/>
<path id="Vector_53" d="M156.066 0.299897H154.877V4.41848H156.066V0.299897Z" fill="var(--fill-0, #F3EEE4)" stroke="var(--stroke-0, #010101)" stroke-width="0.599794" stroke-miterlimit="10"/>
<path id="Vector_54" d="M25.0015 39.7263H12.7257V52.152H25.0015V39.7263Z" fill="var(--fill-0, #F3EEE4)" stroke="var(--stroke-0, #010101)" stroke-width="0.599794" stroke-miterlimit="10"/>
<path id="Vector_55" d="M22.8623 6.74764H14.855V39.7263H22.8623V6.74764Z" fill="var(--fill-0, #F3EEE4)" stroke="var(--stroke-0, #010101)" stroke-width="0.599794" stroke-miterlimit="10"/>
<path id="Vector_56" d="M18.8635 42.3754C20.543 42.3754 21.9025 43.7349 21.9025 45.4143V52.152H15.8246V45.4143C15.8246 43.7349 17.1841 42.3754 18.8635 42.3754Z" stroke="var(--stroke-0, #010101)" stroke-width="0.599794" stroke-miterlimit="10"/>
<path id="Vector_57" d="M22.8623 6.74764H14.855V9.07684H22.8623V6.74764Z" fill="var(--fill-0, #F3EEE4)" stroke="var(--stroke-0, #010101)" stroke-width="0.599794" stroke-miterlimit="10"/>
<path id="Vector_58" d="M20.9529 4.41852H16.7643V6.74772H20.9529V4.41852Z" fill="var(--fill-0, #F3EEE4)" stroke="var(--stroke-0, #010101)" stroke-width="0.599794" stroke-miterlimit="10"/>
<path id="Vector_59" d="M19.4534 0.299897H18.2638V4.41848H19.4534V0.299897Z" fill="var(--fill-0, #F3EEE4)" stroke="var(--stroke-0, #010101)" stroke-width="0.599794" stroke-miterlimit="10"/>
</g>
</svg>
