<svg preserveAspectRatio="none" width="100%" height="100%" overflow="visible" style="display: block;" viewBox="0 0 26.7282 33.0426" fill="none" xmlns="http://www.w3.org/2000/svg">
<g id="color 5">
<path id="Vector" d="M25.5149 20.9571C24.3449 24.8127 21.9268 28.3451 18.5317 30.5181C16.0059 32.1376 12.934 32.9511 9.93644 32.6948C6.89057 32.4311 4.63589 30.9899 2.58179 28.7463C1.45259 27.5168 0.568542 25.9976 0.353103 24.3484C0.341959 24.2592 0.330815 24.1701 0.323386 24.0809C0.178522 22.4094 0.728262 20.7639 1.34858 19.2075C3.38782 14.1039 6.2814 9.34191 9.87329 5.18541C11.0656 3.80363 12.3583 2.47385 13.9221 1.53037C14.8544 0.969488 15.8945 0.557182 16.9679 0.386316C17.6923 0.271167 18.4352 0.267453 19.1595 0.404888C21.0501 0.761478 22.6771 2.05411 23.7617 3.64762C24.8463 5.24113 25.4369 7.11694 25.8344 9.00018C26.6627 12.9449 26.685 17.1014 25.5149 20.9571Z" fill="var(--fill-0, #798964)"/>
<path id="Vector_2" d="M17.2651 3.46951C15.8127 8.87035 12.7817 13.688 9.79157 18.4091C8.6438 20.2181 7.48117 22.0493 5.92109 23.5165C5.1522 24.2334 4.27187 24.8723 3.25411 25.1509C2.24005 25.4295 1.16657 25.0172 0.353103 24.3486C0.341959 24.2594 0.330815 24.1703 0.323386 24.0811C0.178522 22.4096 0.728262 20.7641 1.34858 19.2077C3.38782 14.104 6.2814 9.34209 9.87329 5.18559C11.0656 3.80381 12.3583 2.47403 13.9221 1.53055C14.8544 0.969667 15.8945 0.55736 16.9679 0.386494C17.6923 1.22225 17.5511 2.40345 17.2651 3.46951Z" fill="var(--fill-0, #556441)"/>
<path id="Vector_3" d="M2.58179 28.7464C1.39316 27.4501 0.47568 25.8343 0.323386 24.081C0.178522 22.4095 0.728262 20.764 1.34858 19.2077C3.38411 14.104 6.27768 9.34573 9.87329 5.18552C11.0656 3.80373 12.3583 2.47395 13.9221 1.53047C15.4859 0.586999 17.3654 0.0632583 19.1595 0.40499C21.0539 0.761579 22.6808 2.05422 23.7617 3.64772C24.8426 5.24123 25.4369 7.11704 25.8344 9.00399C26.6627 12.9488 26.685 17.1053 25.5149 20.9609C24.3449 24.8165 21.9268 28.349 18.5354 30.5219C16.0096 32.1414 12.9377 32.9549 9.94016 32.6949C6.94258 32.4349 4.6396 30.9937 2.5855 28.7464H2.58179Z" stroke="var(--stroke-0, #010101)" stroke-width="0.6" stroke-miterlimit="10"/>
<path id="Vector_4" d="M0.353675 24.3486C1.16715 25.0172 2.24062 25.4295 3.25839 25.1509C4.27616 24.8723 5.15649 24.2334 5.92167 23.5128C7.48546 22.0493 8.64809 20.2181 9.79215 18.4091C12.7823 13.6843 15.817 8.87035 17.2657 3.46951C17.5517 2.40345 17.6928 1.22225 16.9685 0.386494" stroke="var(--stroke-0, #010101)" stroke-width="0.6" stroke-miterlimit="10"/>
</g>
</svg>
