<svg preserveAspectRatio="none" width="100%" height="100%" overflow="visible" style="display: block;" viewBox="0 0 31.8075 28.148" fill="none" xmlns="http://www.w3.org/2000/svg">
<g id="color 2">
<path id="Vector" d="M25.2929 24.4713C21.8199 27.1903 17.2065 28.2824 12.8606 27.6992C10.7173 27.4095 8.03919 26.7371 6.27482 25.4482C4.67388 24.2744 2.98751 23.1935 1.66144 21.7226C0.996553 20.9871 0.509957 20.0325 0.353949 19.0556C0.231371 18.3016 0.305661 17.5327 0.651107 16.8455C1.06341 16.0209 1.79145 15.4117 2.4972 14.8211C5.04161 12.7113 7.58231 10.6015 10.1267 8.48793C12.9646 6.13295 15.821 3.76312 19.0266 1.93931C20.8838 0.880688 23.0122 -0.00707071 25.1109 0.401521C25.1406 0.40895 25.1703 0.412663 25.1963 0.420092C27.8448 0.984692 29.6797 3.48082 30.6009 6.03637C32.915 12.4661 30.6715 20.2591 25.2929 24.4713Z" fill="var(--fill-0, #EFBF96)"/>
<path id="Vector_2" d="M26.2587 3.04622C26.0915 4.0677 25.4935 4.96661 24.8398 5.77265C23.432 7.52216 21.727 9.01167 20.0147 10.4677C17.4517 12.6444 14.833 14.7877 11.9208 16.4703C9.00496 18.1493 6.75027 19.4122 3.38867 19.5831C2.74607 19.6165 0.435667 19.7651 0.353949 19.0556C0.231371 18.3016 0.305661 17.5327 0.651107 16.8455C1.06341 16.0209 1.79145 15.4117 2.4972 14.8211C5.04161 12.7113 7.58231 10.6015 10.1267 8.48793C12.9646 6.13295 15.821 3.76312 19.0266 1.93931C20.8838 0.880688 23.0122 -0.00707066 25.1109 0.401521C25.1406 0.40895 25.1703 0.412663 25.1963 0.420092C26.1027 0.917831 26.4258 2.02103 26.2587 3.04622Z" fill="var(--fill-0, #DD9C63)"/>
<path id="Vector_3" d="M1.66198 21.7226C0.48078 20.4114 -0.132108 18.4241 0.651645 16.8455C1.06024 16.0209 1.78827 15.4117 2.49774 14.8211C5.04215 12.7113 7.58285 10.5977 10.1273 8.48793C12.9651 6.13295 15.8216 3.76312 19.0271 1.93931C20.8844 0.880688 23.0128 -0.00707071 25.1114 0.401521C27.8044 0.925262 29.6691 3.45481 30.6014 6.03637C32.9156 12.4624 30.672 20.2554 25.2935 24.4676C21.8204 27.1866 17.207 28.2786 12.8611 27.6955C10.7179 27.4095 8.03973 26.7334 6.27536 25.4445C4.67442 24.2744 2.98433 23.1898 1.66198 21.7226Z" stroke="var(--stroke-0, #010101)" stroke-width="0.6" stroke-miterlimit="10"/>
<path id="Vector_4" d="M0.351507 19.0556C0.433225 19.765 2.74363 19.6165 3.38995 19.583C6.74783 19.4122 9.00623 18.1492 11.9184 16.4703C14.8342 14.7914 17.4492 12.6481 20.0122 10.4677C21.7246 9.01164 23.4295 7.52585 24.8373 5.77634C25.4873 4.9703 26.0891 4.07139 26.2562 3.04991C26.4234 2.02843 26.1002 0.921522 25.1902 0.423783" stroke="var(--stroke-0, #010101)" stroke-width="0.6" stroke-miterlimit="10"/>
</g>
</svg>
