<svg xmlns="http://www.w3.org/2000/svg" width="688.000000" height="1712.000000" viewBox="0 0 688.000000 1712.000000" fill="none">
<g transform="translate(0.000000,1712.000000) scale(0.100000,-0.100000)"
fill="#000000" stroke="none">
<path d="M1434 17096 c-3 -13 -38 -56 -77 -95 -131 -128 -148 -148 -158 -184
-13 -47 4 -232 31 -333 11 -43 29 -139 40 -214 27 -185 39 -244 55 -284 8 -19
21 -79 30 -133 8 -54 26 -137 40 -183 14 -47 33 -130 41 -185 9 -61 27 -124
44 -161 15 -34 31 -90 35 -125 4 -36 19 -90 35 -124 15 -33 35 -96 44 -139 9
-44 27 -99 41 -122 14 -23 30 -66 36 -96 6 -29 24 -80 39 -113 19 -39 38 -109
55 -200 14 -77 30 -153 37 -170 6 -18 13 -128 16 -271 3 -191 1 -266 -13 -365
-9 -68 -18 -126 -21 -130 -2 -3 -11 -85 -19 -180 -16 -172 -35 -281 -56 -321
-6 -11 -17 -70 -25 -131 -8 -62 -28 -152 -44 -200 -17 -48 -37 -129 -46 -180
-8 -51 -26 -117 -39 -147 -13 -30 -29 -82 -35 -115 -5 -32 -23 -84 -39 -115
-16 -30 -32 -75 -36 -99 -4 -24 -22 -76 -41 -115 -18 -39 -42 -106 -53 -148
-10 -43 -28 -92 -39 -110 -11 -18 -26 -62 -33 -98 -6 -36 -22 -90 -35 -121
-12 -30 -32 -100 -43 -155 -11 -54 -32 -132 -46 -172 -14 -40 -34 -131 -45
-202 -10 -71 -26 -142 -34 -159 -38 -73 -58 -446 -60 -1106 -2 -863 35 -2519
64 -2825 16 -182 34 -652 57 -1514 13 -499 -33 -1584 -75 -1741 -5 -22 -13
-94 -16 -160 -10 -199 -27 -345 -51 -435 -13 -47 -26 -116 -30 -155 -13 -146
-35 -285 -54 -332 -10 -26 -26 -106 -36 -178 -10 -71 -26 -150 -37 -175 -11
-25 -28 -91 -38 -147 -10 -55 -30 -128 -44 -161 -14 -33 -30 -90 -36 -128 -6
-38 -23 -91 -37 -119 -14 -27 -32 -78 -39 -113 -8 -34 -26 -86 -40 -114 -15
-29 -35 -77 -46 -108 -10 -30 -29 -71 -43 -90 -13 -19 -29 -55 -35 -80 -7 -24
-29 -73 -51 -109 -21 -36 -39 -70 -39 -77 0 -7 -11 -25 -24 -41 -13 -15 -35
-51 -49 -79 -14 -27 -33 -56 -42 -64 -9 -7 -23 -27 -32 -44 -32 -63 -184 -232
-220 -247 -20 -7 -23 -16 -23 -68 0 -55 2 -61 27 -73 20 -9 33 -29 49 -73 12
-33 30 -79 40 -102 l19 -43 3331 0 3331 0 7 97 c4 54 6 172 5 263 l-2 165
-109 108 c-59 59 -118 127 -129 150 -12 23 -32 54 -45 68 -28 30 -80 110 -123
190 -16 30 -36 61 -45 68 -9 7 -21 32 -27 55 -5 22 -25 66 -44 96 -18 30 -36
72 -40 92 -4 20 -22 60 -40 88 -20 31 -35 70 -39 102 -4 28 -21 77 -37 110
-17 33 -39 99 -49 146 -10 48 -30 115 -44 149 -14 34 -28 88 -32 120 -3 32
-21 107 -40 168 -23 74 -37 144 -44 220 -5 61 -16 133 -24 160 -26 91 -46 209
-56 340 -11 140 -33 346 -49 461 -30 216 -34 644 -36 3979 -2 3437 -2 3444
-40 3623 -8 40 -22 125 -30 189 -19 150 -33 216 -56 275 -10 26 -22 81 -28
122 -5 42 -21 100 -36 133 -14 32 -33 88 -41 126 -7 37 -24 89 -37 115 -14 26
-34 79 -47 117 -12 39 -32 88 -45 110 -12 22 -26 54 -30 72 -3 18 -17 49 -31
68 -13 20 -35 58 -48 84 -14 26 -32 53 -41 61 -9 8 -28 37 -42 64 -28 56 -38
69 -160 212 -46 53 -83 102 -83 108 0 6 -14 28 -30 48 -17 20 -37 56 -46 80
-8 24 -27 60 -41 81 -18 26 -34 74 -49 140 -12 56 -29 129 -38 162 -12 43 -16
104 -16 231 0 144 4 191 25 295 14 68 30 158 36 199 6 41 23 104 39 140 15 36
33 97 40 135 7 44 22 87 40 115 15 25 33 70 40 101 6 31 24 77 39 102 16 24
35 70 42 102 7 32 25 72 41 92 15 20 35 58 43 85 8 27 26 63 39 79 14 16 30
46 35 66 6 20 26 53 45 72 18 20 39 53 46 74 6 21 22 50 35 66 42 49 95 230
120 406 13 88 32 191 44 228 28 93 49 483 35 682 l-9 140 -47 74 c-38 61 -54
78 -99 101 -30 15 -73 37 -97 50 -39 21 -60 23 -240 27 -259 7 -422 -7 -471
-41 -20 -14 -61 -34 -93 -46 -31 -11 -61 -27 -68 -35 -6 -7 -42 -26 -80 -40
-38 -14 -74 -33 -80 -40 -7 -8 -37 -24 -68 -35 -32 -12 -79 -34 -107 -50 -27
-15 -70 -34 -95 -40 -25 -6 -54 -20 -65 -30 -24 -23 -87 -50 -113 -50 -11 0
-37 -12 -58 -27 -21 -14 -65 -36 -97 -49 -32 -13 -71 -34 -88 -48 -33 -28 -86
-42 -123 -32 -13 3 -40 29 -60 56 -20 28 -57 65 -83 83 -26 18 -64 49 -86 70
-22 20 -43 37 -47 37 -4 0 -24 13 -45 30 -21 16 -55 35 -76 40 -22 6 -55 24
-73 41 -19 16 -58 38 -88 48 -29 10 -73 30 -98 44 -25 14 -63 29 -85 33 -22 4
-64 18 -94 31 -33 14 -109 32 -190 44 -149 22 -181 31 -207 60 -16 18 -36 19
-385 19 l-369 0 -6 -24z" fill="#1b1a18"/>
<path d="M1546 17068 c-12 -42 -28 -66 -76 -113 -34 -33 -84 -85 -111 -117
l-49 -56 10 -114 c10 -114 38 -237 39 -173 0 17 -4 59 -9 93 -5 35 -5 73 -1
84 4 11 29 32 56 46 47 26 58 39 87 107 7 17 40 48 77 74 61 43 67 44 180 57
108 12 278 8 461 -11 32 -3 38 -2 20 4 -43 14 -84 38 -109 64 -14 16 -39 28
-65 32 -45 7 -106 39 -119 61 -6 11 -45 14 -192 14 l-184 0 -15 -52z" fill="#f4efe9"/>
<path d="M2315 16921 c33 -9 74 -25 92 -34 30 -16 108 -37 196 -51 27 -5 37
-12 37 -25 0 -29 31 -49 100 -67 42 -10 76 -26 95 -44 23 -22 46 -31 100 -40
84 -13 157 -51 199 -103 17 -22 43 -45 59 -53 15 -8 27 -21 27 -28 0 -8 23
-31 50 -51 28 -20 50 -40 50 -45 0 -5 15 -25 34 -44 43 -47 75 -47 124 -1 l37
34 -35 -5 c-76 -12 -162 33 -210 111 -12 19 -37 44 -57 56 -20 13 -58 41 -84
64 -72 60 -121 95 -136 95 -20 0 -74 29 -103 55 -14 12 -43 28 -65 35 -22 7
-62 25 -90 40 -27 15 -67 31 -88 34 -21 4 -59 16 -85 28 -26 11 -99 29 -162
39 -141 23 -163 23 -85 0z" fill="#f4efe9"/>
<path d="M1526 15638 c8 -24 22 -88 30 -142 8 -54 22 -111 30 -125 15 -26 15
-26 9 11 -3 21 -10 73 -15 117 -6 51 -18 98 -35 130 -31 62 -39 66 -19 9z" fill="#f4efe9"/>
<path d="M1635 15205 c4 -33 15 -74 26 -91 10 -17 29 -75 42 -130 13 -54 34
-115 45 -134 12 -19 28 -63 36 -97 7 -34 26 -86 40 -115 14 -30 36 -110 51
-188 14 -74 33 -160 42 -190 25 -88 30 -501 8 -661 -9 -68 -18 -126 -21 -130
-2 -4 -11 -87 -20 -185 -10 -110 -25 -214 -40 -269 -13 -49 -33 -144 -44 -210
-10 -66 -32 -158 -48 -205 -29 -82 -53 -193 -32 -143 5 13 27 45 49 73 37 47
61 102 61 142 0 9 11 29 24 45 12 15 28 38 35 50 18 35 99 288 111 351 15 70
27 84 96 112 59 24 68 44 34 75 -11 10 -25 35 -30 55 -6 21 -24 55 -41 76
l-31 39 3 130 c2 147 -15 349 -37 427 -35 129 -83 384 -93 503 -8 80 -10 87
-48 128 -37 40 -40 48 -47 121 -8 93 -18 122 -56 161 -21 21 -34 51 -45 100
-38 163 -81 262 -70 160z" fill="#f4efe9"/>
<path d="M2454 13176 c-4 -10 -1 -23 5 -29 14 -14 145 -16 176 -4 19 8 18 10
-10 24 -16 9 -60 18 -97 21 -57 4 -69 2 -74 -12z" fill="#f4efe9"/>
<path d="M4220 13180 c-136 -18 -127 -39 21 -47 114 -6 163 5 157 35 -3 14
-15 17 -63 18 -33 1 -85 -2 -115 -6z" fill="#f4efe9"/>
<path d="M4990 12635 c0 -29 25 -61 61 -79 l30 -15 -28 34 c-15 18 -36 44 -45
57 -16 22 -17 22 -18 3z" fill="#f4efe9"/>
<path d="M5090 12506 c0 -4 11 -29 24 -55 53 -102 105 -221 121 -276 9 -32 29
-81 45 -109 15 -28 35 -76 44 -107 9 -31 29 -73 46 -94 16 -21 30 -44 30 -52
0 -8 13 -54 30 -101 16 -48 36 -128 45 -179 8 -50 26 -120 39 -155 13 -35 26
-99 30 -143 4 -44 16 -109 27 -145 10 -36 17 -49 14 -30 -3 19 -12 88 -21 155
-14 114 -20 142 -64 295 -10 36 -19 80 -19 98 -1 19 -14 64 -30 100 -16 37
-34 94 -41 127 -7 33 -22 80 -35 105 -12 25 -32 77 -45 115 -12 39 -31 84 -42
102 -10 17 -25 54 -34 82 -8 27 -19 53 -24 56 -6 4 -22 30 -36 58 -15 29 -36
63 -49 77 -12 14 -30 39 -38 55 -9 17 -16 26 -17 21z" fill="#f4efe9"/>
<path d="M1222 10807 c-6 -48 -21 -108 -32 -134 -26 -59 -26 -88 0 -47 20 30
55 216 48 251 -2 10 -9 -22 -16 -70z" fill="#f4efe9"/>
<path d="M1134 9520 c0 -151 2 -213 3 -137 2 75 2 199 0 275 -1 75 -3 13 -3
-138z" fill="#f4efe9"/>
<path d="M1141 9025 c-6 -330 38 -2038 59 -2260 12 -132 28 -495 41 -950 6
-203 14 -433 19 -510 6 -103 7 -52 4 195 -2 184 -7 760 -9 1280 -6 1102 -15
1321 -59 1485 -23 84 -37 266 -45 565 -4 157 -9 245 -10 195z" fill="#f4efe9"/>
<path d="M5611 7292 c-7 -141 -16 -387 -21 -547 -5 -159 -14 -355 -20 -435
-13 -190 -13 -1436 0 -1705 8 -148 17 -233 31 -289 12 -46 23 -138 28 -225 5
-82 6 647 4 1654 -3 990 -6 1801 -7 1802 -1 1 -8 -113 -15 -255z" fill="#f4efe9"/>
<path d="M1242 4265 c-4 -216 -40 -689 -57 -740 -4 -13 -1 -11 8 5 35 61 60
359 55 670 -3 172 -4 183 -6 65z" fill="#f4efe9"/>
<path d="M5645 3675 c6 -317 23 -514 48 -549 13 -18 4 98 -22 294 -7 47 -16
177 -21 290 l-9 205 4 -240z" fill="#f4efe9"/>
<path d="M6195 1143 c8 -53 28 -98 49 -110 8 -4 26 -33 40 -63 31 -66 73 -141
109 -194 15 -21 27 -47 27 -56 0 -9 12 -35 26 -56 15 -21 33 -59 40 -85 15
-51 30 -67 90 -97 54 -27 95 -91 104 -162 6 -43 7 -32 6 52 l-1 107 -98 102
c-54 56 -108 121 -119 143 -11 23 -31 53 -44 67 -27 29 -79 109 -120 184 -15
28 -37 62 -50 77 -12 15 -30 53 -39 83 -19 68 -30 71 -20 8z" fill="#f4efe9"/>
<path d="M6681 208 c-2 -40 -31 -43 -401 -44 -195 0 -578 -7 -850 -15 -631
-18 -3031 -19 -3730 -1 -874 22 -1244 25 -1345 12 -107 -15 -139 -10 -159 28
-27 49 -17 -2 13 -64 16 -34 32 -75 36 -93 l7 -32 21 27 c20 26 23 26 91 20
103 -10 873 -11 2756 -2 1100 5 1899 4 2355 -4 380 -6 713 -10 740 -10 28 0
143 2 257 3 l207 2 6 82 c4 45 5 87 2 95 -4 9 -6 8 -6 -4z" fill="#f4efe9"/>
</g>
</svg>
