<svg xmlns="http://www.w3.org/2000/svg" width="632.000000" height="1760.000000" viewBox="0 0 632.000000 1760.000000" fill="none">
<g transform="translate(0.000000,1760.000000) scale(0.100000,-0.100000)"
fill="#000000" stroke="none">
<path d="M2283 17571 c-8 -22 -27 -38 -74 -61 -129 -63 -188 -95 -208 -114
-11 -10 -42 -29 -68 -43 -85 -42 -159 -87 -192 -115 -17 -15 -50 -32 -71 -38
-21 -6 -52 -22 -69 -35 -16 -14 -45 -32 -64 -40 -19 -8 -48 -26 -65 -40 -17
-14 -50 -32 -73 -40 -24 -9 -53 -24 -64 -35 -22 -21 -107 -72 -207 -124 -36
-20 -69 -40 -73 -46 -4 -6 -34 -24 -68 -41 -93 -45 -173 -92 -199 -116 -13
-12 -44 -29 -68 -38 -25 -9 -56 -27 -70 -40 -14 -13 -46 -33 -71 -44 -26 -10
-50 -25 -54 -31 -4 -7 -33 -23 -63 -37 -31 -13 -69 -35 -84 -48 -16 -14 -49
-33 -73 -44 -24 -10 -48 -29 -55 -40 -7 -14 -16 -181 -25 -474 -8 -249 -19
-509 -26 -579 -6 -70 -8 -143 -5 -162 4 -18 2 -54 -3 -78 -5 -23 -14 -248 -21
-498 -24 -998 -41 -1558 -50 -1620 -6 -36 -9 -92 -8 -125 1 -33 -3 -175 -10
-315 -11 -254 -16 -465 -27 -1200 -4 -212 -10 -407 -16 -433 -5 -26 -9 -92 -9
-147 0 -54 -7 -130 -15 -169 -9 -45 -12 -93 -8 -131 4 -46 2 -65 -11 -84 -14
-23 -16 -80 -16 -546 l0 -520 463 0 c437 0 465 -1 480 -18 15 -17 17 -69 17
-544 0 -586 -5 -543 71 -567 20 -6 51 -23 70 -37 18 -13 52 -30 74 -37 24 -7
61 -32 93 -63 l52 -50 -6 -103 c-4 -61 -3 -128 4 -169 12 -73 28 -1093 42
-2687 13 -1412 28 -2469 40 -2630 5 -77 14 -518 20 -980 16 -1268 17 -1292 38
-1334 26 -49 44 -58 86 -43 28 10 162 13 592 11 l555 -1 36 33 c19 19 38 41
43 49 5 9 13 139 20 290 20 491 40 852 55 990 8 74 19 248 25 385 22 501 41
843 55 975 8 74 19 248 25 385 21 498 41 843 55 975 13 127 19 240 46 845 5
138 17 321 25 408 28 311 34 396 44 672 22 586 38 807 65 873 17 39 28 40 45
5 18 -36 27 -140 40 -463 10 -271 16 -353 50 -710 11 -113 25 -306 31 -430 10
-214 41 -656 59 -840 5 -47 15 -229 24 -405 13 -270 30 -481 51 -655 13 -108
27 -326 36 -555 11 -277 18 -384 43 -615 20 -186 36 -446 36 -580 0 -58 4
-148 10 -200 5 -52 15 -151 21 -220 6 -69 14 -163 19 -210 4 -47 13 -179 19
-295 6 -115 16 -302 22 -415 12 -202 13 -205 39 -232 36 -35 87 -44 179 -29
42 6 164 16 271 22 107 5 240 14 295 20 55 5 147 14 205 19 58 6 129 15 159
20 30 6 83 10 118 10 70 0 118 18 128 49 3 11 5 46 4 78 -2 32 3 929 10 1993
7 1064 16 2834 19 3933 l7 1998 75 71 c41 39 104 94 140 123 36 28 91 76 123
106 l57 55 0 345 c0 325 1 347 19 363 16 15 52 17 349 16 292 -1 335 1 367 16
50 23 58 43 34 83 -16 26 -19 50 -19 139 0 60 -4 133 -9 163 -5 30 -12 173
-15 319 -15 741 -27 1133 -35 1210 -5 47 -9 110 -9 140 0 30 -7 190 -15 355
-9 165 -21 498 -27 740 -6 242 -16 521 -21 620 -6 99 -12 218 -13 265 -2 47
-8 164 -14 260 -6 96 -15 344 -21 550 -19 611 -43 1274 -47 1282 -5 8 -21 333
-34 670 -5 151 -13 255 -20 268 -6 12 -30 30 -53 40 -23 11 -58 31 -77 45 -19
14 -51 30 -71 35 -20 6 -54 22 -75 37 -22 14 -61 34 -88 44 -27 10 -66 30 -86
44 -21 14 -53 30 -71 35 -19 5 -59 25 -89 45 -30 19 -59 35 -66 35 -6 0 -31
14 -55 32 -23 17 -70 42 -103 55 -33 12 -69 32 -81 43 -11 10 -40 26 -64 35
-23 8 -56 26 -72 40 -17 13 -53 31 -80 39 -28 9 -64 27 -80 40 -17 14 -53 32
-80 40 -28 9 -64 27 -80 41 -17 13 -54 32 -84 40 -29 9 -59 23 -66 31 -7 9
-38 28 -69 44 -31 16 -62 36 -70 45 -8 10 -37 27 -65 39 -27 13 -57 31 -65 41
-8 10 -35 26 -60 37 -25 11 -56 30 -70 42 -23 21 -43 33 -179 109 -29 16 -61
43 -70 58 l-16 29 -755 0 -756 0 -11 -29z" fill="#1b1a18"/>
<path d="M2401 17555 c-15 -60 -63 -112 -136 -147 -133 -65 -185 -94 -207
-114 -13 -12 -43 -31 -68 -43 -73 -35 -157 -85 -182 -108 -28 -25 -81 -53
-102 -53 -8 0 -27 -11 -43 -24 -15 -13 -48 -33 -73 -46 -25 -13 -57 -33 -72
-46 -15 -12 -44 -28 -65 -34 -21 -7 -47 -21 -58 -31 -23 -20 -110 -72 -207
-123 -36 -20 -70 -41 -73 -47 -4 -6 -35 -24 -69 -40 -89 -43 -168 -90 -205
-121 -17 -15 -50 -33 -71 -39 -22 -7 -47 -20 -55 -29 -14 -16 -12 -16 41 -8
64 10 88 20 125 54 24 23 130 53 187 54 31 0 80 26 118 62 20 18 53 35 90 44
82 21 176 60 231 94 26 17 55 30 64 30 9 0 39 16 67 35 35 24 71 38 119 46 62
12 72 17 118 64 37 38 62 54 95 63 25 6 69 29 99 51 40 30 73 44 127 57 41 9
90 27 110 40 56 38 85 32 137 -28 l44 -51 18 26 c10 15 24 72 32 129 8 57 22
115 29 130 17 34 54 53 116 62 72 11 110 -1 172 -52 84 -71 265 -159 347 -169
40 -5 59 0 116 26 37 18 84 47 103 65 19 19 51 39 70 45 19 6 69 31 110 56 96
58 127 59 155 5 8 -16 32 -48 53 -73 21 -24 44 -58 51 -75 17 -41 41 -47 96
-27 27 11 54 15 71 11 25 -7 23 -4 -13 26 -23 18 -79 53 -124 78 -106 57 -173
121 -188 178 l-12 42 -638 0 -639 0 -11 -45z" fill="#f4efe9"/>
<path d="M4201 17167 c15 -12 34 -37 43 -55 11 -21 31 -39 54 -49 20 -8 48
-24 62 -35 14 -11 72 -42 130 -69 57 -27 126 -63 152 -80 30 -20 79 -38 133
-50 47 -10 98 -27 113 -37 30 -21 184 -92 198 -92 5 1 -4 8 -21 17 -16 8 -39
23 -50 33 -11 9 -41 24 -66 34 -26 9 -55 26 -65 37 -9 11 -41 26 -70 35 -29 8
-68 28 -88 43 -20 16 -55 33 -79 39 -24 6 -60 24 -80 40 -20 16 -57 35 -81 41
-24 6 -57 22 -73 35 -15 13 -51 35 -79 49 -27 14 -56 33 -64 42 -12 15 -73 46
-89 45 -3 -1 6 -11 20 -23z" fill="#f4efe9"/>
<path d="M2170 16943 c-8 -3 -32 -21 -52 -39 -21 -19 -50 -36 -65 -39 -16 -4
-38 -8 -50 -11 -33 -6 -28 -28 17 -73 22 -22 40 -44 40 -49 0 -6 16 -29 35
-52 36 -43 45 -80 23 -97 -7 -5 -34 -17 -60 -27 -31 -11 -60 -32 -82 -59 l-35
-42 -106 -6 c-138 -7 -143 -12 -126 -111 15 -84 34 -134 61 -163 32 -35 117
-170 128 -206 6 -19 18 -67 26 -107 9 -43 28 -94 46 -124 23 -38 35 -73 44
-138 14 -93 25 -121 62 -160 13 -14 33 -52 44 -85 11 -33 38 -89 59 -125 22
-36 44 -89 50 -118 6 -28 26 -82 45 -120 18 -37 41 -100 50 -141 10 -43 32
-99 51 -130 21 -35 40 -87 51 -136 24 -111 39 -152 73 -190 21 -24 30 -48 36
-90 7 -63 17 -91 51 -145 12 -19 29 -70 38 -112 11 -48 27 -91 46 -116 27 -38
35 -60 81 -220 11 -40 38 -108 60 -149 21 -42 46 -108 54 -147 14 -68 102
-332 123 -373 59 -110 99 15 87 268 l-7 137 -29 6 c-41 8 -59 50 -59 136 0 67
-2 74 -36 115 -51 62 -66 120 -58 225 6 81 5 87 -20 120 -54 74 -66 96 -77
149 -6 31 -9 80 -6 110 9 81 -8 140 -54 195 -53 65 -72 134 -71 258 l1 100
-38 41 c-21 23 -44 53 -50 65 -7 13 -19 103 -26 200 -15 185 -19 205 -56 287
-19 42 -23 76 -30 220 -9 193 -28 313 -60 383 -21 43 -23 68 -30 322 -6 234
-10 286 -28 350 -16 56 -19 90 -15 132 9 78 -1 88 -80 87 -33 0 -68 -3 -76 -6z" fill="#f4efe9"/>
<path d="M4103 16938 c-12 -6 -24 -16 -26 -22 -3 -6 -10 -101 -17 -211 -12
-184 -15 -203 -37 -232 -13 -18 -28 -58 -34 -90 -6 -32 -26 -88 -44 -124 -29
-57 -37 -89 -54 -217 -11 -86 -28 -171 -40 -199 -26 -61 -38 -115 -61 -285
-11 -76 -33 -177 -50 -228 -24 -74 -30 -110 -30 -178 0 -165 -19 -311 -51
-384 -38 -88 -49 -148 -49 -277 -1 -179 -26 -290 -75 -331 -40 -33 -50 -71
-51 -205 -2 -173 -16 -240 -65 -305 -37 -49 -39 -56 -39 -124 0 -84 -12 -158
-45 -271 -28 -99 -38 -175 -26 -195 8 -12 11 -11 17 5 4 11 22 45 40 75 20 34
41 91 54 147 12 51 39 126 60 168 29 57 41 94 46 147 6 58 13 80 46 128 21 32
47 84 58 116 11 31 33 78 50 103 16 27 38 83 49 131 12 48 34 106 52 134 22
36 35 75 44 132 8 48 28 112 48 155 19 41 42 103 51 139 10 36 33 91 52 122
19 32 42 81 51 110 8 29 24 65 34 80 47 65 81 158 88 237 6 74 9 81 47 123 40
43 41 47 48 136 7 87 9 94 46 138 24 30 43 66 51 98 7 28 24 74 39 101 16 28
36 77 45 110 9 33 25 75 35 95 9 19 23 59 30 88 9 40 18 56 39 67 43 22 51 38
66 129 8 47 19 94 24 105 21 38 12 51 -46 77 -122 53 -190 82 -236 99 -69 25
-79 51 -38 107 36 50 51 130 32 166 -6 12 -26 29 -44 38 -18 9 -49 32 -70 50
-39 35 -73 42 -114 22z" fill="#f4efe9"/>
<path d="M3105 16814 c-16 -8 -43 -26 -60 -38 -16 -13 -46 -31 -65 -41 -19
-10 -54 -35 -77 -56 -50 -46 -108 -63 -184 -55 -108 11 -131 24 -164 94 -16
34 -33 62 -39 62 -5 0 -6 -31 -2 -77 4 -43 11 -172 15 -288 8 -203 9 -213 39
-286 35 -88 55 -208 51 -324 -4 -161 -3 -166 61 -294 68 -135 90 -213 90 -320
0 -61 8 -97 45 -208 39 -117 45 -144 45 -221 1 -107 11 -155 57 -257 34 -73
36 -86 33 -155 -11 -207 2 -264 64 -294 48 -23 75 -20 137 14 61 33 86 37 115
15 44 -33 50 -21 70 125 10 77 21 118 41 155 27 49 28 54 29 225 1 215 6 253
55 408 29 90 41 153 49 240 13 145 28 206 74 301 35 73 35 75 29 170 -8 127
14 233 61 294 17 23 36 51 40 62 5 11 11 100 15 197 6 164 8 180 29 205 46 57
64 111 66 197 1 93 -7 124 -28 107 -8 -6 -19 -32 -25 -57 -7 -25 -23 -57 -37
-71 -21 -21 -32 -24 -62 -19 -20 3 -65 6 -100 6 l-64 0 -57 60 c-32 33 -63 60
-70 60 -6 0 -29 17 -49 38 -37 37 -39 38 -117 40 -56 1 -89 -3 -110 -14z m173
-449 c31 -29 41 -148 17 -195 -28 -53 -132 -64 -190 -18 -56 44 -18 184 59
219 43 20 90 18 114 -6z m-9 -1131 c11 -14 23 -42 27 -61 9 -47 -22 -122 -58
-142 -24 -14 -31 -13 -77 9 -71 33 -96 62 -95 112 2 47 22 71 79 92 63 23 100
20 124 -10z" fill="#f4efe9"/>
<path d="M629 16457 c-14 -7 -34 -19 -44 -27 -9 -8 -43 -28 -75 -45 -31 -16
-78 -43 -103 -60 -44 -29 -46 -32 -51 -90 -3 -33 -10 -238 -16 -455 -6 -217
-16 -435 -22 -485 -5 -49 -8 -112 -4 -140 3 -27 1 -67 -3 -88 -5 -21 -14 -246
-20 -500 -25 -1004 -42 -1555 -51 -1617 -6 -36 -9 -92 -8 -125 1 -33 -3 -172
-10 -310 -6 -137 -13 -412 -16 -610 -4 -388 2 -307 23 295 10 288 21 423 62
820 19 176 22 294 29 1195 9 1037 10 1068 56 1315 14 74 29 192 35 261 7 99
16 150 45 240 19 63 44 146 55 184 11 39 29 84 40 100 10 17 27 43 36 59 10
16 31 44 47 62 15 19 26 34 25 33 -2 0 -16 -6 -30 -12z" fill="#f4efe9"/>
<path d="M5789 16341 c29 -57 41 -97 41 -134 0 -40 10 -82 45 -197 13 -43 13
-40 14 91 1 179 -1 187 -60 225 -30 20 -45 26 -40 15z" fill="#f4efe9"/>
<path d="M4476 15421 c-12 -14 -17 -32 -14 -63 3 -43 2 -43 -44 -66 -27 -12
-48 -27 -48 -32 0 -32 105 -29 170 5 19 10 68 21 109 26 80 9 120 31 91 49 -8
6 -31 14 -50 20 -19 5 -57 25 -84 45 -57 40 -103 46 -130 16z" fill="#f4efe9"/>
<path d="M3091 14006 c-6 -7 -16 -39 -22 -71 -14 -78 2 -142 52 -202 21 -26
41 -59 44 -73 3 -15 15 -37 27 -50 l21 -22 21 21 c17 18 21 32 19 84 -1 50 4
75 29 132 33 75 45 141 29 164 -8 13 -15 12 -45 -4 -38 -21 -37 -21 -128 19
-30 13 -38 13 -47 2z" fill="#f4efe9"/>
<path d="M1160 11558 c-7 -18 -16 -118 -21 -223 -5 -104 -13 -294 -19 -420 -6
-127 -10 -412 -9 -635 1 -367 -1 -416 -19 -520 -12 -63 -28 -173 -37 -244 -9
-72 -21 -139 -27 -149 -7 -15 -5 -24 11 -41 12 -13 26 -38 31 -57 6 -20 10
-234 10 -521 l0 -488 39 -20 c22 -11 42 -24 45 -29 4 -5 29 -17 57 -26 32 -11
71 -36 109 -72 l60 -55 0 79 0 79 -55 54 c-81 80 -134 165 -146 236 -19 110
-1 2465 21 2804 9 133 9 188 0 228 -13 60 -32 68 -50 20z" fill="#f4efe9"/>
<path d="M188 11070 c-11 -296 -23 -494 -33 -510 -4 -7 -9 -61 -9 -119 -1 -89
-5 -112 -23 -142 -19 -34 -22 -57 -28 -284 l-8 -248 -34 -68 c-19 -38 -39 -69
-44 -69 -17 0 -9 -32 16 -62 14 -16 25 -40 25 -53 0 -13 -11 -32 -25 -43 -15
-12 -25 -30 -25 -46 0 -25 2 -26 66 -26 52 0 64 3 56 13 -11 14 1 262 17 355
6 31 15 86 21 122 15 97 41 892 38 1150 l-3 225 -7 -195z" fill="#f4efe9"/>
<path d="M5154 11203 c-10 -50 -5 -772 7 -842 13 -80 25 -83 38 -9 18 106 15
694 -5 801 -9 48 -20 87 -24 87 -4 0 -11 -17 -16 -37z" fill="#f4efe9"/>
<path d="M5330 9345 c-13 -16 -11 -38 15 -125 14 -50 37 -232 38 -305 0 -39
-39 -277 -55 -333 -10 -34 -23 -51 -63 -80 -27 -20 -63 -43 -79 -52 -16 -8
-35 -30 -42 -48 l-14 -33 28 23 c15 13 52 43 81 68 29 25 77 65 105 89 l51 45
5 342 c5 337 5 343 28 373 l23 31 -26 10 c-38 14 -81 12 -95 -5z" fill="#f4efe9"/>
<path d="M3201 7646 c-18 -21 -51 -155 -44 -175 10 -27 35 -51 54 -51 32 0 49
39 49 115 0 95 -29 148 -59 111z" fill="#f4efe9"/>
<path d="M3073 7060 c-25 -62 -69 -318 -84 -479 -5 -58 -14 -214 -19 -346 -6
-132 -15 -298 -20 -370 -6 -71 -15 -299 -20 -505 -9 -355 -17 -469 -39 -585
-33 -170 -36 -309 -13 -585 l7 -85 6 60 c3 33 12 177 18 320 25 563 42 856 56
985 14 131 23 296 45 820 18 433 34 586 71 669 20 46 23 74 9 106 -7 19 -8 19
-17 -5z" fill="#f4efe9"/>
<path d="M4986 5583 c-6 -192 -21 -447 -37 -643 -11 -137 -7 -458 11 -860 10
-237 11 -2510 1 -3205 -6 -429 -9 -475 -27 -525 l-19 -55 -85 -23 c-56 -15
-70 -21 -40 -17 25 3 75 8 111 11 65 7 65 7 66 38 2 511 24 4137 28 4684 3
419 4 762 1 762 -2 0 -7 -75 -10 -167z" fill="#f4efe9"/>
<path d="M1484 4890 c0 -451 1 -507 5 -258 3 174 3 432 0 575 -3 171 -5 65 -5
-317z" fill="#f4efe9"/>
<path d="M2647 559 c-15 -57 -27 -126 -28 -154 0 -51 -20 -162 -33 -183 -11
-18 -58 -40 -106 -51 -32 -7 -84 -4 -199 10 -139 17 -179 19 -371 10 -119 -6
-227 -8 -240 -5 -65 15 -92 28 -100 48 -7 18 -9 16 -10 -14 0 -19 -3 -44 -6
-55 -5 -20 -1 -20 547 -18 303 1 553 3 554 5 6 5 27 461 24 487 -3 15 -15 -15
-32 -80z" fill="#f4efe9"/>
<path d="M4280 224 l-145 -23 125 5 c69 3 170 10 225 16 55 6 134 14 175 18
63 6 49 7 -80 7 -116 1 -191 -5 -300 -23z" fill="#f4efe9"/>
</g>
</svg>
